G04 ================== begin FILE IDENTIFICATION RECORD ==================*
G04 Layout Name:  D:/Misc/MBseq/worklib/mbseq/physical/mbseq36.brd*
G04 Film Name:    BOTTOM*
G04 File Format:  Gerber RS274X*
G04 File Origin:  Cadence Allegro 16.3-S021*
G04 Origin Date:  Fri Aug 31 14:22:15 2012*
G04 *
G04 Layer:  ETCH/BOTTOM*
G04 Layer:  PIN/BOTTOM*
G04 Layer:  VIA CLASS/BOTTOM*
G04 *
G04 Offset:    (0.000 0.000)*
G04 Mirror:    No*
G04 Mode:      Positive*
G04 Rotation:  0*
G04 FullContactRelief:  No*
G04 UndefLineWidth:     0.000*
G04 ================== end FILE IDENTIFICATION RECORD ====================*
%FSLAX53Y53*MOIN*%
%IR0*IPPOS*OFA0.00000B0.00000*MIA0B0*SFA1.00000B1.00000*%
%ADD12C,.135*%
%ADD10C,.155*%
%ADD14C,.08*%
%ADD11C,.075*%
%ADD16C,.076*%
%ADD15R,.08X.08*%
%ADD13C,.089*%
G75*
%LPD*%
G75*
G54D10*
X133Y150D03*
Y6850D03*
X414Y650D03*
Y2650D03*
Y4650D03*
X585Y150D03*
X566Y1250D03*
Y2234D03*
X585Y5350D03*
Y6850D03*
X2585Y150D03*
Y5350D03*
Y6850D03*
X4585Y150D03*
Y5350D03*
Y6850D03*
X6585Y150D03*
Y5350D03*
Y6850D03*
X6944Y650D03*
X6792Y1250D03*
Y2234D03*
X6944Y2650D03*
Y4650D03*
G54D11*
G01X96Y3322D02*
X488D01*
G01X96Y3522D02*
X381D01*
G01X1140Y3872D02*
X477D01*
Y3422D01*
X96D01*
G01X1140Y1722D02*
X888D01*
G01X1140Y1522D02*
X885D01*
G01X1140Y2647D02*
X885D01*
G01X1140Y2847D02*
X888D01*
G01X1140Y3772D02*
X976D01*
G01X1140Y3972D02*
X888D01*
G01X1140Y1622D02*
X1866D01*
G01X1140Y2747D02*
X1866D01*
G01X1140Y3872D02*
X1866D01*
G01X1548Y1722D02*
X1866D01*
G01Y2847D02*
X1548D01*
G01X1866Y3772D02*
X1586D01*
G01X1866Y3972D02*
X1408D01*
G01X1866Y1622D02*
X2592D01*
G01X1866Y2647D02*
X2114D01*
G01X1866Y2747D02*
X2592D01*
G01X1866Y3872D02*
X2592D01*
G01X2112Y3324D02*
Y3236D01*
X2112Y3087D01*
G01X2592Y1722D02*
X2246D01*
G01X2592Y2847D02*
X2246D01*
G01X2592Y3972D02*
X2244D01*
G01X2592Y1522D02*
X2840D01*
G01X2592Y1622D02*
X3318D01*
G01X2592Y2647D02*
X2840D01*
G01X2592Y2747D02*
X3318D01*
G01X2592Y3772D02*
X2879D01*
G01X2592Y3872D02*
X3318D01*
G01Y1722D02*
X3060D01*
G01X3318Y2847D02*
X3060D01*
G01X3318Y3972D02*
X3030D01*
G01X3318Y1522D02*
X3633D01*
G01X3318Y1622D02*
X4044D01*
G01X3318Y2647D02*
X3633D01*
G01X3318Y2747D02*
X4044D01*
G01X3318Y3772D02*
X3613D01*
G01X3318Y3872D02*
X4044D01*
G01Y1722D02*
X3766D01*
G01X4044Y2847D02*
X3766D01*
G01X4044Y3972D02*
X3766D01*
G01X4308Y1522D02*
X4044D01*
G01Y1622D02*
X4770D01*
G01X4044Y2647D02*
X4308D01*
G01X4770Y2747D02*
X4044D01*
G01Y3772D02*
X4308D01*
G01X4044Y3872D02*
X4770D01*
G01X4770Y1722D02*
X4490D01*
G01X4770Y2847D02*
X4490D01*
G01X4770Y3972D02*
X4490D01*
G01X5042Y1522D02*
X4770D01*
G01X4770Y1722D02*
G01X4770Y1622D02*
X5496D01*
G01X4770Y2647D02*
X5042D01*
G01X4770Y2747D02*
X5496D01*
G01X4770Y3772D02*
X5042D01*
G01X4770Y3872D02*
X5496D01*
G01X5780Y1522D02*
X5496D01*
G01Y1722D02*
X5244D01*
G01X5496D02*
G01X5496Y1622D02*
X6222D01*
G01X5496Y2647D02*
X5780D01*
G01X5496Y2847D02*
X5244D01*
G01X5496Y2747D02*
X6222D01*
G01X5496Y3772D02*
X5780D01*
G01X5496Y3872D02*
X6222D01*
G01X5496Y3972D02*
X5244D01*
G01X6222Y1722D02*
X5966D01*
G01X6222Y2847D02*
X5966D01*
G01X6222Y3972D02*
X5966D01*
G01X6222Y1522D02*
X6548D01*
G01X6222Y1722D02*
G01X6679Y2747D02*
X6695D01*
Y2487D01*
X6629D01*
Y1622D01*
X6222D01*
G01X6222Y2647D02*
X6548D01*
G01X6679Y2747D02*
X6222D01*
G01Y3772D02*
X6548D01*
G01X6222Y3872D02*
X6679D01*
Y2747D01*
G01X6468Y3324D02*
Y3236D01*
X6468Y3081D01*
X96Y3322D03*
Y3522D03*
Y3422D03*
X381Y3522D03*
X488Y3322D03*
X888Y1722D03*
X885Y1522D03*
Y2647D03*
X888Y2847D03*
X976Y3772D03*
X888Y3972D03*
X1140Y1722D03*
Y1522D03*
Y1622D03*
Y2647D03*
Y2847D03*
Y2747D03*
Y3772D03*
Y3872D03*
Y3972D03*
X1548Y1722D03*
Y2847D03*
X1586Y3772D03*
X1408Y3972D03*
X1866Y1722D03*
Y1522D03*
Y1622D03*
Y2647D03*
Y2847D03*
Y2747D03*
Y3772D03*
Y3872D03*
Y3972D03*
X2114Y2647D03*
X2246Y1722D03*
Y2847D03*
X2244Y3972D03*
X2592Y1722D03*
Y1522D03*
Y1622D03*
Y2647D03*
Y2847D03*
Y2747D03*
Y3772D03*
Y3872D03*
Y3972D03*
X2840Y1522D03*
X3060Y1722D03*
X2840Y2647D03*
X3060Y2847D03*
X2879Y3772D03*
X3030Y3972D03*
X3318Y1722D03*
Y1522D03*
Y1622D03*
Y2647D03*
Y2847D03*
Y2747D03*
Y3772D03*
Y3872D03*
Y3972D03*
X3633Y1522D03*
Y2647D03*
X3613Y3772D03*
X3766Y1722D03*
Y2847D03*
Y3972D03*
X4044Y1522D03*
Y1722D03*
Y1622D03*
Y2647D03*
Y2847D03*
Y2747D03*
Y3772D03*
Y3872D03*
Y3972D03*
X4308Y1522D03*
X4490Y1722D03*
X4308Y2647D03*
X4490Y2847D03*
X4308Y3772D03*
X4490Y3972D03*
X4770Y1522D03*
Y1722D03*
Y1622D03*
X4770Y2647D03*
Y2847D03*
Y2747D03*
Y3772D03*
Y3872D03*
Y3972D03*
X5042Y1522D03*
Y2647D03*
Y3772D03*
X5496Y1522D03*
Y1722D03*
Y1622D03*
X5244Y1722D03*
X5496Y2647D03*
Y2847D03*
Y2747D03*
X5244Y2847D03*
X5496Y3772D03*
Y3872D03*
Y3972D03*
X5244D03*
X5780Y1522D03*
Y2647D03*
Y3772D03*
X5966Y1722D03*
Y2847D03*
Y3972D03*
X6222Y1522D03*
Y1722D03*
Y1622D03*
X6222Y2647D03*
Y2847D03*
Y2747D03*
Y3772D03*
Y3872D03*
Y3972D03*
X6548Y1522D03*
Y2647D03*
Y3772D03*
G54D12*
X138Y5573D03*
Y6617D03*
X7028Y5573D03*
Y6617D03*
G54D13*
X575Y3707D03*
Y4857D03*
X6825Y3707D03*
Y4857D03*
G54D14*
G01X696Y2399D02*
Y1270D01*
X894D01*
G01X896Y3524D02*
X696D01*
Y2399D01*
G01X902D02*
X696D01*
G01X1387Y1074D02*
Y832D01*
G01X1620Y1270D02*
X1384D01*
G01X1387Y2199D02*
Y1940D01*
X1386D01*
G01X1620Y2395D02*
X1382D01*
G01X1387Y3324D02*
Y3073D01*
X1386D01*
G01X1620Y3520D02*
X1382D01*
G01X2112Y1074D02*
Y833D01*
G01X2346Y1270D02*
X2112D01*
G01X2112Y2199D02*
Y2109D01*
X2112Y1937D01*
G01X2346Y2395D02*
X2112D01*
G01X2346Y3520D02*
X2110D01*
G01X2838Y1074D02*
Y984D01*
X2839D01*
Y818D01*
G01X3072Y1270D02*
X2836D01*
G01X2838Y2199D02*
Y1937D01*
G01X3072Y2395D02*
X2836D01*
G01X2838Y3324D02*
Y3081D01*
G01X3072Y3520D02*
X2836D01*
G01X3564Y1074D02*
Y860D01*
G01X3798Y1270D02*
X3562D01*
G01X3564Y2199D02*
Y2109D01*
X3564Y1956D01*
G01X3798Y2395D02*
X3564D01*
G01X3564Y3324D02*
Y3234D01*
X3564Y3084D01*
G01X3798Y3520D02*
X3560D01*
G01X4290Y1074D02*
Y984D01*
X4290Y856D01*
G01X4524Y1270D02*
X4286D01*
G01X4290Y2199D02*
Y1934D01*
G01X4524Y2395D02*
X4286D01*
G01X4290Y3324D02*
Y3100D01*
G01X4524Y3520D02*
X4290D01*
G01X5016Y1074D02*
Y851D01*
G01X5250Y1270D02*
X5016D01*
G01X5016Y2199D02*
Y2109D01*
X5016Y1943D01*
G01X5250Y2395D02*
X5014D01*
G01X5016Y3324D02*
Y3234D01*
X5012D01*
Y3084D01*
G01X5250Y3520D02*
X5014D01*
G01X5742Y1074D02*
Y984D01*
X5742Y859D01*
G01X5742Y2199D02*
Y1951D01*
G01Y3324D02*
Y3062D01*
G01X5976Y3520D02*
X5738D01*
G01X6468Y1074D02*
Y984D01*
X6468Y831D01*
G01X6468Y2199D02*
Y2109D01*
X6468Y1956D01*
X894Y1074D03*
Y2199D03*
Y3324D03*
X1387Y832D03*
Y1074D03*
Y1270D03*
X1386Y1940D03*
X1387Y2199D03*
Y2395D03*
X1386Y3073D03*
X1387Y3520D03*
Y3324D03*
X1620Y1074D03*
Y2199D03*
Y3324D03*
X2112Y1074D03*
Y1270D03*
X2112Y1937D03*
X2112Y2199D03*
Y2395D03*
X2112Y3087D03*
X2112Y3324D03*
Y3520D03*
X2346Y1074D03*
Y2199D03*
Y3324D03*
X2838Y1074D03*
X3072D03*
X2838Y1270D03*
X2838Y1937D03*
X2838Y2199D03*
X3072D03*
X2838Y2395D03*
X2838Y3081D03*
X2838Y3324D03*
Y3520D03*
X3072Y3324D03*
X3564Y1074D03*
Y1270D03*
X3564Y1956D03*
X3564Y2199D03*
Y2395D03*
X3564Y3084D03*
X3564Y3324D03*
Y3520D03*
X3798Y1074D03*
Y2199D03*
Y3324D03*
X4290Y1074D03*
Y1270D03*
X4290Y1934D03*
X4290Y2199D03*
Y2395D03*
X4290Y3100D03*
X4290Y3324D03*
Y3520D03*
X4524Y1074D03*
Y2199D03*
Y3324D03*
X5016Y1074D03*
Y1270D03*
X5016Y1943D03*
X5016Y2199D03*
Y2395D03*
X5012Y3084D03*
X5016Y3324D03*
Y3520D03*
X5250Y1074D03*
Y2199D03*
Y3324D03*
X5742Y1074D03*
Y1270D03*
X5742Y1951D03*
X5742Y2199D03*
Y2395D03*
X5742Y3062D03*
X5742Y3324D03*
Y3520D03*
X5976Y1074D03*
Y2199D03*
Y3324D03*
X6468Y831D03*
X6468Y1074D03*
Y1270D03*
X6468Y1956D03*
X6468Y2199D03*
Y2395D03*
X6468Y3081D03*
X6468Y3324D03*
Y3520D03*
G54D15*
X894Y1270D03*
Y2395D03*
Y3520D03*
X1620Y1270D03*
Y2395D03*
Y3520D03*
X2346Y1270D03*
Y2395D03*
Y3520D03*
X3072Y1270D03*
Y2395D03*
Y3520D03*
X3798Y1270D03*
Y2395D03*
Y3520D03*
X4524Y1270D03*
Y2395D03*
Y3520D03*
X5250Y1270D03*
Y2395D03*
Y3520D03*
X5976Y1270D03*
Y2395D03*
Y3520D03*
G54D16*
X2112Y833D03*
X2839Y818D03*
X3564Y860D03*
X4290Y856D03*
X5016Y851D03*
X5742Y859D03*
M02*
