  0
SECTION
  2
HEADER
  9
$ACADVER
  1
AC1009
  9
$INSBASE
 10
0.000000
 20
0.000000
  9
$LIMMIN
 10
-10.740000
 20
-6.060000
  9
$LIMMAX
 10
23.260000
 20
15.940000
  9
$EXTMIN
 10
-10.740000
 20
-6.060000
  9
$EXTMAX
 10
23.260000
 20
15.940000
  9
$ATTMODE
 70
0
  9
$LUNITS
 70
2
  9
$LUPREC
 70
3
  9
$THICKNESS
 40
0.062680
  0
ENDSEC
  0
SECTION
  2
TABLES
  0
TABLE
  2
LTYPE
 70
1
  0
LTYPE
  3
Solid Line
  2
CONTINUOUS
 70
0
 72
65
 73
0
 40
0.000000
  0
ENDTAB
  0
TABLE
  2
LAYER
 70
3
  0
LAYER
  2
BOARD_GEOMETRY_OUTLINE
 70
0
 62
1
  6
CONTINUOUS
  0
LAYER
  2
PIN_BOTTOM
 70
0
 62
2
  6
CONTINUOUS
  0
LAYER
  2
VIA_CLASS_BOTTOM
 70
0
 62
3
  6
CONTINUOUS
  0
ENDTAB
  0
TABLE
  2
STYLE
 70
1
  0
STYLE
  2
STANDARD
 70
0
 40
0.000000
 41
1.000000
 50
0.000000
 71
0
 42
0.200000
  3
txt
  0
ENDTAB
  0
ENDSEC
  0
SECTION
  2
BLOCKS
  0
BLOCK
  8
0
  2
FIGURE_CIRCLE
 70
0
 10
0.000000
 20
0.000000
  0
CIRCLE
  8
0
 10
0.000000
 20
0.000000
 40
0.500000
  0
ENDBLK
  0
BLOCK
  8
0
  2
FIGURE_SQUARE
 70
0
 10
0.000000
 20
0.000000
  0
POLYLINE
  8
0
 66
1
 70
1
 40
0.000000
 41
0.000000
 39
0.000000
  0
VERTEX
  8
0
 10
-0.500000
 20
-0.500000
 40
0.000000
 41
0.000000
 42
0.000000
  0
VERTEX
  8
0
 10
-0.500000
 20
0.500000
 40
0.000000
 41
0.000000
 42
0.000000
  0
VERTEX
  8
0
 10
0.500000
 20
0.500000
 40
0.000000
 41
0.000000
 42
0.000000
  0
VERTEX
  8
0
 10
0.500000
 20
-0.500000
 40
0.000000
 41
0.000000
 42
0.000000
  0
SEQEND
  0
ENDBLK
  0
BLOCK
  8
0
  2
FIGURE_HEX
 70
0
 10
0.000000
 20
0.000000
  0
POLYLINE
  8
0
 66
1
 70
1
 40
0.000000
 41
0.000000
 39
0.000000
  0
VERTEX
  8
0
 10
-0.500000
 20
0.000000
 40
0.000000
 41
0.000000
 42
0.000000
  0
VERTEX
  8
0
 10
-0.250000
 20
0.500000
 40
0.000000
 41
0.000000
 42
0.000000
  0
VERTEX
  8
0
 10
0.250000
 20
0.500000
 40
0.000000
 41
0.000000
 42
0.000000
  0
VERTEX
  8
0
 10
0.500000
 20
0.000000
 40
0.000000
 41
0.000000
 42
0.000000
  0
VERTEX
  8
0
 10
0.250000
 20
-0.500000
 40
0.000000
 41
0.000000
 42
0.000000
  0
VERTEX
  8
0
 10
-0.250000
 20
-0.500000
 40
0.000000
 41
0.000000
 42
0.000000
  0
SEQEND
  0
ENDBLK
  0
BLOCK
  8
0
  2
FIGURE_OCT
 70
0
 10
0.000000
 20
0.000000
  0
POLYLINE
  8
0
 66
1
 70
1
 40
0.000000
 41
0.000000
 39
0.000000
  0
VERTEX
  8
0
 10
-0.500000
 20
-0.207100
 40
0.000000
 41
0.000000
 42
0.000000
  0
VERTEX
  8
0
 10
-0.500000
 20
0.207100
 40
0.000000
 41
0.000000
 42
0.000000
  0
VERTEX
  8
0
 10
-0.207100
 20
0.500000
 40
0.000000
 41
0.000000
 42
0.000000
  0
VERTEX
  8
0
 10
0.207100
 20
0.500000
 40
0.000000
 41
0.000000
 42
0.000000
  0
VERTEX
  8
0
 10
0.500000
 20
0.207100
 40
0.000000
 41
0.000000
 42
0.000000
  0
VERTEX
  8
0
 10
0.500000
 20
-0.207100
 40
0.000000
 41
0.000000
 42
0.000000
  0
VERTEX
  8
0
 10
0.207100
 20
-0.500000
 40
0.000000
 41
0.000000
 42
0.000000
  0
VERTEX
  8
0
 10
-0.207100
 20
-0.500000
 40
0.000000
 41
0.000000
 42
0.000000
  0
SEQEND
  0
ENDBLK
  0
BLOCK
  8
0
  2
FIGURE_OBLONG
 70
0
 10
0.000000
 20
0.000000
  0
POLYLINE
  8
0
 66
1
 70
1
 40
0.000000
 41
0.000000
 39
0.000000
  0
VERTEX
  8
0
 10
-0.500000
 20
-0.125000
 40
0.000000
 41
0.000000
 42
0.000000
  0
VERTEX
  8
0
 10
-0.500000
 20
0.125000
 40
0.000000
 41
0.000000
 42
0.000000
  0
VERTEX
  8
0
 10
-0.416000
 20
0.375000
 40
0.000000
 41
0.000000
 42
0.000000
  0
VERTEX
  8
0
 10
-0.250000
 20
0.500000
 40
0.000000
 41
0.000000
 42
0.000000
  0
VERTEX
  8
0
 10
0.250000
 20
0.500000
 40
0.000000
 41
0.000000
 42
0.000000
  0
VERTEX
  8
0
 10
0.416000
 20
0.375000
 40
0.000000
 41
0.000000
 42
0.000000
  0
VERTEX
  8
0
 10
0.500000
 20
0.125000
 40
0.000000
 41
0.000000
 42
0.000000
  0
VERTEX
  8
0
 10
0.500000
 20
-0.125000
 40
0.000000
 41
0.000000
 42
0.000000
  0
VERTEX
  8
0
 10
0.416000
 20
-0.375000
 40
0.000000
 41
0.000000
 42
0.000000
  0
VERTEX
  8
0
 10
0.250000
 20
-0.500000
 40
0.000000
 41
0.000000
 42
0.000000
  0
VERTEX
  8
0
 10
-0.250000
 20
-0.500000
 40
0.000000
 41
0.000000
 42
0.000000
  0
VERTEX
  8
0
 10
-0.416000
 20
-0.375000
 40
0.000000
 41
0.000000
 42
0.000000
  0
SEQEND
  0
ENDBLK
  0
BLOCK
  8
0
  2
FIGURE_TRI
 70
0
 10
0.000000
 20
0.000000
  0
POLYLINE
  8
0
 66
1
 70
1
 40
0.000000
 41
0.000000
 39
0.000000
  0
VERTEX
  8
0
 10
-0.500000
 20
-0.500000
 40
0.000000
 41
0.000000
 42
0.000000
  0
VERTEX
  8
0
 10
0.000000
 20
0.500000
 40
0.000000
 41
0.000000
 42
0.000000
  0
VERTEX
  8
0
 10
0.500000
 20
-0.500000
 40
0.000000
 41
0.000000
 42
0.000000
  0
SEQEND
  0
ENDBLK
  0
BLOCK
  8
0
  2
FIGURE_CROSS
 70
0
 10
0.000000
 20
0.000000
  0
POLYLINE
  8
0
 66
1
 70
0
 40
0.000000
 41
0.000000
 39
0.000000
  0
VERTEX
  8
0
 10
-0.500000
 20
0.000000
 40
0.000000
 41
0.000000
 42
0.000000
  0
VERTEX
  8
0
 10
0.500000
 20
0.000000
 40
0.000000
 41
0.000000
 42
0.000000
  0
SEQEND
  0
POLYLINE
  8
0
 66
1
 70
0
 40
0.000000
 41
0.000000
 39
0.000000
  0
VERTEX
  8
0
 10
0.000000
 20
0.500000
 40
0.000000
 41
0.000000
 42
0.000000
  0
VERTEX
  8
0
 10
0.000000
 20
-0.500000
 40
0.000000
 41
0.000000
 42
0.000000
  0
SEQEND
  0
ENDBLK
  0
BLOCK
  8
0
  2
FIGURE_DIAMOND
 70
0
 10
0.000000
 20
0.000000
  0
POLYLINE
  8
0
 66
1
 70
1
 40
0.000000
 41
0.000000
 39
0.000000
  0
VERTEX
  8
0
 10
-0.500000
 20
0.000000
 40
0.000000
 41
0.000000
 42
0.000000
  0
VERTEX
  8
0
 10
0.000000
 20
0.500000
 40
0.000000
 41
0.000000
 42
0.000000
  0
VERTEX
  8
0
 10
0.500000
 20
0.000000
 40
0.000000
 41
0.000000
 42
0.000000
  0
VERTEX
  8
0
 10
0.000000
 20
-0.500000
 40
0.000000
 41
0.000000
 42
0.000000
  0
SEQEND
  0
ENDBLK
  0
ENDSEC
  0
SECTION
  2
ENTITIES
  0
CIRCLE
  8
VIA_CLASS_BOTTOM
 10
6.467500
 20
0.831000
 40
0.040000
  0
CIRCLE
  8
VIA_CLASS_BOTTOM
 10
6.467500
 20
1.956000
 40
0.040000
  0
CIRCLE
  8
VIA_CLASS_BOTTOM
 10
5.741500
 20
0.859000
 40
0.038000
  0
CIRCLE
  8
VIA_CLASS_BOTTOM
 10
5.016500
 20
0.851000
 40
0.038000
  0
CIRCLE
  8
VIA_CLASS_BOTTOM
 10
4.290500
 20
0.856000
 40
0.038000
  0
CIRCLE
  8
VIA_CLASS_BOTTOM
 10
3.564500
 20
0.860000
 40
0.038000
  0
CIRCLE
  8
VIA_CLASS_BOTTOM
 10
2.838500
 20
0.818000
 40
0.038000
  0
CIRCLE
  8
VIA_CLASS_BOTTOM
 10
2.112500
 20
0.833000
 40
0.038000
  0
CIRCLE
  8
VIA_CLASS_BOTTOM
 10
1.386563
 20
0.832000
 40
0.040000
  0
CIRCLE
  8
VIA_CLASS_BOTTOM
 10
5.741500
 20
1.951000
 40
0.040000
  0
CIRCLE
  8
VIA_CLASS_BOTTOM
 10
5.015500
 20
1.943000
 40
0.040000
  0
CIRCLE
  8
VIA_CLASS_BOTTOM
 10
4.289500
 20
1.934000
 40
0.040000
  0
CIRCLE
  8
VIA_CLASS_BOTTOM
 10
3.563500
 20
1.956000
 40
0.040000
  0
CIRCLE
  8
VIA_CLASS_BOTTOM
 10
2.837500
 20
1.937000
 40
0.040000
  0
CIRCLE
  8
VIA_CLASS_BOTTOM
 10
2.111500
 20
1.937000
 40
0.040000
  0
CIRCLE
  8
VIA_CLASS_BOTTOM
 10
1.385500
 20
1.940000
 40
0.040000
  0
CIRCLE
  8
VIA_CLASS_BOTTOM
 10
6.467500
 20
3.081000
 40
0.040000
  0
CIRCLE
  8
VIA_CLASS_BOTTOM
 10
5.741500
 20
3.062000
 40
0.040000
  0
CIRCLE
  8
VIA_CLASS_BOTTOM
 10
5.012500
 20
3.084000
 40
0.040000
  0
CIRCLE
  8
VIA_CLASS_BOTTOM
 10
4.289500
 20
3.100000
 40
0.040000
  0
CIRCLE
  8
VIA_CLASS_BOTTOM
 10
3.563500
 20
3.084000
 40
0.040000
  0
CIRCLE
  8
VIA_CLASS_BOTTOM
 10
2.837500
 20
3.081000
 40
0.040000
  0
CIRCLE
  8
VIA_CLASS_BOTTOM
 10
2.111500
 20
3.087000
 40
0.040000
  0
CIRCLE
  8
VIA_CLASS_BOTTOM
 10
1.385500
 20
3.073000
 40
0.040000
  0
CIRCLE
  8
VIA_CLASS_BOTTOM
 10
3.632500
 20
1.522000
 40
0.037500
  0
CIRCLE
  8
VIA_CLASS_BOTTOM
 10
3.060500
 20
1.722000
 40
0.037500
  0
CIRCLE
  8
VIA_CLASS_BOTTOM
 10
2.840500
 20
1.522000
 40
0.037500
  0
CIRCLE
  8
VIA_CLASS_BOTTOM
 10
2.246500
 20
1.722000
 40
0.037500
  0
CIRCLE
  8
VIA_CLASS_BOTTOM
 10
1.547500
 20
1.722000
 40
0.037500
  0
CIRCLE
  8
VIA_CLASS_BOTTOM
 10
0.884500
 20
1.522000
 40
0.037500
  0
CIRCLE
  8
VIA_CLASS_BOTTOM
 10
0.887500
 20
1.722000
 40
0.037500
  0
CIRCLE
  8
VIA_CLASS_BOTTOM
 10
3.060500
 20
2.847000
 40
0.037500
  0
CIRCLE
  8
VIA_CLASS_BOTTOM
 10
3.632500
 20
2.647000
 40
0.037500
  0
CIRCLE
  8
VIA_CLASS_BOTTOM
 10
2.840500
 20
2.647000
 40
0.037500
  0
CIRCLE
  8
VIA_CLASS_BOTTOM
 10
2.246500
 20
2.847000
 40
0.037500
  0
CIRCLE
  8
VIA_CLASS_BOTTOM
 10
2.114500
 20
2.647000
 40
0.037500
  0
CIRCLE
  8
VIA_CLASS_BOTTOM
 10
1.547500
 20
2.847000
 40
0.037500
  0
CIRCLE
  8
VIA_CLASS_BOTTOM
 10
0.884500
 20
2.647000
 40
0.037500
  0
CIRCLE
  8
VIA_CLASS_BOTTOM
 10
0.887500
 20
2.847000
 40
0.037500
  0
CIRCLE
  8
VIA_CLASS_BOTTOM
 10
6.547500
 20
3.772000
 40
0.037500
  0
CIRCLE
  8
VIA_CLASS_BOTTOM
 10
5.966500
 20
3.972000
 40
0.037500
  0
CIRCLE
  8
VIA_CLASS_BOTTOM
 10
5.779500
 20
3.772000
 40
0.037500
  0
CIRCLE
  8
VIA_CLASS_BOTTOM
 10
5.243500
 20
3.972000
 40
0.037500
  0
CIRCLE
  8
VIA_CLASS_BOTTOM
 10
4.490500
 20
3.972000
 40
0.037500
  0
CIRCLE
  8
VIA_CLASS_BOTTOM
 10
5.042500
 20
3.772000
 40
0.037500
  0
CIRCLE
  8
VIA_CLASS_BOTTOM
 10
4.308500
 20
3.772000
 40
0.037500
  0
CIRCLE
  8
VIA_CLASS_BOTTOM
 10
3.766500
 20
3.972000
 40
0.037500
  0
CIRCLE
  8
VIA_CLASS_BOTTOM
 10
3.612500
 20
3.772000
 40
0.037500
  0
CIRCLE
  8
VIA_CLASS_BOTTOM
 10
3.029500
 20
3.972000
 40
0.037500
  0
CIRCLE
  8
VIA_CLASS_BOTTOM
 10
2.878500
 20
3.772000
 40
0.037500
  0
CIRCLE
  8
VIA_CLASS_BOTTOM
 10
2.243500
 20
3.972000
 40
0.037500
  0
CIRCLE
  8
VIA_CLASS_BOTTOM
 10
1.586500
 20
3.772000
 40
0.037500
  0
CIRCLE
  8
VIA_CLASS_BOTTOM
 10
1.407500
 20
3.972000
 40
0.037500
  0
CIRCLE
  8
VIA_CLASS_BOTTOM
 10
0.975500
 20
3.772000
 40
0.037500
  0
CIRCLE
  8
VIA_CLASS_BOTTOM
 10
0.887500
 20
3.972000
 40
0.037500
  0
CIRCLE
  8
VIA_CLASS_BOTTOM
 10
5.243500
 20
2.847000
 40
0.037500
  0
CIRCLE
  8
VIA_CLASS_BOTTOM
 10
5.779500
 20
2.647000
 40
0.037500
  0
CIRCLE
  8
VIA_CLASS_BOTTOM
 10
4.490500
 20
2.847000
 40
0.037500
  0
CIRCLE
  8
VIA_CLASS_BOTTOM
 10
5.042500
 20
2.647000
 40
0.037500
  0
CIRCLE
  8
VIA_CLASS_BOTTOM
 10
3.766500
 20
2.847000
 40
0.037500
  0
CIRCLE
  8
VIA_CLASS_BOTTOM
 10
4.308500
 20
2.647000
 40
0.037500
  0
CIRCLE
  8
VIA_CLASS_BOTTOM
 10
5.966500
 20
1.722000
 40
0.037500
  0
CIRCLE
  8
VIA_CLASS_BOTTOM
 10
5.243500
 20
1.722000
 40
0.037500
  0
CIRCLE
  8
VIA_CLASS_BOTTOM
 10
4.490500
 20
1.722000
 40
0.037500
  0
CIRCLE
  8
VIA_CLASS_BOTTOM
 10
3.766500
 20
1.722000
 40
0.037500
  0
CIRCLE
  8
VIA_CLASS_BOTTOM
 10
4.308500
 20
1.522000
 40
0.037500
  0
CIRCLE
  8
VIA_CLASS_BOTTOM
 10
5.966500
 20
2.847000
 40
0.037500
  0
CIRCLE
  8
VIA_CLASS_BOTTOM
 10
6.547500
 20
2.647000
 40
0.037500
  0
CIRCLE
  8
VIA_CLASS_BOTTOM
 10
6.824000
 20
3.522000
 40
0.037500
  0
CIRCLE
  8
VIA_CLASS_BOTTOM
 10
6.825000
 20
3.321000
 40
0.037500
  0
CIRCLE
  8
VIA_CLASS_BOTTOM
 10
6.943800
 20
4.650000
 40
0.077500
  0
CIRCLE
  8
VIA_CLASS_BOTTOM
 10
6.943800
 20
2.650000
 40
0.077500
  0
CIRCLE
  8
VIA_CLASS_BOTTOM
 10
6.943800
 20
0.650000
 40
0.077500
  0
CIRCLE
  8
VIA_CLASS_BOTTOM
 10
6.585000
 20
5.350000
 40
0.077500
  0
CIRCLE
  8
VIA_CLASS_BOTTOM
 10
4.585000
 20
5.350000
 40
0.077500
  0
CIRCLE
  8
VIA_CLASS_BOTTOM
 10
2.585000
 20
5.350000
 40
0.077500
  0
CIRCLE
  8
VIA_CLASS_BOTTOM
 10
0.585000
 20
5.350000
 40
0.077500
  0
CIRCLE
  8
VIA_CLASS_BOTTOM
 10
0.413800
 20
4.650000
 40
0.077500
  0
CIRCLE
  8
VIA_CLASS_BOTTOM
 10
0.413800
 20
2.650000
 40
0.077500
  0
CIRCLE
  8
VIA_CLASS_BOTTOM
 10
0.413800
 20
0.650000
 40
0.077500
  0
CIRCLE
  8
VIA_CLASS_BOTTOM
 10
6.547500
 20
1.522000
 40
0.037500
  0
CIRCLE
  8
VIA_CLASS_BOTTOM
 10
5.779500
 20
1.522000
 40
0.037500
  0
CIRCLE
  8
VIA_CLASS_BOTTOM
 10
5.042500
 20
1.522000
 40
0.037500
  0
CIRCLE
  8
VIA_CLASS_BOTTOM
 10
0.585000
 20
6.850000
 40
0.077500
  0
CIRCLE
  8
VIA_CLASS_BOTTOM
 10
2.585000
 20
6.850000
 40
0.077500
  0
CIRCLE
  8
VIA_CLASS_BOTTOM
 10
4.585000
 20
6.850000
 40
0.077500
  0
CIRCLE
  8
VIA_CLASS_BOTTOM
 10
6.585000
 20
6.850000
 40
0.077500
  0
CIRCLE
  8
VIA_CLASS_BOTTOM
 10
6.585000
 20
0.150000
 40
0.077500
  0
CIRCLE
  8
VIA_CLASS_BOTTOM
 10
4.585000
 20
0.150000
 40
0.077500
  0
CIRCLE
  8
VIA_CLASS_BOTTOM
 10
2.585000
 20
0.150000
 40
0.077500
  0
CIRCLE
  8
VIA_CLASS_BOTTOM
 10
0.585000
 20
0.150000
 40
0.077500
  0
CIRCLE
  8
VIA_CLASS_BOTTOM
 10
6.791600
 20
2.234000
 40
0.077500
  0
CIRCLE
  8
VIA_CLASS_BOTTOM
 10
6.791600
 20
1.250000
 40
0.077500
  0
CIRCLE
  8
VIA_CLASS_BOTTOM
 10
0.565700
 20
2.234000
 40
0.077500
  0
CIRCLE
  8
VIA_CLASS_BOTTOM
 10
0.565700
 20
1.250000
 40
0.077500
  0
CIRCLE
  8
VIA_CLASS_BOTTOM
 10
6.825100
 20
4.857300
 40
0.044500
  0
CIRCLE
  8
VIA_CLASS_BOTTOM
 10
6.825100
 20
3.707300
 40
0.044500
  0
CIRCLE
  8
VIA_CLASS_BOTTOM
 10
0.575100
 20
3.707300
 40
0.044500
  0
CIRCLE
  8
VIA_CLASS_BOTTOM
 10
0.575100
 20
4.857300
 40
0.044500
  0
CIRCLE
  8
VIA_CLASS_BOTTOM
 10
7.028100
 20
5.573300
 40
0.067500
  0
CIRCLE
  8
VIA_CLASS_BOTTOM
 10
7.028100
 20
6.616600
 40
0.067500
  0
CIRCLE
  8
VIA_CLASS_BOTTOM
 10
0.137800
 20
6.616600
 40
0.067500
  0
CIRCLE
  8
VIA_CLASS_BOTTOM
 10
0.137800
 20
5.573300
 40
0.067500
  0
CIRCLE
  8
PIN_BOTTOM
 10
3.422000
 20
-0.073600
 40
0.037500
  0
CIRCLE
  8
PIN_BOTTOM
 10
3.522000
 20
-0.073600
 40
0.037500
  0
CIRCLE
  8
PIN_BOTTOM
 10
3.322000
 20
-0.073600
 40
0.037500
  0
CIRCLE
  8
PIN_BOTTOM
 10
1.622000
 20
-6.221701
 40
0.037500
  0
CIRCLE
  8
PIN_BOTTOM
 10
1.722000
 20
-6.221701
 40
0.037500
  0
CIRCLE
  8
PIN_BOTTOM
 10
1.522000
 20
-6.221701
 40
0.037500
  0
CIRCLE
  8
PIN_BOTTOM
 10
1.622000
 20
-5.495815
 40
0.037500
  0
CIRCLE
  8
PIN_BOTTOM
 10
1.722000
 20
-5.495815
 40
0.037500
  0
CIRCLE
  8
PIN_BOTTOM
 10
1.522000
 20
-5.495815
 40
0.037500
  0
CIRCLE
  8
PIN_BOTTOM
 10
1.622000
 20
-4.769929
 40
0.037500
  0
CIRCLE
  8
PIN_BOTTOM
 10
1.722000
 20
-4.769929
 40
0.037500
  0
CIRCLE
  8
PIN_BOTTOM
 10
1.522000
 20
-4.769929
 40
0.037500
  0
CIRCLE
  8
PIN_BOTTOM
 10
1.622000
 20
-4.044044
 40
0.037500
  0
CIRCLE
  8
PIN_BOTTOM
 10
1.722000
 20
-4.044044
 40
0.037500
  0
CIRCLE
  8
PIN_BOTTOM
 10
1.522000
 20
-4.044044
 40
0.037500
  0
CIRCLE
  8
PIN_BOTTOM
 10
2.747000
 20
-6.221702
 40
0.037500
  0
CIRCLE
  8
PIN_BOTTOM
 10
2.847000
 20
-6.221702
 40
0.037500
  0
CIRCLE
  8
PIN_BOTTOM
 10
2.647000
 20
-6.221702
 40
0.037500
  0
CIRCLE
  8
PIN_BOTTOM
 10
2.747000
 20
-5.495816
 40
0.037500
  0
CIRCLE
  8
PIN_BOTTOM
 10
2.847000
 20
-5.495816
 40
0.037500
  0
CIRCLE
  8
PIN_BOTTOM
 10
2.647000
 20
-5.495816
 40
0.037500
  0
CIRCLE
  8
PIN_BOTTOM
 10
2.747000
 20
-4.769930
 40
0.037500
  0
CIRCLE
  8
PIN_BOTTOM
 10
2.847000
 20
-4.769930
 40
0.037500
  0
CIRCLE
  8
PIN_BOTTOM
 10
2.647000
 20
-4.769930
 40
0.037500
  0
CIRCLE
  8
PIN_BOTTOM
 10
2.747000
 20
-4.044044
 40
0.037500
  0
CIRCLE
  8
PIN_BOTTOM
 10
2.847000
 20
-4.044044
 40
0.037500
  0
CIRCLE
  8
PIN_BOTTOM
 10
2.647000
 20
-4.044044
 40
0.037500
  0
CIRCLE
  8
PIN_BOTTOM
 10
-1.622000
 20
3.318158
 40
0.037500
  0
CIRCLE
  8
PIN_BOTTOM
 10
-1.522000
 20
3.318158
 40
0.037500
  0
CIRCLE
  8
PIN_BOTTOM
 10
-1.722000
 20
3.318158
 40
0.037500
  0
CIRCLE
  8
PIN_BOTTOM
 10
-1.622000
 20
2.592272
 40
0.037500
  0
CIRCLE
  8
PIN_BOTTOM
 10
-1.522000
 20
2.592272
 40
0.037500
  0
CIRCLE
  8
PIN_BOTTOM
 10
-1.722000
 20
2.592272
 40
0.037500
  0
CIRCLE
  8
PIN_BOTTOM
 10
-1.622000
 20
1.866386
 40
0.037500
  0
CIRCLE
  8
PIN_BOTTOM
 10
-1.522000
 20
1.866386
 40
0.037500
  0
CIRCLE
  8
PIN_BOTTOM
 10
-1.722000
 20
1.866386
 40
0.037500
  0
CIRCLE
  8
PIN_BOTTOM
 10
-1.622000
 20
1.140500
 40
0.037500
  0
CIRCLE
  8
PIN_BOTTOM
 10
-1.522000
 20
1.140500
 40
0.037500
  0
CIRCLE
  8
PIN_BOTTOM
 10
-1.722000
 20
1.140500
 40
0.037500
  0
CIRCLE
  8
PIN_BOTTOM
 10
2.747000
 20
-3.318158
 40
0.037500
  0
CIRCLE
  8
PIN_BOTTOM
 10
2.847000
 20
-3.318158
 40
0.037500
  0
CIRCLE
  8
PIN_BOTTOM
 10
2.647000
 20
-3.318158
 40
0.037500
  0
CIRCLE
  8
PIN_BOTTOM
 10
-2.747000
 20
2.592272
 40
0.037500
  0
CIRCLE
  8
PIN_BOTTOM
 10
-2.647000
 20
2.592272
 40
0.037500
  0
CIRCLE
  8
PIN_BOTTOM
 10
-2.847000
 20
2.592272
 40
0.037500
  0
CIRCLE
  8
PIN_BOTTOM
 10
-2.747000
 20
1.866386
 40
0.037500
  0
CIRCLE
  8
PIN_BOTTOM
 10
-2.647000
 20
1.866386
 40
0.037500
  0
CIRCLE
  8
PIN_BOTTOM
 10
-2.847000
 20
1.866386
 40
0.037500
  0
CIRCLE
  8
PIN_BOTTOM
 10
-2.747000
 20
1.140500
 40
0.037500
  0
CIRCLE
  8
PIN_BOTTOM
 10
-2.647000
 20
1.140500
 40
0.037500
  0
CIRCLE
  8
PIN_BOTTOM
 10
-2.847000
 20
1.140500
 40
0.037500
  0
CIRCLE
  8
PIN_BOTTOM
 10
-3.872000
 20
6.221702
 40
0.037500
  0
CIRCLE
  8
PIN_BOTTOM
 10
-3.772000
 20
6.221702
 40
0.037500
  0
CIRCLE
  8
PIN_BOTTOM
 10
-3.972000
 20
6.221702
 40
0.037500
  0
CIRCLE
  8
PIN_BOTTOM
 10
-3.872000
 20
5.495816
 40
0.037500
  0
CIRCLE
  8
PIN_BOTTOM
 10
-3.772000
 20
5.495816
 40
0.037500
  0
CIRCLE
  8
PIN_BOTTOM
 10
-3.972000
 20
5.495816
 40
0.037500
  0
CIRCLE
  8
PIN_BOTTOM
 10
3.872000
 20
-4.769930
 40
0.037500
  0
CIRCLE
  8
PIN_BOTTOM
 10
3.972000
 20
-4.769930
 40
0.037500
  0
CIRCLE
  8
PIN_BOTTOM
 10
3.772000
 20
-4.769930
 40
0.037500
  0
CIRCLE
  8
PIN_BOTTOM
 10
-3.872000
 20
4.044044
 40
0.037500
  0
CIRCLE
  8
PIN_BOTTOM
 10
-3.772000
 20
4.044044
 40
0.037500
  0
CIRCLE
  8
PIN_BOTTOM
 10
-3.972000
 20
4.044044
 40
0.037500
  0
CIRCLE
  8
PIN_BOTTOM
 10
-3.872000
 20
3.318158
 40
0.037500
  0
CIRCLE
  8
PIN_BOTTOM
 10
-3.772000
 20
3.318158
 40
0.037500
  0
CIRCLE
  8
PIN_BOTTOM
 10
-3.972000
 20
3.318158
 40
0.037500
  0
CIRCLE
  8
PIN_BOTTOM
 10
-3.872000
 20
2.592272
 40
0.037500
  0
CIRCLE
  8
PIN_BOTTOM
 10
-3.772000
 20
2.592272
 40
0.037500
  0
CIRCLE
  8
PIN_BOTTOM
 10
-3.972000
 20
2.592272
 40
0.037500
  0
CIRCLE
  8
PIN_BOTTOM
 10
-3.872000
 20
1.866386
 40
0.037500
  0
CIRCLE
  8
PIN_BOTTOM
 10
-3.772000
 20
1.866386
 40
0.037500
  0
CIRCLE
  8
PIN_BOTTOM
 10
-3.972000
 20
1.866386
 40
0.037500
  0
CIRCLE
  8
PIN_BOTTOM
 10
-3.872000
 20
1.140500
 40
0.037500
  0
CIRCLE
  8
PIN_BOTTOM
 10
-3.772000
 20
1.140500
 40
0.037500
  0
CIRCLE
  8
PIN_BOTTOM
 10
-3.972000
 20
1.140500
 40
0.037500
  0
CIRCLE
  8
PIN_BOTTOM
 10
6.467765
 20
1.270425
 40
0.040000
  0
CIRCLE
  8
PIN_BOTTOM
 10
6.467765
 20
1.073575
 40
0.040000
  0
CIRCLE
  8
PIN_BOTTOM
 10
5.975639
 20
1.073575
 40
0.040000
  0
POLYLINE
  8
PIN_BOTTOM
 66
1
 70
1
 40
0.000000
 41
0.000000
 39
0.000000
  0
VERTEX
  8
PIN_BOTTOM
 10
5.935639
 20
1.230425
 40
0.000000
 41
0.000000
 42
0.000000
  0
VERTEX
  8
PIN_BOTTOM
 10
5.935639
 20
1.310425
 40
0.000000
 41
0.000000
 42
0.000000
  0
VERTEX
  8
PIN_BOTTOM
 10
6.015639
 20
1.310425
 40
0.000000
 41
0.000000
 42
0.000000
  0
VERTEX
  8
PIN_BOTTOM
 10
6.015639
 20
1.230425
 40
0.000000
 41
0.000000
 42
0.000000
  0
SEQEND
  0
CIRCLE
  8
PIN_BOTTOM
 10
6.467765
 20
2.395425
 40
0.040000
  0
CIRCLE
  8
PIN_BOTTOM
 10
6.467765
 20
2.198575
 40
0.040000
  0
CIRCLE
  8
PIN_BOTTOM
 10
5.975639
 20
2.198575
 40
0.040000
  0
POLYLINE
  8
PIN_BOTTOM
 66
1
 70
1
 40
0.000000
 41
0.000000
 39
0.000000
  0
VERTEX
  8
PIN_BOTTOM
 10
5.935639
 20
2.355425
 40
0.000000
 41
0.000000
 42
0.000000
  0
VERTEX
  8
PIN_BOTTOM
 10
5.935639
 20
2.435425
 40
0.000000
 41
0.000000
 42
0.000000
  0
VERTEX
  8
PIN_BOTTOM
 10
6.015639
 20
2.435425
 40
0.000000
 41
0.000000
 42
0.000000
  0
VERTEX
  8
PIN_BOTTOM
 10
6.015639
 20
2.355425
 40
0.000000
 41
0.000000
 42
0.000000
  0
SEQEND
  0
POLYLINE
  8
PIN_BOTTOM
 66
1
 70
1
 40
0.000000
 41
0.000000
 39
0.000000
  0
VERTEX
  8
PIN_BOTTOM
 10
5.209753
 20
1.230425
 40
0.000000
 41
0.000000
 42
0.000000
  0
VERTEX
  8
PIN_BOTTOM
 10
5.209753
 20
1.310425
 40
0.000000
 41
0.000000
 42
0.000000
  0
VERTEX
  8
PIN_BOTTOM
 10
5.289753
 20
1.310425
 40
0.000000
 41
0.000000
 42
0.000000
  0
VERTEX
  8
PIN_BOTTOM
 10
5.289753
 20
1.230425
 40
0.000000
 41
0.000000
 42
0.000000
  0
SEQEND
  0
CIRCLE
  8
PIN_BOTTOM
 10
5.249753
 20
1.073575
 40
0.040000
  0
CIRCLE
  8
PIN_BOTTOM
 10
5.741879
 20
1.073575
 40
0.040000
  0
CIRCLE
  8
PIN_BOTTOM
 10
5.741879
 20
1.270425
 40
0.040000
  0
POLYLINE
  8
PIN_BOTTOM
 66
1
 70
1
 40
0.000000
 41
0.000000
 39
0.000000
  0
VERTEX
  8
PIN_BOTTOM
 10
4.483867
 20
1.230425
 40
0.000000
 41
0.000000
 42
0.000000
  0
VERTEX
  8
PIN_BOTTOM
 10
4.483867
 20
1.310425
 40
0.000000
 41
0.000000
 42
0.000000
  0
VERTEX
  8
PIN_BOTTOM
 10
4.563867
 20
1.310425
 40
0.000000
 41
0.000000
 42
0.000000
  0
VERTEX
  8
PIN_BOTTOM
 10
4.563867
 20
1.230425
 40
0.000000
 41
0.000000
 42
0.000000
  0
SEQEND
  0
CIRCLE
  8
PIN_BOTTOM
 10
4.523867
 20
1.073575
 40
0.040000
  0
CIRCLE
  8
PIN_BOTTOM
 10
5.015993
 20
1.073575
 40
0.040000
  0
CIRCLE
  8
PIN_BOTTOM
 10
5.015993
 20
1.270425
 40
0.040000
  0
POLYLINE
  8
PIN_BOTTOM
 66
1
 70
1
 40
0.000000
 41
0.000000
 39
0.000000
  0
VERTEX
  8
PIN_BOTTOM
 10
3.757981
 20
1.230425
 40
0.000000
 41
0.000000
 42
0.000000
  0
VERTEX
  8
PIN_BOTTOM
 10
3.757981
 20
1.310425
 40
0.000000
 41
0.000000
 42
0.000000
  0
VERTEX
  8
PIN_BOTTOM
 10
3.837981
 20
1.310425
 40
0.000000
 41
0.000000
 42
0.000000
  0
VERTEX
  8
PIN_BOTTOM
 10
3.837981
 20
1.230425
 40
0.000000
 41
0.000000
 42
0.000000
  0
SEQEND
  0
CIRCLE
  8
PIN_BOTTOM
 10
3.797981
 20
1.073575
 40
0.040000
  0
CIRCLE
  8
PIN_BOTTOM
 10
4.290107
 20
1.073575
 40
0.040000
  0
CIRCLE
  8
PIN_BOTTOM
 10
4.290107
 20
1.270425
 40
0.040000
  0
POLYLINE
  8
PIN_BOTTOM
 66
1
 70
1
 40
0.000000
 41
0.000000
 39
0.000000
  0
VERTEX
  8
PIN_BOTTOM
 10
3.032095
 20
1.230425
 40
0.000000
 41
0.000000
 42
0.000000
  0
VERTEX
  8
PIN_BOTTOM
 10
3.032095
 20
1.310425
 40
0.000000
 41
0.000000
 42
0.000000
  0
VERTEX
  8
PIN_BOTTOM
 10
3.112095
 20
1.310425
 40
0.000000
 41
0.000000
 42
0.000000
  0
VERTEX
  8
PIN_BOTTOM
 10
3.112095
 20
1.230425
 40
0.000000
 41
0.000000
 42
0.000000
  0
SEQEND
  0
CIRCLE
  8
PIN_BOTTOM
 10
3.072095
 20
1.073575
 40
0.040000
  0
CIRCLE
  8
PIN_BOTTOM
 10
3.564221
 20
1.073575
 40
0.040000
  0
CIRCLE
  8
PIN_BOTTOM
 10
3.564221
 20
1.270425
 40
0.040000
  0
POLYLINE
  8
PIN_BOTTOM
 66
1
 70
1
 40
0.000000
 41
0.000000
 39
0.000000
  0
VERTEX
  8
PIN_BOTTOM
 10
2.306209
 20
1.230425
 40
0.000000
 41
0.000000
 42
0.000000
  0
VERTEX
  8
PIN_BOTTOM
 10
2.306209
 20
1.310425
 40
0.000000
 41
0.000000
 42
0.000000
  0
VERTEX
  8
PIN_BOTTOM
 10
2.386209
 20
1.310425
 40
0.000000
 41
0.000000
 42
0.000000
  0
VERTEX
  8
PIN_BOTTOM
 10
2.386209
 20
1.230425
 40
0.000000
 41
0.000000
 42
0.000000
  0
SEQEND
  0
CIRCLE
  8
PIN_BOTTOM
 10
2.346209
 20
1.073575
 40
0.040000
  0
CIRCLE
  8
PIN_BOTTOM
 10
2.838335
 20
1.073575
 40
0.040000
  0
CIRCLE
  8
PIN_BOTTOM
 10
2.838335
 20
1.270425
 40
0.040000
  0
POLYLINE
  8
PIN_BOTTOM
 66
1
 70
1
 40
0.000000
 41
0.000000
 39
0.000000
  0
VERTEX
  8
PIN_BOTTOM
 10
1.580323
 20
1.230425
 40
0.000000
 41
0.000000
 42
0.000000
  0
VERTEX
  8
PIN_BOTTOM
 10
1.580323
 20
1.310425
 40
0.000000
 41
0.000000
 42
0.000000
  0
VERTEX
  8
PIN_BOTTOM
 10
1.660323
 20
1.310425
 40
0.000000
 41
0.000000
 42
0.000000
  0
VERTEX
  8
PIN_BOTTOM
 10
1.660323
 20
1.230425
 40
0.000000
 41
0.000000
 42
0.000000
  0
SEQEND
  0
CIRCLE
  8
PIN_BOTTOM
 10
1.620323
 20
1.073575
 40
0.040000
  0
CIRCLE
  8
PIN_BOTTOM
 10
2.112449
 20
1.073575
 40
0.040000
  0
CIRCLE
  8
PIN_BOTTOM
 10
2.112449
 20
1.270425
 40
0.040000
  0
CIRCLE
  8
PIN_BOTTOM
 10
1.386563
 20
1.270425
 40
0.040000
  0
CIRCLE
  8
PIN_BOTTOM
 10
1.386563
 20
1.073575
 40
0.040000
  0
CIRCLE
  8
PIN_BOTTOM
 10
0.894437
 20
1.073575
 40
0.040000
  0
POLYLINE
  8
PIN_BOTTOM
 66
1
 70
1
 40
0.000000
 41
0.000000
 39
0.000000
  0
VERTEX
  8
PIN_BOTTOM
 10
0.854437
 20
1.230425
 40
0.000000
 41
0.000000
 42
0.000000
  0
VERTEX
  8
PIN_BOTTOM
 10
0.854437
 20
1.310425
 40
0.000000
 41
0.000000
 42
0.000000
  0
VERTEX
  8
PIN_BOTTOM
 10
0.934437
 20
1.310425
 40
0.000000
 41
0.000000
 42
0.000000
  0
VERTEX
  8
PIN_BOTTOM
 10
0.934437
 20
1.230425
 40
0.000000
 41
0.000000
 42
0.000000
  0
SEQEND
  0
POLYLINE
  8
PIN_BOTTOM
 66
1
 70
1
 40
0.000000
 41
0.000000
 39
0.000000
  0
VERTEX
  8
PIN_BOTTOM
 10
5.209753
 20
2.355425
 40
0.000000
 41
0.000000
 42
0.000000
  0
VERTEX
  8
PIN_BOTTOM
 10
5.209753
 20
2.435425
 40
0.000000
 41
0.000000
 42
0.000000
  0
VERTEX
  8
PIN_BOTTOM
 10
5.289753
 20
2.435425
 40
0.000000
 41
0.000000
 42
0.000000
  0
VERTEX
  8
PIN_BOTTOM
 10
5.289753
 20
2.355425
 40
0.000000
 41
0.000000
 42
0.000000
  0
SEQEND
  0
CIRCLE
  8
PIN_BOTTOM
 10
5.249753
 20
2.198575
 40
0.040000
  0
CIRCLE
  8
PIN_BOTTOM
 10
5.741879
 20
2.198575
 40
0.040000
  0
CIRCLE
  8
PIN_BOTTOM
 10
5.741879
 20
2.395425
 40
0.040000
  0
POLYLINE
  8
PIN_BOTTOM
 66
1
 70
1
 40
0.000000
 41
0.000000
 39
0.000000
  0
VERTEX
  8
PIN_BOTTOM
 10
4.483867
 20
2.355425
 40
0.000000
 41
0.000000
 42
0.000000
  0
VERTEX
  8
PIN_BOTTOM
 10
4.483867
 20
2.435425
 40
0.000000
 41
0.000000
 42
0.000000
  0
VERTEX
  8
PIN_BOTTOM
 10
4.563867
 20
2.435425
 40
0.000000
 41
0.000000
 42
0.000000
  0
VERTEX
  8
PIN_BOTTOM
 10
4.563867
 20
2.355425
 40
0.000000
 41
0.000000
 42
0.000000
  0
SEQEND
  0
CIRCLE
  8
PIN_BOTTOM
 10
4.523867
 20
2.198575
 40
0.040000
  0
CIRCLE
  8
PIN_BOTTOM
 10
5.015993
 20
2.198575
 40
0.040000
  0
CIRCLE
  8
PIN_BOTTOM
 10
5.015993
 20
2.395425
 40
0.040000
  0
POLYLINE
  8
PIN_BOTTOM
 66
1
 70
1
 40
0.000000
 41
0.000000
 39
0.000000
  0
VERTEX
  8
PIN_BOTTOM
 10
3.757981
 20
2.355425
 40
0.000000
 41
0.000000
 42
0.000000
  0
VERTEX
  8
PIN_BOTTOM
 10
3.757981
 20
2.435425
 40
0.000000
 41
0.000000
 42
0.000000
  0
VERTEX
  8
PIN_BOTTOM
 10
3.837981
 20
2.435425
 40
0.000000
 41
0.000000
 42
0.000000
  0
VERTEX
  8
PIN_BOTTOM
 10
3.837981
 20
2.355425
 40
0.000000
 41
0.000000
 42
0.000000
  0
SEQEND
  0
CIRCLE
  8
PIN_BOTTOM
 10
3.797981
 20
2.198575
 40
0.040000
  0
CIRCLE
  8
PIN_BOTTOM
 10
4.290107
 20
2.198575
 40
0.040000
  0
CIRCLE
  8
PIN_BOTTOM
 10
4.290107
 20
2.395425
 40
0.040000
  0
POLYLINE
  8
PIN_BOTTOM
 66
1
 70
1
 40
0.000000
 41
0.000000
 39
0.000000
  0
VERTEX
  8
PIN_BOTTOM
 10
3.032095
 20
2.355425
 40
0.000000
 41
0.000000
 42
0.000000
  0
VERTEX
  8
PIN_BOTTOM
 10
3.032095
 20
2.435425
 40
0.000000
 41
0.000000
 42
0.000000
  0
VERTEX
  8
PIN_BOTTOM
 10
3.112095
 20
2.435425
 40
0.000000
 41
0.000000
 42
0.000000
  0
VERTEX
  8
PIN_BOTTOM
 10
3.112095
 20
2.355425
 40
0.000000
 41
0.000000
 42
0.000000
  0
SEQEND
  0
CIRCLE
  8
PIN_BOTTOM
 10
3.072095
 20
2.198575
 40
0.040000
  0
CIRCLE
  8
PIN_BOTTOM
 10
3.564221
 20
2.198575
 40
0.040000
  0
CIRCLE
  8
PIN_BOTTOM
 10
3.564221
 20
2.395425
 40
0.040000
  0
POLYLINE
  8
PIN_BOTTOM
 66
1
 70
1
 40
0.000000
 41
0.000000
 39
0.000000
  0
VERTEX
  8
PIN_BOTTOM
 10
2.306209
 20
2.355425
 40
0.000000
 41
0.000000
 42
0.000000
  0
VERTEX
  8
PIN_BOTTOM
 10
2.306209
 20
2.435425
 40
0.000000
 41
0.000000
 42
0.000000
  0
VERTEX
  8
PIN_BOTTOM
 10
2.386209
 20
2.435425
 40
0.000000
 41
0.000000
 42
0.000000
  0
VERTEX
  8
PIN_BOTTOM
 10
2.386209
 20
2.355425
 40
0.000000
 41
0.000000
 42
0.000000
  0
SEQEND
  0
CIRCLE
  8
PIN_BOTTOM
 10
2.346209
 20
2.198575
 40
0.040000
  0
CIRCLE
  8
PIN_BOTTOM
 10
2.838335
 20
2.198575
 40
0.040000
  0
CIRCLE
  8
PIN_BOTTOM
 10
2.838335
 20
2.395425
 40
0.040000
  0
POLYLINE
  8
PIN_BOTTOM
 66
1
 70
1
 40
0.000000
 41
0.000000
 39
0.000000
  0
VERTEX
  8
PIN_BOTTOM
 10
1.580323
 20
2.355425
 40
0.000000
 41
0.000000
 42
0.000000
  0
VERTEX
  8
PIN_BOTTOM
 10
1.580323
 20
2.435425
 40
0.000000
 41
0.000000
 42
0.000000
  0
VERTEX
  8
PIN_BOTTOM
 10
1.660323
 20
2.435425
 40
0.000000
 41
0.000000
 42
0.000000
  0
VERTEX
  8
PIN_BOTTOM
 10
1.660323
 20
2.355425
 40
0.000000
 41
0.000000
 42
0.000000
  0
SEQEND
  0
CIRCLE
  8
PIN_BOTTOM
 10
1.620323
 20
2.198575
 40
0.040000
  0
CIRCLE
  8
PIN_BOTTOM
 10
2.112449
 20
2.198575
 40
0.040000
  0
CIRCLE
  8
PIN_BOTTOM
 10
2.112449
 20
2.395425
 40
0.040000
  0
CIRCLE
  8
PIN_BOTTOM
 10
1.386563
 20
2.395425
 40
0.040000
  0
CIRCLE
  8
PIN_BOTTOM
 10
1.386563
 20
2.198575
 40
0.040000
  0
CIRCLE
  8
PIN_BOTTOM
 10
0.894437
 20
2.198575
 40
0.040000
  0
POLYLINE
  8
PIN_BOTTOM
 66
1
 70
1
 40
0.000000
 41
0.000000
 39
0.000000
  0
VERTEX
  8
PIN_BOTTOM
 10
0.854437
 20
2.355425
 40
0.000000
 41
0.000000
 42
0.000000
  0
VERTEX
  8
PIN_BOTTOM
 10
0.854437
 20
2.435425
 40
0.000000
 41
0.000000
 42
0.000000
  0
VERTEX
  8
PIN_BOTTOM
 10
0.934437
 20
2.435425
 40
0.000000
 41
0.000000
 42
0.000000
  0
VERTEX
  8
PIN_BOTTOM
 10
0.934437
 20
2.355425
 40
0.000000
 41
0.000000
 42
0.000000
  0
SEQEND
  0
CIRCLE
  8
PIN_BOTTOM
 10
6.467765
 20
3.520425
 40
0.040000
  0
CIRCLE
  8
PIN_BOTTOM
 10
6.467765
 20
3.323575
 40
0.040000
  0
CIRCLE
  8
PIN_BOTTOM
 10
5.975639
 20
3.323575
 40
0.040000
  0
POLYLINE
  8
PIN_BOTTOM
 66
1
 70
1
 40
0.000000
 41
0.000000
 39
0.000000
  0
VERTEX
  8
PIN_BOTTOM
 10
5.935639
 20
3.480425
 40
0.000000
 41
0.000000
 42
0.000000
  0
VERTEX
  8
PIN_BOTTOM
 10
5.935639
 20
3.560425
 40
0.000000
 41
0.000000
 42
0.000000
  0
VERTEX
  8
PIN_BOTTOM
 10
6.015639
 20
3.560425
 40
0.000000
 41
0.000000
 42
0.000000
  0
VERTEX
  8
PIN_BOTTOM
 10
6.015639
 20
3.480425
 40
0.000000
 41
0.000000
 42
0.000000
  0
SEQEND
  0
CIRCLE
  8
PIN_BOTTOM
 10
5.741879
 20
3.520425
 40
0.040000
  0
CIRCLE
  8
PIN_BOTTOM
 10
5.741879
 20
3.323575
 40
0.040000
  0
CIRCLE
  8
PIN_BOTTOM
 10
5.249753
 20
3.323575
 40
0.040000
  0
POLYLINE
  8
PIN_BOTTOM
 66
1
 70
1
 40
0.000000
 41
0.000000
 39
0.000000
  0
VERTEX
  8
PIN_BOTTOM
 10
5.209753
 20
3.480425
 40
0.000000
 41
0.000000
 42
0.000000
  0
VERTEX
  8
PIN_BOTTOM
 10
5.209753
 20
3.560425
 40
0.000000
 41
0.000000
 42
0.000000
  0
VERTEX
  8
PIN_BOTTOM
 10
5.289753
 20
3.560425
 40
0.000000
 41
0.000000
 42
0.000000
  0
VERTEX
  8
PIN_BOTTOM
 10
5.289753
 20
3.480425
 40
0.000000
 41
0.000000
 42
0.000000
  0
SEQEND
  0
CIRCLE
  8
PIN_BOTTOM
 10
5.015993
 20
3.520425
 40
0.040000
  0
CIRCLE
  8
PIN_BOTTOM
 10
5.015993
 20
3.323575
 40
0.040000
  0
CIRCLE
  8
PIN_BOTTOM
 10
4.523867
 20
3.323575
 40
0.040000
  0
POLYLINE
  8
PIN_BOTTOM
 66
1
 70
1
 40
0.000000
 41
0.000000
 39
0.000000
  0
VERTEX
  8
PIN_BOTTOM
 10
4.483867
 20
3.480425
 40
0.000000
 41
0.000000
 42
0.000000
  0
VERTEX
  8
PIN_BOTTOM
 10
4.483867
 20
3.560425
 40
0.000000
 41
0.000000
 42
0.000000
  0
VERTEX
  8
PIN_BOTTOM
 10
4.563867
 20
3.560425
 40
0.000000
 41
0.000000
 42
0.000000
  0
VERTEX
  8
PIN_BOTTOM
 10
4.563867
 20
3.480425
 40
0.000000
 41
0.000000
 42
0.000000
  0
SEQEND
  0
CIRCLE
  8
PIN_BOTTOM
 10
4.290107
 20
3.520425
 40
0.040000
  0
CIRCLE
  8
PIN_BOTTOM
 10
4.290107
 20
3.323575
 40
0.040000
  0
CIRCLE
  8
PIN_BOTTOM
 10
3.797981
 20
3.323575
 40
0.040000
  0
POLYLINE
  8
PIN_BOTTOM
 66
1
 70
1
 40
0.000000
 41
0.000000
 39
0.000000
  0
VERTEX
  8
PIN_BOTTOM
 10
3.757981
 20
3.480425
 40
0.000000
 41
0.000000
 42
0.000000
  0
VERTEX
  8
PIN_BOTTOM
 10
3.757981
 20
3.560425
 40
0.000000
 41
0.000000
 42
0.000000
  0
VERTEX
  8
PIN_BOTTOM
 10
3.837981
 20
3.560425
 40
0.000000
 41
0.000000
 42
0.000000
  0
VERTEX
  8
PIN_BOTTOM
 10
3.837981
 20
3.480425
 40
0.000000
 41
0.000000
 42
0.000000
  0
SEQEND
  0
CIRCLE
  8
PIN_BOTTOM
 10
3.564221
 20
3.520425
 40
0.040000
  0
CIRCLE
  8
PIN_BOTTOM
 10
3.564221
 20
3.323575
 40
0.040000
  0
CIRCLE
  8
PIN_BOTTOM
 10
3.072095
 20
3.323575
 40
0.040000
  0
POLYLINE
  8
PIN_BOTTOM
 66
1
 70
1
 40
0.000000
 41
0.000000
 39
0.000000
  0
VERTEX
  8
PIN_BOTTOM
 10
3.032095
 20
3.480425
 40
0.000000
 41
0.000000
 42
0.000000
  0
VERTEX
  8
PIN_BOTTOM
 10
3.032095
 20
3.560425
 40
0.000000
 41
0.000000
 42
0.000000
  0
VERTEX
  8
PIN_BOTTOM
 10
3.112095
 20
3.560425
 40
0.000000
 41
0.000000
 42
0.000000
  0
VERTEX
  8
PIN_BOTTOM
 10
3.112095
 20
3.480425
 40
0.000000
 41
0.000000
 42
0.000000
  0
SEQEND
  0
CIRCLE
  8
PIN_BOTTOM
 10
2.838335
 20
3.520425
 40
0.040000
  0
CIRCLE
  8
PIN_BOTTOM
 10
2.838335
 20
3.323575
 40
0.040000
  0
CIRCLE
  8
PIN_BOTTOM
 10
2.346209
 20
3.323575
 40
0.040000
  0
POLYLINE
  8
PIN_BOTTOM
 66
1
 70
1
 40
0.000000
 41
0.000000
 39
0.000000
  0
VERTEX
  8
PIN_BOTTOM
 10
2.306209
 20
3.480425
 40
0.000000
 41
0.000000
 42
0.000000
  0
VERTEX
  8
PIN_BOTTOM
 10
2.306209
 20
3.560425
 40
0.000000
 41
0.000000
 42
0.000000
  0
VERTEX
  8
PIN_BOTTOM
 10
2.386209
 20
3.560425
 40
0.000000
 41
0.000000
 42
0.000000
  0
VERTEX
  8
PIN_BOTTOM
 10
2.386209
 20
3.480425
 40
0.000000
 41
0.000000
 42
0.000000
  0
SEQEND
  0
CIRCLE
  8
PIN_BOTTOM
 10
2.112449
 20
3.520425
 40
0.040000
  0
CIRCLE
  8
PIN_BOTTOM
 10
2.112449
 20
3.323575
 40
0.040000
  0
CIRCLE
  8
PIN_BOTTOM
 10
1.620323
 20
3.323575
 40
0.040000
  0
POLYLINE
  8
PIN_BOTTOM
 66
1
 70
1
 40
0.000000
 41
0.000000
 39
0.000000
  0
VERTEX
  8
PIN_BOTTOM
 10
1.580323
 20
3.480425
 40
0.000000
 41
0.000000
 42
0.000000
  0
VERTEX
  8
PIN_BOTTOM
 10
1.580323
 20
3.560425
 40
0.000000
 41
0.000000
 42
0.000000
  0
VERTEX
  8
PIN_BOTTOM
 10
1.660323
 20
3.560425
 40
0.000000
 41
0.000000
 42
0.000000
  0
VERTEX
  8
PIN_BOTTOM
 10
1.660323
 20
3.480425
 40
0.000000
 41
0.000000
 42
0.000000
  0
SEQEND
  0
POLYLINE
  8
PIN_BOTTOM
 66
1
 70
1
 40
0.000000
 41
0.000000
 39
0.000000
  0
VERTEX
  8
PIN_BOTTOM
 10
0.854437
 20
3.480425
 40
0.000000
 41
0.000000
 42
0.000000
  0
VERTEX
  8
PIN_BOTTOM
 10
0.854437
 20
3.560425
 40
0.000000
 41
0.000000
 42
0.000000
  0
VERTEX
  8
PIN_BOTTOM
 10
0.934437
 20
3.560425
 40
0.000000
 41
0.000000
 42
0.000000
  0
VERTEX
  8
PIN_BOTTOM
 10
0.934437
 20
3.480425
 40
0.000000
 41
0.000000
 42
0.000000
  0
SEQEND
  0
CIRCLE
  8
PIN_BOTTOM
 10
0.894437
 20
3.323575
 40
0.040000
  0
CIRCLE
  8
PIN_BOTTOM
 10
1.386563
 20
3.323575
 40
0.040000
  0
CIRCLE
  8
PIN_BOTTOM
 10
1.386563
 20
3.520425
 40
0.040000
  0
POLYLINE
  8
BOARD_GEOMETRY_OUTLINE
 66
1
 70
1
 40
0.000000
 41
0.000000
 39
0.000000
  0
VERTEX
  8
BOARD_GEOMETRY_OUTLINE
 10
1.971000
 20
1.788000
 40
0.000000
 41
0.000000
 42
0.000000
  0
VERTEX
  8
BOARD_GEOMETRY_OUTLINE
 10
1.971000
 20
1.850500
 40
0.000000
 41
0.000000
 42
0.000000
  0
VERTEX
  8
BOARD_GEOMETRY_OUTLINE
 10
2.971000
 20
1.850500
 40
0.000000
 41
0.000000
 42
0.000000
  0
VERTEX
  8
BOARD_GEOMETRY_OUTLINE
 10
2.971000
 20
1.788000
 40
0.000000
 41
0.000000
 42
0.000000
  0
SEQEND
  0
POLYLINE
  8
BOARD_GEOMETRY_OUTLINE
 66
1
 70
1
 40
0.000000
 41
0.000000
 39
0.000000
  0
VERTEX
  8
BOARD_GEOMETRY_OUTLINE
 10
4.874544
 20
1.788000
 40
0.000000
 41
0.000000
 42
0.000000
  0
VERTEX
  8
BOARD_GEOMETRY_OUTLINE
 10
4.874544
 20
1.850500
 40
0.000000
 41
0.000000
 42
0.000000
  0
VERTEX
  8
BOARD_GEOMETRY_OUTLINE
 10
5.874544
 20
1.850500
 40
0.000000
 41
0.000000
 42
0.000000
  0
VERTEX
  8
BOARD_GEOMETRY_OUTLINE
 10
5.874544
 20
1.788000
 40
0.000000
 41
0.000000
 42
0.000000
  0
SEQEND
  0
POLYLINE
  8
BOARD_GEOMETRY_OUTLINE
 66
1
 70
1
 40
0.000000
 41
0.000000
 39
0.000000
  0
VERTEX
  8
BOARD_GEOMETRY_OUTLINE
 10
4.874544
 20
2.938000
 40
0.000000
 41
0.000000
 42
0.000000
  0
VERTEX
  8
BOARD_GEOMETRY_OUTLINE
 10
4.874544
 20
3.000500
 40
0.000000
 41
0.000000
 42
0.000000
  0
VERTEX
  8
BOARD_GEOMETRY_OUTLINE
 10
5.874544
 20
3.000500
 40
0.000000
 41
0.000000
 42
0.000000
  0
VERTEX
  8
BOARD_GEOMETRY_OUTLINE
 10
5.874544
 20
2.938000
 40
0.000000
 41
0.000000
 42
0.000000
  0
SEQEND
  0
POLYLINE
  8
BOARD_GEOMETRY_OUTLINE
 66
1
 70
1
 40
0.000000
 41
0.000000
 39
0.000000
  0
VERTEX
  8
BOARD_GEOMETRY_OUTLINE
 10
1.971000
 20
2.938000
 40
0.000000
 41
0.000000
 42
0.000000
  0
VERTEX
  8
BOARD_GEOMETRY_OUTLINE
 10
1.971000
 20
3.000500
 40
0.000000
 41
0.000000
 42
0.000000
  0
VERTEX
  8
BOARD_GEOMETRY_OUTLINE
 10
2.971000
 20
3.000500
 40
0.000000
 41
0.000000
 42
0.000000
  0
VERTEX
  8
BOARD_GEOMETRY_OUTLINE
 10
2.971000
 20
2.938000
 40
0.000000
 41
0.000000
 42
0.000000
  0
SEQEND
  0
POLYLINE
  8
BOARD_GEOMETRY_OUTLINE
 66
1
 70
1
 40
0.000000
 41
0.000000
 39
0.000000
  0
VERTEX
  8
BOARD_GEOMETRY_OUTLINE
 10
0.000000
 20
0.000000
 40
0.000000
 41
0.000000
 42
0.000000
  0
VERTEX
  8
BOARD_GEOMETRY_OUTLINE
 10
7.170000
 20
0.000000
 40
0.000000
 41
0.000000
 42
0.000000
  0
VERTEX
  8
BOARD_GEOMETRY_OUTLINE
 10
7.170000
 20
1.348300
 40
0.000000
 41
0.000000
 42
0.000000
  0
VERTEX
  8
BOARD_GEOMETRY_OUTLINE
 10
6.849900
 20
1.348300
 40
0.000000
 41
0.000000
 42
0.000000
  0
VERTEX
  8
BOARD_GEOMETRY_OUTLINE
 10
6.849900
 20
2.135700
 40
0.000000
 41
0.000000
 42
0.000000
  0
VERTEX
  8
BOARD_GEOMETRY_OUTLINE
 10
7.170000
 20
2.135700
 40
0.000000
 41
0.000000
 42
0.000000
  0
VERTEX
  8
BOARD_GEOMETRY_OUTLINE
 10
7.170000
 20
7.000000
 40
0.000000
 41
0.000000
 42
0.000000
  0
VERTEX
  8
BOARD_GEOMETRY_OUTLINE
 10
0.000000
 20
7.000000
 40
0.000000
 41
0.000000
 42
0.000000
  0
VERTEX
  8
BOARD_GEOMETRY_OUTLINE
 10
0.000000
 20
2.135700
 40
0.000000
 41
0.000000
 42
0.000000
  0
VERTEX
  8
BOARD_GEOMETRY_OUTLINE
 10
0.467300
 20
2.135700
 40
0.000000
 41
0.000000
 42
0.000000
  0
VERTEX
  8
BOARD_GEOMETRY_OUTLINE
 10
0.467300
 20
1.348300
 40
0.000000
 41
0.000000
 42
0.000000
  0
VERTEX
  8
BOARD_GEOMETRY_OUTLINE
 10
0.000000
 20
1.348300
 40
0.000000
 41
0.000000
 42
0.000000
  0
SEQEND
  0
POLYLINE
  8
BOARD_GEOMETRY_OUTLINE
 66
1
 70
1
 40
0.000000
 41
0.000000
 39
0.000000
  0
VERTEX
  8
BOARD_GEOMETRY_OUTLINE
 10
0.816500
 20
4.259000
 40
0.000000
 41
0.000000
 42
0.000000
  0
VERTEX
  8
BOARD_GEOMETRY_OUTLINE
 10
0.816500
 20
4.967700
 40
0.000000
 41
0.000000
 42
0.000000
  0
VERTEX
  8
BOARD_GEOMETRY_OUTLINE
 10
6.507900
 20
4.967700
 40
0.000000
 41
0.000000
 42
0.000000
  0
VERTEX
  8
BOARD_GEOMETRY_OUTLINE
 10
6.507900
 20
4.259000
 40
0.000000
 41
0.000000
 42
0.000000
  0
SEQEND
  0
POLYLINE
  8
BOARD_GEOMETRY_OUTLINE
 66
1
 70
1
 40
0.000000
 41
0.000000
 39
0.000000
  0
VERTEX
  8
BOARD_GEOMETRY_OUTLINE
 10
0.050000
 20
5.695000
 40
0.000000
 41
0.000000
 42
0.000000
  0
VERTEX
  8
BOARD_GEOMETRY_OUTLINE
 10
0.050000
 20
6.495000
 40
0.000000
 41
0.000000
 42
0.000000
  0
VERTEX
  8
BOARD_GEOMETRY_OUTLINE
 10
0.250000
 20
6.495000
 40
0.000000
 41
0.000000
 42
0.000000
  0
VERTEX
  8
BOARD_GEOMETRY_OUTLINE
 10
0.250000
 20
5.695000
 40
0.000000
 41
0.000000
 42
0.000000
  0
SEQEND
  0
POLYLINE
  8
BOARD_GEOMETRY_OUTLINE
 66
1
 70
1
 40
0.000000
 41
0.000000
 39
0.000000
  0
VERTEX
  8
BOARD_GEOMETRY_OUTLINE
 10
0.500000
 20
6.700000
 40
0.000000
 41
0.000000
 42
0.000000
  0
VERTEX
  8
BOARD_GEOMETRY_OUTLINE
 10
6.900000
 20
6.700000
 40
0.000000
 41
0.000000
 42
0.000000
  0
VERTEX
  8
BOARD_GEOMETRY_OUTLINE
 10
6.900000
 20
6.404000
 40
0.000000
 41
0.000000
 42
0.000000
  0
VERTEX
  8
BOARD_GEOMETRY_OUTLINE
 10
7.090000
 20
6.404000
 40
0.000000
 41
0.000000
 42
0.000000
  0
VERTEX
  8
BOARD_GEOMETRY_OUTLINE
 10
7.098000
 20
6.396000
 40
0.000000
 41
0.000000
 42
0.000000
  0
VERTEX
  8
BOARD_GEOMETRY_OUTLINE
 10
7.098000
 20
5.890000
 40
0.000000
 41
0.000000
 42
0.000000
  0
VERTEX
  8
BOARD_GEOMETRY_OUTLINE
 10
6.904000
 20
5.890000
 40
0.000000
 41
0.000000
 42
0.000000
  0
VERTEX
  8
BOARD_GEOMETRY_OUTLINE
 10
6.900000
 20
5.886000
 40
0.000000
 41
0.000000
 42
0.000000
  0
VERTEX
  8
BOARD_GEOMETRY_OUTLINE
 10
6.900000
 20
5.500000
 40
0.000000
 41
0.000000
 42
0.000000
  0
VERTEX
  8
BOARD_GEOMETRY_OUTLINE
 10
0.500000
 20
5.500000
 40
0.000000
 41
0.000000
 42
0.000000
  0
VERTEX
  8
BOARD_GEOMETRY_OUTLINE
 10
0.450000
 20
5.500000
 40
0.000000
 41
0.000000
 42
0.000000
  0
VERTEX
  8
BOARD_GEOMETRY_OUTLINE
 10
0.450000
 20
6.700000
 40
0.000000
 41
0.000000
 42
0.000000
  0
SEQEND
  0
ENDSEC
  0
EOF
