G04 ================== begin FILE IDENTIFICATION RECORD ==================*
G04 Layout Name:  D:/Misc/MBseq/worklib/mbseq/physical/mbseq06.brd*
G04 Film Name:    TOP*
G04 File Format:  Gerber RS274X*
G04 File Origin:  Cadence Allegro 16.3-S021*
G04 Origin Date:  Mon Aug 20 14:50:32 2012*
G04 *
G04 Layer:  ETCH/TOP*
G04 Layer:  PIN/TOP*
G04 Layer:  VIA CLASS/TOP*
G04 *
G04 Offset:    (0.000 0.000)*
G04 Mirror:    No*
G04 Mode:      Positive*
G04 Rotation:  0*
G04 FullContactRelief:  No*
G04 UndefLineWidth:     10.000*
G04 ================== end FILE IDENTIFICATION RECORD ====================*
%FSLAX53Y53*MOIN*%
%IR0*IPPOS*OFA0.00000B0.00000*MIA0B0*SFA1.00000B1.00000*%
%ADD11O,.1X.15*%
%ADD12C,.07*%
%ADD13R,.07X.07*%
%ADD10C,.089*%
G75*
%LPD*%
G75*
G54D10*
X125Y125D03*
Y1275D03*
X6375Y125D03*
Y1275D03*
G54D11*
X474Y1041D03*
X907D03*
X1200D03*
X1633D03*
X1926D03*
X2359D03*
X2652D03*
X3085D03*
X3378D03*
X3811D03*
X4103D03*
X4536D03*
X4829D03*
X5262D03*
X5555D03*
X5988D03*
G54D12*
G01X690Y897D02*
X448D01*
Y545D01*
X836D01*
G01Y445D02*
Y545D01*
G01X690Y897D02*
Y746D01*
G01X1036Y545D02*
Y746D01*
X789D01*
G01X592D02*
Y646D01*
X936D01*
Y545D01*
G01X1416Y897D02*
X690D01*
G01X936Y445D02*
Y171D01*
X2968D01*
Y746D01*
X2967D01*
G01X2241D02*
Y355D01*
X1136D01*
Y445D01*
G01X1036D02*
Y263D01*
X2770D01*
Y746D01*
G01X1318D02*
X1144D01*
Y748D01*
X1136D01*
Y545D01*
G01X1236Y445D02*
X2044D01*
Y746D01*
G01X1416D02*
Y897D01*
G01X1515Y746D02*
Y545D01*
X1236D01*
G01X2142Y897D02*
X1416D01*
G01X2142Y746D02*
Y897D01*
G01X2868Y746D02*
Y897D01*
X2142D01*
G01X3494Y426D02*
Y526D01*
G01X3594Y874D02*
X3368D01*
Y526D01*
X3494D01*
G01X3594D02*
Y632D01*
X3496D01*
Y746D01*
G01X5870D02*
Y119D01*
X3594D01*
Y426D01*
G01X5144Y746D02*
Y321D01*
X3794D01*
Y426D01*
G01X5673Y746D02*
Y218D01*
X3694D01*
Y426D01*
G01X3594Y746D02*
Y874D01*
G01X4222Y746D02*
X3798D01*
X3794Y746D01*
Y526D01*
G01X3694Y746D02*
X3692D01*
G01D02*
Y606D01*
X3694D01*
Y526D01*
G01X4320Y874D02*
X3594D01*
G01X3895Y426D02*
X4947D01*
Y746D01*
G01X3895Y526D02*
X4418D01*
Y746D01*
G01X4320D02*
Y874D01*
G01X5046D02*
X4320D01*
G01X5046Y746D02*
Y874D01*
G01X5772Y746D02*
Y874D01*
X5046D01*
X836Y445D03*
X789Y746D03*
X690D03*
X836Y545D03*
X789Y1316D03*
X592D03*
X936Y445D03*
X1036D03*
X1136D03*
Y545D03*
X1036D03*
X936D03*
X1416Y746D03*
X1236Y545D03*
X1318Y1316D03*
X1515Y746D03*
Y1316D03*
X2044D03*
X2241Y746D03*
X2142D03*
X2241Y1316D03*
X2967Y746D03*
X2868D03*
X2967Y1316D03*
X2770D03*
X3494Y426D03*
Y526D03*
X3496Y1316D03*
X3594Y426D03*
X3694D03*
X3794D03*
X3692Y746D03*
X3594D03*
X3794Y526D03*
X3694D03*
X3594D03*
X3692Y1316D03*
X3895Y526D03*
X4418Y746D03*
X4320D03*
X4418Y1316D03*
X4222D03*
X5046Y746D03*
X4947Y1316D03*
X5144Y746D03*
Y1316D03*
X5673D03*
X5870Y746D03*
X5772D03*
X5870Y1316D03*
G54D13*
X592Y746D03*
X1236Y445D03*
X1318Y746D03*
X2044D03*
X2770D03*
X3496D03*
X3895Y426D03*
X4222Y746D03*
X4947D03*
X5673D03*
M02*
