G04 ================== begin FILE IDENTIFICATION RECORD ==================*
G04 Layout Name:  D:/Misc/MBseq/worklib/mbseq/physical/mbseq35.brd*
G04 Film Name:    TOP*
G04 File Format:  Gerber RS274X*
G04 File Origin:  Cadence Allegro 16.3-S021*
G04 Origin Date:  Fri Aug 31 13:47:36 2012*
G04 *
G04 Layer:  ETCH/TOP*
G04 Layer:  PIN/TOP*
G04 Layer:  VIA CLASS/TOP*
G04 *
G04 Offset:    (0.000 0.000)*
G04 Mirror:    No*
G04 Mode:      Positive*
G04 Rotation:  0*
G04 FullContactRelief:  No*
G04 UndefLineWidth:     0.000*
G04 ================== end FILE IDENTIFICATION RECORD ====================*
%FSLAX53Y53*MOIN*%
%IR0*IPPOS*OFA0.00000B0.00000*MIA0B0*SFA1.00000B1.00000*%
%ADD12C,.135*%
%ADD10C,.155*%
%ADD14C,.08*%
%ADD11C,.075*%
%ADD16C,.076*%
%ADD15R,.08X.08*%
%ADD13C,.089*%
%LPD*%
G75*
G54D10*
X133Y150D03*
Y6850D03*
X414Y650D03*
Y2650D03*
Y4650D03*
X585Y150D03*
X566Y1250D03*
Y2234D03*
X585Y5350D03*
Y6850D03*
X2585Y150D03*
Y5350D03*
Y6850D03*
X4585Y150D03*
Y5350D03*
Y6850D03*
X6585Y150D03*
Y5350D03*
Y6850D03*
X6944Y650D03*
X6792Y1250D03*
Y2234D03*
X6944Y2650D03*
Y4650D03*
G54D11*
X96Y3322D03*
Y3522D03*
Y3422D03*
X381Y3522D03*
X488Y3322D03*
X888Y1722D03*
X885Y1522D03*
Y2647D03*
X888Y2847D03*
X976Y3772D03*
X888Y3972D03*
X1140Y1722D03*
Y1522D03*
Y1622D03*
Y2647D03*
Y2847D03*
Y2747D03*
Y3772D03*
Y3872D03*
Y3972D03*
X1548Y1722D03*
Y2847D03*
X1586Y3772D03*
X1408Y3972D03*
X1866Y1722D03*
Y1522D03*
Y1622D03*
Y2647D03*
Y2847D03*
Y2747D03*
Y3772D03*
Y3872D03*
Y3972D03*
X2114Y2647D03*
X2246Y1722D03*
Y2847D03*
X2244Y3972D03*
X2592Y1722D03*
Y1522D03*
Y1622D03*
Y2647D03*
Y2847D03*
Y2747D03*
Y3772D03*
Y3872D03*
Y3972D03*
X2840Y1522D03*
X3060Y1722D03*
X2840Y2647D03*
X3060Y2847D03*
X2879Y3772D03*
X3030Y3972D03*
X3318Y1722D03*
Y1522D03*
Y1622D03*
Y2647D03*
Y2847D03*
Y2747D03*
Y3772D03*
Y3872D03*
Y3972D03*
X3633Y1522D03*
Y2647D03*
X3613Y3772D03*
X3766Y1722D03*
Y2847D03*
Y3972D03*
X4044Y1522D03*
Y1722D03*
Y1622D03*
Y2647D03*
Y2847D03*
Y2747D03*
Y3772D03*
Y3872D03*
Y3972D03*
X4308Y1522D03*
X4490Y1722D03*
X4308Y2647D03*
X4490Y2847D03*
X4308Y3772D03*
X4490Y3972D03*
X4770Y1522D03*
Y1722D03*
Y1622D03*
X4770Y2647D03*
Y2847D03*
Y2747D03*
Y3772D03*
Y3872D03*
Y3972D03*
X5042Y1522D03*
Y2647D03*
Y3772D03*
X5496Y1522D03*
Y1722D03*
Y1622D03*
X5244Y1722D03*
X5496Y2647D03*
Y2847D03*
Y2747D03*
X5244Y2847D03*
X5496Y3772D03*
Y3872D03*
Y3972D03*
X5244D03*
X5780Y1522D03*
Y2647D03*
Y3772D03*
X5966Y1722D03*
Y2847D03*
Y3972D03*
X6222Y1522D03*
Y1722D03*
Y1622D03*
X6222Y2647D03*
Y2847D03*
Y2747D03*
Y3772D03*
Y3872D03*
Y3972D03*
X6548Y1522D03*
Y2647D03*
Y3772D03*
G54D12*
X138Y5573D03*
Y6617D03*
X7028Y5573D03*
Y6617D03*
G54D13*
X575Y3707D03*
Y4857D03*
X6825Y3707D03*
Y4857D03*
G54D14*
X894Y1074D03*
Y2199D03*
Y3324D03*
X1387Y832D03*
Y1074D03*
Y1270D03*
X1386Y1940D03*
X1387Y2199D03*
Y2395D03*
X1386Y3073D03*
X1387Y3520D03*
Y3324D03*
X1620Y1074D03*
Y2199D03*
Y3324D03*
X2112Y1074D03*
Y1270D03*
X2112Y1937D03*
X2112Y2199D03*
Y2395D03*
X2112Y3087D03*
X2112Y3324D03*
Y3520D03*
X2346Y1074D03*
Y2199D03*
Y3324D03*
X2838Y1074D03*
X3072D03*
X2838Y1270D03*
X2838Y1937D03*
X2838Y2199D03*
X3072D03*
X2838Y2395D03*
X2838Y3081D03*
X2838Y3324D03*
Y3520D03*
X3072Y3324D03*
X3564Y1074D03*
Y1270D03*
X3564Y1956D03*
X3564Y2199D03*
Y2395D03*
X3564Y3084D03*
X3564Y3324D03*
Y3520D03*
X3798Y1074D03*
Y2199D03*
Y3324D03*
X4290Y1074D03*
Y1270D03*
X4290Y1934D03*
X4290Y2199D03*
Y2395D03*
X4290Y3100D03*
X4290Y3324D03*
Y3520D03*
X4524Y1074D03*
Y2199D03*
Y3324D03*
X5016Y1074D03*
Y1270D03*
X5016Y1943D03*
X5016Y2199D03*
Y2395D03*
X5012Y3084D03*
X5016Y3324D03*
Y3520D03*
X5250Y1074D03*
Y2199D03*
Y3324D03*
X5742Y1074D03*
Y1270D03*
X5742Y1951D03*
X5742Y2199D03*
Y2395D03*
X5742Y3062D03*
X5742Y3324D03*
Y3520D03*
X5976Y1074D03*
Y2199D03*
Y3324D03*
X6468Y831D03*
X6468Y1074D03*
Y1270D03*
X6468Y1956D03*
X6468Y2199D03*
Y2395D03*
X6468Y3081D03*
X6468Y3324D03*
Y3520D03*
G54D15*
X894Y1270D03*
Y2395D03*
Y3520D03*
X1620Y1270D03*
Y2395D03*
Y3520D03*
X2346Y1270D03*
Y2395D03*
Y3520D03*
X3072Y1270D03*
Y2395D03*
Y3520D03*
X3798Y1270D03*
Y2395D03*
Y3520D03*
X4524Y1270D03*
Y2395D03*
Y3520D03*
X5250Y1270D03*
Y2395D03*
Y3520D03*
X5976Y1270D03*
Y2395D03*
Y3520D03*
G54D16*
X2112Y833D03*
X2839Y818D03*
X3564Y860D03*
X4290Y856D03*
X5016Y851D03*
X5742Y859D03*
M02*
