  0
SECTION
  2
HEADER
  9
$ACADVER
  1
AC1015
  9
$ACADMAINTVER
 70
     6
  9
$DWGCODEPAGE
  3
ANSI_1252
  9
$INSBASE
 10
0.0
 20
0.0
 30
0.0
  9
$EXTMIN
 10
-41.808539476
 20
-144.3889022136
 30
0.0
  9
$EXTMAX
 10
313.791460524
 20
33.4110977864
 30
0.0
  9
$LIMMIN
 10
0.0
 20
0.0
  9
$LIMMAX
 10
420.0
 20
297.0
  9
$ORTHOMODE
 70
     0
  9
$REGENMODE
 70
     1
  9
$FILLMODE
 70
     1
  9
$QTEXTMODE
 70
     0
  9
$MIRRTEXT
 70
     1
  9
$LTSCALE
 40
1.0
  9
$ATTMODE
 70
     1
  9
$TEXTSIZE
 40
3.5
  9
$TRACEWID
 40
1.0
  9
$TEXTSTYLE
  7
Standard
  9
$CLAYER
  8
0
  9
$CELTYPE
  6
ByLayer
  9
$CECOLOR
 62
   256
  9
$CELTSCALE
 40
1.0
  9
$DISPSILH
 70
     0
  9
$DIMSCALE
 40
1.0
  9
$DIMASZ
 40
6.0
  9
$DIMEXO
 40
1.0
  9
$DIMDLI
 40
3.75
  9
$DIMRND
 40
0.0
  9
$DIMDLE
 40
0.0
  9
$DIMEXE
 40
1.0
  9
$DIMTP
 40
0.0
  9
$DIMTM
 40
0.0
  9
$DIMTXT
 40
3.5
  9
$DIMCEN
 40
2.5
  9
$DIMTSZ
 40
0.0
  9
$DIMTOL
 70
     0
  9
$DIMLIM
 70
     0
  9
$DIMTIH
 70
     1
  9
$DIMTOH
 70
     1
  9
$DIMSE1
 70
     0
  9
$DIMSE2
 70
     0
  9
$DIMTAD
 70
     1
  9
$DIMZIN
 70
     0
  9
$DIMBLK
  1

  9
$DIMASO
 70
     1
  9
$DIMSHO
 70
     1
  9
$DIMPOST
  1

  9
$DIMAPOST
  1

  9
$DIMALT
 70
     0
  9
$DIMALTD
 70
     3
  9
$DIMALTF
 40
0.0393700787
  9
$DIMLFAC
 40
1.0
  9
$DIMTOFL
 70
     1
  9
$DIMTVP
 40
0.0
  9
$DIMTIX
 70
     0
  9
$DIMSOXD
 70
     0
  9
$DIMSAH
 70
     0
  9
$DIMBLK1
  1

  9
$DIMBLK2
  1

  9
$DIMSTYLE
  2
ISO-25
  9
$DIMCLRD
 70
     0
  9
$DIMCLRE
 70
     0
  9
$DIMCLRT
 70
     0
  9
$DIMTFAC
 40
1.0
  9
$DIMGAP
 40
1.524
  9
$DIMJUST
 70
     0
  9
$DIMSD1
 70
     0
  9
$DIMSD2
 70
     0
  9
$DIMTOLJ
 70
     0
  9
$DIMTZIN
 70
     0
  9
$DIMALTZ
 70
     0
  9
$DIMALTTZ
 70
     0
  9
$DIMUPT
 70
     0
  9
$DIMDEC
 70
     4
  9
$DIMTDEC
 70
     4
  9
$DIMALTU
 70
     2
  9
$DIMALTTD
 70
     3
  9
$DIMTXSTY
  7
Standard
  9
$DIMAUNIT
 70
     0
  9
$DIMADEC
 70
     2
  9
$DIMALTRND
 40
0.0
  9
$DIMAZIN
 70
     0
  9
$DIMDSEP
 70
    44
  9
$DIMATFIT
 70
     3
  9
$DIMFRAC
 70
     0
  9
$DIMLDRBLK
  1

  9
$DIMLUNIT
 70
     2
  9
$DIMLWD
 70
    -2
  9
$DIMLWE
 70
    -2
  9
$DIMTMOVE
 70
     0
  9
$LUNITS
 70
     2
  9
$LUPREC
 70
     4
  9
$SKETCHINC
 40
1.0
  9
$FILLETRAD
 40
10.0
  9
$AUNITS
 70
     0
  9
$AUPREC
 70
     2
  9
$MENU
  1
.
  9
$ELEVATION
 40
0.0
  9
$PELEVATION
 40
0.0
  9
$THICKNESS
 40
0.0
  9
$LIMCHECK
 70
     0
  9
$CHAMFERA
 40
10.0
  9
$CHAMFERB
 40
10.0
  9
$CHAMFERC
 40
20.0
  9
$CHAMFERD
 40
0.0
  9
$SKPOLY
 70
     0
  9
$TDCREATE
 40
2456184.866950764
  9
$TDUCREATE
 40
2456185.03361743
  9
$TDUPDATE
 40
2456184.866950775
  9
$TDUUPDATE
 40
2456185.033617442
  9
$TDINDWG
 40
0.0000000116
  9
$TDUSRTIMER
 40
0.0000000116
  9
$USRTIMER
 70
     1
  9
$ANGBASE
 50
0.0
  9
$ANGDIR
 70
     0
  9
$PDMODE
 70
     0
  9
$PDSIZE
 40
-1.0
  9
$PLINEWID
 40
0.0
  9
$SPLFRAME
 70
     0
  9
$SPLINETYPE
 70
     6
  9
$SPLINESEGS
 70
     8
  9
$HANDSEED
  5
3B5
  9
$SURFTAB1
 70
     6
  9
$SURFTAB2
 70
     6
  9
$SURFTYPE
 70
     6
  9
$SURFU
 70
     6
  9
$SURFV
 70
     6
  9
$UCSBASE
  2

  9
$UCSNAME
  2

  9
$UCSORG
 10
0.0
 20
0.0
 30
0.0
  9
$UCSXDIR
 10
1.0
 20
0.0
 30
0.0
  9
$UCSYDIR
 10
0.0
 20
1.0
 30
0.0
  9
$UCSORTHOREF
  2

  9
$UCSORTHOVIEW
 70
     0
  9
$UCSORGTOP
 10
0.0
 20
0.0
 30
0.0
  9
$UCSORGBOTTOM
 10
0.0
 20
0.0
 30
0.0
  9
$UCSORGLEFT
 10
0.0
 20
0.0
 30
0.0
  9
$UCSORGRIGHT
 10
0.0
 20
0.0
 30
0.0
  9
$UCSORGFRONT
 10
0.0
 20
0.0
 30
0.0
  9
$UCSORGBACK
 10
0.0
 20
0.0
 30
0.0
  9
$PUCSBASE
  2

  9
$PUCSNAME
  2

  9
$PUCSORG
 10
0.0
 20
0.0
 30
0.0
  9
$PUCSXDIR
 10
1.0
 20
0.0
 30
0.0
  9
$PUCSYDIR
 10
0.0
 20
1.0
 30
0.0
  9
$PUCSORTHOREF
  2

  9
$PUCSORTHOVIEW
 70
     0
  9
$PUCSORGTOP
 10
0.0
 20
0.0
 30
0.0
  9
$PUCSORGBOTTOM
 10
0.0
 20
0.0
 30
0.0
  9
$PUCSORGLEFT
 10
0.0
 20
0.0
 30
0.0
  9
$PUCSORGRIGHT
 10
0.0
 20
0.0
 30
0.0
  9
$PUCSORGFRONT
 10
0.0
 20
0.0
 30
0.0
  9
$PUCSORGBACK
 10
0.0
 20
0.0
 30
0.0
  9
$USERI1
 70
     0
  9
$USERI2
 70
     0
  9
$USERI3
 70
     0
  9
$USERI4
 70
     0
  9
$USERI5
 70
     0
  9
$USERR1
 40
0.0
  9
$USERR2
 40
0.0
  9
$USERR3
 40
0.0
  9
$USERR4
 40
0.0
  9
$USERR5
 40
0.0
  9
$WORLDVIEW
 70
     1
  9
$SHADEDGE
 70
     3
  9
$SHADEDIF
 70
    70
  9
$TILEMODE
 70
     1
  9
$MAXACTVP
 70
    64
  9
$PINSBASE
 10
0.0
 20
0.0
 30
0.0
  9
$PLIMCHECK
 70
     0
  9
$PEXTMIN
 10
1.0000000000E+20
 20
1.0000000000E+20
 30
1.0000000000E+20
  9
$PEXTMAX
 10
-1.0000000000E+20
 20
-1.0000000000E+20
 30
-1.0000000000E+20
  9
$PLIMMIN
 10
0.0
 20
0.0
  9
$PLIMMAX
 10
420.0
 20
297.0
  9
$UNITMODE
 70
     0
  9
$VISRETAIN
 70
     1
  9
$PLINEGEN
 70
     0
  9
$PSLTSCALE
 70
     1
  9
$TREEDEPTH
 70
  3020
  9
$CMLSTYLE
  2
Standard
  9
$CMLJUST
 70
     0
  9
$CMLSCALE
 40
20.0
  9
$PROXYGRAPHICS
 70
     1
  9
$MEASUREMENT
 70
     1
  9
$CELWEIGHT
370
    -1
  9
$ENDCAPS
280
     0
  9
$JOINSTYLE
280
     0
  9
$LWDISPLAY
290
     1
  9
$INSUNITS
 70
     4
  9
$HYPERLINKBASE
  1

  9
$STYLESHEET
  1

  9
$XEDIT
290
     1
  9
$CEPSNTYPE
380
     0
  9
$PSTYLEMODE
290
     1
  9
$FINGERPRINTGUID
  2
{44706FB9-1F15-4D23-9C38-FFC18D5CD8D3}
  9
$VERSIONGUID
  2
{FAEB1C32-E019-11D5-929B-00C0DF256EC4}
  9
$EXTNAMES
290
     1
  9
$PSVPSCALE
 40
0.0
  9
$OLESTARTUP
290
     0
  0
ENDSEC
  0
SECTION
  2
CLASSES
  0
CLASS
  1
ACDBDICTIONARYWDFLT
  2
AcDbDictionaryWithDefault
  3
ObjectDBX Classes
 90
        0
280
     0
281
     0
  0
CLASS
  1
VISUALSTYLE
  2
AcDbVisualStyle
  3
ObjectDBX Classes
 90
     4095
280
     0
281
     0
  0
CLASS
  1
MATERIAL
  2
AcDbMaterial
  3
ObjectDBX Classes
 90
     1153
280
     0
281
     0
  0
CLASS
  1
SCALE
  2
AcDbScale
  3
ObjectDBX Classes
 90
     1153
280
     0
281
     0
  0
CLASS
  1
DICTIONARYVAR
  2
AcDbDictionaryVar
  3
ObjectDBX Classes
 90
        0
280
     0
281
     0
  0
CLASS
  1
ACDBPLACEHOLDER
  2
AcDbPlaceHolder
  3
ObjectDBX Classes
 90
        0
280
     0
281
     0
  0
CLASS
  1
LAYOUT
  2
AcDbLayout
  3
ObjectDBX Classes
 90
        0
280
     0
281
     0
  0
ENDSEC
  0
SECTION
  2
TABLES
  0
TABLE
  2
VPORT
  5
8
330
0
100
AcDbSymbolTable
 70
     1
  0
VPORT
  5
29
330
8
100
AcDbSymbolTableRecord
100
AcDbViewportTableRecord
  2
*Active
 70
     0
 10
0.0
 20
0.0
 11
1.0
 21
1.0
 12
135.991460524
 22
-55.4889022136
 13
0.0
 23
0.0
 14
10.0
 24
10.0
 15
10.0
 25
10.0
 16
0.0
 26
0.0
 36
1.0
 17
0.0
 27
0.0
 37
0.0
 40
181.356
 41
2.0
 42
50.0
 43
0.0
 44
0.0
 50
0.0
 51
0.0
 71
     0
 72
   100
 73
     1
 74
     3
 75
     0
 76
     0
 77
     0
 78
     0
281
     0
 65
     1
110
0.0
120
0.0
130
0.0
111
1.0
121
0.0
131
0.0
112
0.0
122
1.0
132
0.0
 79
     0
146
0.0
  0
ENDTAB
  0
TABLE
  2
LTYPE
  5
5
330
0
100
AcDbSymbolTable
 70
     6
  0
LTYPE
  5
14
330
5
100
AcDbSymbolTableRecord
100
AcDbLinetypeTableRecord
  2
ByBlock
 70
     0
  3

 72
    65
 73
     0
 40
0.0
  0
LTYPE
  5
15
330
5
100
AcDbSymbolTableRecord
100
AcDbLinetypeTableRecord
  2
ByLayer
 70
     0
  3

 72
    65
 73
     0
 40
0.0
  0
LTYPE
  5
16
330
5
100
AcDbSymbolTableRecord
100
AcDbLinetypeTableRecord
  2
Continuous
 70
     0
  3
Solid line
 72
    65
 73
     0
 40
0.0
  0
LTYPE
  5
3F
330
5
100
AcDbSymbolTableRecord
100
AcDbLinetypeTableRecord
  2
HIDDEN
 70
     0
  3
Hidden __ __ __ __ __ __ __ __ __ __ __ __ __ __
 72
    65
 73
     2
 40
1.905
 49
1.27
 74
     0
 49
-0.635
 74
     0
  0
LTYPE
  5
40
330
5
100
AcDbSymbolTableRecord
100
AcDbLinetypeTableRecord
  2
PHANTOM
 70
     0
  3
Phantom ______  __  __  ______  __  __  ______
 72
    65
 73
     6
 40
12.7
 49
6.35
 74
     0
 49
-1.27
 74
     0
 49
1.27
 74
     0
 49
-1.27
 74
     0
 49
1.27
 74
     0
 49
-1.27
 74
     0
  0
LTYPE
  5
41
330
5
100
AcDbSymbolTableRecord
100
AcDbLinetypeTableRecord
  2
CENTER
 70
     0
  3
Center ____ _ ____ _ ____ _ ____ _ ____ _ ____
 72
    65
 73
     4
 40
10.16
 49
6.35
 74
     0
 49
-1.27
 74
     0
 49
1.27
 74
     0
 49
-1.27
 74
     0
  0
LTYPE
  5
42
330
5
100
AcDbSymbolTableRecord
100
AcDbLinetypeTableRecord
  2
CENTERX2
 70
     0
  3
Center (2x) ________  __  ________  __  _____
 72
    65
 73
     4
 40
20.32
 49
12.7
 74
     0
 49
-2.54
 74
     0
 49
2.54
 74
     0
 49
-2.54
 74
     0
  0
LTYPE
  5
43
330
5
100
AcDbSymbolTableRecord
100
AcDbLinetypeTableRecord
  2
DOT2
 70
     0
  3
Dot (.5x) ........................................
 72
    65
 73
     2
 40
0.635
 49
0.0
 74
     0
 49
-0.635
 74
     0
  0
ENDTAB
  0
TABLE
  2
LAYER
  5
2
330
0
100
AcDbSymbolTable
 70
     1
  0
LAYER
  5
10
330
2
100
AcDbSymbolTableRecord
100
AcDbLayerTableRecord
  2
0
 70
     0
 62
     7
  6
Continuous
370
    -3
390
F
  0
ENDTAB
  0
TABLE
  2
STYLE
  5
3
330
0
100
AcDbSymbolTable
 70
     1
  0
STYLE
  5
11
330
3
100
AcDbSymbolTableRecord
100
AcDbTextStyleTableRecord
  2
Standard
 70
     0
 40
0.0
 41
1.0
 50
0.0
 71
     0
 42
2.5
  3
txt
  4

  0
ENDTAB
  0
TABLE
  2
VIEW
  5
6
330
0
100
AcDbSymbolTable
 70
     0
  0
ENDTAB
  0
TABLE
  2
UCS
  5
7
330
0
100
AcDbSymbolTable
 70
     0
  0
ENDTAB
  0
TABLE
  2
APPID
  5
9
330
0
100
AcDbSymbolTable
 70
     1
  0
APPID
  5
12
330
9
100
AcDbSymbolTableRecord
100
AcDbRegAppTableRecord
  2
ACAD
 70
     0
  0
ENDTAB
  0
TABLE
  2
DIMSTYLE
  5
A
330
0
100
AcDbSymbolTable
 70
     1
100
AcDbDimStyleTable
  0
DIMSTYLE
105
27
330
A
100
AcDbSymbolTableRecord
100
AcDbDimStyleTableRecord
  2
ISO-25
 70
     0
 41
2.5
 42
0.625
 43
3.75
 44
1.25
 73
     0
 74
     0
 77
     1
 78
     8
140
2.5
141
2.5
143
0.0393700787
147
0.625
171
     3
172
     1
178
     0
271
     2
272
     2
274
     3
278
    44
283
     0
284
     8
340
11
  0
ENDTAB
  0
TABLE
  2
BLOCK_RECORD
  5
1
330
0
100
AcDbSymbolTable
 70
     1
  0
BLOCK_RECORD
  5
1F
330
1
100
AcDbSymbolTableRecord
100
AcDbBlockTableRecord
  2
*Model_Space
340
22
  0
BLOCK_RECORD
  5
1B
330
1
100
AcDbSymbolTableRecord
100
AcDbBlockTableRecord
  2
*Paper_Space
340
1E
  0
BLOCK_RECORD
  5
23
330
1
100
AcDbSymbolTableRecord
100
AcDbBlockTableRecord
  2
*Paper_Space0
340
26
  0
ENDTAB
  0
ENDSEC
  0
SECTION
  2
BLOCKS
  0
BLOCK
  5
20
330
1F
100
AcDbEntity
  8
0
100
AcDbBlockBegin
  2
*Model_Space
 70
     0
 10
0.0
 20
0.0
 30
0.0
  3
*Model_Space
  1

  0
ENDBLK
  5
21
330
1F
100
AcDbEntity
  8
0
100
AcDbBlockEnd
  0
BLOCK
  5
1C
330
1B
100
AcDbEntity
 67
     1
  8
0
100
AcDbBlockBegin
  2
*Paper_Space
 70
     0
 10
0.0
 20
0.0
 30
0.0
  3
*Paper_Space
  1

  0
ENDBLK
  5
1D
330
1B
100
AcDbEntity
 67
     1
  8
0
100
AcDbBlockEnd
  0
BLOCK
  5
24
330
23
100
AcDbEntity
  8
0
100
AcDbBlockBegin
  2
*Paper_Space0
 70
     0
 10
0.0
 20
0.0
 30
0.0
  3
*Paper_Space0
  1

  0
ENDBLK
  5
25
330
23
100
AcDbEntity
  8
0
100
AcDbBlockEnd
  0
ENDSEC
  0
SECTION
  2
ENTITIES
  0
CIRCLE
  5
44
330
1F
100
AcDbEntity
  8
0
  6
CENTERX2
 62
     7
100
AcDbCircle
 10
175.2496140973
 20
-71.2046341365
 30
0.0
 40
1.166666666666677
  0
CIRCLE
  5
45
330
1F
100
AcDbEntity
  8
0
  6
CENTERX2
 62
     7
100
AcDbCircle
 10
164.4954283499
 20
-71.9086086628
 30
0.0
 40
1.166666666666677
  0
CIRCLE
  5
46
330
1F
100
AcDbEntity
  8
0
  6
CENTERX2
 62
     7
100
AcDbCircle
 10
256.8005643053
 20
-129.8414758948
 30
0.0
 40
1.750003363446659
  0
CIRCLE
  5
47
330
1F
100
AcDbEntity
  8
0
  6
CENTERX2
 62
     7
100
AcDbCircle
 10
268.2718861762
 20
-128.6524076257
 30
0.0
 40
1.010362971081903
  0
LINE
  5
48
330
1F
100
AcDbEntity
  8
0
  6
Continuous
 62
     7
100
AcDbLine
 10
284.2311138264
 20
-133.1870739624
 30
0.0
 11
284.2311138264
 21
-136.6870739624
 31
0.0
  0
LINE
  5
49
330
1F
100
AcDbEntity
  8
0
  6
Continuous
 62
     7
100
AcDbLine
 10
175.2496140973
 20
-68.8713008031
 30
0.0
 11
173.2288881551
 21
-72.3713008031
 31
0.0
  0
LINE
  5
4A
330
1F
100
AcDbEntity
  8
0
  6
Continuous
 62
     7
100
AcDbLine
 10
173.2288881551
 20
-72.3713008031
 30
0.0
 11
177.2703400394
 21
-72.3713008031
 31
0.0
  0
LINE
  5
4B
330
1F
100
AcDbEntity
  8
0
  6
Continuous
 62
     7
100
AcDbLine
 10
162.478922333
 20
-70.7346632091
 30
0.0
 11
164.4870147728
 21
-74.2419268272
 31
0.0
  0
LINE
  5
4C
330
1F
100
AcDbEntity
  8
0
  6
Continuous
 62
     7
100
AcDbLine
 10
164.4870147728
 20
-74.2419268272
 30
0.0
 11
166.5203479439
 21
-70.7492359522
 31
0.0
  0
LINE
  5
4D
330
1F
100
AcDbEntity
  8
0
  6
Continuous
 62
     7
100
AcDbLine
 10
166.5203479439
 20
-70.7492359522
 30
0.0
 11
162.478922333
 21
-70.7346632091
 31
0.0
  0
LINE
  5
4E
330
1F
100
AcDbEntity
  8
0
  6
Continuous
 62
     7
100
AcDbLine
 10
258.5471332595
 20
-128.0880448491
 30
0.0
 11
255.0471332595
 21
-128.0949069405
 31
0.0
  0
LINE
  5
4F
330
1F
100
AcDbEntity
  8
0
  6
Continuous
 62
     7
100
AcDbLine
 10
255.0471332595
 20
-128.0949069405
 30
0.0
 11
255.053995351
 21
-131.5949069405
 31
0.0
  0
LINE
  5
50
330
1F
100
AcDbEntity
  8
0
  6
Continuous
 62
     7
100
AcDbLine
 10
255.053995351
 20
-131.5949069405
 30
0.0
 11
258.553995351
 21
-131.5880448491
 31
0.0
  0
LINE
  5
51
330
1F
100
AcDbEntity
  8
0
  6
Continuous
 62
     7
100
AcDbLine
 10
258.553995351
 20
-131.5880448491
 30
0.0
 11
258.5471332595
 21
-128.0880448491
 31
0.0
  0
LINE
  5
52
330
1F
100
AcDbEntity
  8
0
  6
Continuous
 62
     7
100
AcDbLine
 10
270.2926121184
 20
-128.6524076257
 30
0.0
 11
267.2615232051
 21
-126.9024076257
 31
0.0
  0
LINE
  5
53
330
1F
100
AcDbEntity
  8
0
  6
Continuous
 62
     7
100
AcDbLine
 10
267.2615232051
 20
-126.9024076257
 30
0.0
 11
267.2615232051
 21
-130.4024076257
 31
0.0
  0
LINE
  5
54
330
1F
100
AcDbEntity
  8
0
  6
Continuous
 62
     7
100
AcDbLine
 10
267.2615232051
 20
-130.4024076257
 30
0.0
 11
270.2926121184
 21
-128.6524076257
 31
0.0
  0
LINE
  5
55
330
1F
100
AcDbEntity
  8
0
  6
Continuous
 62
     7
100
AcDbLine
 10
284.2311138264
 20
-136.6870739624
 30
0.0
 11
285.9811138264
 21
-134.9370739624
 31
0.0
  0
LINE
  5
56
330
1F
100
AcDbEntity
  8
0
  6
Continuous
 62
     7
100
AcDbLine
 10
285.9811138264
 20
-134.9370739624
 30
0.0
 11
284.2311138264
 21
-133.1870739624
 31
0.0
  0
LINE
  5
57
330
1F
100
AcDbEntity
  8
0
  6
Continuous
 62
     7
100
AcDbLine
 10
285.9811138264
 20
-133.1870739624
 30
0.0
 11
285.9811138264
 21
-136.6870739624
 31
0.0
  0
LINE
  5
58
330
1F
100
AcDbEntity
  8
0
  6
Continuous
 62
     7
100
AcDbLine
 10
285.9811138264
 20
-136.6870739624
 30
0.0
 11
287.7311138264
 21
-134.9707492505
 31
0.0
  0
LINE
  5
59
330
1F
100
AcDbEntity
  8
0
  6
Continuous
 62
     7
100
AcDbLine
 10
287.7311138264
 20
-134.9707492505
 30
0.0
 11
285.9811138264
 21
-133.1870739624
 31
0.0
  0
LINE
  5
5A
330
1F
100
AcDbEntity
  8
0
  6
Continuous
 62
     7
100
AcDbLine
 10
177.2703400394
 20
-72.3713008031
 30
0.0
 11
175.2496140973
 21
-68.8713008031
 31
0.0
  0
LINE
  5
5B
330
1F
100
AcDbEntity
  8
0
  6
Continuous
 62
     7
100
AcDbLine
 10
233.3825992766
 20
-127.51042268
 30
0.0
 11
234.5492659433
 21
-127.51042268
 31
0.0
  0
LINE
  5
5C
330
1F
100
AcDbEntity
  8
0
  6
Continuous
 62
     7
100
AcDbLine
 10
233.3825992766
 20
-127.51042268
 30
0.0
 11
233.3825992766
 21
-131.01042268
 31
0.0
  0
LINE
  5
5D
330
1F
100
AcDbEntity
  8
0
  6
Continuous
 62
     7
100
AcDbLine
 10
233.3825992766
 20
-131.01042268
 30
0.0
 11
234.5492659433
 21
-131.01042268
 31
0.0
  0
LINE
  5
5E
330
1F
100
AcDbEntity
  8
0
  6
Continuous
 62
     7
100
AcDbLine
 10
234.5492659433
 20
-127.51042268
 30
0.0
 11
234.5492659433
 21
-131.01042268
 31
0.0
  0
LINE
  5
5F
330
1F
100
AcDbEntity
  8
0
  6
Continuous
 62
     7
100
AcDbLine
 10
235.71593261
 20
-127.51042268
 30
0.0
 11
236.8825992766
 21
-127.51042268
 31
0.0
  0
LINE
  5
60
330
1F
100
AcDbEntity
  8
0
  6
Continuous
 62
     7
100
AcDbLine
 10
235.71593261
 20
-127.51042268
 30
0.0
 11
235.71593261
 21
-131.01042268
 31
0.0
  0
LINE
  5
61
330
1F
100
AcDbEntity
  8
0
  6
Continuous
 62
     7
100
AcDbLine
 10
235.71593261
 20
-131.01042268
 30
0.0
 11
236.8825992766
 21
-131.01042268
 31
0.0
  0
LINE
  5
62
330
1F
100
AcDbEntity
  8
0
  6
Continuous
 62
     7
100
AcDbLine
 10
236.8825992766
 20
-127.51042268
 30
0.0
 11
236.8825992766
 21
-131.01042268
 31
0.0
  0
LINE
  5
63
330
1F
100
AcDbEntity
  8
0
  6
Continuous
 62
     7
100
AcDbLine
 10
204.5680152198
 20
-132.2250576081
 30
0.0
 11
206.6846802198
 21
-130.1707351353
 31
0.0
  0
LINE
  5
64
330
1F
100
AcDbEntity
  8
0
  6
Continuous
 62
     7
100
AcDbLine
 10
206.6846802198
 20
-134.4040651353
 30
0.0
 11
204.5680152198
 21
-132.2250576081
 31
0.0
  0
LINE
  5
65
330
1F
100
AcDbEntity
  8
0
  6
Continuous
 62
     7
100
AcDbLine
 10
206.6846802198
 20
-130.1707351353
 30
0.0
 11
206.6846802198
 21
-134.4040651353
 31
0.0
  0
LINE
  5
66
330
1F
100
AcDbEntity
  8
0
  6
Continuous
 62
     7
100
AcDbLine
 10
206.6846802198
 20
-132.19138232
 30
0.0
 11
208.8013452198
 21
-130.1370598471
 31
0.0
  0
LINE
  5
67
330
1F
100
AcDbEntity
  8
0
  6
Continuous
 62
     7
100
AcDbLine
 10
208.8013452198
 20
-134.3703898471
 30
0.0
 11
206.6846802198
 21
-132.19138232
 31
0.0
  0
LINE
  5
68
330
1F
100
AcDbEntity
  8
0
  6
Continuous
 62
     7
100
AcDbLine
 10
208.8013452198
 20
-130.1370598471
 30
0.0
 11
208.8013452198
 21
-134.3703898471
 31
0.0
  0
CIRCLE
  5
69
330
1F
100
AcDbEntity
  8
0
  6
Continuous
 62
     7
370
    15
100
AcDbCircle
 10
309.923040524
 20
-26.2789022136
 30
0.0
 40
1.828800000000012
  0
CIRCLE
  5
6A
330
1F
100
AcDbEntity
  8
0
  6
Continuous
 62
     7
370
    15
100
AcDbCircle
 10
148.409520524
 20
-140.5789022136
 30
0.0
 40
1.828800000000001
  0
CIRCLE
  5
6B
330
1F
100
AcDbEntity
  8
0
  6
Continuous
 62
     7
370
    15
100
AcDbCircle
 10
199.209520524
 20
-140.5789022136
 30
0.0
 40
1.828800000000001
  0
CIRCLE
  5
6C
330
1F
100
AcDbEntity
  8
0
  6
Continuous
 62
     7
370
    15
100
AcDbCircle
 10
-38.056959476
 20
-26.2789022136
 30
0.0
 40
1.828799999999987
  0
CIRCLE
  5
6D
330
1F
100
AcDbEntity
  8
0
  6
Continuous
 62
     7
370
    15
100
AcDbCircle
 10
118.691520524
 20
-140.5789022136
 30
0.0
 40
1.828800000000058
  0
CIRCLE
  5
6E
330
1F
100
AcDbEntity
  8
0
  6
Continuous
 62
     7
370
    15
100
AcDbCircle
 10
67.891520524
 20
-140.5789022136
 30
0.0
 40
1.82880000000003
  0
CIRCLE
  5
6F
330
1F
100
AcDbEntity
  8
0
  6
Continuous
 62
     7
370
    15
100
AcDbCircle
 10
236.274267324
 20
-74.6151022136
 30
0.0
 40
2.666999999999973
  0
CIRCLE
  5
70
330
1F
100
AcDbEntity
  8
0
  6
Continuous
 62
     7
370
    15
100
AcDbCircle
 10
254.711771724
 20
-74.6151022136
 30
0.0
 40
2.666999999999945
  0
CIRCLE
  5
111
330
1F
100
AcDbEntity
  8
0
  6
Continuous
 62
     7
370
    15
100
AcDbCircle
 10
35.716273724
 20
-74.6151022136
 30
0.0
 40
2.667000000000016
  0
CIRCLE
  5
112
330
1F
100
AcDbEntity
  8
0
  6
Continuous
 62
     7
370
    15
100
AcDbCircle
 10
17.278769324
 20
-74.6151022136
 30
0.0
 40
2.667000000000016
  0
CIRCLE
  5
117
330
1F
100
AcDbEntity
  8
0
  6
Continuous
 62
     7
370
    15
100
AcDbCircle
 10
-19.596239476
 20
-27.3990422136
 30
0.0
 40
5.920740000000009
  0
CIRCLE
  5
118
330
1F
100
AcDbEntity
  8
0
  6
Continuous
 62
     7
370
    15
100
AcDbCircle
 10
162.521760524
 20
-27.3990422136
 30
0.0
 40
5.920739999999956
  0
CIRCLE
  5
119
330
1F
100
AcDbEntity
  8
0
  6
Continuous
 62
     7
370
    15
100
AcDbCircle
 10
-1.158379476
 20
-27.3990422136
 30
0.0
 40
5.920740000000006
  0
CIRCLE
  5
11A
330
1F
100
AcDbEntity
  8
0
  6
Continuous
 62
     7
370
    15
100
AcDbCircle
 10
180.959620524
 20
-27.3990422136
 30
0.0
 40
5.920739999999956
  0
CIRCLE
  5
11B
330
1F
100
AcDbEntity
  8
0
  6
Continuous
 62
     7
370
    15
100
AcDbCircle
 10
199.397480524
 20
-27.3990422136
 30
0.0
 40
5.920739999999956
  0
CIRCLE
  5
11C
330
1F
100
AcDbEntity
  8
0
  6
Continuous
 62
     7
370
    15
100
AcDbCircle
 10
217.835340524
 20
-27.3990422136
 30
0.0
 40
5.920740000000059
  0
CIRCLE
  5
11D
330
1F
100
AcDbEntity
  8
0
  6
Continuous
 62
     7
370
    15
100
AcDbCircle
 10
236.273200524
 20
-27.3990422136
 30
0.0
 40
5.920739999999956
  0
CIRCLE
  5
11E
330
1F
100
AcDbEntity
  8
0
  6
Continuous
 62
     7
370
    15
100
AcDbCircle
 10
254.711060524
 20
-27.3990422136
 30
0.0
 40
5.92074000000007
  0
CIRCLE
  5
11F
330
1F
100
AcDbEntity
  8
0
  6
Continuous
 62
     7
370
    15
100
AcDbCircle
 10
273.148920524
 20
-27.3990422136
 30
0.0
 40
5.920740000000027
  0
CIRCLE
  5
120
330
1F
100
AcDbEntity
  8
0
  6
Continuous
 62
     7
370
    15
100
AcDbCircle
 10
291.586780524
 20
-27.3990422136
 30
0.0
 40
5.920740000000027
  0
CIRCLE
  5
121
330
1F
100
AcDbEntity
  8
0
  6
Continuous
 62
     7
370
    15
100
AcDbCircle
 10
17.279480524
 20
-27.3990422136
 30
0.0
 40
5.920740000000006
  0
CIRCLE
  5
122
330
1F
100
AcDbEntity
  8
0
  6
Continuous
 62
     7
370
    15
100
AcDbCircle
 10
35.717340524
 20
-27.3990422136
 30
0.0
 40
5.920740000000006
  0
CIRCLE
  5
123
330
1F
100
AcDbEntity
  8
0
  6
Continuous
 62
     7
370
    15
100
AcDbCircle
 10
54.155200524
 20
-27.3990422136
 30
0.0
 40
5.920740000000006
  0
CIRCLE
  5
124
330
1F
100
AcDbEntity
  8
0
  6
Continuous
 62
     7
370
    15
100
AcDbCircle
 10
72.593060524
 20
-27.3990422136
 30
0.0
 40
5.920740000000038
  0
CIRCLE
  5
125
330
1F
100
AcDbEntity
  8
0
  6
Continuous
 62
     7
370
    15
100
AcDbCircle
 10
91.030920524
 20
-27.3990422136
 30
0.0
 40
5.920740000000038
  0
CIRCLE
  5
126
330
1F
100
AcDbEntity
  8
0
  6
Continuous
 62
     7
370
    15
100
AcDbCircle
 10
109.468780524
 20
-27.3990422136
 30
0.0
 40
5.920740000000038
  0
CIRCLE
  5
133
330
1F
100
AcDbEntity
  8
0
  6
Continuous
 62
     7
370
    15
100
AcDbCircle
 10
-19.596239476
 20
-46.0401022136
 30
0.0
 40
2.667000000000002
  0
CIRCLE
  5
134
330
1F
100
AcDbEntity
  8
0
  6
Continuous
 62
     7
370
    15
100
AcDbCircle
 10
-1.158735076
 20
-74.6151022136
 30
0.0
 40
2.667000000000016
  0
CIRCLE
  5
135
330
1F
100
AcDbEntity
  8
0
  6
Continuous
 62
     7
370
    15
100
AcDbCircle
 10
-19.596239476
 20
-74.6151022136
 30
0.0
 40
2.667000000000016
  0
CIRCLE
  5
136
330
1F
100
AcDbEntity
  8
0
  6
Continuous
 62
     7
370
    15
100
AcDbCircle
 10
-19.596239476
 20
-103.1901022136
 30
0.0
 40
2.667000000000016
  0
CIRCLE
  5
137
330
1F
100
AcDbEntity
  8
0
  6
Continuous
 62
     7
370
    15
100
AcDbCircle
 10
-1.158735076
 20
-46.0401022136
 30
0.0
 40
2.667000000000009
  0
CIRCLE
  5
138
330
1F
100
AcDbEntity
  8
0
  6
Continuous
 62
     7
370
    15
100
AcDbCircle
 10
-1.158735076
 20
-103.1901022136
 30
0.0
 40
2.667000000000016
  0
CIRCLE
  5
139
330
1F
100
AcDbEntity
  8
0
  6
Continuous
 62
     7
370
    15
100
AcDbCircle
 10
17.278769324
 20
-46.0401022136
 30
0.0
 40
2.667000000000002
  0
CIRCLE
  5
13A
330
1F
100
AcDbEntity
  8
0
  6
Continuous
 62
     7
370
    15
100
AcDbCircle
 10
17.278769324
 20
-103.1901022136
 30
0.0
 40
2.667000000000016
  0
CIRCLE
  5
13B
330
1F
100
AcDbEntity
  8
0
  6
Continuous
 62
     7
370
    15
100
AcDbCircle
 10
35.716273724
 20
-46.0401022136
 30
0.0
 40
2.667000000000002
  0
CIRCLE
  5
13C
330
1F
100
AcDbEntity
  8
0
  6
Continuous
 62
     7
370
    15
100
AcDbCircle
 10
35.716273724
 20
-103.1901022136
 30
0.0
 40
2.667000000000016
  0
CIRCLE
  5
13D
330
1F
100
AcDbEntity
  8
0
  6
Continuous
 62
     7
370
    15
100
AcDbCircle
 10
54.153778124
 20
-46.0401022136
 30
0.0
 40
2.667000000000009
  0
CIRCLE
  5
13E
330
1F
100
AcDbEntity
  8
0
  6
Continuous
 62
     7
370
    15
100
AcDbCircle
 10
72.591282524
 20
-46.0401022136
 30
0.0
 40
2.667000000000009
  0
CIRCLE
  5
13F
330
1F
100
AcDbEntity
  8
0
  6
Continuous
 62
     7
370
    15
100
AcDbCircle
 10
91.028786924
 20
-46.0401022136
 30
0.0
 40
2.666999999999987
  0
CIRCLE
  5
140
330
1F
100
AcDbEntity
  8
0
  6
Continuous
 62
     7
370
    15
100
AcDbCircle
 10
109.466291324
 20
-46.0401022136
 30
0.0
 40
2.666999999999987
  0
CIRCLE
  5
1F9
330
1F
100
AcDbEntity
  8
0
  6
Continuous
 62
     7
370
    15
100
AcDbCircle
 10
135.994724424
 20
-100.1422419136
 30
0.0
 40
21.06167999999997
  0
CIRCLE
  5
1FA
330
1F
100
AcDbEntity
  8
0
  6
Continuous
 62
     7
370
    15
100
AcDbCircle
 10
291.586780524
 20
-46.0401022136
 30
0.0
 40
2.667000000000016
  0
CIRCLE
  5
1FB
330
1F
100
AcDbEntity
  8
0
  6
Continuous
 62
     7
370
    15
100
AcDbCircle
 10
273.149276124
 20
-74.6151022136
 30
0.0
 40
2.666999999999973
  0
CIRCLE
  5
1FC
330
1F
100
AcDbEntity
  8
0
  6
Continuous
 62
     7
370
    15
100
AcDbCircle
 10
291.586780524
 20
-74.6151022136
 30
0.0
 40
2.666999999999959
  0
CIRCLE
  5
1FD
330
1F
100
AcDbEntity
  8
0
  6
Continuous
 62
     7
370
    15
100
AcDbCircle
 10
291.586780524
 20
-103.1901022136
 30
0.0
 40
2.666999999999959
  0
CIRCLE
  5
1FE
330
1F
100
AcDbEntity
  8
0
  6
Continuous
 62
     7
370
    15
100
AcDbCircle
 10
273.149276124
 20
-46.0401022136
 30
0.0
 40
2.66699999999998
  0
CIRCLE
  5
1FF
330
1F
100
AcDbEntity
  8
0
  6
Continuous
 62
     7
370
    15
100
AcDbCircle
 10
273.149276124
 20
-103.1901022136
 30
0.0
 40
2.666999999999987
  0
CIRCLE
  5
200
330
1F
100
AcDbEntity
  8
0
  6
Continuous
 62
     7
370
    15
100
AcDbCircle
 10
254.711771724
 20
-46.0401022136
 30
0.0
 40
2.666999999999994
  0
CIRCLE
  5
201
330
1F
100
AcDbEntity
  8
0
  6
Continuous
 62
     7
370
    15
100
AcDbCircle
 10
254.711771724
 20
-103.1901022136
 30
0.0
 40
2.667000000000016
  0
CIRCLE
  5
202
330
1F
100
AcDbEntity
  8
0
  6
Continuous
 62
     7
370
    15
100
AcDbCircle
 10
236.274267324
 20
-46.0401022136
 30
0.0
 40
2.666999999999952
  0
CIRCLE
  5
203
330
1F
100
AcDbEntity
  8
0
  6
Continuous
 62
     7
370
    15
100
AcDbCircle
 10
236.274267324
 20
-103.1901022136
 30
0.0
 40
2.666999999999959
  0
CIRCLE
  5
204
330
1F
100
AcDbEntity
  8
0
  6
Continuous
 62
     7
370
    15
100
AcDbCircle
 10
217.836762924
 20
-46.0401022136
 30
0.0
 40
2.666999999999966
  0
CIRCLE
  5
205
330
1F
100
AcDbEntity
  8
0
  6
Continuous
 62
     7
370
    15
100
AcDbCircle
 10
199.399258524
 20
-46.0401022136
 30
0.0
 40
2.666999999999966
  0
CIRCLE
  5
206
330
1F
100
AcDbEntity
  8
0
  6
Continuous
 62
     7
370
    15
100
AcDbCircle
 10
180.961754124
 20
-46.0401022136
 30
0.0
 40
2.666999999999959
  0
CIRCLE
  5
207
330
1F
100
AcDbEntity
  8
0
  6
Continuous
 62
     7
370
    15
100
AcDbCircle
 10
162.524249724
 20
-46.0401022136
 30
0.0
 40
2.666999999999959
  0
CIRCLE
  5
208
330
1F
100
AcDbEntity
  8
0
  6
Continuous
 62
     7
370
    15
100
AcDbCircle
 10
135.995080024
 20
-57.2797419136
 30
0.0
 40
2.749994500000007
  0
CIRCLE
  5
209
330
1F
100
AcDbEntity
  8
0
  6
Continuous
 62
     7
370
    15
100
AcDbCircle
 10
-33.708479476
 20
-140.5789022136
 30
0.0
 40
1.82880000000003
  0
CIRCLE
  5
20A
330
1F
100
AcDbEntity
  8
0
  6
Continuous
 62
     7
370
    15
100
AcDbCircle
 10
17.091520524
 20
-140.5789022136
 30
0.0
 40
1.82880000000003
  0
CIRCLE
  5
20B
330
1F
100
AcDbEntity
  8
0
  6
Continuous
 62
     7
370
    15
100
AcDbCircle
 10
-33.708479476
 20
29.6010977864
 30
0.0
 40
1.828800000000001
  0
CIRCLE
  5
20C
330
1F
100
AcDbEntity
  8
0
  6
Continuous
 62
     7
370
    15
100
AcDbCircle
 10
-33.708479476
 20
-8.4989022136
 30
0.0
 40
1.828800000000001
  0
CIRCLE
  5
20D
330
1F
100
AcDbEntity
  8
0
  6
Continuous
 62
     7
370
    15
100
AcDbCircle
 10
17.091520524
 20
29.6010977864
 30
0.0
 40
1.828799999999998
  0
CIRCLE
  5
20E
330
1F
100
AcDbEntity
  8
0
  6
Continuous
 62
     7
370
    15
100
AcDbCircle
 10
17.091520524
 20
-8.4989022136
 30
0.0
 40
1.828799999999994
  0
CIRCLE
  5
20F
330
1F
100
AcDbEntity
  8
0
  6
Continuous
 62
     7
370
    15
100
AcDbCircle
 10
67.891520524
 20
29.6010977864
 30
0.0
 40
1.828800000000012
  0
CIRCLE
  5
210
330
1F
100
AcDbEntity
  8
0
  6
Continuous
 62
     7
370
    15
100
AcDbCircle
 10
67.891520524
 20
-8.4989022136
 30
0.0
 40
1.828800000000006
  0
CIRCLE
  5
211
330
1F
100
AcDbEntity
  8
0
  6
Continuous
 62
     7
370
    15
100
AcDbCircle
 10
118.691520524
 20
29.6010977864
 30
0.0
 40
1.828800000000012
  0
CIRCLE
  5
212
330
1F
100
AcDbEntity
  8
0
  6
Continuous
 62
     7
370
    15
100
AcDbCircle
 10
118.691520524
 20
-8.4989022136
 30
0.0
 40
1.82880000000001
  0
CIRCLE
  5
213
330
1F
100
AcDbEntity
  8
0
  6
Continuous
 62
     7
370
    15
100
AcDbCircle
 10
-38.056959476
 20
-127.8789022136
 30
0.0
 40
1.828800000000001
  0
CIRCLE
  5
214
330
1F
100
AcDbEntity
  8
0
  6
Continuous
 62
     7
370
    15
100
AcDbCircle
 10
-38.056959476
 20
-77.0789022136
 30
0.0
 40
1.828800000000015
  0
CIRCLE
  5
215
330
1F
100
AcDbEntity
  8
0
  6
Continuous
 62
     7
370
    15
100
AcDbCircle
 10
300.809520524
 20
-140.5789022136
 30
0.0
 40
1.82880000000003
  0
CIRCLE
  5
216
330
1F
100
AcDbEntity
  8
0
  6
Continuous
 62
     7
370
    15
100
AcDbCircle
 10
250.009520524
 20
-140.5789022136
 30
0.0
 40
1.828800000000058
  0
CIRCLE
  5
217
330
1F
100
AcDbEntity
  8
0
  6
Continuous
 62
     7
370
    15
100
AcDbCircle
 10
300.809520524
 20
29.6010977864
 30
0.0
 40
1.828800000000015
  0
CIRCLE
  5
218
330
1F
100
AcDbEntity
  8
0
  6
Continuous
 62
     7
370
    15
100
AcDbCircle
 10
300.809520524
 20
-8.4989022136
 30
0.0
 40
1.828800000000026
  0
CIRCLE
  5
219
330
1F
100
AcDbEntity
  8
0
  6
Continuous
 62
     7
370
    15
100
AcDbCircle
 10
250.009520524
 20
29.6010977864
 30
0.0
 40
1.828800000000037
  0
CIRCLE
  5
21A
330
1F
100
AcDbEntity
  8
0
  6
Continuous
 62
     7
370
    15
100
AcDbCircle
 10
250.009520524
 20
-8.4989022136
 30
0.0
 40
1.828800000000051
  0
CIRCLE
  5
21B
330
1F
100
AcDbEntity
  8
0
  6
Continuous
 62
     7
370
    15
100
AcDbCircle
 10
199.209520524
 20
29.6010977864
 30
0.0
 40
1.828800000000065
  0
CIRCLE
  5
21C
330
1F
100
AcDbEntity
  8
0
  6
Continuous
 62
     7
370
    15
100
AcDbCircle
 10
199.209520524
 20
-8.4989022136
 30
0.0
 40
1.828800000000076
  0
CIRCLE
  5
21D
330
1F
100
AcDbEntity
  8
0
  6
Continuous
 62
     7
370
    15
100
AcDbCircle
 10
148.409520524
 20
29.6010977864
 30
0.0
 40
1.828800000000015
  0
CIRCLE
  5
21E
330
1F
100
AcDbEntity
  8
0
  6
Continuous
 62
     7
370
    15
100
AcDbCircle
 10
148.409520524
 20
-8.4989022136
 30
0.0
 40
1.82880000000003
  0
CIRCLE
  5
21F
330
1F
100
AcDbEntity
  8
0
  6
Continuous
 62
     7
370
    15
100
AcDbCircle
 10
309.923040524
 20
-127.8789022136
 30
0.0
 40
1.828800000000001
  0
CIRCLE
  5
220
330
1F
100
AcDbEntity
  8
0
  6
Continuous
 62
     7
370
    15
100
AcDbCircle
 10
309.923040524
 20
-77.0789022136
 30
0.0
 40
1.828800000000044
  0
LINE
  5
225
330
1F
100
AcDbEntity
  8
0
  6
Continuous
 62
     7
370
    15
100
AcDbLine
 10
175.211054424
 20
-120.9297416136
 30
0.0
 11
186.712453824
 21
-120.9297416136
 31
0.0
  0
LINE
  5
226
330
1F
100
AcDbEntity
  8
0
  6
Continuous
 62
     7
370
    15
100
AcDbLine
 10
187.461753824
 20
-120.1804416136
 30
0.0
 11
187.461753824
 21
-108.6790422136
 31
0.0
  0
LINE
  5
227
330
1F
100
AcDbEntity
  8
0
  6
Continuous
 62
     7
370
    15
100
AcDbLine
 10
186.712453824
 20
-107.9297422136
 30
0.0
 11
175.211054424
 21
-107.9297422136
 31
0.0
  0
LINE
  5
228
330
1F
100
AcDbEntity
  8
0
  6
Continuous
 62
     7
370
    15
100
AcDbLine
 10
174.461754424
 20
-108.6790422136
 30
0.0
 11
174.461754424
 21
-120.1804416136
 31
0.0
  0
LINE
  5
229
330
1F
100
AcDbEntity
  8
0
  6
Continuous
 62
     7
370
    15
100
AcDbLine
 10
193.648558824
 20
-120.9297416136
 30
0.0
 11
205.149958224
 21
-120.9297416136
 31
0.0
  0
LINE
  5
22A
330
1F
100
AcDbEntity
  8
0
  6
Continuous
 62
     7
370
    15
100
AcDbLine
 10
205.899258224
 20
-120.1804416136
 30
0.0
 11
205.899258224
 21
-108.6790422136
 31
0.0
  0
LINE
  5
22B
330
1F
100
AcDbEntity
  8
0
  6
Continuous
 62
     7
370
    15
100
AcDbLine
 10
205.149958224
 20
-107.9297422136
 30
0.0
 11
193.648558824
 21
-107.9297422136
 31
0.0
  0
LINE
  5
22C
330
1F
100
AcDbEntity
  8
0
  6
Continuous
 62
     7
370
    15
100
AcDbLine
 10
192.899258824
 20
-108.6790422136
 30
0.0
 11
192.899258824
 21
-120.1804416136
 31
0.0
  0
LINE
  5
22D
330
1F
100
AcDbEntity
  8
0
  6
Continuous
 62
     7
370
    15
100
AcDbLine
 10
212.086063224
 20
-120.9297416136
 30
0.0
 11
223.587462624
 21
-120.9297416136
 31
0.0
  0
LINE
  5
22E
330
1F
100
AcDbEntity
  8
0
  6
Continuous
 62
     7
370
    15
100
AcDbLine
 10
224.336762624
 20
-120.1804416136
 30
0.0
 11
224.336762624
 21
-108.6790422136
 31
0.0
  0
LINE
  5
22F
330
1F
100
AcDbEntity
  8
0
  6
Continuous
 62
     7
370
    15
100
AcDbLine
 10
223.587462624
 20
-107.9297422136
 30
0.0
 11
212.086063224
 21
-107.9297422136
 31
0.0
  0
LINE
  5
230
330
1F
100
AcDbEntity
  8
0
  6
Continuous
 62
     7
370
    15
100
AcDbLine
 10
211.336763224
 20
-108.6790422136
 30
0.0
 11
211.336763224
 21
-120.1804416136
 31
0.0
  0
LINE
  5
231
330
1F
100
AcDbEntity
  8
0
  6
Continuous
 62
     7
370
    15
100
AcDbLine
 10
230.523567624
 20
-120.9297416136
 30
0.0
 11
242.024967024
 21
-120.9297416136
 31
0.0
  0
LINE
  5
232
330
1F
100
AcDbEntity
  8
0
  6
Continuous
 62
     7
370
    15
100
AcDbLine
 10
242.774267024
 20
-120.1804416136
 30
0.0
 11
242.774267024
 21
-108.6790422136
 31
0.0
  0
LINE
  5
233
330
1F
100
AcDbEntity
  8
0
  6
Continuous
 62
     7
370
    15
100
AcDbLine
 10
242.024967024
 20
-107.9297422136
 30
0.0
 11
230.523567624
 21
-107.9297422136
 31
0.0
  0
LINE
  5
234
330
1F
100
AcDbEntity
  8
0
  6
Continuous
 62
     7
370
    15
100
AcDbLine
 10
229.774267624
 20
-108.6790422136
 30
0.0
 11
229.774267624
 21
-120.1804416136
 31
0.0
  0
LINE
  5
235
330
1F
100
AcDbEntity
  8
0
  6
Continuous
 62
     7
370
    15
100
AcDbLine
 10
248.961072024
 20
-120.9297416136
 30
0.0
 11
260.462471424
 21
-120.9297416136
 31
0.0
  0
LINE
  5
236
330
1F
100
AcDbEntity
  8
0
  6
Continuous
 62
     7
370
    15
100
AcDbLine
 10
261.211771424
 20
-120.1804416136
 30
0.0
 11
261.211771424
 21
-108.6790422136
 31
0.0
  0
LINE
  5
237
330
1F
100
AcDbEntity
  8
0
  6
Continuous
 62
     7
370
    15
100
AcDbLine
 10
260.462471424
 20
-107.9297422136
 30
0.0
 11
248.961072024
 21
-107.9297422136
 31
0.0
  0
LINE
  5
238
330
1F
100
AcDbEntity
  8
0
  6
Continuous
 62
     7
370
    15
100
AcDbLine
 10
248.211772024
 20
-108.6790422136
 30
0.0
 11
248.211772024
 21
-120.1804416136
 31
0.0
  0
LINE
  5
239
330
1F
100
AcDbEntity
  8
0
  6
Continuous
 62
     7
370
    15
100
AcDbLine
 10
267.398576424
 20
-120.9297416136
 30
0.0
 11
278.899975824
 21
-120.9297416136
 31
0.0
  0
LINE
  5
23A
330
1F
100
AcDbEntity
  8
0
  6
Continuous
 62
     7
370
    15
100
AcDbLine
 10
279.649275824
 20
-120.1804416136
 30
0.0
 11
279.649275824
 21
-108.6790422136
 31
0.0
  0
LINE
  5
23B
330
1F
100
AcDbEntity
  8
0
  6
Continuous
 62
     7
370
    15
100
AcDbLine
 10
278.899975824
 20
-107.9297422136
 30
0.0
 11
267.398576424
 21
-107.9297422136
 31
0.0
  0
LINE
  5
23C
330
1F
100
AcDbEntity
  8
0
  6
Continuous
 62
     7
370
    15
100
AcDbLine
 10
266.649276424
 20
-108.6790422136
 30
0.0
 11
266.649276424
 21
-120.1804416136
 31
0.0
  0
LINE
  5
23D
330
1F
100
AcDbEntity
  8
0
  6
Continuous
 62
     7
370
    15
100
AcDbLine
 10
285.836080824
 20
-120.9297416136
 30
0.0
 11
297.337480224
 21
-120.9297416136
 31
0.0
  0
LINE
  5
23E
330
1F
100
AcDbEntity
  8
0
  6
Continuous
 62
     7
370
    15
100
AcDbLine
 10
298.086780224
 20
-120.1804416136
 30
0.0
 11
298.086780224
 21
-108.6790422136
 31
0.0
  0
LINE
  5
23F
330
1F
100
AcDbEntity
  8
0
  6
Continuous
 62
     7
370
    15
100
AcDbLine
 10
297.337480224
 20
-107.9297422136
 30
0.0
 11
285.836080824
 21
-107.9297422136
 31
0.0
  0
LINE
  5
240
330
1F
100
AcDbEntity
  8
0
  6
Continuous
 62
     7
370
    15
100
AcDbLine
 10
285.086780824
 20
-108.6790422136
 30
0.0
 11
285.086780824
 21
-120.1804416136
 31
0.0
  0
LINE
  5
241
330
1F
100
AcDbEntity
  8
0
  6
Continuous
 62
     7
370
    15
100
AcDbLine
 10
175.211054424
 20
-92.3547416136
 30
0.0
 11
186.712453824
 21
-92.3547416136
 31
0.0
  0
LINE
  5
242
330
1F
100
AcDbEntity
  8
0
  6
Continuous
 62
     7
370
    15
100
AcDbLine
 10
187.461753824
 20
-91.6054416136
 30
0.0
 11
187.461753824
 21
-80.1040422136
 31
0.0
  0
LINE
  5
243
330
1F
100
AcDbEntity
  8
0
  6
Continuous
 62
     7
370
    15
100
AcDbLine
 10
186.712453824
 20
-79.3547422136
 30
0.0
 11
175.211054424
 21
-79.3547422136
 31
0.0
  0
LINE
  5
244
330
1F
100
AcDbEntity
  8
0
  6
Continuous
 62
     7
370
    15
100
AcDbLine
 10
174.461754424
 20
-80.1040422136
 30
0.0
 11
174.461754424
 21
-91.6054416136
 31
0.0
  0
LINE
  5
245
330
1F
100
AcDbEntity
  8
0
  6
Continuous
 62
     7
370
    15
100
AcDbLine
 10
193.648558824
 20
-92.3547416136
 30
0.0
 11
205.149958224
 21
-92.3547416136
 31
0.0
  0
LINE
  5
246
330
1F
100
AcDbEntity
  8
0
  6
Continuous
 62
     7
370
    15
100
AcDbLine
 10
205.899258224
 20
-91.6054416136
 30
0.0
 11
205.899258224
 21
-80.1040422136
 31
0.0
  0
LINE
  5
247
330
1F
100
AcDbEntity
  8
0
  6
Continuous
 62
     7
370
    15
100
AcDbLine
 10
205.149958224
 20
-79.3547422136
 30
0.0
 11
193.648558824
 21
-79.3547422136
 31
0.0
  0
LINE
  5
248
330
1F
100
AcDbEntity
  8
0
  6
Continuous
 62
     7
370
    15
100
AcDbLine
 10
192.899258824
 20
-80.1040422136
 30
0.0
 11
192.899258824
 21
-91.6054416136
 31
0.0
  0
LINE
  5
249
330
1F
100
AcDbEntity
  8
0
  6
Continuous
 62
     7
370
    15
100
AcDbLine
 10
212.086063224
 20
-92.3547416136
 30
0.0
 11
223.587462624
 21
-92.3547416136
 31
0.0
  0
LINE
  5
24A
330
1F
100
AcDbEntity
  8
0
  6
Continuous
 62
     7
370
    15
100
AcDbLine
 10
224.336762624
 20
-91.6054416136
 30
0.0
 11
224.336762624
 21
-80.1040422136
 31
0.0
  0
LINE
  5
24B
330
1F
100
AcDbEntity
  8
0
  6
Continuous
 62
     7
370
    15
100
AcDbLine
 10
223.587462624
 20
-79.3547422136
 30
0.0
 11
212.086063224
 21
-79.3547422136
 31
0.0
  0
LINE
  5
24C
330
1F
100
AcDbEntity
  8
0
  6
Continuous
 62
     7
370
    15
100
AcDbLine
 10
211.336763224
 20
-80.1040422136
 30
0.0
 11
211.336763224
 21
-91.6054416136
 31
0.0
  0
LINE
  5
24D
330
1F
100
AcDbEntity
  8
0
  6
Continuous
 62
     7
370
    15
100
AcDbLine
 10
230.523567624
 20
-92.3547416136
 30
0.0
 11
242.024967024
 21
-92.3547416136
 31
0.0
  0
LINE
  5
24E
330
1F
100
AcDbEntity
  8
0
  6
Continuous
 62
     7
370
    15
100
AcDbLine
 10
242.774267024
 20
-91.6054416136
 30
0.0
 11
242.774267024
 21
-80.1040422136
 31
0.0
  0
LINE
  5
24F
330
1F
100
AcDbEntity
  8
0
  6
Continuous
 62
     7
370
    15
100
AcDbLine
 10
242.024967024
 20
-79.3547422136
 30
0.0
 11
230.523567624
 21
-79.3547422136
 31
0.0
  0
LINE
  5
250
330
1F
100
AcDbEntity
  8
0
  6
Continuous
 62
     7
370
    15
100
AcDbLine
 10
229.774267624
 20
-80.1040422136
 30
0.0
 11
229.774267624
 21
-91.6054416136
 31
0.0
  0
LINE
  5
251
330
1F
100
AcDbEntity
  8
0
  6
Continuous
 62
     7
370
    15
100
AcDbLine
 10
248.961072024
 20
-92.3547416136
 30
0.0
 11
260.462471424
 21
-92.3547416136
 31
0.0
  0
LINE
  5
252
330
1F
100
AcDbEntity
  8
0
  6
Continuous
 62
     7
370
    15
100
AcDbLine
 10
261.211771424
 20
-91.6054416136
 30
0.0
 11
261.211771424
 21
-80.1040422136
 31
0.0
  0
LINE
  5
253
330
1F
100
AcDbEntity
  8
0
  6
Continuous
 62
     7
370
    15
100
AcDbLine
 10
260.462471424
 20
-79.3547422136
 30
0.0
 11
248.961072024
 21
-79.3547422136
 31
0.0
  0
LINE
  5
254
330
1F
100
AcDbEntity
  8
0
  6
Continuous
 62
     7
370
    15
100
AcDbLine
 10
248.211772024
 20
-80.1040422136
 30
0.0
 11
248.211772024
 21
-91.6054416136
 31
0.0
  0
LINE
  5
255
330
1F
100
AcDbEntity
  8
0
  6
Continuous
 62
     7
370
    15
100
AcDbLine
 10
267.398576424
 20
-92.3547416136
 30
0.0
 11
278.899975824
 21
-92.3547416136
 31
0.0
  0
LINE
  5
256
330
1F
100
AcDbEntity
  8
0
  6
Continuous
 62
     7
370
    15
100
AcDbLine
 10
279.649275824
 20
-91.6054416136
 30
0.0
 11
279.649275824
 21
-80.1040422136
 31
0.0
  0
LINE
  5
257
330
1F
100
AcDbEntity
  8
0
  6
Continuous
 62
     7
370
    15
100
AcDbLine
 10
278.899975824
 20
-79.3547422136
 30
0.0
 11
267.398576424
 21
-79.3547422136
 31
0.0
  0
LINE
  5
258
330
1F
100
AcDbEntity
  8
0
  6
Continuous
 62
     7
370
    15
100
AcDbLine
 10
266.649276424
 20
-80.1040422136
 30
0.0
 11
266.649276424
 21
-91.6054416136
 31
0.0
  0
LINE
  5
259
330
1F
100
AcDbEntity
  8
0
  6
Continuous
 62
     7
370
    15
100
AcDbLine
 10
285.836080824
 20
-92.3547416136
 30
0.0
 11
297.337480224
 21
-92.3547416136
 31
0.0
  0
LINE
  5
25A
330
1F
100
AcDbEntity
  8
0
  6
Continuous
 62
     7
370
    15
100
AcDbLine
 10
298.086780224
 20
-91.6054416136
 30
0.0
 11
298.086780224
 21
-80.1040422136
 31
0.0
  0
LINE
  5
25B
330
1F
100
AcDbEntity
  8
0
  6
Continuous
 62
     7
370
    15
100
AcDbLine
 10
297.337480224
 20
-79.3547422136
 30
0.0
 11
285.836080824
 21
-79.3547422136
 31
0.0
  0
LINE
  5
25C
330
1F
100
AcDbEntity
  8
0
  6
Continuous
 62
     7
370
    15
100
AcDbLine
 10
285.086780824
 20
-80.1040422136
 30
0.0
 11
285.086780824
 21
-91.6054416136
 31
0.0
  0
LINE
  5
25D
330
1F
100
AcDbEntity
  8
0
  6
Continuous
 62
     7
370
    15
100
AcDbLine
 10
156.773550024
 20
-63.7797416136
 30
0.0
 11
168.274949424
 21
-63.7797416136
 31
0.0
  0
LINE
  5
25E
330
1F
100
AcDbEntity
  8
0
  6
Continuous
 62
     7
370
    15
100
AcDbLine
 10
169.024249424
 20
-63.0304416136
 30
0.0
 11
169.024249424
 21
-51.5290422136
 31
0.0
  0
LINE
  5
25F
330
1F
100
AcDbEntity
  8
0
  6
Continuous
 62
     7
370
    15
100
AcDbLine
 10
168.274949424
 20
-50.7797422136
 30
0.0
 11
156.773550024
 21
-50.7797422136
 31
0.0
  0
LINE
  5
260
330
1F
100
AcDbEntity
  8
0
  6
Continuous
 62
     7
370
    15
100
AcDbLine
 10
156.024250024
 20
-51.5290422136
 30
0.0
 11
156.024250024
 21
-63.0304416136
 31
0.0
  0
LINE
  5
261
330
1F
100
AcDbEntity
  8
0
  6
Continuous
 62
     7
370
    15
100
AcDbLine
 10
175.211054424
 20
-63.7797416136
 30
0.0
 11
186.712453824
 21
-63.7797416136
 31
0.0
  0
LINE
  5
262
330
1F
100
AcDbEntity
  8
0
  6
Continuous
 62
     7
370
    15
100
AcDbLine
 10
187.461753824
 20
-63.0304416136
 30
0.0
 11
187.461753824
 21
-51.5290422136
 31
0.0
  0
LINE
  5
263
330
1F
100
AcDbEntity
  8
0
  6
Continuous
 62
     7
370
    15
100
AcDbLine
 10
186.712453824
 20
-50.7797422136
 30
0.0
 11
175.211054424
 21
-50.7797422136
 31
0.0
  0
LINE
  5
264
330
1F
100
AcDbEntity
  8
0
  6
Continuous
 62
     7
370
    15
100
AcDbLine
 10
174.461754424
 20
-51.5290422136
 30
0.0
 11
174.461754424
 21
-63.0304416136
 31
0.0
  0
LINE
  5
265
330
1F
100
AcDbEntity
  8
0
  6
Continuous
 62
     7
370
    15
100
AcDbLine
 10
193.648558824
 20
-63.7797416136
 30
0.0
 11
205.149958224
 21
-63.7797416136
 31
0.0
  0
LINE
  5
266
330
1F
100
AcDbEntity
  8
0
  6
Continuous
 62
     7
370
    15
100
AcDbLine
 10
205.899258224
 20
-63.0304416136
 30
0.0
 11
205.899258224
 21
-51.5290422136
 31
0.0
  0
LINE
  5
267
330
1F
100
AcDbEntity
  8
0
  6
Continuous
 62
     7
370
    15
100
AcDbLine
 10
205.149958224
 20
-50.7797422136
 30
0.0
 11
193.648558824
 21
-50.7797422136
 31
0.0
  0
LINE
  5
268
330
1F
100
AcDbEntity
  8
0
  6
Continuous
 62
     7
370
    15
100
AcDbLine
 10
192.899258824
 20
-51.5290422136
 30
0.0
 11
192.899258824
 21
-63.0304416136
 31
0.0
  0
LINE
  5
269
330
1F
100
AcDbEntity
  8
0
  6
Continuous
 62
     7
370
    15
100
AcDbLine
 10
212.086063224
 20
-63.7797416136
 30
0.0
 11
223.587462624
 21
-63.7797416136
 31
0.0
  0
LINE
  5
26A
330
1F
100
AcDbEntity
  8
0
  6
Continuous
 62
     7
370
    15
100
AcDbLine
 10
224.336762624
 20
-63.0304416136
 30
0.0
 11
224.336762624
 21
-51.5290422136
 31
0.0
  0
LINE
  5
26B
330
1F
100
AcDbEntity
  8
0
  6
Continuous
 62
     7
370
    15
100
AcDbLine
 10
223.587462624
 20
-50.7797422136
 30
0.0
 11
212.086063224
 21
-50.7797422136
 31
0.0
  0
LINE
  5
26C
330
1F
100
AcDbEntity
  8
0
  6
Continuous
 62
     7
370
    15
100
AcDbLine
 10
211.336763224
 20
-51.5290422136
 30
0.0
 11
211.336763224
 21
-63.0304416136
 31
0.0
  0
LINE
  5
26D
330
1F
100
AcDbEntity
  8
0
  6
Continuous
 62
     7
370
    15
100
AcDbLine
 10
230.523567624
 20
-63.7797416136
 30
0.0
 11
242.024967024
 21
-63.7797416136
 31
0.0
  0
LINE
  5
26E
330
1F
100
AcDbEntity
  8
0
  6
Continuous
 62
     7
370
    15
100
AcDbLine
 10
242.774267024
 20
-63.0304416136
 30
0.0
 11
242.774267024
 21
-51.5290422136
 31
0.0
  0
LINE
  5
26F
330
1F
100
AcDbEntity
  8
0
  6
Continuous
 62
     7
370
    15
100
AcDbLine
 10
242.024967024
 20
-50.7797422136
 30
0.0
 11
230.523567624
 21
-50.7797422136
 31
0.0
  0
LINE
  5
270
330
1F
100
AcDbEntity
  8
0
  6
Continuous
 62
     7
370
    15
100
AcDbLine
 10
229.774267624
 20
-51.5290422136
 30
0.0
 11
229.774267624
 21
-63.0304416136
 31
0.0
  0
LINE
  5
271
330
1F
100
AcDbEntity
  8
0
  6
Continuous
 62
     7
370
    15
100
AcDbLine
 10
248.961072024
 20
-63.7797416136
 30
0.0
 11
260.462471424
 21
-63.7797416136
 31
0.0
  0
LINE
  5
272
330
1F
100
AcDbEntity
  8
0
  6
Continuous
 62
     7
370
    15
100
AcDbLine
 10
261.211771424
 20
-63.0304416136
 30
0.0
 11
261.211771424
 21
-51.5290422136
 31
0.0
  0
LINE
  5
273
330
1F
100
AcDbEntity
  8
0
  6
Continuous
 62
     7
370
    15
100
AcDbLine
 10
260.462471424
 20
-50.7797422136
 30
0.0
 11
248.961072024
 21
-50.7797422136
 31
0.0
  0
LINE
  5
274
330
1F
100
AcDbEntity
  8
0
  6
Continuous
 62
     7
370
    15
100
AcDbLine
 10
248.211772024
 20
-51.5290422136
 30
0.0
 11
248.211772024
 21
-63.0304416136
 31
0.0
  0
LINE
  5
275
330
1F
100
AcDbEntity
  8
0
  6
Continuous
 62
     7
370
    15
100
AcDbLine
 10
-36.767401476
 20
-5.0267222136
 30
0.0
 11
126.633338524
 21
-5.0267222136
 31
0.0
  0
LINE
  5
276
330
1F
100
AcDbEntity
  8
0
  6
Continuous
 62
     7
370
    15
100
AcDbLine
 10
126.633338524
 20
-5.0267222136
 30
0.0
 11
126.633338524
 21
25.8723777864
 31
0.0
  0
LINE
  5
277
330
1F
100
AcDbEntity
  8
0
  6
Continuous
 62
     7
370
    15
100
AcDbLine
 10
126.633338524
 20
25.8723777864
 30
0.0
 11
-36.767401476
 21
25.8723777864
 31
0.0
  0
LINE
  5
278
330
1F
100
AcDbEntity
  8
0
  6
Continuous
 62
     7
370
    15
100
AcDbLine
 10
-36.767401476
 20
25.8723777864
 30
0.0
 11
-36.767401476
 21
-5.0267222136
 31
0.0
  0
LINE
  5
279
330
1F
100
AcDbEntity
  8
0
  6
Continuous
 62
     7
370
    15
100
AcDbLine
 10
145.350598524
 20
-5.0267222136
 30
0.0
 11
308.751338524
 21
-5.0267222136
 31
0.0
  0
LINE
  5
27A
330
1F
100
AcDbEntity
  8
0
  6
Continuous
 62
     7
370
    15
100
AcDbLine
 10
308.751338524
 20
-5.0267222136
 30
0.0
 11
308.751338524
 21
25.8723777864
 31
0.0
  0
LINE
  5
27B
330
1F
100
AcDbEntity
  8
0
  6
Continuous
 62
     7
370
    15
100
AcDbLine
 10
308.751338524
 20
25.8723777864
 30
0.0
 11
145.350598524
 21
25.8723777864
 31
0.0
  0
LINE
  5
27C
330
1F
100
AcDbEntity
  8
0
  6
Continuous
 62
     7
370
    15
100
AcDbLine
 10
145.350598524
 20
25.8723777864
 30
0.0
 11
145.350598524
 21
-5.0267222136
 31
0.0
  0
LINE
  5
27D
330
1F
100
AcDbEntity
  8
0
  6
Continuous
 62
     7
370
    15
100
AcDbLine
 10
-13.846240816
 20
-50.7796025136
 30
0.0
 11
-25.346238136
 21
-50.7796025136
 31
0.0
  0
LINE
  5
27E
330
1F
100
AcDbEntity
  8
0
  6
Continuous
 62
     7
370
    15
100
AcDbLine
 10
-26.096239176
 20
-51.5296035536
 30
0.0
 11
-26.096239176
 21
-63.0296008736
 31
0.0
  0
LINE
  5
27F
330
1F
100
AcDbEntity
  8
0
  6
Continuous
 62
     7
370
    15
100
AcDbLine
 10
-25.346238136
 20
-63.7796019136
 30
0.0
 11
-13.846240816
 21
-63.7796019136
 31
0.0
  0
LINE
  5
280
330
1F
100
AcDbEntity
  8
0
  6
Continuous
 62
     7
370
    15
100
AcDbLine
 10
-13.096239776
 20
-63.0296008736
 30
0.0
 11
-13.096239776
 21
-51.5296035536
 31
0.0
  0
LINE
  5
281
330
1F
100
AcDbEntity
  8
0
  6
Continuous
 62
     7
370
    15
100
AcDbLine
 10
-13.846240816
 20
-79.3546025136
 30
0.0
 11
-25.346238136
 21
-79.3546025136
 31
0.0
  0
LINE
  5
282
330
1F
100
AcDbEntity
  8
0
  6
Continuous
 62
     7
370
    15
100
AcDbLine
 10
-26.096239176
 20
-80.1046035536
 30
0.0
 11
-26.096239176
 21
-91.6046008736
 31
0.0
  0
LINE
  5
283
330
1F
100
AcDbEntity
  8
0
  6
Continuous
 62
     7
370
    15
100
AcDbLine
 10
-25.346238136
 20
-92.3546019136
 30
0.0
 11
-13.846240816
 21
-92.3546019136
 31
0.0
  0
LINE
  5
284
330
1F
100
AcDbEntity
  8
0
  6
Continuous
 62
     7
370
    15
100
AcDbLine
 10
-13.096239776
 20
-91.6046008736
 30
0.0
 11
-13.096239776
 21
-80.1046035536
 31
0.0
  0
LINE
  5
285
330
1F
100
AcDbEntity
  8
0
  6
Continuous
 62
     7
370
    15
100
AcDbLine
 10
-13.846240816
 20
-107.9296025136
 30
0.0
 11
-25.346238136
 21
-107.9296025136
 31
0.0
  0
LINE
  5
286
330
1F
100
AcDbEntity
  8
0
  6
Continuous
 62
     7
370
    15
100
AcDbLine
 10
-26.096239176
 20
-108.6796035536
 30
0.0
 11
-26.096239176
 21
-120.1796008736
 31
0.0
  0
LINE
  5
287
330
1F
100
AcDbEntity
  8
0
  6
Continuous
 62
     7
370
    15
100
AcDbLine
 10
-25.346238136
 20
-120.9296019136
 30
0.0
 11
-13.846240816
 21
-120.9296019136
 31
0.0
  0
LINE
  5
288
330
1F
100
AcDbEntity
  8
0
  6
Continuous
 62
     7
370
    15
100
AcDbLine
 10
-13.096239776
 20
-120.1796008736
 30
0.0
 11
-13.096239776
 21
-108.6796035536
 31
0.0
  0
LINE
  5
289
330
1F
100
AcDbEntity
  8
0
  6
Continuous
 62
     7
370
    15
100
AcDbLine
 10
4.591263584
 20
-50.7796025136
 30
0.0
 11
-6.908733736
 21
-50.7796025136
 31
0.0
  0
LINE
  5
28A
330
1F
100
AcDbEntity
  8
0
  6
Continuous
 62
     7
370
    15
100
AcDbLine
 10
-7.658734776
 20
-51.5296035536
 30
0.0
 11
-7.658734776
 21
-63.0296008736
 31
0.0
  0
LINE
  5
28B
330
1F
100
AcDbEntity
  8
0
  6
Continuous
 62
     7
370
    15
100
AcDbLine
 10
-6.908733736
 20
-63.7796019136
 30
0.0
 11
4.591263584
 21
-63.7796019136
 31
0.0
  0
LINE
  5
28C
330
1F
100
AcDbEntity
  8
0
  6
Continuous
 62
     7
370
    15
100
AcDbLine
 10
5.341264624
 20
-63.0296008736
 30
0.0
 11
5.341264624
 21
-51.5296035536
 31
0.0
  0
LINE
  5
28D
330
1F
100
AcDbEntity
  8
0
  6
Continuous
 62
     7
370
    15
100
AcDbLine
 10
4.591263584
 20
-79.3546025136
 30
0.0
 11
-6.908733736
 21
-79.3546025136
 31
0.0
  0
LINE
  5
28E
330
1F
100
AcDbEntity
  8
0
  6
Continuous
 62
     7
370
    15
100
AcDbLine
 10
-7.658734776
 20
-80.1046035536
 30
0.0
 11
-7.658734776
 21
-91.6046008736
 31
0.0
  0
LINE
  5
28F
330
1F
100
AcDbEntity
  8
0
  6
Continuous
 62
     7
370
    15
100
AcDbLine
 10
-6.908733736
 20
-92.3546019136
 30
0.0
 11
4.591263584
 21
-92.3546019136
 31
0.0
  0
LINE
  5
290
330
1F
100
AcDbEntity
  8
0
  6
Continuous
 62
     7
370
    15
100
AcDbLine
 10
5.341264624
 20
-91.6046008736
 30
0.0
 11
5.341264624
 21
-80.1046035536
 31
0.0
  0
LINE
  5
291
330
1F
100
AcDbEntity
  8
0
  6
Continuous
 62
     7
370
    15
100
AcDbLine
 10
4.591263584
 20
-107.9296025136
 30
0.0
 11
-6.908733736
 21
-107.9296025136
 31
0.0
  0
LINE
  5
292
330
1F
100
AcDbEntity
  8
0
  6
Continuous
 62
     7
370
    15
100
AcDbLine
 10
-7.658734776
 20
-108.6796035536
 30
0.0
 11
-7.658734776
 21
-120.1796008736
 31
0.0
  0
LINE
  5
293
330
1F
100
AcDbEntity
  8
0
  6
Continuous
 62
     7
370
    15
100
AcDbLine
 10
-6.908733736
 20
-120.9296019136
 30
0.0
 11
4.591263584
 21
-120.9296019136
 31
0.0
  0
LINE
  5
294
330
1F
100
AcDbEntity
  8
0
  6
Continuous
 62
     7
370
    15
100
AcDbLine
 10
5.341264624
 20
-120.1796008736
 30
0.0
 11
5.341264624
 21
-108.6796035536
 31
0.0
  0
LINE
  5
295
330
1F
100
AcDbEntity
  8
0
  6
Continuous
 62
     7
370
    15
100
AcDbLine
 10
23.028767984
 20
-50.7796025136
 30
0.0
 11
11.528770664
 21
-50.7796025136
 31
0.0
  0
LINE
  5
296
330
1F
100
AcDbEntity
  8
0
  6
Continuous
 62
     7
370
    15
100
AcDbLine
 10
10.778769624
 20
-51.5296035536
 30
0.0
 11
10.778769624
 21
-63.0296008736
 31
0.0
  0
LINE
  5
297
330
1F
100
AcDbEntity
  8
0
  6
Continuous
 62
     7
370
    15
100
AcDbLine
 10
11.528770664
 20
-63.7796019136
 30
0.0
 11
23.028767984
 21
-63.7796019136
 31
0.0
  0
LINE
  5
298
330
1F
100
AcDbEntity
  8
0
  6
Continuous
 62
     7
370
    15
100
AcDbLine
 10
23.778769024
 20
-63.0296008736
 30
0.0
 11
23.778769024
 21
-51.5296035536
 31
0.0
  0
LINE
  5
299
330
1F
100
AcDbEntity
  8
0
  6
Continuous
 62
     7
370
    15
100
AcDbLine
 10
23.028767984
 20
-79.3546025136
 30
0.0
 11
11.528770664
 21
-79.3546025136
 31
0.0
  0
LINE
  5
29A
330
1F
100
AcDbEntity
  8
0
  6
Continuous
 62
     7
370
    15
100
AcDbLine
 10
10.778769624
 20
-80.1046035536
 30
0.0
 11
10.778769624
 21
-91.6046008736
 31
0.0
  0
LINE
  5
29B
330
1F
100
AcDbEntity
  8
0
  6
Continuous
 62
     7
370
    15
100
AcDbLine
 10
11.528770664
 20
-92.3546019136
 30
0.0
 11
23.028767984
 21
-92.3546019136
 31
0.0
  0
LINE
  5
29C
330
1F
100
AcDbEntity
  8
0
  6
Continuous
 62
     7
370
    15
100
AcDbLine
 10
23.778769024
 20
-91.6046008736
 30
0.0
 11
23.778769024
 21
-80.1046035536
 31
0.0
  0
LINE
  5
29D
330
1F
100
AcDbEntity
  8
0
  6
Continuous
 62
     7
370
    15
100
AcDbLine
 10
23.028767984
 20
-107.9296025136
 30
0.0
 11
11.528770664
 21
-107.9296025136
 31
0.0
  0
LINE
  5
29E
330
1F
100
AcDbEntity
  8
0
  6
Continuous
 62
     7
370
    15
100
AcDbLine
 10
10.778769624
 20
-108.6796035536
 30
0.0
 11
10.778769624
 21
-120.1796008736
 31
0.0
  0
LINE
  5
29F
330
1F
100
AcDbEntity
  8
0
  6
Continuous
 62
     7
370
    15
100
AcDbLine
 10
11.528770664
 20
-120.9296019136
 30
0.0
 11
23.028767984
 21
-120.9296019136
 31
0.0
  0
LINE
  5
2A0
330
1F
100
AcDbEntity
  8
0
  6
Continuous
 62
     7
370
    15
100
AcDbLine
 10
23.778769024
 20
-120.1796008736
 30
0.0
 11
23.778769024
 21
-108.6796035536
 31
0.0
  0
LINE
  5
2A1
330
1F
100
AcDbEntity
  8
0
  6
Continuous
 62
     7
370
    15
100
AcDbLine
 10
41.466272384
 20
-50.7796025136
 30
0.0
 11
29.966275064
 21
-50.7796025136
 31
0.0
  0
LINE
  5
2A2
330
1F
100
AcDbEntity
  8
0
  6
Continuous
 62
     7
370
    15
100
AcDbLine
 10
29.216274024
 20
-51.5296035536
 30
0.0
 11
29.216274024
 21
-63.0296008736
 31
0.0
  0
LINE
  5
2A3
330
1F
100
AcDbEntity
  8
0
  6
Continuous
 62
     7
370
    15
100
AcDbLine
 10
29.966275064
 20
-63.7796019136
 30
0.0
 11
41.466272384
 21
-63.7796019136
 31
0.0
  0
LINE
  5
2A4
330
1F
100
AcDbEntity
  8
0
  6
Continuous
 62
     7
370
    15
100
AcDbLine
 10
42.216273424
 20
-63.0296008736
 30
0.0
 11
42.216273424
 21
-51.5296035536
 31
0.0
  0
LINE
  5
2A5
330
1F
100
AcDbEntity
  8
0
  6
Continuous
 62
     7
370
    15
100
AcDbLine
 10
41.466272384
 20
-79.3546025136
 30
0.0
 11
29.966275064
 21
-79.3546025136
 31
0.0
  0
LINE
  5
2A6
330
1F
100
AcDbEntity
  8
0
  6
Continuous
 62
     7
370
    15
100
AcDbLine
 10
29.216274024
 20
-80.1046035536
 30
0.0
 11
29.216274024
 21
-91.6046008736
 31
0.0
  0
LINE
  5
2A7
330
1F
100
AcDbEntity
  8
0
  6
Continuous
 62
     7
370
    15
100
AcDbLine
 10
29.966275064
 20
-92.3546019136
 30
0.0
 11
41.466272384
 21
-92.3546019136
 31
0.0
  0
LINE
  5
2A8
330
1F
100
AcDbEntity
  8
0
  6
Continuous
 62
     7
370
    15
100
AcDbLine
 10
42.216273424
 20
-91.6046008736
 30
0.0
 11
42.216273424
 21
-80.1046035536
 31
0.0
  0
LINE
  5
2A9
330
1F
100
AcDbEntity
  8
0
  6
Continuous
 62
     7
370
    15
100
AcDbLine
 10
41.466272384
 20
-107.9296025136
 30
0.0
 11
29.966275064
 21
-107.9296025136
 31
0.0
  0
LINE
  5
2AA
330
1F
100
AcDbEntity
  8
0
  6
Continuous
 62
     7
370
    15
100
AcDbLine
 10
29.216274024
 20
-108.6796035536
 30
0.0
 11
29.216274024
 21
-120.1796008736
 31
0.0
  0
LINE
  5
2AB
330
1F
100
AcDbEntity
  8
0
  6
Continuous
 62
     7
370
    15
100
AcDbLine
 10
29.966275064
 20
-120.9296019136
 30
0.0
 11
41.466272384
 21
-120.9296019136
 31
0.0
  0
LINE
  5
2AC
330
1F
100
AcDbEntity
  8
0
  6
Continuous
 62
     7
370
    15
100
AcDbLine
 10
42.216273424
 20
-120.1796008736
 30
0.0
 11
42.216273424
 21
-108.6796035536
 31
0.0
  0
LINE
  5
2AD
330
1F
100
AcDbEntity
  8
0
  6
Continuous
 62
     7
370
    15
100
AcDbLine
 10
59.903776784
 20
-50.7796025136
 30
0.0
 11
48.403779464
 21
-50.7796025136
 31
0.0
  0
LINE
  5
2AE
330
1F
100
AcDbEntity
  8
0
  6
Continuous
 62
     7
370
    15
100
AcDbLine
 10
47.653778424
 20
-51.5296035536
 30
0.0
 11
47.653778424
 21
-63.0296008736
 31
0.0
  0
LINE
  5
2AF
330
1F
100
AcDbEntity
  8
0
  6
Continuous
 62
     7
370
    15
100
AcDbLine
 10
48.403779464
 20
-63.7796019136
 30
0.0
 11
59.903776784
 21
-63.7796019136
 31
0.0
  0
LINE
  5
2B0
330
1F
100
AcDbEntity
  8
0
  6
Continuous
 62
     7
370
    15
100
AcDbLine
 10
60.653777824
 20
-63.0296008736
 30
0.0
 11
60.653777824
 21
-51.5296035536
 31
0.0
  0
LINE
  5
2B1
330
1F
100
AcDbEntity
  8
0
  6
Continuous
 62
     7
370
    15
100
AcDbLine
 10
59.903776784
 20
-79.3546025136
 30
0.0
 11
48.403779464
 21
-79.3546025136
 31
0.0
  0
LINE
  5
2B2
330
1F
100
AcDbEntity
  8
0
  6
Continuous
 62
     7
370
    15
100
AcDbLine
 10
47.653778424
 20
-80.1046035536
 30
0.0
 11
47.653778424
 21
-91.6046008736
 31
0.0
  0
LINE
  5
2B3
330
1F
100
AcDbEntity
  8
0
  6
Continuous
 62
     7
370
    15
100
AcDbLine
 10
48.403779464
 20
-92.3546019136
 30
0.0
 11
59.903776784
 21
-92.3546019136
 31
0.0
  0
LINE
  5
2B4
330
1F
100
AcDbEntity
  8
0
  6
Continuous
 62
     7
370
    15
100
AcDbLine
 10
60.653777824
 20
-91.6046008736
 30
0.0
 11
60.653777824
 21
-80.1046035536
 31
0.0
  0
LINE
  5
2B5
330
1F
100
AcDbEntity
  8
0
  6
Continuous
 62
     7
370
    15
100
AcDbLine
 10
59.903776784
 20
-107.9296025136
 30
0.0
 11
48.403779464
 21
-107.9296025136
 31
0.0
  0
LINE
  5
2B6
330
1F
100
AcDbEntity
  8
0
  6
Continuous
 62
     7
370
    15
100
AcDbLine
 10
47.653778424
 20
-108.6796035536
 30
0.0
 11
47.653778424
 21
-120.1796008736
 31
0.0
  0
LINE
  5
2B7
330
1F
100
AcDbEntity
  8
0
  6
Continuous
 62
     7
370
    15
100
AcDbLine
 10
48.403779464
 20
-120.9296019136
 30
0.0
 11
59.903776784
 21
-120.9296019136
 31
0.0
  0
LINE
  5
2B8
330
1F
100
AcDbEntity
  8
0
  6
Continuous
 62
     7
370
    15
100
AcDbLine
 10
60.653777824
 20
-120.1796008736
 30
0.0
 11
60.653777824
 21
-108.6796035536
 31
0.0
  0
LINE
  5
2B9
330
1F
100
AcDbEntity
  8
0
  6
Continuous
 62
     7
370
    15
100
AcDbLine
 10
78.341281184
 20
-50.7796025136
 30
0.0
 11
66.841283864
 21
-50.7796025136
 31
0.0
  0
LINE
  5
2BA
330
1F
100
AcDbEntity
  8
0
  6
Continuous
 62
     7
370
    15
100
AcDbLine
 10
66.091282824
 20
-51.5296035536
 30
0.0
 11
66.091282824
 21
-63.0296008736
 31
0.0
  0
LINE
  5
2BB
330
1F
100
AcDbEntity
  8
0
  6
Continuous
 62
     7
370
    15
100
AcDbLine
 10
66.841283864
 20
-63.7796019136
 30
0.0
 11
78.341281184
 21
-63.7796019136
 31
0.0
  0
LINE
  5
2BC
330
1F
100
AcDbEntity
  8
0
  6
Continuous
 62
     7
370
    15
100
AcDbLine
 10
79.091282224
 20
-63.0296008736
 30
0.0
 11
79.091282224
 21
-51.5296035536
 31
0.0
  0
LINE
  5
2BD
330
1F
100
AcDbEntity
  8
0
  6
Continuous
 62
     7
370
    15
100
AcDbLine
 10
78.341281184
 20
-79.3546025136
 30
0.0
 11
66.841283864
 21
-79.3546025136
 31
0.0
  0
LINE
  5
2BE
330
1F
100
AcDbEntity
  8
0
  6
Continuous
 62
     7
370
    15
100
AcDbLine
 10
66.091282824
 20
-80.1046035536
 30
0.0
 11
66.091282824
 21
-91.6046008736
 31
0.0
  0
LINE
  5
2BF
330
1F
100
AcDbEntity
  8
0
  6
Continuous
 62
     7
370
    15
100
AcDbLine
 10
66.841283864
 20
-92.3546019136
 30
0.0
 11
78.341281184
 21
-92.3546019136
 31
0.0
  0
LINE
  5
2C0
330
1F
100
AcDbEntity
  8
0
  6
Continuous
 62
     7
370
    15
100
AcDbLine
 10
79.091282224
 20
-91.6046008736
 30
0.0
 11
79.091282224
 21
-80.1046035536
 31
0.0
  0
LINE
  5
2C1
330
1F
100
AcDbEntity
  8
0
  6
Continuous
 62
     7
370
    15
100
AcDbLine
 10
78.341281184
 20
-107.9296025136
 30
0.0
 11
66.841283864
 21
-107.9296025136
 31
0.0
  0
LINE
  5
2C2
330
1F
100
AcDbEntity
  8
0
  6
Continuous
 62
     7
370
    15
100
AcDbLine
 10
66.091282824
 20
-108.6796035536
 30
0.0
 11
66.091282824
 21
-120.1796008736
 31
0.0
  0
LINE
  5
2C3
330
1F
100
AcDbEntity
  8
0
  6
Continuous
 62
     7
370
    15
100
AcDbLine
 10
66.841283864
 20
-120.9296019136
 30
0.0
 11
78.341281184
 21
-120.9296019136
 31
0.0
  0
LINE
  5
2C4
330
1F
100
AcDbEntity
  8
0
  6
Continuous
 62
     7
370
    15
100
AcDbLine
 10
79.091282224
 20
-120.1796008736
 30
0.0
 11
79.091282224
 21
-108.6796035536
 31
0.0
  0
LINE
  5
2C5
330
1F
100
AcDbEntity
  8
0
  6
Continuous
 62
     7
370
    15
100
AcDbLine
 10
96.778785584
 20
-50.7796025136
 30
0.0
 11
85.278788264
 21
-50.7796025136
 31
0.0
  0
LINE
  5
2C6
330
1F
100
AcDbEntity
  8
0
  6
Continuous
 62
     7
370
    15
100
AcDbLine
 10
84.528787224
 20
-51.5296035536
 30
0.0
 11
84.528787224
 21
-63.0296008736
 31
0.0
  0
LINE
  5
2C7
330
1F
100
AcDbEntity
  8
0
  6
Continuous
 62
     7
370
    15
100
AcDbLine
 10
85.278788264
 20
-63.7796019136
 30
0.0
 11
96.778785584
 21
-63.7796019136
 31
0.0
  0
LINE
  5
2C8
330
1F
100
AcDbEntity
  8
0
  6
Continuous
 62
     7
370
    15
100
AcDbLine
 10
97.528786624
 20
-63.0296008736
 30
0.0
 11
97.528786624
 21
-51.5296035536
 31
0.0
  0
LINE
  5
2C9
330
1F
100
AcDbEntity
  8
0
  6
Continuous
 62
     7
370
    15
100
AcDbLine
 10
96.778785584
 20
-79.3546025136
 30
0.0
 11
85.278788264
 21
-79.3546025136
 31
0.0
  0
LINE
  5
2CA
330
1F
100
AcDbEntity
  8
0
  6
Continuous
 62
     7
370
    15
100
AcDbLine
 10
84.528787224
 20
-80.1046035536
 30
0.0
 11
84.528787224
 21
-91.6046008736
 31
0.0
  0
LINE
  5
2CB
330
1F
100
AcDbEntity
  8
0
  6
Continuous
 62
     7
370
    15
100
AcDbLine
 10
85.278788264
 20
-92.3546019136
 30
0.0
 11
96.778785584
 21
-92.3546019136
 31
0.0
  0
LINE
  5
2CC
330
1F
100
AcDbEntity
  8
0
  6
Continuous
 62
     7
370
    15
100
AcDbLine
 10
97.528786624
 20
-91.6046008736
 30
0.0
 11
97.528786624
 21
-80.1046035536
 31
0.0
  0
LINE
  5
2CD
330
1F
100
AcDbEntity
  8
0
  6
Continuous
 62
     7
370
    15
100
AcDbLine
 10
96.778785584
 20
-107.9296025136
 30
0.0
 11
85.278788264
 21
-107.9296025136
 31
0.0
  0
LINE
  5
2CE
330
1F
100
AcDbEntity
  8
0
  6
Continuous
 62
     7
370
    15
100
AcDbLine
 10
84.528787224
 20
-108.6796035536
 30
0.0
 11
84.528787224
 21
-120.1796008736
 31
0.0
  0
LINE
  5
2CF
330
1F
100
AcDbEntity
  8
0
  6
Continuous
 62
     7
370
    15
100
AcDbLine
 10
85.278788264
 20
-120.9296019136
 30
0.0
 11
96.778785584
 21
-120.9296019136
 31
0.0
  0
LINE
  5
2D0
330
1F
100
AcDbEntity
  8
0
  6
Continuous
 62
     7
370
    15
100
AcDbLine
 10
97.528786624
 20
-120.1796008736
 30
0.0
 11
97.528786624
 21
-108.6796035536
 31
0.0
  0
LINE
  5
2D1
330
1F
100
AcDbEntity
  8
0
  6
Continuous
 62
     7
370
    15
100
AcDbLine
 10
115.216289984
 20
-50.7796025136
 30
0.0
 11
103.716292664
 21
-50.7796025136
 31
0.0
  0
LINE
  5
2D2
330
1F
100
AcDbEntity
  8
0
  6
Continuous
 62
     7
370
    15
100
AcDbLine
 10
102.966291624
 20
-51.5296035536
 30
0.0
 11
102.966291624
 21
-63.0296008736
 31
0.0
  0
LINE
  5
2D3
330
1F
100
AcDbEntity
  8
0
  6
Continuous
 62
     7
370
    15
100
AcDbLine
 10
103.716292664
 20
-63.7796019136
 30
0.0
 11
115.216289984
 21
-63.7796019136
 31
0.0
  0
LINE
  5
2D4
330
1F
100
AcDbEntity
  8
0
  6
Continuous
 62
     7
370
    15
100
AcDbLine
 10
115.966291024
 20
-63.0296008736
 30
0.0
 11
115.966291024
 21
-51.5296035536
 31
0.0
  0
LINE
  5
2D5
330
1F
100
AcDbEntity
  8
0
  6
Continuous
 62
     7
370
    15
100
AcDbLine
 10
285.836080824
 20
-63.7797416136
 30
0.0
 11
297.337480224
 21
-63.7797416136
 31
0.0
  0
LINE
  5
2D6
330
1F
100
AcDbEntity
  8
0
  6
Continuous
 62
     7
370
    15
100
AcDbLine
 10
298.086780224
 20
-63.0304416136
 30
0.0
 11
298.086780224
 21
-51.5290422136
 31
0.0
  0
LINE
  5
2D7
330
1F
100
AcDbEntity
  8
0
  6
Continuous
 62
     7
370
    15
100
AcDbLine
 10
297.337480224
 20
-50.7797422136
 30
0.0
 11
285.836080824
 21
-50.7797422136
 31
0.0
  0
LINE
  5
2D8
330
1F
100
AcDbEntity
  8
0
  6
Continuous
 62
     7
370
    15
100
AcDbLine
 10
285.086780824
 20
-51.5290422136
 30
0.0
 11
285.086780824
 21
-63.0304416136
 31
0.0
  0
LINE
  5
2D9
330
1F
100
AcDbEntity
  8
0
  6
Continuous
 62
     7
370
    15
100
AcDbLine
 10
267.398576424
 20
-63.7797416136
 30
0.0
 11
278.899975824
 21
-63.7797416136
 31
0.0
  0
LINE
  5
2DA
330
1F
100
AcDbEntity
  8
0
  6
Continuous
 62
     7
370
    15
100
AcDbLine
 10
279.649275824
 20
-63.0304416136
 30
0.0
 11
279.649275824
 21
-51.5290422136
 31
0.0
  0
LINE
  5
2DB
330
1F
100
AcDbEntity
  8
0
  6
Continuous
 62
     7
370
    15
100
AcDbLine
 10
278.899975824
 20
-50.7797422136
 30
0.0
 11
267.398576424
 21
-50.7797422136
 31
0.0
  0
LINE
  5
2DC
330
1F
100
AcDbEntity
  8
0
  6
Continuous
 62
     7
370
    15
100
AcDbLine
 10
266.649276424
 20
-51.5290422136
 30
0.0
 11
266.649276424
 21
-63.0304416136
 31
0.0
  0
LINE
  5
2DD
330
1F
100
AcDbEntity
  8
0
  6
Continuous
 62
     7
370
    15
100
AcDbLine
 10
313.791460524
 20
33.4110977864
 30
0.0
 11
-41.808539476
 21
33.4110977864
 31
0.0
  0
LINE
  5
2DE
330
1F
100
AcDbEntity
  8
0
  6
Continuous
 62
     7
370
    15
100
AcDbLine
 10
313.791460524
 20
-144.3889022136
 30
0.0
 11
313.791460524
 21
33.4110977864
 31
0.0
  0
LINE
  5
2DF
330
1F
100
AcDbEntity
  8
0
  6
Continuous
 62
     7
370
    15
100
AcDbLine
 10
-41.808539476
 20
-144.3889022136
 30
0.0
 11
313.791460524
 21
-144.3889022136
 31
0.0
  0
LINE
  5
2E0
330
1F
100
AcDbEntity
  8
0
  6
Continuous
 62
     7
370
    15
100
AcDbLine
 10
-41.808539476
 20
33.4110977864
 30
0.0
 11
-41.808539476
 21
-144.3889022136
 31
0.0
  0
ARC
  5
2E1
330
1F
100
AcDbEntity
  8
0
  6
Continuous
 62
     7
370
    15
100
AcDbCircle
 10
175.211054424
 20
-120.1804416136
 30
0.0
 40
0.7492999999998915
100
AcDbArc
 50
180.0
 51
270.0
  0
ARC
  5
2E2
330
1F
100
AcDbEntity
  8
0
  6
Continuous
 62
     7
370
    15
100
AcDbCircle
 10
186.712453824
 20
-120.1804416136
 30
0.0
 40
0.749299999999991
100
AcDbArc
 50
270.0
 51
0.0
  0
ARC
  5
2E3
330
1F
100
AcDbEntity
  8
0
  6
Continuous
 62
     7
370
    15
100
AcDbCircle
 10
186.712453824
 20
-108.6790422136
 30
0.0
 40
0.7492999999998915
100
AcDbArc
 50
360.0
 51
90.0
  0
ARC
  5
2E4
330
1F
100
AcDbEntity
  8
0
  6
Continuous
 62
     7
370
    15
100
AcDbCircle
 10
175.211054424
 20
-108.6790422136
 30
0.0
 40
0.749300000000062
100
AcDbArc
 50
90.0
 51
180.0
  0
ARC
  5
2E5
330
1F
100
AcDbEntity
  8
0
  6
Continuous
 62
     7
370
    15
100
AcDbCircle
 10
193.648558824
 20
-120.1804416136
 30
0.0
 40
0.7492999999998773
100
AcDbArc
 50
180.0
 51
270.0
  0
ARC
  5
2E6
330
1F
100
AcDbEntity
  8
0
  6
Continuous
 62
     7
370
    15
100
AcDbCircle
 10
205.149958224
 20
-120.1804416136
 30
0.0
 40
0.7492999999999768
100
AcDbArc
 50
270.0
 51
0.0
  0
ARC
  5
2E7
330
1F
100
AcDbEntity
  8
0
  6
Continuous
 62
     7
370
    15
100
AcDbCircle
 10
205.149958224
 20
-108.6790422136
 30
0.0
 40
0.7492999999998915
100
AcDbArc
 50
360.0
 51
90.0
  0
ARC
  5
2E8
330
1F
100
AcDbEntity
  8
0
  6
Continuous
 62
     7
370
    15
100
AcDbCircle
 10
193.648558824
 20
-108.6790422136
 30
0.0
 40
0.7493000000001047
100
AcDbArc
 50
90.0
 51
180.0
  0
ARC
  5
2E9
330
1F
100
AcDbEntity
  8
0
  6
Continuous
 62
     7
370
    15
100
AcDbCircle
 10
212.086063224
 20
-120.1804416136
 30
0.0
 40
0.7492999999999199
100
AcDbArc
 50
180.0
 51
270.0
  0
ARC
  5
2EA
330
1F
100
AcDbEntity
  8
0
  6
Continuous
 62
     7
370
    15
100
AcDbCircle
 10
223.587462624
 20
-120.1804416136
 30
0.0
 40
0.7493000000000052
100
AcDbArc
 50
270.0
 51
0.0
  0
ARC
  5
2EB
330
1F
100
AcDbEntity
  8
0
  6
Continuous
 62
     7
370
    15
100
AcDbCircle
 10
223.587462624
 20
-108.6790422136
 30
0.0
 40
0.7492999999998915
100
AcDbArc
 50
360.0
 51
90.0
  0
ARC
  5
2EC
330
1F
100
AcDbEntity
  8
0
  6
Continuous
 62
     7
370
    15
100
AcDbCircle
 10
212.086063224
 20
-108.6790422136
 30
0.0
 40
0.7493000000001047
100
AcDbArc
 50
90.0
 51
180.0
  0
ARC
  5
2ED
330
1F
100
AcDbEntity
  8
0
  6
Continuous
 62
     7
370
    15
100
AcDbCircle
 10
230.523567624
 20
-120.1804416136
 30
0.0
 40
0.7492999999998915
100
AcDbArc
 50
180.0
 51
270.0
  0
ARC
  5
2EE
330
1F
100
AcDbEntity
  8
0
  6
Continuous
 62
     7
370
    15
100
AcDbCircle
 10
242.024967024
 20
-120.1804416136
 30
0.0
 40
0.7493000000000336
100
AcDbArc
 50
270.0
 51
360.0
  0
ARC
  5
2EF
330
1F
100
AcDbEntity
  8
0
  6
Continuous
 62
     7
370
    15
100
AcDbCircle
 10
242.024967024
 20
-108.6790422136
 30
0.0
 40
0.7492999999999483
100
AcDbArc
 50
360.0
 51
90.0
  0
ARC
  5
2F0
330
1F
100
AcDbEntity
  8
0
  6
Continuous
 62
     7
370
    15
100
AcDbCircle
 10
230.523567624
 20
-108.6790422136
 30
0.0
 40
0.7493000000001189
100
AcDbArc
 50
90.0
 51
180.0
  0
ARC
  5
2F1
330
1F
100
AcDbEntity
  8
0
  6
Continuous
 62
     7
370
    15
100
AcDbCircle
 10
248.961072024
 20
-120.1804416136
 30
0.0
 40
0.7492999999999199
100
AcDbArc
 50
180.0
 51
270.0
  0
ARC
  5
2F2
330
1F
100
AcDbEntity
  8
0
  6
Continuous
 62
     7
370
    15
100
AcDbCircle
 10
260.462471424
 20
-120.1804416136
 30
0.0
 40
0.7493000000000052
100
AcDbArc
 50
270.0
 51
0.0
  0
ARC
  5
2F3
330
1F
100
AcDbEntity
  8
0
  6
Continuous
 62
     7
370
    15
100
AcDbCircle
 10
260.462471424
 20
-108.6790422136
 30
0.0
 40
0.7492999999999483
100
AcDbArc
 50
360.0
 51
90.0
  0
ARC
  5
2F4
330
1F
100
AcDbEntity
  8
0
  6
Continuous
 62
     7
370
    15
100
AcDbCircle
 10
248.961072024
 20
-108.6790422136
 30
0.0
 40
0.7493000000001047
100
AcDbArc
 50
90.0
 51
180.0
  0
ARC
  5
2F5
330
1F
100
AcDbEntity
  8
0
  6
Continuous
 62
     7
370
    15
100
AcDbCircle
 10
267.398576424
 20
-120.1804416136
 30
0.0
 40
0.7492999999999483
100
AcDbArc
 50
180.0
 51
270.0
  0
ARC
  5
2F6
330
1F
100
AcDbEntity
  8
0
  6
Continuous
 62
     7
370
    15
100
AcDbCircle
 10
278.899975824
 20
-120.1804416136
 30
0.0
 40
0.7492999999999626
100
AcDbArc
 50
270.0
 51
0.0
  0
ARC
  5
2F7
330
1F
100
AcDbEntity
  8
0
  6
Continuous
 62
     7
370
    15
100
AcDbCircle
 10
278.899975824
 20
-108.6790422136
 30
0.0
 40
0.7492999999999483
100
AcDbArc
 50
360.0
 51
90.0
  0
ARC
  5
2F8
330
1F
100
AcDbEntity
  8
0
  6
Continuous
 62
     7
370
    15
100
AcDbCircle
 10
267.398576424
 20
-108.6790422136
 30
0.0
 40
0.7493000000001189
100
AcDbArc
 50
90.0
 51
180.0
  0
ARC
  5
2F9
330
1F
100
AcDbEntity
  8
0
  6
Continuous
 62
     7
370
    15
100
AcDbCircle
 10
285.836080824
 20
-120.1804416136
 30
0.0
 40
0.7492999999999483
100
AcDbArc
 50
180.0
 51
270.0
  0
ARC
  5
2FA
330
1F
100
AcDbEntity
  8
0
  6
Continuous
 62
     7
370
    15
100
AcDbCircle
 10
297.337480224
 20
-120.1804416136
 30
0.0
 40
0.7493000000000052
100
AcDbArc
 50
270.0
 51
0.0
  0
ARC
  5
2FB
330
1F
100
AcDbEntity
  8
0
  6
Continuous
 62
     7
370
    15
100
AcDbCircle
 10
297.337480224
 20
-108.6790422136
 30
0.0
 40
0.7492999999998915
100
AcDbArc
 50
360.0
 51
90.0
  0
ARC
  5
2FC
330
1F
100
AcDbEntity
  8
0
  6
Continuous
 62
     7
370
    15
100
AcDbCircle
 10
285.836080824
 20
-108.6790422136
 30
0.0
 40
0.7493000000001189
100
AcDbArc
 50
90.0
 51
180.0
  0
ARC
  5
2FD
330
1F
100
AcDbEntity
  8
0
  6
Continuous
 62
     7
370
    15
100
AcDbCircle
 10
175.211054424
 20
-91.6054416136
 30
0.0
 40
0.7492999999998915
100
AcDbArc
 50
180.0
 51
270.0
  0
ARC
  5
2FE
330
1F
100
AcDbEntity
  8
0
  6
Continuous
 62
     7
370
    15
100
AcDbCircle
 10
186.712453824
 20
-91.6054416136
 30
0.0
 40
0.749300000000062
100
AcDbArc
 50
270.0
 51
360.0
  0
ARC
  5
2FF
330
1F
100
AcDbEntity
  8
0
  6
Continuous
 62
     7
370
    15
100
AcDbCircle
 10
186.712453824
 20
-80.1040422136
 30
0.0
 40
0.7492999999999483
100
AcDbArc
 50
360.0
 51
90.0
  0
ARC
  5
300
330
1F
100
AcDbEntity
  8
0
  6
Continuous
 62
     7
370
    15
100
AcDbCircle
 10
175.211054424
 20
-80.1040422136
 30
0.0
 40
0.7493000000000336
100
AcDbArc
 50
90.0
 51
180.0
  0
ARC
  5
301
330
1F
100
AcDbEntity
  8
0
  6
Continuous
 62
     7
370
    15
100
AcDbCircle
 10
193.648558824
 20
-91.6054416136
 30
0.0
 40
0.7492999999999199
100
AcDbArc
 50
180.0
 51
270.0
  0
ARC
  5
302
330
1F
100
AcDbEntity
  8
0
  6
Continuous
 62
     7
370
    15
100
AcDbCircle
 10
205.149958224
 20
-91.6054416136
 30
0.0
 40
0.7493000000000336
100
AcDbArc
 50
270.0
 51
360.0
  0
ARC
  5
303
330
1F
100
AcDbEntity
  8
0
  6
Continuous
 62
     7
370
    15
100
AcDbCircle
 10
205.149958224
 20
-80.1040422136
 30
0.0
 40
0.7492999999998915
100
AcDbArc
 50
360.0
 51
90.0
  0
ARC
  5
304
330
1F
100
AcDbEntity
  8
0
  6
Continuous
 62
     7
370
    15
100
AcDbCircle
 10
193.648558824
 20
-80.1040422136
 30
0.0
 40
0.7493000000001047
100
AcDbArc
 50
90.0
 51
180.0
  0
ARC
  5
305
330
1F
100
AcDbEntity
  8
0
  6
Continuous
 62
     7
370
    15
100
AcDbCircle
 10
212.086063224
 20
-91.6054416136
 30
0.0
 40
0.7492999999999483
100
AcDbArc
 50
180.0
 51
270.0
  0
ARC
  5
306
330
1F
100
AcDbEntity
  8
0
  6
Continuous
 62
     7
370
    15
100
AcDbCircle
 10
223.587462624
 20
-91.6054416136
 30
0.0
 40
0.7493000000000052
100
AcDbArc
 50
270.0
 51
0.0
  0
ARC
  5
307
330
1F
100
AcDbEntity
  8
0
  6
Continuous
 62
     7
370
    15
100
AcDbCircle
 10
223.587462624
 20
-80.1040422136
 30
0.0
 40
0.7492999999998915
100
AcDbArc
 50
360.0
 51
90.0
  0
ARC
  5
308
330
1F
100
AcDbEntity
  8
0
  6
Continuous
 62
     7
370
    15
100
AcDbCircle
 10
212.086063224
 20
-80.1040422136
 30
0.0
 40
0.7493000000000762
100
AcDbArc
 50
90.0
 51
180.0
  0
ARC
  5
309
330
1F
100
AcDbEntity
  8
0
  6
Continuous
 62
     7
370
    15
100
AcDbCircle
 10
230.523567624
 20
-91.6054416136
 30
0.0
 40
0.7492999999999199
100
AcDbArc
 50
180.0
 51
270.0
  0
ARC
  5
30A
330
1F
100
AcDbEntity
  8
0
  6
Continuous
 62
     7
370
    15
100
AcDbCircle
 10
242.024967024
 20
-91.6054416136
 30
0.0
 40
0.7493000000000904
100
AcDbArc
 50
270.0
 51
360.0
  0
ARC
  5
30B
330
1F
100
AcDbEntity
  8
0
  6
Continuous
 62
     7
370
    15
100
AcDbCircle
 10
242.024967024
 20
-80.1040422136
 30
0.0
 40
0.7492999999999768
100
AcDbArc
 50
360.0
 51
90.0
  0
ARC
  5
30C
330
1F
100
AcDbEntity
  8
0
  6
Continuous
 62
     7
370
    15
100
AcDbCircle
 10
230.523567624
 20
-80.1040422136
 30
0.0
 40
0.7493000000001047
100
AcDbArc
 50
90.0
 51
180.0
  0
ARC
  5
30D
330
1F
100
AcDbEntity
  8
0
  6
Continuous
 62
     7
370
    15
100
AcDbCircle
 10
248.961072024
 20
-91.6054416136
 30
0.0
 40
0.7492999999999483
100
AcDbArc
 50
180.0
 51
270.0
  0
ARC
  5
30E
330
1F
100
AcDbEntity
  8
0
  6
Continuous
 62
     7
370
    15
100
AcDbCircle
 10
260.462471424
 20
-91.6054416136
 30
0.0
 40
0.7493000000001189
100
AcDbArc
 50
270.0
 51
360.0
  0
ARC
  5
30F
330
1F
100
AcDbEntity
  8
0
  6
Continuous
 62
     7
370
    15
100
AcDbCircle
 10
260.462471424
 20
-80.1040422136
 30
0.0
 40
0.7492999999999483
100
AcDbArc
 50
360.0
 51
90.0
  0
ARC
  5
310
330
1F
100
AcDbEntity
  8
0
  6
Continuous
 62
     7
370
    15
100
AcDbCircle
 10
248.961072024
 20
-80.1040422136
 30
0.0
 40
0.7493000000001047
100
AcDbArc
 50
90.0
 51
180.0
  0
ARC
  5
311
330
1F
100
AcDbEntity
  8
0
  6
Continuous
 62
     7
370
    15
100
AcDbCircle
 10
267.398576424
 20
-91.6054416136
 30
0.0
 40
0.7492999999999483
100
AcDbArc
 50
180.0
 51
270.0
  0
ARC
  5
312
330
1F
100
AcDbEntity
  8
0
  6
Continuous
 62
     7
370
    15
100
AcDbCircle
 10
278.899975824
 20
-91.6054416136
 30
0.0
 40
0.7493000000000194
100
AcDbArc
 50
270.0
 51
360.0
  0
ARC
  5
313
330
1F
100
AcDbEntity
  8
0
  6
Continuous
 62
     7
370
    15
100
AcDbCircle
 10
278.899975824
 20
-80.1040422136
 30
0.0
 40
0.7492999999999483
100
AcDbArc
 50
360.0
 51
90.0
  0
ARC
  5
314
330
1F
100
AcDbEntity
  8
0
  6
Continuous
 62
     7
370
    15
100
AcDbCircle
 10
267.398576424
 20
-80.1040422136
 30
0.0
 40
0.7493000000001189
100
AcDbArc
 50
90.0
 51
180.0
  0
ARC
  5
315
330
1F
100
AcDbEntity
  8
0
  6
Continuous
 62
     7
370
    15
100
AcDbCircle
 10
285.836080824
 20
-91.6054416136
 30
0.0
 40
0.7492999999999483
100
AcDbArc
 50
180.0
 51
270.0
  0
ARC
  5
316
330
1F
100
AcDbEntity
  8
0
  6
Continuous
 62
     7
370
    15
100
AcDbCircle
 10
297.337480224
 20
-91.6054416136
 30
0.0
 40
0.749300000000062
100
AcDbArc
 50
270.0
 51
360.0
  0
ARC
  5
317
330
1F
100
AcDbEntity
  8
0
  6
Continuous
 62
     7
370
    15
100
AcDbCircle
 10
297.337480224
 20
-80.1040422136
 30
0.0
 40
0.7492999999998915
100
AcDbArc
 50
360.0
 51
90.0
  0
ARC
  5
318
330
1F
100
AcDbEntity
  8
0
  6
Continuous
 62
     7
370
    15
100
AcDbCircle
 10
285.836080824
 20
-80.1040422136
 30
0.0
 40
0.7493000000001331
100
AcDbArc
 50
90.0
 51
180.0
  0
ARC
  5
319
330
1F
100
AcDbEntity
  8
0
  6
Continuous
 62
     7
370
    15
100
AcDbCircle
 10
156.773550024
 20
-63.0304416136
 30
0.0
 40
0.7492999999998844
100
AcDbArc
 50
180.0
 51
270.0
  0
ARC
  5
31A
330
1F
100
AcDbEntity
  8
0
  6
Continuous
 62
     7
370
    15
100
AcDbCircle
 10
168.274949424
 20
-63.0304416136
 30
0.0
 40
0.749300000000062
100
AcDbArc
 50
270.0
 51
360.0
  0
ARC
  5
31B
330
1F
100
AcDbEntity
  8
0
  6
Continuous
 62
     7
370
    15
100
AcDbCircle
 10
168.274949424
 20
-51.5290422136
 30
0.0
 40
0.749299999999927
100
AcDbArc
 50
360.0
 51
90.0
  0
ARC
  5
31C
330
1F
100
AcDbEntity
  8
0
  6
Continuous
 62
     7
370
    15
100
AcDbCircle
 10
156.773550024
 20
-51.5290422136
 30
0.0
 40
0.7492999999999981
100
AcDbArc
 50
90.0
 51
180.0
  0
ARC
  5
31D
330
1F
100
AcDbEntity
  8
0
  6
Continuous
 62
     7
370
    15
100
AcDbCircle
 10
175.211054424
 20
-63.0304416136
 30
0.0
 40
0.7492999999998986
100
AcDbArc
 50
180.0
 51
270.0
  0
ARC
  5
31E
330
1F
100
AcDbEntity
  8
0
  6
Continuous
 62
     7
370
    15
100
AcDbCircle
 10
186.712453824
 20
-63.0304416136
 30
0.0
 40
0.749300000000062
100
AcDbArc
 50
270.0
 51
360.0
  0
ARC
  5
31F
330
1F
100
AcDbEntity
  8
0
  6
Continuous
 62
     7
370
    15
100
AcDbCircle
 10
186.712453824
 20
-51.5290422136
 30
0.0
 40
0.7492999999998915
100
AcDbArc
 50
360.0
 51
90.0
  0
ARC
  5
320
330
1F
100
AcDbEntity
  8
0
  6
Continuous
 62
     7
370
    15
100
AcDbCircle
 10
175.211054424
 20
-51.5290422136
 30
0.0
 40
0.7493000000000407
100
AcDbArc
 50
90.0
 51
180.0
  0
ARC
  5
321
330
1F
100
AcDbEntity
  8
0
  6
Continuous
 62
     7
370
    15
100
AcDbCircle
 10
193.648558824
 20
-63.0304416136
 30
0.0
 40
0.7492999999999199
100
AcDbArc
 50
180.0
 51
270.0
  0
ARC
  5
322
330
1F
100
AcDbEntity
  8
0
  6
Continuous
 62
     7
370
    15
100
AcDbCircle
 10
205.149958224
 20
-63.0304416136
 30
0.0
 40
0.7493000000000336
100
AcDbArc
 50
270.0
 51
360.0
  0
ARC
  5
323
330
1F
100
AcDbEntity
  8
0
  6
Continuous
 62
     7
370
    15
100
AcDbCircle
 10
205.149958224
 20
-51.5290422136
 30
0.0
 40
0.7492999999998915
100
AcDbArc
 50
360.0
 51
90.0
  0
ARC
  5
324
330
1F
100
AcDbEntity
  8
0
  6
Continuous
 62
     7
370
    15
100
AcDbCircle
 10
193.648558824
 20
-51.5290422136
 30
0.0
 40
0.7493000000000691
100
AcDbArc
 50
90.0
 51
180.0
  0
ARC
  5
325
330
1F
100
AcDbEntity
  8
0
  6
Continuous
 62
     7
370
    15
100
AcDbCircle
 10
212.086063224
 20
-63.0304416136
 30
0.0
 40
0.7492999999999199
100
AcDbArc
 50
180.0
 51
270.0
  0
ARC
  5
326
330
1F
100
AcDbEntity
  8
0
  6
Continuous
 62
     7
370
    15
100
AcDbCircle
 10
223.587462624
 20
-63.0304416136
 30
0.0
 40
0.7493000000000052
100
AcDbArc
 50
270.0
 51
0.0
  0
ARC
  5
327
330
1F
100
AcDbEntity
  8
0
  6
Continuous
 62
     7
370
    15
100
AcDbCircle
 10
223.587462624
 20
-51.5290422136
 30
0.0
 40
0.7492999999998915
100
AcDbArc
 50
360.0
 51
90.0
  0
ARC
  5
328
330
1F
100
AcDbEntity
  8
0
  6
Continuous
 62
     7
370
    15
100
AcDbCircle
 10
212.086063224
 20
-51.5290422136
 30
0.0
 40
0.7493000000000904
100
AcDbArc
 50
90.0
 51
180.0
  0
ARC
  5
329
330
1F
100
AcDbEntity
  8
0
  6
Continuous
 62
     7
370
    15
100
AcDbCircle
 10
230.523567624
 20
-63.0304416136
 30
0.0
 40
0.7492999999999199
100
AcDbArc
 50
180.0
 51
270.0
  0
ARC
  5
32A
330
1F
100
AcDbEntity
  8
0
  6
Continuous
 62
     7
370
    15
100
AcDbCircle
 10
242.024967024
 20
-63.0304416136
 30
0.0
 40
0.7493000000000904
100
AcDbArc
 50
270.0
 51
360.0
  0
ARC
  5
32B
330
1F
100
AcDbEntity
  8
0
  6
Continuous
 62
     7
370
    15
100
AcDbCircle
 10
242.024967024
 20
-51.5290422136
 30
0.0
 40
0.7492999999999199
100
AcDbArc
 50
360.0
 51
90.0
  0
ARC
  5
32C
330
1F
100
AcDbEntity
  8
0
  6
Continuous
 62
     7
370
    15
100
AcDbCircle
 10
230.523567624
 20
-51.5290422136
 30
0.0
 40
0.7493000000000904
100
AcDbArc
 50
90.0
 51
180.0
  0
ARC
  5
32D
330
1F
100
AcDbEntity
  8
0
  6
Continuous
 62
     7
370
    15
100
AcDbCircle
 10
248.961072024
 20
-63.0304416136
 30
0.0
 40
0.7492999999999199
100
AcDbArc
 50
180.0
 51
270.0
  0
ARC
  5
32E
330
1F
100
AcDbEntity
  8
0
  6
Continuous
 62
     7
370
    15
100
AcDbCircle
 10
260.462471424
 20
-63.0304416136
 30
0.0
 40
0.7493000000001189
100
AcDbArc
 50
270.0
 51
360.0
  0
ARC
  5
32F
330
1F
100
AcDbEntity
  8
0
  6
Continuous
 62
     7
370
    15
100
AcDbCircle
 10
260.462471424
 20
-51.5290422136
 30
0.0
 40
0.7492999999999554
100
AcDbArc
 50
360.0
 51
90.0
  0
ARC
  5
330
330
1F
100
AcDbEntity
  8
0
  6
Continuous
 62
     7
370
    15
100
AcDbCircle
 10
248.961072024
 20
-51.5290422136
 30
0.0
 40
0.7493000000000904
100
AcDbArc
 50
90.0
 51
180.0
  0
ARC
  5
331
330
1F
100
AcDbEntity
  8
0
  6
Continuous
 62
     7
370
    15
100
AcDbCircle
 10
-25.346238136
 20
-51.5296035536
 30
0.0
 40
0.7500010400000185
100
AcDbArc
 50
90.0
 51
180.0
  0
ARC
  5
332
330
1F
100
AcDbEntity
  8
0
  6
Continuous
 62
     7
370
    15
100
AcDbCircle
 10
-25.346238136
 20
-63.0296008736
 30
0.0
 40
0.7500010400000114
100
AcDbArc
 50
180.0
 51
270.0
  0
ARC
  5
333
330
1F
100
AcDbEntity
  8
0
  6
Continuous
 62
     7
370
    15
100
AcDbCircle
 10
-13.846240816
 20
-63.0296008736
 30
0.0
 40
0.7500010400000097
100
AcDbArc
 50
270.0
 51
0.0
  0
ARC
  5
334
330
1F
100
AcDbEntity
  8
0
  6
Continuous
 62
     7
370
    15
100
AcDbCircle
 10
-13.846240816
 20
-51.5296035536
 30
0.0
 40
0.7500010400000292
100
AcDbArc
 50
0.0
 51
90.0
  0
ARC
  5
335
330
1F
100
AcDbEntity
  8
0
  6
Continuous
 62
     7
370
    15
100
AcDbCircle
 10
-25.346238136
 20
-80.1046035536
 30
0.0
 40
0.750001040000015
100
AcDbArc
 50
90.0
 51
180.0
  0
ARC
  5
336
330
1F
100
AcDbEntity
  8
0
  6
Continuous
 62
     7
370
    15
100
AcDbCircle
 10
-25.346238136
 20
-91.6046008736
 30
0.0
 40
0.7500010400000292
100
AcDbArc
 50
180.0
 51
270.0
  0
ARC
  5
337
330
1F
100
AcDbEntity
  8
0
  6
Continuous
 62
     7
370
    15
100
AcDbCircle
 10
-13.846240816
 20
-91.6046008736
 30
0.0
 40
0.7500010400000132
100
AcDbArc
 50
270.0
 51
0.0
  0
ARC
  5
338
330
1F
100
AcDbEntity
  8
0
  6
Continuous
 62
     7
370
    15
100
AcDbCircle
 10
-13.846240816
 20
-80.1046035536
 30
0.0
 40
0.750001040000015
100
AcDbArc
 50
0.0
 51
90.0
  0
ARC
  5
339
330
1F
100
AcDbEntity
  8
0
  6
Continuous
 62
     7
370
    15
100
AcDbCircle
 10
-25.346238136
 20
-108.6796035536
 30
0.0
 40
0.7500010400000185
100
AcDbArc
 50
90.0
 51
180.0
  0
ARC
  5
33A
330
1F
100
AcDbEntity
  8
0
  6
Continuous
 62
     7
370
    15
100
AcDbCircle
 10
-25.346238136
 20
-120.1796008736
 30
0.0
 40
0.750001040000015
100
AcDbArc
 50
180.0
 51
270.0
  0
ARC
  5
33B
330
1F
100
AcDbEntity
  8
0
  6
Continuous
 62
     7
370
    15
100
AcDbCircle
 10
-13.846240816
 20
-120.1796008736
 30
0.0
 40
0.7500010400000132
100
AcDbArc
 50
270.0
 51
0.0
  0
ARC
  5
33C
330
1F
100
AcDbEntity
  8
0
  6
Continuous
 62
     7
370
    15
100
AcDbCircle
 10
-13.846240816
 20
-108.6796035536
 30
0.0
 40
0.7500010400000328
100
AcDbArc
 50
0.0
 51
90.0
  0
ARC
  5
33D
330
1F
100
AcDbEntity
  8
0
  6
Continuous
 62
     7
370
    15
100
AcDbCircle
 10
-6.908733736
 20
-51.5296035536
 30
0.0
 40
0.7500010400000221
100
AcDbArc
 50
90.0
 51
180.0
  0
ARC
  5
33E
330
1F
100
AcDbEntity
  8
0
  6
Continuous
 62
     7
370
    15
100
AcDbCircle
 10
-6.908733736
 20
-63.0296008736
 30
0.0
 40
0.7500010400000097
100
AcDbArc
 50
180.0
 51
270.0
  0
ARC
  5
33F
330
1F
100
AcDbEntity
  8
0
  6
Continuous
 62
     7
370
    15
100
AcDbCircle
 10
4.591263584
 20
-63.0296008736
 30
0.0
 40
0.7500010400000114
100
AcDbArc
 50
270.0
 51
0.0
  0
ARC
  5
340
330
1F
100
AcDbEntity
  8
0
  6
Continuous
 62
     7
370
    15
100
AcDbCircle
 10
4.591263584
 20
-51.5296035536
 30
0.0
 40
0.7500010400000292
100
AcDbArc
 50
0.0
 51
90.0
  0
ARC
  5
341
330
1F
100
AcDbEntity
  8
0
  6
Continuous
 62
     7
370
    15
100
AcDbCircle
 10
-6.908733736
 20
-80.1046035536
 30
0.0
 40
0.750001040000015
100
AcDbArc
 50
90.0
 51
180.0
  0
ARC
  5
342
330
1F
100
AcDbEntity
  8
0
  6
Continuous
 62
     7
370
    15
100
AcDbCircle
 10
-6.908733736
 20
-91.6046008736
 30
0.0
 40
0.7500010400000292
100
AcDbArc
 50
180.0
 51
270.0
  0
ARC
  5
343
330
1F
100
AcDbEntity
  8
0
  6
Continuous
 62
     7
370
    15
100
AcDbCircle
 10
4.591263584
 20
-91.6046008736
 30
0.0
 40
0.7500010400000301
100
AcDbArc
 50
270.0
 51
360.0
  0
ARC
  5
344
330
1F
100
AcDbEntity
  8
0
  6
Continuous
 62
     7
370
    15
100
AcDbCircle
 10
4.591263584
 20
-80.1046035536
 30
0.0
 40
0.7500010400000292
100
AcDbArc
 50
0.0
 51
90.0
  0
ARC
  5
345
330
1F
100
AcDbEntity
  8
0
  6
Continuous
 62
     7
370
    15
100
AcDbCircle
 10
-6.908733736
 20
-108.6796035536
 30
0.0
 40
0.7500010400000185
100
AcDbArc
 50
90.0
 51
180.0
  0
ARC
  5
346
330
1F
100
AcDbEntity
  8
0
  6
Continuous
 62
     7
370
    15
100
AcDbCircle
 10
-6.908733736
 20
-120.1796008736
 30
0.0
 40
0.750001040000015
100
AcDbArc
 50
180.0
 51
270.0
  0
ARC
  5
347
330
1F
100
AcDbEntity
  8
0
  6
Continuous
 62
     7
370
    15
100
AcDbCircle
 10
4.591263584
 20
-120.1796008736
 30
0.0
 40
0.7500010400000301
100
AcDbArc
 50
270.0
 51
360.0
  0
ARC
  5
348
330
1F
100
AcDbEntity
  8
0
  6
Continuous
 62
     7
370
    15
100
AcDbCircle
 10
4.591263584
 20
-108.6796035536
 30
0.0
 40
0.750001040000031
100
AcDbArc
 50
0.0
 51
90.0
  0
ARC
  5
349
330
1F
100
AcDbEntity
  8
0
  6
Continuous
 62
     7
370
    15
100
AcDbCircle
 10
11.528770664
 20
-51.5296035536
 30
0.0
 40
0.7500010400000114
100
AcDbArc
 50
90.0
 51
180.0
  0
ARC
  5
34A
330
1F
100
AcDbEntity
  8
0
  6
Continuous
 62
     7
370
    15
100
AcDbCircle
 10
11.528770664
 20
-63.0296008736
 30
0.0
 40
0.7500010399999972
100
AcDbArc
 50
180.0
 51
270.0
  0
ARC
  5
34B
330
1F
100
AcDbEntity
  8
0
  6
Continuous
 62
     7
370
    15
100
AcDbCircle
 10
23.028767984
 20
-63.0296008736
 30
0.0
 40
0.7500010399999866
100
AcDbArc
 50
270.0
 51
0.0
  0
ARC
  5
34C
330
1F
100
AcDbEntity
  8
0
  6
Continuous
 62
     7
370
    15
100
AcDbCircle
 10
23.028767984
 20
-51.5296035536
 30
0.0
 40
0.7500010400000043
100
AcDbArc
 50
0.0
 51
90.0
  0
ARC
  5
34D
330
1F
100
AcDbEntity
  8
0
  6
Continuous
 62
     7
370
    15
100
AcDbCircle
 10
11.528770664
 20
-80.1046035536
 30
0.0
 40
0.750001040000015
100
AcDbArc
 50
90.0
 51
180.0
  0
ARC
  5
34E
330
1F
100
AcDbEntity
  8
0
  6
Continuous
 62
     7
370
    15
100
AcDbCircle
 10
11.528770664
 20
-91.6046008736
 30
0.0
 40
0.7500010400000168
100
AcDbArc
 50
180.0
 51
270.0
  0
ARC
  5
34F
330
1F
100
AcDbEntity
  8
0
  6
Continuous
 62
     7
370
    15
100
AcDbCircle
 10
23.028767984
 20
-91.6046008736
 30
0.0
 40
0.7500010400000008
100
AcDbArc
 50
270.0
 51
0.0
  0
ARC
  5
350
330
1F
100
AcDbEntity
  8
0
  6
Continuous
 62
     7
370
    15
100
AcDbCircle
 10
23.028767984
 20
-80.1046035536
 30
0.0
 40
0.750001040000015
100
AcDbArc
 50
0.0
 51
90.0
  0
ARC
  5
351
330
1F
100
AcDbEntity
  8
0
  6
Continuous
 62
     7
370
    15
100
AcDbCircle
 10
11.528770664
 20
-108.6796035536
 30
0.0
 40
0.7500010400000185
100
AcDbArc
 50
90.0
 51
180.0
  0
ARC
  5
352
330
1F
100
AcDbEntity
  8
0
  6
Continuous
 62
     7
370
    15
100
AcDbCircle
 10
11.528770664
 20
-120.1796008736
 30
0.0
 40
0.7500010400000292
100
AcDbArc
 50
180.0
 51
270.0
  0
ARC
  5
353
330
1F
100
AcDbEntity
  8
0
  6
Continuous
 62
     7
370
    15
100
AcDbCircle
 10
23.028767984
 20
-120.1796008736
 30
0.0
 40
0.7500010400000008
100
AcDbArc
 50
270.0
 51
0.0
  0
ARC
  5
354
330
1F
100
AcDbEntity
  8
0
  6
Continuous
 62
     7
370
    15
100
AcDbCircle
 10
23.028767984
 20
-108.6796035536
 30
0.0
 40
0.7500010400000328
100
AcDbArc
 50
0.0
 51
90.0
  0
ARC
  5
355
330
1F
100
AcDbEntity
  8
0
  6
Continuous
 62
     7
370
    15
100
AcDbCircle
 10
29.966275064
 20
-51.5296035536
 30
0.0
 40
0.7500010399999972
100
AcDbArc
 50
90.0
 51
180.0
  0
ARC
  5
356
330
1F
100
AcDbEntity
  8
0
  6
Continuous
 62
     7
370
    15
100
AcDbCircle
 10
29.966275064
 20
-63.0296008736
 30
0.0
 40
0.7500010399999901
100
AcDbArc
 50
180.0
 51
270.0
  0
ARC
  5
357
330
1F
100
AcDbEntity
  8
0
  6
Continuous
 62
     7
370
    15
100
AcDbCircle
 10
41.466272384
 20
-63.0296008736
 30
0.0
 40
0.7500010399999866
100
AcDbArc
 50
270.0
 51
0.0
  0
ARC
  5
358
330
1F
100
AcDbEntity
  8
0
  6
Continuous
 62
     7
370
    15
100
AcDbCircle
 10
41.466272384
 20
-51.5296035536
 30
0.0
 40
0.7500010400000079
100
AcDbArc
 50
0.0
 51
90.0
  0
ARC
  5
359
330
1F
100
AcDbEntity
  8
0
  6
Continuous
 62
     7
370
    15
100
AcDbCircle
 10
29.966275064
 20
-80.1046035536
 30
0.0
 40
0.7500010400000008
100
AcDbArc
 50
90.0
 51
180.0
  0
ARC
  5
35A
330
1F
100
AcDbEntity
  8
0
  6
Continuous
 62
     7
370
    15
100
AcDbCircle
 10
29.966275064
 20
-91.6046008736
 30
0.0
 40
0.7500010400000008
100
AcDbArc
 50
180.0
 51
270.0
  0
ARC
  5
35B
330
1F
100
AcDbEntity
  8
0
  6
Continuous
 62
     7
370
    15
100
AcDbCircle
 10
41.466272384
 20
-91.6046008736
 30
0.0
 40
0.7500010400000008
100
AcDbArc
 50
270.0
 51
0.0
  0
ARC
  5
35C
330
1F
100
AcDbEntity
  8
0
  6
Continuous
 62
     7
370
    15
100
AcDbCircle
 10
41.466272384
 20
-80.1046035536
 30
0.0
 40
0.7500010400000292
100
AcDbArc
 50
0.0
 51
90.0
  0
ARC
  5
35D
330
1F
100
AcDbEntity
  8
0
  6
Continuous
 62
     7
370
    15
100
AcDbCircle
 10
29.966275064
 20
-108.6796035536
 30
0.0
 40
0.7500010400000185
100
AcDbArc
 50
90.0
 51
180.0
  0
ARC
  5
35E
330
1F
100
AcDbEntity
  8
0
  6
Continuous
 62
     7
370
    15
100
AcDbCircle
 10
29.966275064
 20
-120.1796008736
 30
0.0
 40
0.750001040000015
100
AcDbArc
 50
180.0
 51
270.0
  0
ARC
  5
35F
330
1F
100
AcDbEntity
  8
0
  6
Continuous
 62
     7
370
    15
100
AcDbCircle
 10
41.466272384
 20
-120.1796008736
 30
0.0
 40
0.7500010400000079
100
AcDbArc
 50
270.0
 51
0.0
  0
ARC
  5
360
330
1F
100
AcDbEntity
  8
0
  6
Continuous
 62
     7
370
    15
100
AcDbCircle
 10
41.466272384
 20
-108.6796035536
 30
0.0
 40
0.7500010400000292
100
AcDbArc
 50
0.0
 51
90.0
  0
ARC
  5
361
330
1F
100
AcDbEntity
  8
0
  6
Continuous
 62
     7
370
    15
100
AcDbCircle
 10
48.403779464
 20
-51.5296035536
 30
0.0
 40
0.750001040000015
100
AcDbArc
 50
90.0
 51
180.0
  0
ARC
  5
362
330
1F
100
AcDbEntity
  8
0
  6
Continuous
 62
     7
370
    15
100
AcDbCircle
 10
48.403779464
 20
-63.0296008736
 30
0.0
 40
0.7500010400000079
100
AcDbArc
 50
180.0
 51
270.0
  0
ARC
  5
363
330
1F
100
AcDbEntity
  8
0
  6
Continuous
 62
     7
370
    15
100
AcDbCircle
 10
59.903776784
 20
-63.0296008736
 30
0.0
 40
0.7500010400000008
100
AcDbArc
 50
270.0
 51
0.0
  0
ARC
  5
364
330
1F
100
AcDbEntity
  8
0
  6
Continuous
 62
     7
370
    15
100
AcDbCircle
 10
59.903776784
 20
-51.5296035536
 30
0.0
 40
0.7500010400000292
100
AcDbArc
 50
0.0
 51
90.0
  0
ARC
  5
365
330
1F
100
AcDbEntity
  8
0
  6
Continuous
 62
     7
370
    15
100
AcDbCircle
 10
48.403779464
 20
-80.1046035536
 30
0.0
 40
0.750001040000015
100
AcDbArc
 50
90.0
 51
180.0
  0
ARC
  5
366
330
1F
100
AcDbEntity
  8
0
  6
Continuous
 62
     7
370
    15
100
AcDbCircle
 10
48.403779464
 20
-91.6046008736
 30
0.0
 40
0.750001040000015
100
AcDbArc
 50
180.0
 51
270.0
  0
ARC
  5
367
330
1F
100
AcDbEntity
  8
0
  6
Continuous
 62
     7
370
    15
100
AcDbCircle
 10
59.903776784
 20
-91.6046008736
 30
0.0
 40
0.7500010400000221
100
AcDbArc
 50
270.0
 51
0.0
  0
ARC
  5
368
330
1F
100
AcDbEntity
  8
0
  6
Continuous
 62
     7
370
    15
100
AcDbCircle
 10
59.903776784
 20
-80.1046035536
 30
0.0
 40
0.7500010400000363
100
AcDbArc
 50
0.0
 51
90.0
  0
ARC
  5
369
330
1F
100
AcDbEntity
  8
0
  6
Continuous
 62
     7
370
    15
100
AcDbCircle
 10
48.403779464
 20
-108.6796035536
 30
0.0
 40
0.7500010400000079
100
AcDbArc
 50
90.0
 51
180.0
  0
ARC
  5
36A
330
1F
100
AcDbEntity
  8
0
  6
Continuous
 62
     7
370
    15
100
AcDbCircle
 10
48.403779464
 20
-120.1796008736
 30
0.0
 40
0.750001040000015
100
AcDbArc
 50
180.0
 51
270.0
  0
ARC
  5
36B
330
1F
100
AcDbEntity
  8
0
  6
Continuous
 62
     7
370
    15
100
AcDbCircle
 10
59.903776784
 20
-120.1796008736
 30
0.0
 40
0.7500010400000221
100
AcDbArc
 50
270.0
 51
0.0
  0
ARC
  5
36C
330
1F
100
AcDbEntity
  8
0
  6
Continuous
 62
     7
370
    15
100
AcDbCircle
 10
59.903776784
 20
-108.6796035536
 30
0.0
 40
0.7500010400000292
100
AcDbArc
 50
0.0
 51
90.0
  0
ARC
  5
36D
330
1F
100
AcDbEntity
  8
0
  6
Continuous
 62
     7
370
    15
100
AcDbCircle
 10
66.841283864
 20
-51.5296035536
 30
0.0
 40
0.7500010400000008
100
AcDbArc
 50
90.0
 51
180.0
  0
ARC
  5
36E
330
1F
100
AcDbEntity
  8
0
  6
Continuous
 62
     7
370
    15
100
AcDbCircle
 10
66.841283864
 20
-63.0296008736
 30
0.0
 40
0.7500010400000008
100
AcDbArc
 50
180.0
 51
270.0
  0
ARC
  5
36F
330
1F
100
AcDbEntity
  8
0
  6
Continuous
 62
     7
370
    15
100
AcDbCircle
 10
78.341281184
 20
-63.0296008736
 30
0.0
 40
0.750001040000015
100
AcDbArc
 50
270.0
 51
0.0
  0
ARC
  5
370
330
1F
100
AcDbEntity
  8
0
  6
Continuous
 62
     7
370
    15
100
AcDbCircle
 10
78.341281184
 20
-51.5296035536
 30
0.0
 40
0.7500010400000008
100
AcDbArc
 50
0.0
 51
90.0
  0
ARC
  5
371
330
1F
100
AcDbEntity
  8
0
  6
Continuous
 62
     7
370
    15
100
AcDbCircle
 10
66.841283864
 20
-80.1046035536
 30
0.0
 40
0.7500010399999866
100
AcDbArc
 50
90.0
 51
180.0
  0
ARC
  5
372
330
1F
100
AcDbEntity
  8
0
  6
Continuous
 62
     7
370
    15
100
AcDbCircle
 10
66.841283864
 20
-91.6046008736
 30
0.0
 40
0.7500010399999866
100
AcDbArc
 50
180.0
 51
270.0
  0
ARC
  5
373
330
1F
100
AcDbEntity
  8
0
  6
Continuous
 62
     7
370
    15
100
AcDbCircle
 10
78.341281184
 20
-91.6046008736
 30
0.0
 40
0.750001040000015
100
AcDbArc
 50
270.0
 51
0.0
  0
ARC
  5
374
330
1F
100
AcDbEntity
  8
0
  6
Continuous
 62
     7
370
    15
100
AcDbCircle
 10
78.341281184
 20
-80.1046035536
 30
0.0
 40
0.750001040000015
100
AcDbArc
 50
0.0
 51
90.0
  0
ARC
  5
375
330
1F
100
AcDbEntity
  8
0
  6
Continuous
 62
     7
370
    15
100
AcDbCircle
 10
66.841283864
 20
-108.6796035536
 30
0.0
 40
0.7500010400000008
100
AcDbArc
 50
90.0
 51
180.0
  0
ARC
  5
376
330
1F
100
AcDbEntity
  8
0
  6
Continuous
 62
     7
370
    15
100
AcDbCircle
 10
66.841283864
 20
-120.1796008736
 30
0.0
 40
0.7500010399999866
100
AcDbArc
 50
180.0
 51
270.0
  0
ARC
  5
377
330
1F
100
AcDbEntity
  8
0
  6
Continuous
 62
     7
370
    15
100
AcDbCircle
 10
78.341281184
 20
-120.1796008736
 30
0.0
 40
0.750001040000015
100
AcDbArc
 50
270.0
 51
0.0
  0
ARC
  5
378
330
1F
100
AcDbEntity
  8
0
  6
Continuous
 62
     7
370
    15
100
AcDbCircle
 10
78.341281184
 20
-108.6796035536
 30
0.0
 40
0.7500010400000292
100
AcDbArc
 50
0.0
 51
90.0
  0
ARC
  5
379
330
1F
100
AcDbEntity
  8
0
  6
Continuous
 62
     7
370
    15
100
AcDbCircle
 10
85.278788264
 20
-51.5296035536
 30
0.0
 40
0.7500010399999866
100
AcDbArc
 50
90.0
 51
180.0
  0
ARC
  5
37A
330
1F
100
AcDbEntity
  8
0
  6
Continuous
 62
     7
370
    15
100
AcDbCircle
 10
85.278788264
 20
-63.0296008736
 30
0.0
 40
0.7500010399999724
100
AcDbArc
 50
180.0
 51
270.0
  0
ARC
  5
37B
330
1F
100
AcDbEntity
  8
0
  6
Continuous
 62
     7
370
    15
100
AcDbCircle
 10
96.778785584
 20
-63.0296008736
 30
0.0
 40
0.7500010400000008
100
AcDbArc
 50
270.0
 51
0.0
  0
ARC
  5
37C
330
1F
100
AcDbEntity
  8
0
  6
Continuous
 62
     7
370
    15
100
AcDbCircle
 10
96.778785584
 20
-51.5296035536
 30
0.0
 40
0.7500010399999866
100
AcDbArc
 50
0.0
 51
90.0
  0
ARC
  5
37D
330
1F
100
AcDbEntity
  8
0
  6
Continuous
 62
     7
370
    15
100
AcDbCircle
 10
85.278788264
 20
-80.1046035536
 30
0.0
 40
0.7500010399999866
100
AcDbArc
 50
90.0
 51
180.0
  0
ARC
  5
37E
330
1F
100
AcDbEntity
  8
0
  6
Continuous
 62
     7
370
    15
100
AcDbCircle
 10
85.278788264
 20
-91.6046008736
 30
0.0
 40
0.7500010399999866
100
AcDbArc
 50
180.0
 51
270.0
  0
ARC
  5
37F
330
1F
100
AcDbEntity
  8
0
  6
Continuous
 62
     7
370
    15
100
AcDbCircle
 10
96.778785584
 20
-91.6046008736
 30
0.0
 40
0.7500010400000008
100
AcDbArc
 50
270.0
 51
0.0
  0
ARC
  5
380
330
1F
100
AcDbEntity
  8
0
  6
Continuous
 62
     7
370
    15
100
AcDbCircle
 10
96.778785584
 20
-80.1046035536
 30
0.0
 40
0.7500010400000008
100
AcDbArc
 50
0.0
 51
90.0
  0
ARC
  5
381
330
1F
100
AcDbEntity
  8
0
  6
Continuous
 62
     7
370
    15
100
AcDbCircle
 10
85.278788264
 20
-108.6796035536
 30
0.0
 40
0.7500010399999724
100
AcDbArc
 50
90.0
 51
180.0
  0
ARC
  5
382
330
1F
100
AcDbEntity
  8
0
  6
Continuous
 62
     7
370
    15
100
AcDbCircle
 10
85.278788264
 20
-120.1796008736
 30
0.0
 40
0.7500010399999724
100
AcDbArc
 50
180.0
 51
270.0
  0
ARC
  5
383
330
1F
100
AcDbEntity
  8
0
  6
Continuous
 62
     7
370
    15
100
AcDbCircle
 10
96.778785584
 20
-120.1796008736
 30
0.0
 40
0.750001040000015
100
AcDbArc
 50
270.0
 51
0.0
  0
ARC
  5
384
330
1F
100
AcDbEntity
  8
0
  6
Continuous
 62
     7
370
    15
100
AcDbCircle
 10
96.778785584
 20
-108.6796035536
 30
0.0
 40
0.7500010400000008
100
AcDbArc
 50
0.0
 51
90.0
  0
ARC
  5
385
330
1F
100
AcDbEntity
  8
0
  6
Continuous
 62
     7
370
    15
100
AcDbCircle
 10
103.716292664
 20
-51.5296035536
 30
0.0
 40
0.7500010399999866
100
AcDbArc
 50
90.0
 51
180.0
  0
ARC
  5
386
330
1F
100
AcDbEntity
  8
0
  6
Continuous
 62
     7
370
    15
100
AcDbCircle
 10
103.716292664
 20
-63.0296008736
 30
0.0
 40
0.7500010399999866
100
AcDbArc
 50
180.0
 51
270.0
  0
ARC
  5
387
330
1F
100
AcDbEntity
  8
0
  6
Continuous
 62
     7
370
    15
100
AcDbCircle
 10
115.216289984
 20
-63.0296008736
 30
0.0
 40
0.7500010400000434
100
AcDbArc
 50
270.0
 51
360.0
  0
ARC
  5
388
330
1F
100
AcDbEntity
  8
0
  6
Continuous
 62
     7
370
    15
100
AcDbCircle
 10
115.216289984
 20
-51.5296035536
 30
0.0
 40
0.7500010400000292
100
AcDbArc
 50
0.0
 51
90.0
  0
ARC
  5
389
330
1F
100
AcDbEntity
  8
0
  6
Continuous
 62
     7
370
    15
100
AcDbCircle
 10
285.836080824
 20
-63.0304416136
 30
0.0
 40
0.749300000000062
100
AcDbArc
 50
180.0
 51
270.0
  0
ARC
  5
38A
330
1F
100
AcDbEntity
  8
0
  6
Continuous
 62
     7
370
    15
100
AcDbCircle
 10
297.337480224
 20
-63.0304416136
 30
0.0
 40
0.7493000000000052
100
AcDbArc
 50
270.0
 51
0.0
  0
ARC
  5
38B
330
1F
100
AcDbEntity
  8
0
  6
Continuous
 62
     7
370
    15
100
AcDbCircle
 10
297.337480224
 20
-51.5290422136
 30
0.0
 40
0.7493000000000052
100
AcDbArc
 50
0.0
 51
90.0
  0
ARC
  5
38C
330
1F
100
AcDbEntity
  8
0
  6
Continuous
 62
     7
370
    15
100
AcDbCircle
 10
285.836080824
 20
-51.5290422136
 30
0.0
 40
0.749300000000062
100
AcDbArc
 50
90.0
 51
180.0
  0
ARC
  5
38D
330
1F
100
AcDbEntity
  8
0
  6
Continuous
 62
     7
370
    15
100
AcDbCircle
 10
267.398576424
 20
-63.0304416136
 30
0.0
 40
0.7492999999999483
100
AcDbArc
 50
180.0
 51
270.0
  0
ARC
  5
38E
330
1F
100
AcDbEntity
  8
0
  6
Continuous
 62
     7
370
    15
100
AcDbCircle
 10
278.899975824
 20
-63.0304416136
 30
0.0
 40
0.7493000000000194
100
AcDbArc
 50
270.0
 51
360.0
  0
ARC
  5
38F
330
1F
100
AcDbEntity
  8
0
  6
Continuous
 62
     7
370
    15
100
AcDbCircle
 10
278.899975824
 20
-51.5290422136
 30
0.0
 40
0.7492999999999483
100
AcDbArc
 50
360.0
 51
90.0
  0
ARC
  5
390
330
1F
100
AcDbEntity
  8
0
  6
Continuous
 62
     7
370
    15
100
AcDbCircle
 10
267.398576424
 20
-51.5290422136
 30
0.0
 40
0.7493000000001189
100
AcDbArc
 50
90.0
 51
180.0
  0
ENDSEC
  0
SECTION
  2
OBJECTS
  0
DICTIONARY
  5
C
330
0
100
AcDbDictionary
281
     1
  3
ACAD_GROUP
350
D
  3
ACAD_LAYOUT
350
1A
  3
ACAD_MLINESTYLE
350
17
  3
ACAD_PLOTSETTINGS
350
19
  3
ACAD_PLOTSTYLENAME
350
E
  3
ACAD_SCALELIST
350
391
  3
AcDbVariableDictionary
350
3B3
  0
DICTIONARY
  5
D
102
{ACAD_REACTORS
330
C
102
}
330
C
100
AcDbDictionary
281
     1
  0
DICTIONARY
  5
1A
102
{ACAD_REACTORS
330
C
102
}
330
C
100
AcDbDictionary
281
     1
  3
Layout1
350
1E
  3
Layout2
350
26
  3
Model
350
22
  0
DICTIONARY
  5
17
102
{ACAD_REACTORS
330
C
102
}
330
C
100
AcDbDictionary
281
     1
  3
Standard
350
18
  0
DICTIONARY
  5
19
102
{ACAD_REACTORS
330
C
102
}
330
C
100
AcDbDictionary
281
     1
  0
ACDBDICTIONARYWDFLT
  5
E
102
{ACAD_REACTORS
330
C
102
}
330
C
100
AcDbDictionary
281
     1
  3
Normal
350
F
100
AcDbDictionaryWithDefault
340
F
  0
DICTIONARY
  5
391
102
{ACAD_REACTORS
330
C
102
}
330
C
100
AcDbDictionary
281
     1
  3
A0
350
392
  3
A1
350
393
  3
A2
350
394
  3
A3
350
395
  3
A4
350
396
  3
A5
350
397
  3
A6
350
398
  3
A7
350
399
  3
A8
350
39A
  3
A9
350
39B
  3
B0
350
39C
  3
B1
350
39D
  3
B2
350
39E
  3
B3
350
39F
  3
B4
350
3A0
  3
B5
350
3A1
  3
B6
350
3A2
  3
B7
350
3A3
  3
B8
350
3A4
  3
B9
350
3A5
  3
C0
350
3A6
  3
C1
350
3A7
  3
C2
350
3A8
  3
C3
350
3A9
  3
C4
350
3AA
  3
C5
350
3AB
  3
C6
350
3AC
  3
C7
350
3AD
  3
C8
350
3AE
  3
C9
350
3AF
  3
D0
350
3B0
  3
D1
350
3B1
  3
D2
350
3B2
  0
DICTIONARY
  5
3B3
102
{ACAD_REACTORS
330
C
102
}
330
C
100
AcDbDictionary
281
     1
  3
CANNOSCALE
350
3B4
  0
LAYOUT
  5
1E
102
{ACAD_REACTORS
330
1A
102
}
330
1A
100
AcDbPlotSettings
  1

  2
none_device
  4

  6

 40
0.0
 41
0.0
 42
0.0
 43
0.0
 44
0.0
 45
0.0
 46
0.0
 47
0.0
 48
0.0
 49
0.0
140
0.0
141
0.0
142
1.0
143
1.0
 70
   688
 72
     0
 73
     0
 74
     5
  7

 75
    16
147
1.0
148
0.0
149
0.0
100
AcDbLayout
  1
Layout1
 70
     1
 71
     1
 10
0.0
 20
0.0
 11
420.0
 21
297.0
 12
0.0
 22
0.0
 32
0.0
 14
1.0000000000E+20
 24
1.0000000000E+20
 34
1.0000000000E+20
 15
-1.0000000000E+20
 25
-1.0000000000E+20
 35
-1.0000000000E+20
146
0.0
 13
0.0
 23
0.0
 33
0.0
 16
1.0
 26
0.0
 36
0.0
 17
0.0
 27
1.0
 37
0.0
 76
     0
330
1B
  0
LAYOUT
  5
26
102
{ACAD_REACTORS
330
1A
102
}
330
1A
100
AcDbPlotSettings
  1

  2
none_device
  4

  6

 40
0.0
 41
0.0
 42
0.0
 43
0.0
 44
0.0
 45
0.0
 46
0.0
 47
0.0
 48
0.0
 49
0.0
140
0.0
141
0.0
142
1.0
143
1.0
 70
   688
 72
     0
 73
     0
 74
     5
  7

 75
    16
147
1.0
148
0.0
149
0.0
100
AcDbLayout
  1
Layout2
 70
     1
 71
     2
 10
0.0
 20
0.0
 11
0.0
 21
0.0
 12
0.0
 22
0.0
 32
0.0
 14
0.0
 24
0.0
 34
0.0
 15
0.0
 25
0.0
 35
0.0
146
0.0
 13
0.0
 23
0.0
 33
0.0
 16
1.0
 26
0.0
 36
0.0
 17
0.0
 27
1.0
 37
0.0
 76
     0
330
23
  0
LAYOUT
  5
22
102
{ACAD_REACTORS
330
1A
102
}
330
1A
100
AcDbPlotSettings
  1

  2
none_device
  4
ANSI_A_(11.00_x_8.50_Inches)
  6

 40
6.35
 41
19.05
 42
6.35000508
 43
19.05000254
 44
279.4
 45
215.9
 46
27.5680685239
 47
132.0624376661
 48
0.0
 49
0.0
140
0.0
141
0.0
142
0.030624297
143
1.0
 70
  1696
 72
     0
 73
     0
 74
     0
  7

 75
     0
147
0.0179189148
148
0.0
149
0.0
100
AcDbLayout
  1
Model
 70
     1
 71
     0
 10
0.0
 20
0.0
 11
420.0
 21
297.0
 12
0.0
 22
0.0
 32
0.0
 14
-41.808539476
 24
-144.3889022136
 34
0.0
 15
313.791460524
 25
33.4110977864
 35
0.0
146
0.0
 13
0.0
 23
0.0
 33
0.0
 16
1.0
 26
0.0
 36
0.0
 17
0.0
 27
1.0
 37
0.0
 76
     0
330
1F
331
29
  0
MLINESTYLE
  5
18
102
{ACAD_REACTORS
330
17
102
}
330
17
100
AcDbMlineStyle
  2
Standard
 70
     0
  3

 62
   256
 51
90.0
 52
90.0
 71
     2
 49
0.5
 62
   256
  6
BYLAYER
 49
-0.5
 62
   256
  6
BYLAYER
  0
ACDBPLACEHOLDER
  5
F
102
{ACAD_REACTORS
330
E
102
}
330
E
  0
SCALE
  5
392
102
{ACAD_REACTORS
330
391
102
}
330
391
100
AcDbScale
 70
     0
300
1:1
140
1.0
141
1.0
290
     1
  0
SCALE
  5
393
102
{ACAD_REACTORS
330
391
102
}
330
391
100
AcDbScale
 70
     0
300
1:2
140
1.0
141
2.0
290
     0
  0
SCALE
  5
394
102
{ACAD_REACTORS
330
391
102
}
330
391
100
AcDbScale
 70
     0
300
1:4
140
1.0
141
4.0
290
     0
  0
SCALE
  5
395
102
{ACAD_REACTORS
330
391
102
}
330
391
100
AcDbScale
 70
     0
300
1:5
140
1.0
141
5.0
290
     0
  0
SCALE
  5
396
102
{ACAD_REACTORS
330
391
102
}
330
391
100
AcDbScale
 70
     0
300
1:8
140
1.0
141
8.0
290
     0
  0
SCALE
  5
397
102
{ACAD_REACTORS
330
391
102
}
330
391
100
AcDbScale
 70
     0
300
1:10
140
1.0
141
10.0
290
     0
  0
SCALE
  5
398
102
{ACAD_REACTORS
330
391
102
}
330
391
100
AcDbScale
 70
     0
300
1:16
140
1.0
141
16.0
290
     0
  0
SCALE
  5
399
102
{ACAD_REACTORS
330
391
102
}
330
391
100
AcDbScale
 70
     0
300
1:20
140
1.0
141
20.0
290
     0
  0
SCALE
  5
39A
102
{ACAD_REACTORS
330
391
102
}
330
391
100
AcDbScale
 70
     0
300
1:30
140
1.0
141
30.0
290
     0
  0
SCALE
  5
39B
102
{ACAD_REACTORS
330
391
102
}
330
391
100
AcDbScale
 70
     0
300
1:40
140
1.0
141
40.0
290
     0
  0
SCALE
  5
39C
102
{ACAD_REACTORS
330
391
102
}
330
391
100
AcDbScale
 70
     0
300
1:50
140
1.0
141
50.0
290
     0
  0
SCALE
  5
39D
102
{ACAD_REACTORS
330
391
102
}
330
391
100
AcDbScale
 70
     0
300
1:100
140
1.0
141
100.0
290
     0
  0
SCALE
  5
39E
102
{ACAD_REACTORS
330
391
102
}
330
391
100
AcDbScale
 70
     0
300
2:1
140
2.0
141
1.0
290
     0
  0
SCALE
  5
39F
102
{ACAD_REACTORS
330
391
102
}
330
391
100
AcDbScale
 70
     0
300
4:1
140
4.0
141
1.0
290
     0
  0
SCALE
  5
3A0
102
{ACAD_REACTORS
330
391
102
}
330
391
100
AcDbScale
 70
     0
300
8:1
140
8.0
141
1.0
290
     0
  0
SCALE
  5
3A1
102
{ACAD_REACTORS
330
391
102
}
330
391
100
AcDbScale
 70
     0
300
10:1
140
10.0
141
1.0
290
     0
  0
SCALE
  5
3A2
102
{ACAD_REACTORS
330
391
102
}
330
391
100
AcDbScale
 70
     0
300
100:1
140
100.0
141
1.0
290
     0
  0
SCALE
  5
3A3
102
{ACAD_REACTORS
330
391
102
}
330
391
100
AcDbScale
 70
     0
300
1/128" = 1'-0"
140
0.0078125
141
12.0
290
     0
  0
SCALE
  5
3A4
102
{ACAD_REACTORS
330
391
102
}
330
391
100
AcDbScale
 70
     0
300
1/64" = 1'-0"
140
0.015625
141
12.0
290
     0
  0
SCALE
  5
3A5
102
{ACAD_REACTORS
330
391
102
}
330
391
100
AcDbScale
 70
     0
300
1/32" = 1'-0"
140
0.03125
141
12.0
290
     0
  0
SCALE
  5
3A6
102
{ACAD_REACTORS
330
391
102
}
330
391
100
AcDbScale
 70
     0
300
1/16" = 1'-0"
140
0.0625
141
12.0
290
     0
  0
SCALE
  5
3A7
102
{ACAD_REACTORS
330
391
102
}
330
391
100
AcDbScale
 70
     0
300
3/32" = 1'-0"
140
0.09375
141
12.0
290
     0
  0
SCALE
  5
3A8
102
{ACAD_REACTORS
330
391
102
}
330
391
100
AcDbScale
 70
     0
300
1/8" = 1'-0"
140
0.125
141
12.0
290
     0
  0
SCALE
  5
3A9
102
{ACAD_REACTORS
330
391
102
}
330
391
100
AcDbScale
 70
     0
300
3/16" = 1'-0"
140
0.1875
141
12.0
290
     0
  0
SCALE
  5
3AA
102
{ACAD_REACTORS
330
391
102
}
330
391
100
AcDbScale
 70
     0
300
1/4" = 1'-0"
140
0.25
141
12.0
290
     0
  0
SCALE
  5
3AB
102
{ACAD_REACTORS
330
391
102
}
330
391
100
AcDbScale
 70
     0
300
3/8" = 1'-0"
140
0.375
141
12.0
290
     0
  0
SCALE
  5
3AC
102
{ACAD_REACTORS
330
391
102
}
330
391
100
AcDbScale
 70
     0
300
1/2" = 1'-0"
140
0.5
141
12.0
290
     0
  0
SCALE
  5
3AD
102
{ACAD_REACTORS
330
391
102
}
330
391
100
AcDbScale
 70
     0
300
3/4" = 1'-0"
140
0.75
141
12.0
290
     0
  0
SCALE
  5
3AE
102
{ACAD_REACTORS
330
391
102
}
330
391
100
AcDbScale
 70
     0
300
1" = 1'-0"
140
1.0
141
12.0
290
     0
  0
SCALE
  5
3AF
102
{ACAD_REACTORS
330
391
102
}
330
391
100
AcDbScale
 70
     0
300
1-1/2" = 1'-0"
140
1.5
141
12.0
290
     0
  0
SCALE
  5
3B0
102
{ACAD_REACTORS
330
391
102
}
330
391
100
AcDbScale
 70
     0
300
3" = 1'-0"
140
3.0
141
12.0
290
     0
  0
SCALE
  5
3B1
102
{ACAD_REACTORS
330
391
102
}
330
391
100
AcDbScale
 70
     0
300
6" = 1'-0"
140
6.0
141
12.0
290
     0
  0
SCALE
  5
3B2
102
{ACAD_REACTORS
330
391
102
}
330
391
100
AcDbScale
 70
     0
300
1'-0" = 1'-0"
140
12.0
141
12.0
290
     0
  0
DICTIONARYVAR
  5
3B4
102
{ACAD_REACTORS
330
3B3
102
}
330
3B3
100
DictionaryVariables
280
     0
  1
1:1
  0
ENDSEC
  0
EOF
