  0
SECTION
  2
HEADER
  9
$ACADVER
  1
AC1012
  9
$DWGCODEPAGE
  3
ansi_1252
  9
$INSBASE
 10
0.0
 20
0.0
 30
0.0
  9
$EXTMIN
 10
-62.4287828362
 20
-140.6612177498
 30
0.0
  9
$EXTMAX
 10
40.3142171638
 20
37.1387822502
 30
0.0
  9
$LIMMIN
 10
0.0
 20
0.0
  9
$LIMMAX
 10
420.0
 20
297.0
  9
$ORTHOMODE
 70
     0
  9
$REGENMODE
 70
     1
  9
$FILLMODE
 70
     1
  9
$QTEXTMODE
 70
     0
  9
$MIRRTEXT
 70
     1
  9
$DRAGMODE
 70
     2
  9
$LTSCALE
 40
1.0
  9
$OSMODE
 70
    37
  9
$ATTMODE
 70
     1
  9
$TEXTSIZE
 40
3.5
  9
$TRACEWID
 40
1.0
  9
$TEXTSTYLE
  7
STANDARD
  9
$CLAYER
  8
0
  9
$CELTYPE
  6
BYLAYER
  9
$CECOLOR
 62
   256
  9
$CELTSCALE
 40
1.0
  9
$DELOBJ
 70
     1
  9
$DISPSILH
 70
     0
  9
$DIMSCALE
 40
1.0
  9
$DIMASZ
 40
6.0
  9
$DIMEXO
 40
1.0
  9
$DIMDLI
 40
3.75
  9
$DIMRND
 40
0.0
  9
$DIMDLE
 40
0.0
  9
$DIMEXE
 40
1.0
  9
$DIMTP
 40
0.0
  9
$DIMTM
 40
0.0
  9
$DIMTXT
 40
3.5
  9
$DIMCEN
 40
2.5
  9
$DIMTSZ
 40
0.0
  9
$DIMTOL
 70
     0
  9
$DIMLIM
 70
     0
  9
$DIMTIH
 70
     1
  9
$DIMTOH
 70
     1
  9
$DIMSE1
 70
     0
  9
$DIMSE2
 70
     0
  9
$DIMTAD
 70
     1
  9
$DIMZIN
 70
     0
  9
$DIMBLK
  1

  9
$DIMASO
 70
     1
  9
$DIMSHO
 70
     1
  9
$DIMPOST
  1

  9
$DIMAPOST
  1

  9
$DIMALT
 70
     0
  9
$DIMALTD
 70
     3
  9
$DIMALTF
 40
0.0393700787
  9
$DIMLFAC
 40
1.0
  9
$DIMTOFL
 70
     1
  9
$DIMTVP
 40
0.0
  9
$DIMTIX
 70
     0
  9
$DIMSOXD
 70
     0
  9
$DIMSAH
 70
     0
  9
$DIMBLK1
  1

  9
$DIMBLK2
  1

  9
$DIMSTYLE
  2
ISO-25
  9
$DIMCLRD
 70
     0
  9
$DIMCLRE
 70
     0
  9
$DIMCLRT
 70
     0
  9
$DIMTFAC
 40
1.0
  9
$DIMGAP
 40
1.524
  9
$DIMJUST
 70
     0
  9
$DIMSD1
 70
     0
  9
$DIMSD2
 70
     0
  9
$DIMTOLJ
 70
     0
  9
$DIMTZIN
 70
     0
  9
$DIMALTZ
 70
     0
  9
$DIMALTTZ
 70
     0
  9
$DIMFIT
 70
     3
  9
$DIMUPT
 70
     0
  9
$DIMUNIT
 70
     2
  9
$DIMDEC
 70
     3
  9
$DIMTDEC
 70
     3
  9
$DIMALTU
 70
     2
  9
$DIMALTTD
 70
     3
  9
$DIMTXSTY
  7
STANDARD
  9
$DIMAUNIT
 70
     0
  9
$LUNITS
 70
     2
  9
$LUPREC
 70
     2
  9
$SKETCHINC
 40
1.0
  9
$FILLETRAD
 40
10.0
  9
$AUNITS
 70
     0
  9
$AUPREC
 70
     2
  9
$MENU
  1
.
  9
$ELEVATION
 40
0.0
  9
$PELEVATION
 40
0.0
  9
$THICKNESS
 40
0.0
  9
$LIMCHECK
 70
     0
  9
$CHAMFERA
 40
0.0
  9
$CHAMFERB
 40
0.0
  9
$CHAMFERC
 40
0.0
  9
$CHAMFERD
 40
0.0
  9
$SKPOLY
 70
     0
  9
$TDCREATE
 40
2456941.72162022
  9
$TDUPDATE
 40
2456941.72167485
  9
$TDINDWG
 40
0.0000000116
  9
$TDUSRTIMER
 40
0.0000000116
  9
$USRTIMER
 70
     1
  9
$ANGBASE
 50
0.0
  9
$ANGDIR
 70
     0
  9
$PDMODE
 70
     0
  9
$PDSIZE
 40
-1.0
  9
$PLINEWID
 40
0.0
  9
$COORDS
 70
     1
  9
$SPLFRAME
 70
     0
  9
$SPLINETYPE
 70
     6
  9
$SPLINESEGS
 70
     8
  9
$ATTDIA
 70
     0
  9
$ATTREQ
 70
     1
  9
$HANDLING
 70
     1
  9
$HANDSEED
  5
16C
  9
$SURFTAB1
 70
     6
  9
$SURFTAB2
 70
     6
  9
$SURFTYPE
 70
     6
  9
$SURFU
 70
     6
  9
$SURFV
 70
     6
  9
$UCSNAME
  2

  9
$UCSORG
 10
0.0
 20
0.0
 30
0.0
  9
$UCSXDIR
 10
1.0
 20
0.0
 30
0.0
  9
$UCSYDIR
 10
0.0
 20
1.0
 30
0.0
  9
$PUCSNAME
  2

  9
$PUCSORG
 10
0.0
 20
0.0
 30
0.0
  9
$PUCSXDIR
 10
1.0
 20
0.0
 30
0.0
  9
$PUCSYDIR
 10
0.0
 20
1.0
 30
0.0
  9
$USERI1
 70
     0
  9
$USERI2
 70
     0
  9
$USERI3
 70
     0
  9
$USERI4
 70
     0
  9
$USERI5
 70
     0
  9
$USERR1
 40
0.0
  9
$USERR2
 40
0.0
  9
$USERR3
 40
0.0
  9
$USERR4
 40
0.0
  9
$USERR5
 40
0.0
  9
$WORLDVIEW
 70
     1
  9
$SHADEDGE
 70
     3
  9
$SHADEDIF
 70
    70
  9
$TILEMODE
 70
     1
  9
$MAXACTVP
 70
    64
  9
$PINSBASE
 10
0.0
 20
0.0
 30
0.0
  9
$PLIMCHECK
 70
     0
  9
$PEXTMIN
 10
1.0000000000E+20
 20
1.0000000000E+20
 30
1.0000000000E+20
  9
$PEXTMAX
 10
-1.0000000000E+20
 20
-1.0000000000E+20
 30
-1.0000000000E+20
  9
$PLIMMIN
 10
0.0
 20
0.0
  9
$PLIMMAX
 10
420.0
 20
297.0
  9
$UNITMODE
 70
     0
  9
$VISRETAIN
 70
     1
  9
$PLINEGEN
 70
     0
  9
$PSLTSCALE
 70
     1
  9
$TREEDEPTH
 70
  3020
  9
$PICKSTYLE
 70
     1
  9
$CMLSTYLE
  2
STANDARD
  9
$CMLJUST
 70
     0
  9
$CMLSCALE
 40
20.0
  9
$SAVEIMAGES
 70
     1
  0
ENDSEC
  0
SECTION
  2
CLASSES
  0
CLASS
  1
ACDBDICTIONARYWDFLT
  2
AcDbDictionaryWithDefault
  3
ObjectDBX Classes
 90
    32768
280
     0
281
     0
  0
CLASS
  1
VISUALSTYLE
  2
AcDbVisualStyle
  3
ObjectDBX Classes
 90
     4095
280
     0
281
     0
  0
CLASS
  1
MATERIAL
  2
AcDbMaterial
  3
ObjectDBX Classes
 90
     1153
280
     0
281
     0
  0
CLASS
  1
SCALE
  2
AcDbScale
  3
ObjectDBX Classes
 90
     1153
280
     0
281
     0
  0
CLASS
  1
SUN
  2
AcDbSun
  3
SCENEOE
 90
     1153
280
     0
281
     0
  0
CLASS
  1
XRECORD
  2
AcDbXrecord
  3
ObjectDBX Classes
 90
    32768
280
     0
281
     0
  0
ENDSEC
  0
SECTION
  2
TABLES
  0
TABLE
  2
VPORT
  5
8
330
0
100
AcDbSymbolTable
 70
     1
  0
VPORT
  5
29
330
8
100
AcDbSymbolTableRecord
100
AcDbViewportTableRecord
  2
*ACTIVE
 70
     0
 10
0.0
 20
0.0
 11
1.0
 21
1.0
 12
-11.0572828362
 22
-51.7612177498
 13
0.0
 23
0.0
 14
10.0
 24
10.0
 15
10.0
 25
10.0
 16
0.0
 26
0.0
 36
1.0
 17
0.0
 27
0.0
 37
0.0
 40
181.356
 41
0.5778571429
 42
50.0
 43
0.0
 44
0.0
 50
0.0
 51
0.0
 71
     0
 72
   100
 73
     1
 74
     3
 75
     0
 76
     0
 77
     0
 78
     0
  0
ENDTAB
  0
TABLE
  2
LTYPE
  5
5
330
0
100
AcDbSymbolTable
 70
     6
  0
LTYPE
  5
14
330
5
100
AcDbSymbolTableRecord
100
AcDbLinetypeTableRecord
  2
BYBLOCK
 70
     0
  3

 72
    65
 73
     0
 40
0.0
  0
LTYPE
  5
15
330
5
100
AcDbSymbolTableRecord
100
AcDbLinetypeTableRecord
  2
BYLAYER
 70
     0
  3

 72
    65
 73
     0
 40
0.0
  0
LTYPE
  5
16
330
5
100
AcDbSymbolTableRecord
100
AcDbLinetypeTableRecord
  2
CONTINUOUS
 70
     0
  3
Solid line
 72
    65
 73
     0
 40
0.0
  0
LTYPE
  5
6A
330
5
100
AcDbSymbolTableRecord
100
AcDbLinetypeTableRecord
  2
HIDDEN
 70
     0
  3
Hidden __ __ __ __ __ __ __ __ __ __ __ __ __ __
 72
    65
 73
     2
 40
1.905
 49
1.27
 74
     0
 49
-0.635
 74
     0
  0
LTYPE
  5
6B
330
5
100
AcDbSymbolTableRecord
100
AcDbLinetypeTableRecord
  2
PHANTOM
 70
     0
  3
Phantom ______  __  __  ______  __  __  ______
 72
    65
 73
     6
 40
12.7
 49
6.35
 74
     0
 49
-1.27
 74
     0
 49
1.27
 74
     0
 49
-1.27
 74
     0
 49
1.27
 74
     0
 49
-1.27
 74
     0
  0
LTYPE
  5
6C
330
5
100
AcDbSymbolTableRecord
100
AcDbLinetypeTableRecord
  2
CENTER
 70
     0
  3
Center ____ _ ____ _ ____ _ ____ _ ____ _ ____
 72
    65
 73
     4
 40
10.16
 49
6.35
 74
     0
 49
-1.27
 74
     0
 49
1.27
 74
     0
 49
-1.27
 74
     0
  0
LTYPE
  5
6D
330
5
100
AcDbSymbolTableRecord
100
AcDbLinetypeTableRecord
  2
CENTERX2
 70
     0
  3
Center (2x) ________  __  ________  __  _____
 72
    65
 73
     4
 40
20.32
 49
12.7
 74
     0
 49
-2.54
 74
     0
 49
2.54
 74
     0
 49
-2.54
 74
     0
  0
LTYPE
  5
6E
330
5
100
AcDbSymbolTableRecord
100
AcDbLinetypeTableRecord
  2
DOT2
 70
     0
  3
Dot (.5x) ........................................
 72
    65
 73
     2
 40
0.635
 49
0.0
 74
     0
 49
-0.635
 74
     0
  0
ENDTAB
  0
TABLE
  2
LAYER
  5
2
330
0
100
AcDbSymbolTable
 70
     1
  0
LAYER
  5
10
330
2
100
AcDbSymbolTableRecord
100
AcDbLayerTableRecord
  2
0
 70
     0
 62
     7
  6
CONTINUOUS
  0
ENDTAB
  0
TABLE
  2
STYLE
  5
3
330
0
100
AcDbSymbolTable
 70
     1
  0
STYLE
  5
11
330
3
100
AcDbSymbolTableRecord
100
AcDbTextStyleTableRecord
  2
STANDARD
 70
     0
 40
0.0
 41
1.0
 50
0.0
 71
     0
 42
3.5
  3
txt
  4

  0
ENDTAB
  0
TABLE
  2
VIEW
  5
6
330
0
100
AcDbSymbolTable
 70
     0
  0
ENDTAB
  0
TABLE
  2
UCS
  5
7
330
0
100
AcDbSymbolTable
 70
     0
  0
ENDTAB
  0
TABLE
  2
APPID
  5
9
330
0
100
AcDbSymbolTable
 70
     1
  0
APPID
  5
12
330
9
100
AcDbSymbolTableRecord
100
AcDbRegAppTableRecord
  2
ACAD
 70
     0
  0
ENDTAB
  0
TABLE
  2
DIMSTYLE
  5
A
330
0
100
AcDbSymbolTable
 70
     1
  0
DIMSTYLE
105
27
330
A
100
AcDbSymbolTableRecord
100
AcDbDimStyleTableRecord
  2
ISO-25
 70
     0
  3

  4

  5

  6

  7

 40
1.0
 41
2.5
 42
0.625
 43
3.75
 44
1.25
 45
0.0
 46
0.0
 47
0.0
 48
0.0
140
2.5
141
2.5
142
0.0
143
0.0393700787
144
1.0
145
0.0
146
1.0
147
0.625
 71
     0
 72
     0
 73
     0
 74
     0
 75
     0
 76
     0
 77
     1
 78
     8
170
     0
171
     3
172
     1
173
     0
174
     0
175
     0
176
     0
177
     0
178
     0
270
     2
271
     2
272
     2
273
     2
274
     3
340
11
275
     0
280
     0
281
     0
282
     0
283
     0
284
     8
285
     0
286
     0
287
     3
288
     0
  0
ENDTAB
  0
TABLE
  2
BLOCK_RECORD
  5
1
330
0
100
AcDbSymbolTable
 70
     1
  0
BLOCK_RECORD
  5
1F
330
1
100
AcDbSymbolTableRecord
100
AcDbBlockTableRecord
  2
*MODEL_SPACE
  0
BLOCK_RECORD
  5
1B
330
1
100
AcDbSymbolTableRecord
100
AcDbBlockTableRecord
  2
*PAPER_SPACE
  0
BLOCK_RECORD
  5
23
330
1
100
AcDbSymbolTableRecord
100
AcDbBlockTableRecord
  2
*PAPER_SPACE0
  0
ENDTAB
  0
ENDSEC
  0
SECTION
  2
BLOCKS
  0
BLOCK
  5
20
330
1F
100
AcDbEntity
  8
0
100
AcDbBlockBegin
  2
*MODEL_SPACE
 70
     0
 10
0.0
 20
0.0
 30
0.0
  3
*MODEL_SPACE
  1

  0
ENDBLK
  5
21
330
1F
100
AcDbEntity
  8
0
100
AcDbBlockEnd
  0
BLOCK
  5
1C
330
1B
100
AcDbEntity
 67
     1
  8
0
100
AcDbBlockBegin
  2
*PAPER_SPACE
 70
     0
 10
0.0
 20
0.0
 30
0.0
  3
*PAPER_SPACE
  1

  0
ENDBLK
  5
1D
330
1B
100
AcDbEntity
 67
     1
  8
0
100
AcDbBlockEnd
  0
BLOCK
  5
24
330
23
100
AcDbEntity
  8
0
100
AcDbBlockBegin
  2
*PAPER_SPACE0
 70
     0
 10
0.0
 20
0.0
 30
0.0
  3
*PAPER_SPACE0
  1
*PAPER_SPACE0
  0
ENDBLK
  5
25
330
23
100
AcDbEntity
  8
0
100
AcDbBlockEnd
  0
ENDSEC
  0
SECTION
  2
ENTITIES
  0
CIRCLE
  5
6F
330
1F
100
AcDbEntity
  8
0
  6
CONTINUOUS
 62
     7
100
AcDbCircle
 10
-39.2639828362
 20
33.3287822502
 30
0.0
 40
1.828800000000001
  0
CIRCLE
  5
70
330
1F
100
AcDbEntity
  8
0
  6
CONTINUOUS
 62
     7
100
AcDbCircle
 10
-39.2639828362
 20
-51.7612177498
 30
0.0
 40
1.828800000000001
  0
CIRCLE
  5
71
330
1F
100
AcDbEntity
  8
0
  6
CONTINUOUS
 62
     7
100
AcDbCircle
 10
-39.2639828362
 20
-136.8512177498
 30
0.0
 40
1.828799999999987
  0
CIRCLE
  5
72
330
1F
100
AcDbEntity
  8
0
  6
CONTINUOUS
 62
     7
100
AcDbCircle
 10
-1.1639828362
 20
33.3287822502
 30
0.0
 40
1.828800000000001
  0
CIRCLE
  5
73
330
1F
100
AcDbEntity
  8
0
  6
CONTINUOUS
 62
     7
100
AcDbCircle
 10
-1.1639828362
 20
-136.8512177498
 30
0.0
 40
1.828799999999989
  0
CIRCLE
  5
74
330
1F
100
AcDbEntity
  8
0
  6
CONTINUOUS
 62
     7
100
AcDbCircle
 10
24.0886971638
 20
-117.5466130015
 30
0.0
 40
2.667000000000012
  0
CIRCLE
  5
75
330
1F
100
AcDbEntity
  8
0
  6
CONTINUOUS
 62
     7
100
AcDbCircle
 10
24.0886971638
 20
-99.1091086015
 30
0.0
 40
2.667000000000005
  0
CIRCLE
  5
76
330
1F
100
AcDbEntity
  8
0
  6
CONTINUOUS
 62
     7
100
AcDbCircle
 10
24.0886971638
 20
-80.6716042015
 30
0.0
 40
2.667000000000005
  0
CIRCLE
  5
77
330
1F
100
AcDbEntity
  8
0
  6
CONTINUOUS
 62
     7
100
AcDbCircle
 10
-19.6602628362
 20
-117.5466130015
 30
0.0
 40
2.667000000000012
  0
CIRCLE
  5
B9
330
1F
100
AcDbEntity
  8
0
  6
CONTINUOUS
 62
     7
100
AcDbCircle
 10
-19.6602628362
 20
-0.5852977498
 30
0.0
 40
2.666999999999994
  0
CIRCLE
  5
BA
330
1F
100
AcDbEntity
  8
0
  6
CONTINUOUS
 62
     7
100
AcDbCircle
 10
24.0886971638
 20
-0.5852977498
 30
0.0
 40
2.667000000000002
  0
CIRCLE
  5
BB
330
1F
100
AcDbEntity
  8
0
  6
CONTINUOUS
 62
     7
100
AcDbCircle
 10
-19.6602628362
 20
-19.0228021498
 30
0.0
 40
2.667000000000005
  0
CIRCLE
  5
BC
330
1F
100
AcDbEntity
  8
0
  6
CONTINUOUS
 62
     7
100
AcDbCircle
 10
24.0886971638
 20
-19.0228021498
 30
0.0
 40
2.667000000000002
  0
CIRCLE
  5
BD
330
1F
100
AcDbEntity
  8
0
  6
CONTINUOUS
 62
     7
100
AcDbCircle
 10
-19.6602628362
 20
-37.4603065498
 30
0.0
 40
2.666999999999998
  0
CIRCLE
  5
BE
330
1F
100
AcDbEntity
  8
0
  6
CONTINUOUS
 62
     7
100
AcDbCircle
 10
24.0886971638
 20
-37.4603065498
 30
0.0
 40
2.667000000000009
  0
CIRCLE
  5
BF
330
1F
100
AcDbEntity
  8
0
  6
CONTINUOUS
 62
     7
100
AcDbCircle
 10
-19.6602628362
 20
-55.8978109498
 30
0.0
 40
2.666999999999998
  0
CIRCLE
  5
C0
330
1F
100
AcDbEntity
  8
0
  6
CONTINUOUS
 62
     7
100
AcDbCircle
 10
24.0886971638
 20
-55.8978109498
 30
0.0
 40
2.667000000000002
  0
CIRCLE
  5
F1
330
1F
100
AcDbEntity
  8
0
  6
CONTINUOUS
 62
     7
100
AcDbCircle
 10
-19.6602628362
 20
-80.6716042015
 30
0.0
 40
2.667000000000012
  0
CIRCLE
  5
F2
330
1F
100
AcDbEntity
  8
0
  6
CONTINUOUS
 62
     7
100
AcDbCircle
 10
-19.6602628362
 20
-99.1091086015
 30
0.0
 40
2.667000000000005
  0
CIRCLE
  5
F3
330
1F
100
AcDbEntity
  8
0
  6
CONTINUOUS
 62
     7
100
AcDbCircle
 10
36.9360171638
 20
-136.8512177498
 30
0.0
 40
1.828799999999987
  0
CIRCLE
  5
F4
330
1F
100
AcDbEntity
  8
0
  6
CONTINUOUS
 62
     7
100
AcDbCircle
 10
36.9360171638
 20
33.3287822502
 30
0.0
 40
1.828799999999994
  0
LINE
  5
F8
330
1F
100
AcDbEntity
  8
0
  6
CONTINUOUS
 62
     7
100
AcDbLine
 10
-62.4287828362
 20
-140.6612177498
 30
0.0
 11
-62.4287828362
 21
37.1387822502
 31
0.0
  0
LINE
  5
F9
330
1F
100
AcDbEntity
  8
0
  6
CONTINUOUS
 62
     7
100
AcDbLine
 10
-14.9206228362
 20
5.1647009102
 30
0.0
 11
-14.9206228362
 21
-6.3352964098
 31
0.0
  0
LINE
  5
FA
330
1F
100
AcDbEntity
  8
0
  6
CONTINUOUS
 62
     7
100
AcDbLine
 10
-14.1706217962
 20
-7.0852974498
 30
0.0
 11
-2.6706244762
 21
-7.0852974498
 31
0.0
  0
LINE
  5
FB
330
1F
100
AcDbEntity
  8
0
  6
CONTINUOUS
 62
     7
100
AcDbLine
 10
-1.9206234362
 20
-6.3352964098
 30
0.0
 11
-1.9206234362
 21
5.1647009102
 31
0.0
  0
LINE
  5
FC
330
1F
100
AcDbEntity
  8
0
  6
CONTINUOUS
 62
     7
100
AcDbLine
 10
-2.6706244762
 20
5.9147019502
 30
0.0
 11
-14.1706217962
 21
5.9147019502
 31
0.0
  0
LINE
  5
FD
330
1F
100
AcDbEntity
  8
0
  6
CONTINUOUS
 62
     7
100
AcDbLine
 10
-14.9206228362
 20
-13.2728034898
 30
0.0
 11
-14.9206228362
 21
-24.7728008098
 31
0.0
  0
LINE
  5
FE
330
1F
100
AcDbEntity
  8
0
  6
CONTINUOUS
 62
     7
100
AcDbLine
 10
-14.1706217962
 20
-25.5228018498
 30
0.0
 11
-2.6706244762
 21
-25.5228018498
 31
0.0
  0
LINE
  5
FF
330
1F
100
AcDbEntity
  8
0
  6
CONTINUOUS
 62
     7
100
AcDbLine
 10
-1.9206234362
 20
-24.7728008098
 30
0.0
 11
-1.9206234362
 21
-13.2728034898
 31
0.0
  0
LINE
  5
100
330
1F
100
AcDbEntity
  8
0
  6
CONTINUOUS
 62
     7
100
AcDbLine
 10
-2.6706244762
 20
-12.5228024498
 30
0.0
 11
-14.1706217962
 21
-12.5228024498
 31
0.0
  0
LINE
  5
101
330
1F
100
AcDbEntity
  8
0
  6
CONTINUOUS
 62
     7
100
AcDbLine
 10
-14.9206228362
 20
-31.7103078898
 30
0.0
 11
-14.9206228362
 21
-43.2103052098
 31
0.0
  0
LINE
  5
102
330
1F
100
AcDbEntity
  8
0
  6
CONTINUOUS
 62
     7
100
AcDbLine
 10
-14.1706217962
 20
-43.9603062498
 30
0.0
 11
-2.6706244762
 21
-43.9603062498
 31
0.0
  0
LINE
  5
103
330
1F
100
AcDbEntity
  8
0
  6
CONTINUOUS
 62
     7
100
AcDbLine
 10
-1.9206234362
 20
-43.2103052098
 30
0.0
 11
-1.9206234362
 21
-31.7103078898
 31
0.0
  0
LINE
  5
104
330
1F
100
AcDbEntity
  8
0
  6
CONTINUOUS
 62
     7
100
AcDbLine
 10
-2.6706244762
 20
-30.9603068498
 30
0.0
 11
-14.1706217962
 21
-30.9603068498
 31
0.0
  0
LINE
  5
105
330
1F
100
AcDbEntity
  8
0
  6
CONTINUOUS
 62
     7
100
AcDbLine
 10
-14.9206228362
 20
-50.1478122898
 30
0.0
 11
-14.9206228362
 21
-61.6478096098
 31
0.0
  0
LINE
  5
106
330
1F
100
AcDbEntity
  8
0
  6
CONTINUOUS
 62
     7
100
AcDbLine
 10
-14.1706217962
 20
-62.3978106498
 30
0.0
 11
-2.6706244762
 21
-62.3978106498
 31
0.0
  0
LINE
  5
107
330
1F
100
AcDbEntity
  8
0
  6
CONTINUOUS
 62
     7
100
AcDbLine
 10
-1.9206234362
 20
-61.6478096098
 30
0.0
 11
-1.9206234362
 21
-50.1478122898
 31
0.0
  0
LINE
  5
108
330
1F
100
AcDbEntity
  8
0
  6
CONTINUOUS
 62
     7
100
AcDbLine
 10
-2.6706244762
 20
-49.3978112498
 30
0.0
 11
-14.1706217962
 21
-49.3978112498
 31
0.0
  0
LINE
  5
109
330
1F
100
AcDbEntity
  8
0
  6
CONTINUOUS
 62
     7
100
AcDbLine
 10
6.3493371638
 20
5.1647009102
 30
0.0
 11
6.3493371638
 21
-6.3352964098
 31
0.0
  0
LINE
  5
10A
330
1F
100
AcDbEntity
  8
0
  6
CONTINUOUS
 62
     7
100
AcDbLine
 10
7.0993382038
 20
-7.0852974498
 30
0.0
 11
18.5993355238
 21
-7.0852974498
 31
0.0
  0
LINE
  5
10B
330
1F
100
AcDbEntity
  8
0
  6
CONTINUOUS
 62
     7
100
AcDbLine
 10
19.3493365638
 20
-6.3352964098
 30
0.0
 11
19.3493365638
 21
5.1647009102
 31
0.0
  0
LINE
  5
10C
330
1F
100
AcDbEntity
  8
0
  6
CONTINUOUS
 62
     7
100
AcDbLine
 10
18.5993355238
 20
5.9147019502
 30
0.0
 11
7.0993382038
 21
5.9147019502
 31
0.0
  0
LINE
  5
10D
330
1F
100
AcDbEntity
  8
0
  6
CONTINUOUS
 62
     7
100
AcDbLine
 10
6.3493371638
 20
-13.2728034898
 30
0.0
 11
6.3493371638
 21
-24.7728008098
 31
0.0
  0
LINE
  5
10E
330
1F
100
AcDbEntity
  8
0
  6
CONTINUOUS
 62
     7
100
AcDbLine
 10
7.0993382038
 20
-25.5228018498
 30
0.0
 11
18.5993355238
 21
-25.5228018498
 31
0.0
  0
LINE
  5
10F
330
1F
100
AcDbEntity
  8
0
  6
CONTINUOUS
 62
     7
100
AcDbLine
 10
19.3493365638
 20
-24.7728008098
 30
0.0
 11
19.3493365638
 21
-13.2728034898
 31
0.0
  0
LINE
  5
110
330
1F
100
AcDbEntity
  8
0
  6
CONTINUOUS
 62
     7
100
AcDbLine
 10
18.5993355238
 20
-12.5228024498
 30
0.0
 11
7.0993382038
 21
-12.5228024498
 31
0.0
  0
LINE
  5
111
330
1F
100
AcDbEntity
  8
0
  6
CONTINUOUS
 62
     7
100
AcDbLine
 10
6.3493371638
 20
-31.7103078898
 30
0.0
 11
6.3493371638
 21
-43.2103052098
 31
0.0
  0
LINE
  5
112
330
1F
100
AcDbEntity
  8
0
  6
CONTINUOUS
 62
     7
100
AcDbLine
 10
7.0993382038
 20
-43.9603062498
 30
0.0
 11
18.5993355238
 21
-43.9603062498
 31
0.0
  0
LINE
  5
113
330
1F
100
AcDbEntity
  8
0
  6
CONTINUOUS
 62
     7
100
AcDbLine
 10
19.3493365638
 20
-43.2103052098
 30
0.0
 11
19.3493365638
 21
-31.7103078898
 31
0.0
  0
LINE
  5
114
330
1F
100
AcDbEntity
  8
0
  6
CONTINUOUS
 62
     7
100
AcDbLine
 10
18.5993355238
 20
-30.9603068498
 30
0.0
 11
7.0993382038
 21
-30.9603068498
 31
0.0
  0
LINE
  5
115
330
1F
100
AcDbEntity
  8
0
  6
CONTINUOUS
 62
     7
100
AcDbLine
 10
6.3493371638
 20
-50.1478122898
 30
0.0
 11
6.3493371638
 21
-61.6478096098
 31
0.0
  0
LINE
  5
116
330
1F
100
AcDbEntity
  8
0
  6
CONTINUOUS
 62
     7
100
AcDbLine
 10
7.0993382038
 20
-62.3978106498
 30
0.0
 11
18.5993355238
 21
-62.3978106498
 31
0.0
  0
LINE
  5
117
330
1F
100
AcDbEntity
  8
0
  6
CONTINUOUS
 62
     7
100
AcDbLine
 10
19.3493365638
 20
-61.6478096098
 30
0.0
 11
19.3493365638
 21
-50.1478122898
 31
0.0
  0
LINE
  5
118
330
1F
100
AcDbEntity
  8
0
  6
CONTINUOUS
 62
     7
100
AcDbLine
 10
18.5993355238
 20
-49.3978112498
 30
0.0
 11
7.0993382038
 21
-49.3978112498
 31
0.0
  0
LINE
  5
119
330
1F
100
AcDbEntity
  8
0
  6
CONTINUOUS
 62
     7
100
AcDbLine
 10
-14.9206228362
 20
-72.6380400898
 30
0.0
 11
-14.9206228362
 21
-84.1380374098
 31
0.0
  0
LINE
  5
11A
330
1F
100
AcDbEntity
  8
0
  6
CONTINUOUS
 62
     7
100
AcDbLine
 10
-14.1706217962
 20
-84.8880384498
 30
0.0
 11
-2.6706244762
 21
-84.8880384498
 31
0.0
  0
LINE
  5
11B
330
1F
100
AcDbEntity
  8
0
  6
CONTINUOUS
 62
     7
100
AcDbLine
 10
-1.9206234362
 20
-84.1380374098
 30
0.0
 11
-1.9206234362
 21
-72.6380400898
 31
0.0
  0
LINE
  5
11C
330
1F
100
AcDbEntity
  8
0
  6
CONTINUOUS
 62
     7
100
AcDbLine
 10
-2.6706244762
 20
-71.8880390498
 30
0.0
 11
-14.1706217962
 21
-71.8880390498
 31
0.0
  0
LINE
  5
11D
330
1F
100
AcDbEntity
  8
0
  6
CONTINUOUS
 62
     7
100
AcDbLine
 10
-14.9206228362
 20
-91.0755444898
 30
0.0
 11
-14.9206228362
 21
-102.5755418098
 31
0.0
  0
LINE
  5
11E
330
1F
100
AcDbEntity
  8
0
  6
CONTINUOUS
 62
     7
100
AcDbLine
 10
-14.1706217962
 20
-103.3255428498
 30
0.0
 11
-2.6706244762
 21
-103.3255428498
 31
0.0
  0
LINE
  5
11F
330
1F
100
AcDbEntity
  8
0
  6
CONTINUOUS
 62
     7
100
AcDbLine
 10
-1.9206234362
 20
-102.5755418098
 30
0.0
 11
-1.9206234362
 21
-91.0755444898
 31
0.0
  0
LINE
  5
120
330
1F
100
AcDbEntity
  8
0
  6
CONTINUOUS
 62
     7
100
AcDbLine
 10
-2.6706244762
 20
-90.3255434498
 30
0.0
 11
-14.1706217962
 21
-90.3255434498
 31
0.0
  0
LINE
  5
121
330
1F
100
AcDbEntity
  8
0
  6
CONTINUOUS
 62
     7
100
AcDbLine
 10
-14.9206228362
 20
-109.5130488898
 30
0.0
 11
-14.9206228362
 21
-121.0130462098
 31
0.0
  0
LINE
  5
122
330
1F
100
AcDbEntity
  8
0
  6
CONTINUOUS
 62
     7
100
AcDbLine
 10
-14.1706217962
 20
-121.7630472498
 30
0.0
 11
-2.6706244762
 21
-121.7630472498
 31
0.0
  0
LINE
  5
123
330
1F
100
AcDbEntity
  8
0
  6
CONTINUOUS
 62
     7
100
AcDbLine
 10
-1.9206234362
 20
-121.0130462098
 30
0.0
 11
-1.9206234362
 21
-109.5130488898
 31
0.0
  0
LINE
  5
124
330
1F
100
AcDbEntity
  8
0
  6
CONTINUOUS
 62
     7
100
AcDbLine
 10
-2.6706244762
 20
-108.7630478498
 30
0.0
 11
-14.1706217962
 21
-108.7630478498
 31
0.0
  0
LINE
  5
125
330
1F
100
AcDbEntity
  8
0
  6
CONTINUOUS
 62
     7
100
AcDbLine
 10
6.3493371638
 20
-72.6380400898
 30
0.0
 11
6.3493371638
 21
-84.1380374098
 31
0.0
  0
LINE
  5
126
330
1F
100
AcDbEntity
  8
0
  6
CONTINUOUS
 62
     7
100
AcDbLine
 10
7.0993382038
 20
-84.8880384498
 30
0.0
 11
18.5993355238
 21
-84.8880384498
 31
0.0
  0
LINE
  5
127
330
1F
100
AcDbEntity
  8
0
  6
CONTINUOUS
 62
     7
100
AcDbLine
 10
19.3493365638
 20
-84.1380374098
 30
0.0
 11
19.3493365638
 21
-72.6380400898
 31
0.0
  0
LINE
  5
128
330
1F
100
AcDbEntity
  8
0
  6
CONTINUOUS
 62
     7
100
AcDbLine
 10
18.5993355238
 20
-71.8880390498
 30
0.0
 11
7.0993382038
 21
-71.8880390498
 31
0.0
  0
LINE
  5
129
330
1F
100
AcDbEntity
  8
0
  6
CONTINUOUS
 62
     7
100
AcDbLine
 10
6.3493371638
 20
-91.0755444898
 30
0.0
 11
6.3493371638
 21
-102.5755418098
 31
0.0
  0
LINE
  5
12A
330
1F
100
AcDbEntity
  8
0
  6
CONTINUOUS
 62
     7
100
AcDbLine
 10
7.0993382038
 20
-103.3255428498
 30
0.0
 11
18.5993355238
 21
-103.3255428498
 31
0.0
  0
LINE
  5
12B
330
1F
100
AcDbEntity
  8
0
  6
CONTINUOUS
 62
     7
100
AcDbLine
 10
19.3493365638
 20
-102.5755418098
 30
0.0
 11
19.3493365638
 21
-91.0755444898
 31
0.0
  0
LINE
  5
12C
330
1F
100
AcDbEntity
  8
0
  6
CONTINUOUS
 62
     7
100
AcDbLine
 10
18.5993355238
 20
-90.3255434498
 30
0.0
 11
7.0993382038
 21
-90.3255434498
 31
0.0
  0
LINE
  5
12D
330
1F
100
AcDbEntity
  8
0
  6
CONTINUOUS
 62
     7
100
AcDbLine
 10
6.3493371638
 20
-109.5130488898
 30
0.0
 11
6.3493371638
 21
-121.0130462098
 31
0.0
  0
LINE
  5
12E
330
1F
100
AcDbEntity
  8
0
  6
CONTINUOUS
 62
     7
100
AcDbLine
 10
7.0993382038
 20
-121.7630472498
 30
0.0
 11
18.5993355238
 21
-121.7630472498
 31
0.0
  0
LINE
  5
12F
330
1F
100
AcDbEntity
  8
0
  6
CONTINUOUS
 62
     7
100
AcDbLine
 10
19.3493365638
 20
-121.0130462098
 30
0.0
 11
19.3493365638
 21
-109.5130488898
 31
0.0
  0
LINE
  5
130
330
1F
100
AcDbEntity
  8
0
  6
CONTINUOUS
 62
     7
100
AcDbLine
 10
18.5993355238
 20
-108.7630478498
 30
0.0
 11
7.0993382038
 21
-108.7630478498
 31
0.0
  0
LINE
  5
131
330
1F
100
AcDbEntity
  8
0
  6
CONTINUOUS
 62
     7
100
AcDbLine
 10
-62.4287828362
 20
37.1387822502
 30
0.0
 11
40.3142171638
 21
37.1387822502
 31
0.0
  0
LINE
  5
132
330
1F
100
AcDbEntity
  8
0
  6
CONTINUOUS
 62
     7
100
AcDbLine
 10
40.3142171638
 20
-140.6612177498
 30
0.0
 11
-62.4287828362
 21
-140.6612177498
 31
0.0
  0
LINE
  5
133
330
1F
100
AcDbEntity
  8
0
  6
CONTINUOUS
 62
     7
100
AcDbLine
 10
40.3142171638
 20
37.1387822502
 30
0.0
 11
40.3142171638
 21
-140.6612177498
 31
0.0
  0
ARC
  5
134
330
1F
100
AcDbEntity
  8
0
  6
CONTINUOUS
 62
     7
100
AcDbCircle
 10
-14.1706217962
 20
5.1647009102
 30
0.0
 40
0.7500010400000114
100
AcDbArc
 50
90.0
 51
180.0
  0
ARC
  5
135
330
1F
100
AcDbEntity
  8
0
  6
CONTINUOUS
 62
     7
100
AcDbCircle
 10
-14.1706217962
 20
-6.3352964098
 30
0.0
 40
0.7500010400000114
100
AcDbArc
 50
180.0
 51
270.0
  0
ARC
  5
136
330
1F
100
AcDbEntity
  8
0
  6
CONTINUOUS
 62
     7
100
AcDbCircle
 10
-2.6706244762
 20
-6.3352964098
 30
0.0
 40
0.750001040000007
100
AcDbArc
 50
270.0
 51
0.0
  0
ARC
  5
137
330
1F
100
AcDbEntity
  8
0
  6
CONTINUOUS
 62
     7
100
AcDbCircle
 10
-2.6706244762
 20
5.1647009102
 30
0.0
 40
0.7500010400000203
100
AcDbArc
 50
0.0
 51
90.0
  0
ARC
  5
138
330
1F
100
AcDbEntity
  8
0
  6
CONTINUOUS
 62
     7
100
AcDbCircle
 10
-14.1706217962
 20
-13.2728034898
 30
0.0
 40
0.7500010400000114
100
AcDbArc
 50
90.0
 51
180.0
  0
ARC
  5
139
330
1F
100
AcDbEntity
  8
0
  6
CONTINUOUS
 62
     7
100
AcDbCircle
 10
-14.1706217962
 20
-24.7728008098
 30
0.0
 40
0.7500010400000061
100
AcDbArc
 50
180.0
 51
270.0
  0
ARC
  5
13A
330
1F
100
AcDbEntity
  8
0
  6
CONTINUOUS
 62
     7
100
AcDbCircle
 10
-2.6706244762
 20
-24.7728008098
 30
0.0
 40
0.7500010400000008
100
AcDbArc
 50
270.0
 51
0.0
  0
ARC
  5
13B
330
1F
100
AcDbEntity
  8
0
  6
CONTINUOUS
 62
     7
100
AcDbCircle
 10
-2.6706244762
 20
-13.2728034898
 30
0.0
 40
0.7500010400000243
100
AcDbArc
 50
0.0
 51
90.0
  0
ARC
  5
13C
330
1F
100
AcDbEntity
  8
0
  6
CONTINUOUS
 62
     7
100
AcDbCircle
 10
-14.1706217962
 20
-31.7103078898
 30
0.0
 40
0.7500010400000043
100
AcDbArc
 50
90.0
 51
180.0
  0
ARC
  5
13D
330
1F
100
AcDbEntity
  8
0
  6
CONTINUOUS
 62
     7
100
AcDbCircle
 10
-14.1706217962
 20
-43.2103052098
 30
0.0
 40
0.7500010400000292
100
AcDbArc
 50
180.0
 51
270.0
  0
ARC
  5
13E
330
1F
100
AcDbEntity
  8
0
  6
CONTINUOUS
 62
     7
100
AcDbCircle
 10
-2.6706244762
 20
-43.2103052098
 30
0.0
 40
0.750001040000015
100
AcDbArc
 50
270.0
 51
0.0
  0
ARC
  5
13F
330
1F
100
AcDbEntity
  8
0
  6
CONTINUOUS
 62
     7
100
AcDbCircle
 10
-2.6706244762
 20
-31.7103078898
 30
0.0
 40
0.7500010400000257
100
AcDbArc
 50
0.0
 51
90.0
  0
ARC
  5
140
330
1F
100
AcDbEntity
  8
0
  6
CONTINUOUS
 62
     7
100
AcDbCircle
 10
-14.1706217962
 20
-50.1478122898
 30
0.0
 40
0.7500010400000079
100
AcDbArc
 50
90.0
 51
180.0
  0
ARC
  5
141
330
1F
100
AcDbEntity
  8
0
  6
CONTINUOUS
 62
     7
100
AcDbCircle
 10
-14.1706217962
 20
-61.6478096098
 30
0.0
 40
0.7500010400000097
100
AcDbArc
 50
180.0
 51
270.0
  0
ARC
  5
142
330
1F
100
AcDbEntity
  8
0
  6
CONTINUOUS
 62
     7
100
AcDbCircle
 10
-2.6706244762
 20
-61.6478096098
 30
0.0
 40
0.7500010400000008
100
AcDbArc
 50
270.0
 51
0.0
  0
ARC
  5
143
330
1F
100
AcDbEntity
  8
0
  6
CONTINUOUS
 62
     7
100
AcDbCircle
 10
-2.6706244762
 20
-50.1478122898
 30
0.0
 40
0.7500010400000221
100
AcDbArc
 50
0.0
 51
90.0
  0
ARC
  5
144
330
1F
100
AcDbEntity
  8
0
  6
CONTINUOUS
 62
     7
100
AcDbCircle
 10
7.0993382038
 20
5.1647009102
 30
0.0
 40
0.7500010400000052
100
AcDbArc
 50
90.0
 51
180.0
  0
ARC
  5
145
330
1F
100
AcDbEntity
  8
0
  6
CONTINUOUS
 62
     7
100
AcDbCircle
 10
7.0993382038
 20
-6.3352964098
 30
0.0
 40
0.7500010400000061
100
AcDbArc
 50
180.0
 51
270.0
  0
ARC
  5
146
330
1F
100
AcDbEntity
  8
0
  6
CONTINUOUS
 62
     7
100
AcDbCircle
 10
18.5993355238
 20
-6.3352964098
 30
0.0
 40
0.7500010400000008
100
AcDbArc
 50
270.0
 51
0.0
  0
ARC
  5
147
330
1F
100
AcDbEntity
  8
0
  6
CONTINUOUS
 62
     7
100
AcDbCircle
 10
18.5993355238
 20
5.1647009102
 30
0.0
 40
0.7500010400000132
100
AcDbArc
 50
0.0
 51
90.0
  0
ARC
  5
148
330
1F
100
AcDbEntity
  8
0
  6
CONTINUOUS
 62
     7
100
AcDbCircle
 10
7.0993382038
 20
-13.2728034898
 30
0.0
 40
0.7500010400000168
100
AcDbArc
 50
90.0
 51
180.0
  0
ARC
  5
149
330
1F
100
AcDbEntity
  8
0
  6
CONTINUOUS
 62
     7
100
AcDbCircle
 10
7.0993382038
 20
-24.7728008098
 30
0.0
 40
0.7500010400000114
100
AcDbArc
 50
180.0
 51
270.0
  0
ARC
  5
14A
330
1F
100
AcDbEntity
  8
0
  6
CONTINUOUS
 62
     7
100
AcDbCircle
 10
18.5993355238
 20
-24.7728008098
 30
0.0
 40
0.7500010400000008
100
AcDbArc
 50
270.0
 51
0.0
  0
ARC
  5
14B
330
1F
100
AcDbEntity
  8
0
  6
CONTINUOUS
 62
     7
100
AcDbCircle
 10
18.5993355238
 20
-13.2728034898
 30
0.0
 40
0.750001040000015
100
AcDbArc
 50
0.0
 51
90.0
  0
ARC
  5
14C
330
1F
100
AcDbEntity
  8
0
  6
CONTINUOUS
 62
     7
100
AcDbCircle
 10
7.0993382038
 20
-31.7103078898
 30
0.0
 40
0.750001039999999
100
AcDbArc
 50
90.0
 51
180.0
  0
ARC
  5
14D
330
1F
100
AcDbEntity
  8
0
  6
CONTINUOUS
 62
     7
100
AcDbCircle
 10
7.0993382038
 20
-43.2103052098
 30
0.0
 40
0.7500010400000221
100
AcDbArc
 50
180.0
 51
270.0
  0
ARC
  5
14E
330
1F
100
AcDbEntity
  8
0
  6
CONTINUOUS
 62
     7
100
AcDbCircle
 10
18.5993355238
 20
-43.2103052098
 30
0.0
 40
0.750001040000015
100
AcDbArc
 50
270.0
 51
0.0
  0
ARC
  5
14F
330
1F
100
AcDbEntity
  8
0
  6
CONTINUOUS
 62
     7
100
AcDbCircle
 10
18.5993355238
 20
-31.7103078898
 30
0.0
 40
0.7500010400000043
100
AcDbArc
 50
0.0
 51
90.0
  0
ARC
  5
150
330
1F
100
AcDbEntity
  8
0
  6
CONTINUOUS
 62
     7
100
AcDbCircle
 10
7.0993382038
 20
-50.1478122898
 30
0.0
 40
0.7500010400000008
100
AcDbArc
 50
90.0
 51
180.0
  0
ARC
  5
151
330
1F
100
AcDbEntity
  8
0
  6
CONTINUOUS
 62
     7
100
AcDbCircle
 10
7.0993382038
 20
-61.6478096098
 30
0.0
 40
0.7500010400000017
100
AcDbArc
 50
180.0
 51
270.0
  0
ARC
  5
152
330
1F
100
AcDbEntity
  8
0
  6
CONTINUOUS
 62
     7
100
AcDbCircle
 10
18.5993355238
 20
-61.6478096098
 30
0.0
 40
0.7500010399999937
100
AcDbArc
 50
270.0
 51
0.0
  0
ARC
  5
153
330
1F
100
AcDbEntity
  8
0
  6
CONTINUOUS
 62
     7
100
AcDbCircle
 10
18.5993355238
 20
-50.1478122898
 30
0.0
 40
0.7500010400000079
100
AcDbArc
 50
0.0
 51
90.0
  0
ARC
  5
154
330
1F
100
AcDbEntity
  8
0
  6
CONTINUOUS
 62
     7
100
AcDbCircle
 10
-14.1706217962
 20
-72.6380400898
 30
0.0
 40
0.7500010400000008
100
AcDbArc
 50
90.0
 51
180.0
  0
ARC
  5
155
330
1F
100
AcDbEntity
  8
0
  6
CONTINUOUS
 62
     7
100
AcDbCircle
 10
-14.1706217962
 20
-84.1380374098
 30
0.0
 40
0.7500010400000008
100
AcDbArc
 50
180.0
 51
270.0
  0
ARC
  5
156
330
1F
100
AcDbEntity
  8
0
  6
CONTINUOUS
 62
     7
100
AcDbCircle
 10
-2.6706244762
 20
-84.1380374098
 30
0.0
 40
0.7500010400000008
100
AcDbArc
 50
270.0
 51
0.0
  0
ARC
  5
157
330
1F
100
AcDbEntity
  8
0
  6
CONTINUOUS
 62
     7
100
AcDbCircle
 10
-2.6706244762
 20
-72.6380400898
 30
0.0
 40
0.7500010400000008
100
AcDbArc
 50
0.0
 51
90.0
  0
ARC
  5
158
330
1F
100
AcDbEntity
  8
0
  6
CONTINUOUS
 62
     7
100
AcDbCircle
 10
-14.1706217962
 20
-91.0755444898
 30
0.0
 40
0.7500010399999866
100
AcDbArc
 50
90.0
 51
180.0
  0
ARC
  5
159
330
1F
100
AcDbEntity
  8
0
  6
CONTINUOUS
 62
     7
100
AcDbCircle
 10
-14.1706217962
 20
-102.5755418098
 30
0.0
 40
0.7500010399999866
100
AcDbArc
 50
180.0
 51
270.0
  0
ARC
  5
15A
330
1F
100
AcDbEntity
  8
0
  6
CONTINUOUS
 62
     7
100
AcDbCircle
 10
-2.6706244762
 20
-102.5755418098
 30
0.0
 40
0.7500010399999792
100
AcDbArc
 50
270.0
 51
0.0
  0
ARC
  5
15B
330
1F
100
AcDbEntity
  8
0
  6
CONTINUOUS
 62
     7
100
AcDbCircle
 10
-2.6706244762
 20
-91.0755444898
 30
0.0
 40
0.7500010400000006
100
AcDbArc
 50
0.0
 51
90.0
  0
ARC
  5
15C
330
1F
100
AcDbEntity
  8
0
  6
CONTINUOUS
 62
     7
100
AcDbCircle
 10
-14.1706217962
 20
-109.5130488898
 30
0.0
 40
0.7500010400000008
100
AcDbArc
 50
90.0
 51
180.0
  0
ARC
  5
15D
330
1F
100
AcDbEntity
  8
0
  6
CONTINUOUS
 62
     7
100
AcDbCircle
 10
-14.1706217962
 20
-121.0130462098
 30
0.0
 40
0.7500010400000292
100
AcDbArc
 50
180.0
 51
270.0
  0
ARC
  5
15E
330
1F
100
AcDbEntity
  8
0
  6
CONTINUOUS
 62
     7
100
AcDbCircle
 10
-2.6706244762
 20
-121.0130462098
 30
0.0
 40
0.7500010400000292
100
AcDbArc
 50
270.0
 51
0.0
  0
ARC
  5
15F
330
1F
100
AcDbEntity
  8
0
  6
CONTINUOUS
 62
     7
100
AcDbCircle
 10
-2.6706244762
 20
-109.5130488898
 30
0.0
 40
0.7500010399999877
100
AcDbArc
 50
360.0
 51
90.0
  0
ARC
  5
160
330
1F
100
AcDbEntity
  8
0
  6
CONTINUOUS
 62
     7
100
AcDbCircle
 10
7.0993382038
 20
-72.6380400898
 30
0.0
 40
0.7500010400000008
100
AcDbArc
 50
90.0
 51
180.0
  0
ARC
  5
161
330
1F
100
AcDbEntity
  8
0
  6
CONTINUOUS
 62
     7
100
AcDbCircle
 10
7.0993382038
 20
-84.1380374098
 30
0.0
 40
0.7500010400000008
100
AcDbArc
 50
180.0
 51
270.0
  0
ARC
  5
162
330
1F
100
AcDbEntity
  8
0
  6
CONTINUOUS
 62
     7
100
AcDbCircle
 10
18.5993355238
 20
-84.1380374098
 30
0.0
 40
0.7500010399999866
100
AcDbArc
 50
270.0
 51
0.0
  0
ARC
  5
163
330
1F
100
AcDbEntity
  8
0
  6
CONTINUOUS
 62
     7
100
AcDbCircle
 10
18.5993355238
 20
-72.6380400898
 30
0.0
 40
0.750001040000015
100
AcDbArc
 50
0.0
 51
90.0
  0
ARC
  5
164
330
1F
100
AcDbEntity
  8
0
  6
CONTINUOUS
 62
     7
100
AcDbCircle
 10
7.0993382038
 20
-91.0755444898
 30
0.0
 40
0.7500010399999875
100
AcDbArc
 50
90.0
 51
180.0
  0
ARC
  5
165
330
1F
100
AcDbEntity
  8
0
  6
CONTINUOUS
 62
     7
100
AcDbCircle
 10
7.0993382038
 20
-102.5755418098
 30
0.0
 40
0.7500010399999875
100
AcDbArc
 50
180.0
 51
270.0
  0
ARC
  5
166
330
1F
100
AcDbEntity
  8
0
  6
CONTINUOUS
 62
     7
100
AcDbCircle
 10
18.5993355238
 20
-102.5755418098
 30
0.0
 40
0.7500010399999866
100
AcDbArc
 50
270.0
 51
0.0
  0
ARC
  5
167
330
1F
100
AcDbEntity
  8
0
  6
CONTINUOUS
 62
     7
100
AcDbCircle
 10
18.5993355238
 20
-91.0755444898
 30
0.0
 40
0.7500010399999866
100
AcDbArc
 50
0.0
 51
90.0
  0
ARC
  5
168
330
1F
100
AcDbEntity
  8
0
  6
CONTINUOUS
 62
     7
100
AcDbCircle
 10
7.0993382038
 20
-109.5130488898
 30
0.0
 40
0.7500010399999866
100
AcDbArc
 50
90.0
 51
180.0
  0
ARC
  5
169
330
1F
100
AcDbEntity
  8
0
  6
CONTINUOUS
 62
     7
100
AcDbCircle
 10
7.0993382038
 20
-121.0130462098
 30
0.0
 40
0.7500010400000292
100
AcDbArc
 50
180.0
 51
270.0
  0
ARC
  5
16A
330
1F
100
AcDbEntity
  8
0
  6
CONTINUOUS
 62
     7
100
AcDbCircle
 10
18.5993355238
 20
-121.0130462098
 30
0.0
 40
0.7500010400000292
100
AcDbArc
 50
270.0
 51
0.0
  0
ARC
  5
16B
330
1F
100
AcDbEntity
  8
0
  6
CONTINUOUS
 62
     7
100
AcDbCircle
 10
18.5993355238
 20
-109.5130488898
 30
0.0
 40
0.7500010400000008
100
AcDbArc
 50
0.0
 51
90.0
  0
ENDSEC
  0
SECTION
  2
OBJECTS
  0
DICTIONARY
  5
C
330
0
100
AcDbDictionary
  3
ACAD_GROUP
350
D
  3
ACAD_MLINESTYLE
350
17
  3
ACAD_SCALELIST
350
47
1001
ACAD
1000
TREAT_AS_HARD
1070
     0
  0
DICTIONARY
  5
D
102
{ACAD_REACTORS
330
C
102
}
330
C
100
AcDbDictionary
1001
ACAD
1000
TREAT_AS_HARD
1070
     0
  0
DICTIONARY
  5
17
102
{ACAD_REACTORS
330
C
102
}
330
C
100
AcDbDictionary
  3
STANDARD
350
18
1001
ACAD
1000
TREAT_AS_HARD
1070
     0
  0
DICTIONARY
  5
47
102
{ACAD_REACTORS
330
C
102
}
330
C
100
AcDbDictionary
1001
ACAD
1000
TREAT_AS_HARD
1070
     0
  0
MLINESTYLE
  5
18
102
{ACAD_REACTORS
330
17
102
}
330
17
100
AcDbMlineStyle
  2
Standard
 70
     0
  3

 62
   256
 51
90.0
 52
90.0
 71
     2
 49
0.5
 62
   256
  6
BYLAYER
 49
-0.5
 62
   256
  6
BYLAYER
  0
ENDSEC
  0
EOF
