  0
SECTION
  2
HEADER
  9
$ACADVER
  1
AC1012
  9
$DWGCODEPAGE
  3
ansi_1252
  9
$INSBASE
 10
0.0
 20
0.0
 30
0.0
  9
$EXTMIN
 10
2.3531513565
 20
-15.6018349157
 30
0.0
  9
$EXTMAX
 10
21.3531513565
 20
-8.6018349157
 30
0.0
  9
$LIMMIN
 10
0.0
 20
0.0
  9
$LIMMAX
 10
12.0
 20
9.0
  9
$ORTHOMODE
 70
     0
  9
$REGENMODE
 70
     1
  9
$FILLMODE
 70
     1
  9
$QTEXTMODE
 70
     0
  9
$MIRRTEXT
 70
     1
  9
$DRAGMODE
 70
     2
  9
$LTSCALE
 40
1.0
  9
$OSMODE
 70
    37
  9
$ATTMODE
 70
     1
  9
$TEXTSIZE
 40
0.1377952756
  9
$TRACEWID
 40
0.05
  9
$TEXTSTYLE
  7
STANDARD
  9
$CLAYER
  8
0
  9
$CELTYPE
  6
BYLAYER
  9
$CECOLOR
 62
   256
  9
$CELTSCALE
 40
1.0
  9
$DELOBJ
 70
     1
  9
$DISPSILH
 70
     0
  9
$DIMSCALE
 40
1.0
  9
$DIMASZ
 40
0.13
  9
$DIMEXO
 40
0.0393700787
  9
$DIMDLI
 40
0.38
  9
$DIMRND
 40
0.0
  9
$DIMDLE
 40
0.0
  9
$DIMEXE
 40
0.0393700787
  9
$DIMTP
 40
0.0
  9
$DIMTM
 40
0.0
  9
$DIMTXT
 40
0.1377952756
  9
$DIMCEN
 40
0.09
  9
$DIMTSZ
 40
0.0
  9
$DIMTOL
 70
     0
  9
$DIMLIM
 70
     0
  9
$DIMTIH
 70
     1
  9
$DIMTOH
 70
     1
  9
$DIMSE1
 70
     0
  9
$DIMSE2
 70
     0
  9
$DIMTAD
 70
     1
  9
$DIMZIN
 70
     0
  9
$DIMBLK
  1

  9
$DIMASO
 70
     1
  9
$DIMSHO
 70
     1
  9
$DIMPOST
  1

  9
$DIMAPOST
  1

  9
$DIMALT
 70
     0
  9
$DIMALTD
 70
     2
  9
$DIMALTF
 40
25.4
  9
$DIMLFAC
 40
1.0
  9
$DIMTOFL
 70
     0
  9
$DIMTVP
 40
0.0
  9
$DIMTIX
 70
     0
  9
$DIMSOXD
 70
     0
  9
$DIMSAH
 70
     0
  9
$DIMBLK1
  1

  9
$DIMBLK2
  1

  9
$DIMSTYLE
  2
STANDARD
  9
$DIMCLRD
 70
     0
  9
$DIMCLRE
 70
     0
  9
$DIMCLRT
 70
     0
  9
$DIMTFAC
 40
1.0
  9
$DIMGAP
 40
0.06
  9
$DIMJUST
 70
     0
  9
$DIMSD1
 70
     0
  9
$DIMSD2
 70
     0
  9
$DIMTOLJ
 70
     1
  9
$DIMTZIN
 70
     0
  9
$DIMALTZ
 70
     0
  9
$DIMALTTZ
 70
     0
  9
$DIMFIT
 70
     3
  9
$DIMUPT
 70
     0
  9
$DIMUNIT
 70
     2
  9
$DIMDEC
 70
     2
  9
$DIMTDEC
 70
     2
  9
$DIMALTU
 70
     2
  9
$DIMALTTD
 70
     2
  9
$DIMTXSTY
  7
STANDARD
  9
$DIMAUNIT
 70
     0
  9
$LUNITS
 70
     2
  9
$LUPREC
 70
     4
  9
$SKETCHINC
 40
0.1
  9
$FILLETRAD
 40
0.5
  9
$AUNITS
 70
     0
  9
$AUPREC
 70
     3
  9
$MENU
  1
.
  9
$ELEVATION
 40
0.0
  9
$PELEVATION
 40
0.0
  9
$THICKNESS
 40
0.0
  9
$LIMCHECK
 70
     0
  9
$CHAMFERA
 40
0.0
  9
$CHAMFERB
 40
0.0
  9
$CHAMFERC
 40
0.0
  9
$CHAMFERD
 40
0.0
  9
$SKPOLY
 70
     0
  9
$TDCREATE
 40
2456944.474792894
  9
$TDUPDATE
 40
2456944.475027315
  9
$TDINDWG
 40
0.0000000116
  9
$TDUSRTIMER
 40
0.0000000116
  9
$USRTIMER
 70
     1
  9
$ANGBASE
 50
0.0
  9
$ANGDIR
 70
     0
  9
$PDMODE
 70
     0
  9
$PDSIZE
 40
-1.0
  9
$PLINEWID
 40
0.0
  9
$COORDS
 70
     1
  9
$SPLFRAME
 70
     0
  9
$SPLINETYPE
 70
     6
  9
$SPLINESEGS
 70
     8
  9
$ATTDIA
 70
     0
  9
$ATTREQ
 70
     1
  9
$HANDLING
 70
     1
  9
$HANDSEED
  5
493
  9
$SURFTAB1
 70
     6
  9
$SURFTAB2
 70
     6
  9
$SURFTYPE
 70
     6
  9
$SURFU
 70
     6
  9
$SURFV
 70
     6
  9
$UCSNAME
  2

  9
$UCSORG
 10
0.0
 20
0.0
 30
0.0
  9
$UCSXDIR
 10
1.0
 20
0.0
 30
0.0
  9
$UCSYDIR
 10
0.0
 20
1.0
 30
0.0
  9
$PUCSNAME
  2

  9
$PUCSORG
 10
0.0
 20
0.0
 30
0.0
  9
$PUCSXDIR
 10
1.0
 20
0.0
 30
0.0
  9
$PUCSYDIR
 10
0.0
 20
1.0
 30
0.0
  9
$USERI1
 70
     0
  9
$USERI2
 70
     0
  9
$USERI3
 70
     0
  9
$USERI4
 70
     0
  9
$USERI5
 70
     0
  9
$USERR1
 40
0.0
  9
$USERR2
 40
0.0
  9
$USERR3
 40
0.0
  9
$USERR4
 40
0.0
  9
$USERR5
 40
0.0
  9
$WORLDVIEW
 70
     1
  9
$SHADEDGE
 70
     3
  9
$SHADEDIF
 70
    70
  9
$TILEMODE
 70
     1
  9
$MAXACTVP
 70
    64
  9
$PINSBASE
 10
0.0
 20
0.0
 30
0.0
  9
$PLIMCHECK
 70
     0
  9
$PEXTMIN
 10
1.0000000000E+20
 20
1.0000000000E+20
 30
1.0000000000E+20
  9
$PEXTMAX
 10
-1.0000000000E+20
 20
-1.0000000000E+20
 30
-1.0000000000E+20
  9
$PLIMMIN
 10
0.0
 20
0.0
  9
$PLIMMAX
 10
12.0
 20
9.0
  9
$UNITMODE
 70
     0
  9
$VISRETAIN
 70
     1
  9
$PLINEGEN
 70
     0
  9
$PSLTSCALE
 70
     1
  9
$TREEDEPTH
 70
  3020
  9
$PICKSTYLE
 70
     1
  9
$CMLSTYLE
  2
STANDARD
  9
$CMLJUST
 70
     0
  9
$CMLSCALE
 40
1.0
  9
$SAVEIMAGES
 70
     1
  0
ENDSEC
  0
SECTION
  2
CLASSES
  0
CLASS
  1
ACDBDICTIONARYWDFLT
  2
AcDbDictionaryWithDefault
  3
ObjectDBX Classes
 90
    32768
280
     0
281
     0
  0
CLASS
  1
VISUALSTYLE
  2
AcDbVisualStyle
  3
ObjectDBX Classes
 90
     4095
280
     0
281
     0
  0
CLASS
  1
MATERIAL
  2
AcDbMaterial
  3
ObjectDBX Classes
 90
     1153
280
     0
281
     0
  0
CLASS
  1
SCALE
  2
AcDbScale
  3
ObjectDBX Classes
 90
     1153
280
     0
281
     0
  0
CLASS
  1
SUN
  2
AcDbSun
  3
SCENEOE
 90
     1153
280
     0
281
     0
  0
CLASS
  1
XRECORD
  2
AcDbXrecord
  3
ObjectDBX Classes
 90
    32768
280
     0
281
     0
  0
ENDSEC
  0
SECTION
  2
TABLES
  0
TABLE
  2
VPORT
  5
8
330
0
100
AcDbSymbolTable
 70
     1
  0
VPORT
  5
29
330
8
100
AcDbSymbolTableRecord
100
AcDbViewportTableRecord
  2
*ACTIVE
 70
     0
 10
0.0
 20
0.0
 11
1.0
 21
1.0
 12
11.8531513565
 22
-12.1018349157
 13
0.0
 23
0.0
 14
0.5
 24
0.5
 15
0.5
 25
0.5
 16
0.0
 26
0.0
 36
1.0
 17
0.0
 27
0.0
 37
0.0
 40
7.14
 41
2.7142857143
 42
50.0
 43
0.0
 44
0.0
 50
0.0
 51
0.0
 71
     0
 72
   100
 73
     1
 74
     3
 75
     0
 76
     0
 77
     0
 78
     0
  0
ENDTAB
  0
TABLE
  2
LTYPE
  5
5
330
0
100
AcDbSymbolTable
 70
     6
  0
LTYPE
  5
14
330
5
100
AcDbSymbolTableRecord
100
AcDbLinetypeTableRecord
  2
BYBLOCK
 70
     0
  3

 72
    65
 73
     0
 40
0.0
  0
LTYPE
  5
15
330
5
100
AcDbSymbolTableRecord
100
AcDbLinetypeTableRecord
  2
BYLAYER
 70
     0
  3

 72
    65
 73
     0
 40
0.0
  0
LTYPE
  5
16
330
5
100
AcDbSymbolTableRecord
100
AcDbLinetypeTableRecord
  2
CONTINUOUS
 70
     0
  3
Solid line
 72
    65
 73
     0
 40
0.0
  0
LTYPE
  5
6A
330
5
100
AcDbSymbolTableRecord
100
AcDbLinetypeTableRecord
  2
HIDDEN
 70
     0
  3
Hidden __ __ __ __ __ __ __ __ __ __ __ __ __ __
 72
    65
 73
     2
 40
0.075
 49
0.05
 74
     0
 49
-0.025
 74
     0
  0
LTYPE
  5
6B
330
5
100
AcDbSymbolTableRecord
100
AcDbLinetypeTableRecord
  2
PHANTOM
 70
     0
  3
Phantom ______  __  __  ______  __  __  ______
 72
    65
 73
     6
 40
0.5
 49
0.25
 74
     0
 49
-0.05
 74
     0
 49
0.05
 74
     0
 49
-0.05
 74
     0
 49
0.05
 74
     0
 49
-0.05
 74
     0
  0
LTYPE
  5
6C
330
5
100
AcDbSymbolTableRecord
100
AcDbLinetypeTableRecord
  2
CENTER
 70
     0
  3
Center ____ _ ____ _ ____ _ ____ _ ____ _ ____
 72
    65
 73
     4
 40
0.4
 49
0.25
 74
     0
 49
-0.05
 74
     0
 49
0.05
 74
     0
 49
-0.05
 74
     0
  0
LTYPE
  5
6D
330
5
100
AcDbSymbolTableRecord
100
AcDbLinetypeTableRecord
  2
CENTERX2
 70
     0
  3
Center (2x) ________  __  ________  __  _____
 72
    65
 73
     4
 40
0.8
 49
0.5
 74
     0
 49
-0.1
 74
     0
 49
0.1
 74
     0
 49
-0.1
 74
     0
  0
LTYPE
  5
6E
330
5
100
AcDbSymbolTableRecord
100
AcDbLinetypeTableRecord
  2
DOT2
 70
     0
  3
Dot (.5x) ........................................
 72
    65
 73
     2
 40
0.025
 49
0.0
 74
     0
 49
-0.025
 74
     0
  0
ENDTAB
  0
TABLE
  2
LAYER
  5
2
330
0
100
AcDbSymbolTable
 70
     1
  0
LAYER
  5
10
330
2
100
AcDbSymbolTableRecord
100
AcDbLayerTableRecord
  2
0
 70
     0
 62
     7
  6
CONTINUOUS
  0
ENDTAB
  0
TABLE
  2
STYLE
  5
3
330
0
100
AcDbSymbolTable
 70
     1
  0
STYLE
  5
11
330
3
100
AcDbSymbolTableRecord
100
AcDbTextStyleTableRecord
  2
STANDARD
 70
     0
 40
0.0
 41
1.0
 50
0.0
 71
     0
 42
0.1377952756
  3
txt
  4

  0
ENDTAB
  0
TABLE
  2
VIEW
  5
6
330
0
100
AcDbSymbolTable
 70
     0
  0
ENDTAB
  0
TABLE
  2
UCS
  5
7
330
0
100
AcDbSymbolTable
 70
     0
  0
ENDTAB
  0
TABLE
  2
APPID
  5
9
330
0
100
AcDbSymbolTable
 70
     1
  0
APPID
  5
12
330
9
100
AcDbSymbolTableRecord
100
AcDbRegAppTableRecord
  2
ACAD
 70
     0
  0
ENDTAB
  0
TABLE
  2
DIMSTYLE
  5
A
330
0
100
AcDbSymbolTable
 70
     1
  0
DIMSTYLE
105
27
330
A
100
AcDbSymbolTableRecord
100
AcDbDimStyleTableRecord
  2
STANDARD
 70
     0
  3

  4

  5

  6

  7

 40
1.0
 41
0.18
 42
0.0625
 43
0.38
 44
0.18
 45
0.0
 46
0.0
 47
0.0
 48
0.0
140
0.18
141
0.09
142
0.0
143
25.4
144
1.0
145
0.0
146
1.0
147
0.09
 71
     0
 72
     0
 73
     1
 74
     1
 75
     0
 76
     0
 77
     0
 78
     0
170
     0
171
     2
172
     0
173
     0
174
     0
175
     0
176
     0
177
     0
178
     0
270
     2
271
     4
272
     4
273
     2
274
     2
340
11
275
     0
280
     0
281
     0
282
     0
283
     1
284
     0
285
     0
286
     0
287
     3
288
     0
  0
ENDTAB
  0
TABLE
  2
BLOCK_RECORD
  5
1
330
0
100
AcDbSymbolTable
 70
     1
  0
BLOCK_RECORD
  5
1F
330
1
100
AcDbSymbolTableRecord
100
AcDbBlockTableRecord
  2
*MODEL_SPACE
  0
BLOCK_RECORD
  5
1B
330
1
100
AcDbSymbolTableRecord
100
AcDbBlockTableRecord
  2
*PAPER_SPACE
  0
BLOCK_RECORD
  5
23
330
1
100
AcDbSymbolTableRecord
100
AcDbBlockTableRecord
  2
*PAPER_SPACE0
  0
ENDTAB
  0
ENDSEC
  0
SECTION
  2
BLOCKS
  0
BLOCK
  5
20
330
1F
100
AcDbEntity
  8
0
100
AcDbBlockBegin
  2
*MODEL_SPACE
 70
     0
 10
0.0
 20
0.0
 30
0.0
  3
*MODEL_SPACE
  1

  0
ENDBLK
  5
21
330
1F
100
AcDbEntity
  8
0
100
AcDbBlockEnd
  0
BLOCK
  5
1C
330
1B
100
AcDbEntity
 67
     1
  8
0
100
AcDbBlockBegin
  2
*PAPER_SPACE
 70
     0
 10
0.0
 20
0.0
 30
0.0
  3
*PAPER_SPACE
  1

  0
ENDBLK
  5
1D
330
1B
100
AcDbEntity
 67
     1
  8
0
100
AcDbBlockEnd
  0
BLOCK
  5
24
330
23
100
AcDbEntity
  8
0
100
AcDbBlockBegin
  2
*PAPER_SPACE0
 70
     0
 10
0.0
 20
0.0
 30
0.0
  3
*PAPER_SPACE0
  1
*PAPER_SPACE0
  0
ENDBLK
  5
25
330
23
100
AcDbEntity
  8
0
100
AcDbBlockEnd
  0
ENDSEC
  0
SECTION
  2
ENTITIES
  0
CIRCLE
  5
6F
330
1F
100
AcDbEntity
  8
0
  6
CONTINUOUS
 62
     7
100
AcDbCircle
 10
20.2458513565
 20
-10.9518349157
 30
0.0
 40
0.072000000000001
  0
CIRCLE
  5
70
330
1F
100
AcDbEntity
  8
0
  6
CONTINUOUS
 62
     7
100
AcDbCircle
 10
13.8870513565
 20
-10.2518349157
 30
0.0
 40
0.072000000000001
  0
CIRCLE
  5
71
330
1F
100
AcDbEntity
  8
0
  6
CONTINUOUS
 62
     7
100
AcDbCircle
 10
15.8870513565
 20
-10.2518349157
 30
0.0
 40
0.0719999999999992
  0
CIRCLE
  5
72
330
1F
100
AcDbEntity
  8
0
  6
CONTINUOUS
 62
     7
100
AcDbCircle
 10
17.8870513565
 20
-10.2518349157
 30
0.0
 40
0.0719999999999992
  0
CIRCLE
  5
73
330
1F
100
AcDbEntity
  8
0
  6
CONTINUOUS
 62
     7
100
AcDbCircle
 10
13.8870513565
 20
-15.4518349157
 30
0.0
 40
0.072000000000001
  0
CIRCLE
  5
74
330
1F
100
AcDbEntity
  8
0
  6
CONTINUOUS
 62
     7
100
AcDbCircle
 10
15.8870513565
 20
-15.4518349157
 30
0.0
 40
0.072000000000001
  0
CIRCLE
  5
75
330
1F
100
AcDbEntity
  8
0
  6
CONTINUOUS
 62
     7
100
AcDbCircle
 10
6.5458513565
 20
-10.9518349157
 30
0.0
 40
0.072000000000001
  0
CIRCLE
  5
76
330
1F
100
AcDbEntity
  8
0
  6
CONTINUOUS
 62
     7
100
AcDbCircle
 10
12.7170513565
 20
-10.2518349157
 30
0.0
 40
0.072000000000001
  0
CIRCLE
  5
77
330
1F
100
AcDbEntity
  8
0
  6
CONTINUOUS
 62
     7
100
AcDbCircle
 10
10.7170513565
 20
-10.2518349157
 30
0.0
 40
0.0719999999999992
  0
CIRCLE
  5
78
330
1F
100
AcDbEntity
  8
0
  6
CONTINUOUS
 62
     7
100
AcDbCircle
 10
8.7170513565
 20
-10.2518349157
 30
0.0
 40
0.072000000000001
  0
CIRCLE
  5
79
330
1F
100
AcDbEntity
  8
0
  6
CONTINUOUS
 62
     7
100
AcDbCircle
 10
12.7170513565
 20
-15.4518349157
 30
0.0
 40
0.072000000000001
  0
CIRCLE
  5
7A
330
1F
100
AcDbEntity
  8
0
  6
CONTINUOUS
 62
     7
100
AcDbCircle
 10
10.7170513565
 20
-15.4518349157
 30
0.0
 40
0.0719999999999992
  0
CIRCLE
  5
7B
330
1F
100
AcDbEntity
  8
0
  6
CONTINUOUS
 62
     7
100
AcDbCircle
 10
17.3462933565
 20
-12.8548349157
 30
0.0
 40
0.1049999999999951
  0
CIRCLE
  5
7C
330
1F
100
AcDbEntity
  8
0
  6
CONTINUOUS
 62
     7
100
AcDbCircle
 10
18.0721793565
 20
-12.8548349157
 30
0.0
 40
0.1050000000000022
  0
CIRCLE
  5
11D
330
1F
100
AcDbEntity
  8
0
  6
CONTINUOUS
 62
     7
100
AcDbCircle
 10
9.4503093565
 20
-12.8548349157
 30
0.0
 40
0.1049999999999986
  0
CIRCLE
  5
11E
330
1F
100
AcDbEntity
  8
0
  6
CONTINUOUS
 62
     7
100
AcDbCircle
 10
8.7244233565
 20
-12.8548349157
 30
0.0
 40
0.1049999999999986
  0
CIRCLE
  5
126
330
1F
100
AcDbEntity
  8
0
  6
CONTINUOUS
 62
     7
100
AcDbCircle
 10
7.2726513565
 20
-10.9959349157
 30
0.0
 40
0.2330999999999985
  0
CIRCLE
  5
127
330
1F
100
AcDbEntity
  8
0
  6
CONTINUOUS
 62
     7
100
AcDbCircle
 10
14.4426513565
 20
-10.9959349157
 30
0.0
 40
0.2331000000000003
  0
CIRCLE
  5
128
330
1F
100
AcDbEntity
  8
0
  6
CONTINUOUS
 62
     7
100
AcDbCircle
 10
7.9985513565
 20
-10.9959349157
 30
0.0
 40
0.2331000000000003
  0
CIRCLE
  5
129
330
1F
100
AcDbEntity
  8
0
  6
CONTINUOUS
 62
     7
100
AcDbCircle
 10
15.1685513565
 20
-10.9959349157
 30
0.0
 40
0.2331000000000003
  0
CIRCLE
  5
12A
330
1F
100
AcDbEntity
  8
0
  6
CONTINUOUS
 62
     7
100
AcDbCircle
 10
15.8944513565
 20
-10.9959349157
 30
0.0
 40
0.233099999999995
  0
CIRCLE
  5
12B
330
1F
100
AcDbEntity
  8
0
  6
CONTINUOUS
 62
     7
100
AcDbCircle
 10
16.6203513565
 20
-10.9959349157
 30
0.0
 40
0.2331000000000003
  0
CIRCLE
  5
12C
330
1F
100
AcDbEntity
  8
0
  6
CONTINUOUS
 62
     7
100
AcDbCircle
 10
17.3462513565
 20
-10.9959349157
 30
0.0
 40
0.2331000000000003
  0
CIRCLE
  5
12D
330
1F
100
AcDbEntity
  8
0
  6
CONTINUOUS
 62
     7
100
AcDbCircle
 10
18.0721513565
 20
-10.9959349157
 30
0.0
 40
0.2330999999999932
  0
CIRCLE
  5
12E
330
1F
100
AcDbEntity
  8
0
  6
CONTINUOUS
 62
     7
100
AcDbCircle
 10
18.7980513565
 20
-10.9959349157
 30
0.0
 40
0.2331000000000056
  0
CIRCLE
  5
12F
330
1F
100
AcDbEntity
  8
0
  6
CONTINUOUS
 62
     7
100
AcDbCircle
 10
19.5239513565
 20
-10.9959349157
 30
0.0
 40
0.2331000000000039
  0
CIRCLE
  5
130
330
1F
100
AcDbEntity
  8
0
  6
CONTINUOUS
 62
     7
100
AcDbCircle
 10
8.7244513565
 20
-10.9959349157
 30
0.0
 40
0.2331000000000003
  0
CIRCLE
  5
131
330
1F
100
AcDbEntity
  8
0
  6
CONTINUOUS
 62
     7
100
AcDbCircle
 10
9.4503513565
 20
-10.9959349157
 30
0.0
 40
0.2330999999999985
  0
CIRCLE
  5
132
330
1F
100
AcDbEntity
  8
0
  6
CONTINUOUS
 62
     7
100
AcDbCircle
 10
10.1762513565
 20
-10.9959349157
 30
0.0
 40
0.2330999999999985
  0
CIRCLE
  5
133
330
1F
100
AcDbEntity
  8
0
  6
CONTINUOUS
 62
     7
100
AcDbCircle
 10
10.9021513565
 20
-10.9959349157
 30
0.0
 40
0.2330999999999985
  0
CIRCLE
  5
134
330
1F
100
AcDbEntity
  8
0
  6
CONTINUOUS
 62
     7
100
AcDbCircle
 10
11.6280513565
 20
-10.9959349157
 30
0.0
 40
0.2330999999999985
  0
CIRCLE
  5
135
330
1F
100
AcDbEntity
  8
0
  6
CONTINUOUS
 62
     7
100
AcDbCircle
 10
12.3539513565
 20
-10.9959349157
 30
0.0
 40
0.2331000000000003
  0
CIRCLE
  5
142
330
1F
100
AcDbEntity
  8
0
  6
CONTINUOUS
 62
     7
100
AcDbCircle
 10
7.2726513565
 20
-11.7298349157
 30
0.0
 40
0.1049999999999986
  0
CIRCLE
  5
143
330
1F
100
AcDbEntity
  8
0
  6
CONTINUOUS
 62
     7
100
AcDbCircle
 10
7.9985373565
 20
-12.8548349157
 30
0.0
 40
0.1049999999999986
  0
CIRCLE
  5
144
330
1F
100
AcDbEntity
  8
0
  6
CONTINUOUS
 62
     7
100
AcDbCircle
 10
7.2726513565
 20
-12.8548349157
 30
0.0
 40
0.1049999999999986
  0
CIRCLE
  5
145
330
1F
100
AcDbEntity
  8
0
  6
CONTINUOUS
 62
     7
100
AcDbCircle
 10
7.2726513565
 20
-13.9798349157
 30
0.0
 40
0.1050000000000004
  0
CIRCLE
  5
146
330
1F
100
AcDbEntity
  8
0
  6
CONTINUOUS
 62
     7
100
AcDbCircle
 10
7.9985373565
 20
-11.7298349157
 30
0.0
 40
0.1049999999999969
  0
CIRCLE
  5
147
330
1F
100
AcDbEntity
  8
0
  6
CONTINUOUS
 62
     7
100
AcDbCircle
 10
7.9985373565
 20
-13.9798349157
 30
0.0
 40
0.1050000000000022
  0
CIRCLE
  5
148
330
1F
100
AcDbEntity
  8
0
  6
CONTINUOUS
 62
     7
100
AcDbCircle
 10
8.7244233565
 20
-11.7298349157
 30
0.0
 40
0.1049999999999986
  0
CIRCLE
  5
149
330
1F
100
AcDbEntity
  8
0
  6
CONTINUOUS
 62
     7
100
AcDbCircle
 10
8.7244233565
 20
-13.9798349157
 30
0.0
 40
0.1049999999999986
  0
CIRCLE
  5
14A
330
1F
100
AcDbEntity
  8
0
  6
CONTINUOUS
 62
     7
100
AcDbCircle
 10
9.4503093565
 20
-11.7298349157
 30
0.0
 40
0.1049999999999986
  0
CIRCLE
  5
14B
330
1F
100
AcDbEntity
  8
0
  6
CONTINUOUS
 62
     7
100
AcDbCircle
 10
9.4503093565
 20
-13.9798349157
 30
0.0
 40
0.1050000000000004
  0
CIRCLE
  5
14C
330
1F
100
AcDbEntity
  8
0
  6
CONTINUOUS
 62
     7
100
AcDbCircle
 10
10.1761953565
 20
-11.7298349157
 30
0.0
 40
0.1049999999999986
  0
CIRCLE
  5
14D
330
1F
100
AcDbEntity
  8
0
  6
CONTINUOUS
 62
     7
100
AcDbCircle
 10
10.9020813565
 20
-11.7298349157
 30
0.0
 40
0.1049999999999986
  0
CIRCLE
  5
14E
330
1F
100
AcDbEntity
  8
0
  6
CONTINUOUS
 62
     7
100
AcDbCircle
 10
11.6279673565
 20
-11.7298349157
 30
0.0
 40
0.1049999999999986
  0
CIRCLE
  5
14F
330
1F
100
AcDbEntity
  8
0
  6
CONTINUOUS
 62
     7
100
AcDbCircle
 10
12.3538533565
 20
-11.7298349157
 30
0.0
 40
0.1049999999999986
  0
CIRCLE
  5
200
330
1F
100
AcDbEntity
  8
0
  6
CONTINUOUS
 62
     7
100
AcDbCircle
 10
13.3982798565
 20
-13.8598404157
 30
0.0
 40
0.8291999999999966
  0
CIRCLE
  5
201
330
1F
100
AcDbEntity
  8
0
  6
CONTINUOUS
 62
     7
100
AcDbCircle
 10
19.5239513565
 20
-11.7298349157
 30
0.0
 40
0.1049999999999969
  0
CIRCLE
  5
202
330
1F
100
AcDbEntity
  8
0
  6
CONTINUOUS
 62
     7
100
AcDbCircle
 10
18.7980653565
 20
-12.8548349157
 30
0.0
 40
0.1049999999999951
  0
CIRCLE
  5
203
330
1F
100
AcDbEntity
  8
0
  6
CONTINUOUS
 62
     7
100
AcDbCircle
 10
19.5239513565
 20
-12.8548349157
 30
0.0
 40
0.1049999999999951
  0
CIRCLE
  5
204
330
1F
100
AcDbEntity
  8
0
  6
CONTINUOUS
 62
     7
100
AcDbCircle
 10
19.5239513565
 20
-13.9798349157
 30
0.0
 40
0.1049999999999951
  0
CIRCLE
  5
205
330
1F
100
AcDbEntity
  8
0
  6
CONTINUOUS
 62
     7
100
AcDbCircle
 10
18.7980653565
 20
-11.7298349157
 30
0.0
 40
0.1049999999999969
  0
CIRCLE
  5
206
330
1F
100
AcDbEntity
  8
0
  6
CONTINUOUS
 62
     7
100
AcDbCircle
 10
18.7980653565
 20
-13.9798349157
 30
0.0
 40
0.1049999999999951
  0
CIRCLE
  5
207
330
1F
100
AcDbEntity
  8
0
  6
CONTINUOUS
 62
     7
100
AcDbCircle
 10
18.0721793565
 20
-11.7298349157
 30
0.0
 40
0.1050000000000004
  0
CIRCLE
  5
208
330
1F
100
AcDbEntity
  8
0
  6
CONTINUOUS
 62
     7
100
AcDbCircle
 10
18.0721793565
 20
-13.9798349157
 30
0.0
 40
0.1050000000000022
  0
CIRCLE
  5
209
330
1F
100
AcDbEntity
  8
0
  6
CONTINUOUS
 62
     7
100
AcDbCircle
 10
17.3462933565
 20
-11.7298349157
 30
0.0
 40
0.1049999999999969
  0
CIRCLE
  5
20A
330
1F
100
AcDbEntity
  8
0
  6
CONTINUOUS
 62
     7
100
AcDbCircle
 10
17.3462933565
 20
-13.9798349157
 30
0.0
 40
0.1049999999999951
  0
CIRCLE
  5
20B
330
1F
100
AcDbEntity
  8
0
  6
CONTINUOUS
 62
     7
100
AcDbCircle
 10
16.6204073565
 20
-11.7298349157
 30
0.0
 40
0.1050000000000004
  0
CIRCLE
  5
20C
330
1F
100
AcDbEntity
  8
0
  6
CONTINUOUS
 62
     7
100
AcDbCircle
 10
15.8945213565
 20
-11.7298349157
 30
0.0
 40
0.1049999999999986
  0
CIRCLE
  5
20D
330
1F
100
AcDbEntity
  8
0
  6
CONTINUOUS
 62
     7
100
AcDbCircle
 10
15.1686353565
 20
-11.7298349157
 30
0.0
 40
0.1049999999999969
  0
CIRCLE
  5
20E
330
1F
100
AcDbEntity
  8
0
  6
CONTINUOUS
 62
     7
100
AcDbCircle
 10
14.4427493565
 20
-11.7298349157
 30
0.0
 40
0.1049999999999969
  0
CIRCLE
  5
20F
330
1F
100
AcDbEntity
  8
0
  6
CONTINUOUS
 62
     7
100
AcDbCircle
 10
13.3982938565
 20
-12.1723404157
 30
0.0
 40
0.1082675000000002
  0
CIRCLE
  5
210
330
1F
100
AcDbEntity
  8
0
  6
CONTINUOUS
 62
     7
100
AcDbCircle
 10
6.7170513565
 20
-15.4518349157
 30
0.0
 40
0.0719999999999992
  0
CIRCLE
  5
211
330
1F
100
AcDbEntity
  8
0
  6
CONTINUOUS
 62
     7
100
AcDbCircle
 10
8.7170513565
 20
-15.4518349157
 30
0.0
 40
0.072000000000001
  0
CIRCLE
  5
212
330
1F
100
AcDbEntity
  8
0
  6
CONTINUOUS
 62
     7
100
AcDbCircle
 10
6.7170513565
 20
-8.7518349157
 30
0.0
 40
0.072000000000001
  0
CIRCLE
  5
213
330
1F
100
AcDbEntity
  8
0
  6
CONTINUOUS
 62
     7
100
AcDbCircle
 10
6.7170513565
 20
-10.2518349157
 30
0.0
 40
0.072000000000001
  0
CIRCLE
  5
214
330
1F
100
AcDbEntity
  8
0
  6
CONTINUOUS
 62
     7
100
AcDbCircle
 10
6.5458513565
 20
-14.9518349157
 30
0.0
 40
0.072000000000001
  0
CIRCLE
  5
215
330
1F
100
AcDbEntity
  8
0
  6
CONTINUOUS
 62
     7
100
AcDbCircle
 10
6.5458513565
 20
-12.9518349157
 30
0.0
 40
0.072000000000001
  0
CIRCLE
  5
216
330
1F
100
AcDbEntity
  8
0
  6
CONTINUOUS
 62
     7
100
AcDbCircle
 10
19.8870513565
 20
-15.4518349157
 30
0.0
 40
0.072000000000001
  0
CIRCLE
  5
217
330
1F
100
AcDbEntity
  8
0
  6
CONTINUOUS
 62
     7
100
AcDbCircle
 10
17.8870513565
 20
-15.4518349157
 30
0.0
 40
0.072000000000001
  0
CIRCLE
  5
218
330
1F
100
AcDbEntity
  8
0
  6
CONTINUOUS
 62
     7
100
AcDbCircle
 10
19.8870513565
 20
-8.7518349157
 30
0.0
 40
0.0719999999999992
  0
CIRCLE
  5
219
330
1F
100
AcDbEntity
  8
0
  6
CONTINUOUS
 62
     7
100
AcDbCircle
 10
19.8870513565
 20
-10.2518349157
 30
0.0
 40
0.0719999999999992
  0
CIRCLE
  5
21A
330
1F
100
AcDbEntity
  8
0
  6
CONTINUOUS
 62
     7
100
AcDbCircle
 10
20.2458513565
 20
-14.9518349157
 30
0.0
 40
0.0719999999999992
  0
CIRCLE
  5
21B
330
1F
100
AcDbEntity
  8
0
  6
CONTINUOUS
 62
     7
100
AcDbCircle
 10
20.2458513565
 20
-12.9518349157
 30
0.0
 40
0.072000000000001
  0
CIRCLE
  5
21C
330
1F
100
AcDbEntity
  8
0
  6
CONTINUOUS
 62
     7
100
AcDbCircle
 10
20.3296280494
 20
-8.9852349157
 30
0.0
 40
0.0688976377952724
  0
CIRCLE
  5
21D
330
1F
100
AcDbEntity
  8
0
  6
CONTINUOUS
 62
     7
100
AcDbCircle
 10
20.3296280494
 20
-10.0285420023
 30
0.0
 40
0.0688976377952777
  0
CIRCLE
  5
21E
330
1F
100
AcDbEntity
  8
0
  6
CONTINUOUS
 62
     7
100
AcDbCircle
 10
13.4398642699
 20
-8.9852349157
 30
0.0
 40
0.0688976377952741
  0
CIRCLE
  5
21F
330
1F
100
AcDbEntity
  8
0
  6
CONTINUOUS
 62
     7
100
AcDbCircle
 10
13.4398642699
 20
-10.0285420023
 30
0.0
 40
0.0688976377952795
  0
CIRCLE
  5
220
330
1F
100
AcDbEntity
  8
0
  6
CONTINUOUS
 62
     7
100
AcDbCircle
 10
13.1595754524
 20
-10.0277286303
 30
0.0
 40
0.0680825669442076
  0
CIRCLE
  5
221
330
1F
100
AcDbEntity
  8
0
  6
CONTINUOUS
 62
     7
100
AcDbCircle
 10
13.1587160017
 20
-8.985537299
 30
0.0
 40
0.0679367700541551
  0
CIRCLE
  5
22B
330
1F
100
AcDbEntity
  8
0
  6
CONTINUOUS
 62
     7
100
AcDbCircle
 10
4.0369513565
 20
-14.6987570023
 30
0.0
 40
0.1050000000000022
  0
CIRCLE
  5
22C
330
1F
100
AcDbEntity
  8
0
  6
CONTINUOUS
 62
     7
100
AcDbCircle
 10
5.7593513565
 20
-14.6987570023
 30
0.0
 40
0.1050000000000022
  0
CIRCLE
  5
22D
330
1F
100
AcDbEntity
  8
0
  6
CONTINUOUS
 62
     7
100
AcDbCircle
 10
3.2651513565
 20
-8.7518349157
 30
0.0
 40
0.0720000000000018
  0
CIRCLE
  5
22E
330
1F
100
AcDbEntity
  8
0
  6
CONTINUOUS
 62
     7
100
AcDbCircle
 10
3.2651513565
 20
-12.1018349157
 30
0.0
 40
0.071999999999997
  0
CIRCLE
  5
22F
330
1F
100
AcDbEntity
  8
0
  6
CONTINUOUS
 62
     7
100
AcDbCircle
 10
3.2651513565
 20
-15.4518349157
 30
0.0
 40
0.0719999999999992
  0
CIRCLE
  5
230
330
1F
100
AcDbEntity
  8
0
  6
CONTINUOUS
 62
     7
100
AcDbCircle
 10
4.7651513565
 20
-8.7518349157
 30
0.0
 40
0.0720000000000018
  0
CIRCLE
  5
231
330
1F
100
AcDbEntity
  8
0
  6
CONTINUOUS
 62
     7
100
AcDbCircle
 10
4.7651513565
 20
-15.4518349157
 30
0.0
 40
0.0719999999999983
  0
CIRCLE
  5
232
330
1F
100
AcDbEntity
  8
0
  6
CONTINUOUS
 62
     7
100
AcDbCircle
 10
5.7593513565
 20
-13.8760209551
 30
0.0
 40
0.1049999999999978
  0
CIRCLE
  5
233
330
1F
100
AcDbEntity
  8
0
  6
CONTINUOUS
 62
     7
100
AcDbCircle
 10
5.7593513565
 20
-13.1501349551
 30
0.0
 40
0.1050000000000022
  0
CIRCLE
  5
276
330
1F
100
AcDbEntity
  8
0
  6
CONTINUOUS
 62
     7
100
AcDbCircle
 10
4.0369513565
 20
-10.0870349157
 30
0.0
 40
0.1049999999999995
  0
CIRCLE
  5
277
330
1F
100
AcDbEntity
  8
0
  6
CONTINUOUS
 62
     7
100
AcDbCircle
 10
5.7593513565
 20
-10.0870349157
 30
0.0
 40
0.1049999999999995
  0
CIRCLE
  5
278
330
1F
100
AcDbEntity
  8
0
  6
CONTINUOUS
 62
     7
100
AcDbCircle
 10
4.0369513565
 20
-10.8129209157
 30
0.0
 40
0.1050000000000004
  0
CIRCLE
  5
279
330
1F
100
AcDbEntity
  8
0
  6
CONTINUOUS
 62
     7
100
AcDbCircle
 10
5.7593513565
 20
-10.8129209157
 30
0.0
 40
0.1049999999999995
  0
CIRCLE
  5
27A
330
1F
100
AcDbEntity
  8
0
  6
CONTINUOUS
 62
     7
100
AcDbCircle
 10
4.0369513565
 20
-11.5388069157
 30
0.0
 40
0.1050000000000031
  0
CIRCLE
  5
27B
330
1F
100
AcDbEntity
  8
0
  6
CONTINUOUS
 62
     7
100
AcDbCircle
 10
5.7593513565
 20
-11.5388069157
 30
0.0
 40
0.1050000000000022
  0
CIRCLE
  5
27C
330
1F
100
AcDbEntity
  8
0
  6
CONTINUOUS
 62
     7
100
AcDbCircle
 10
4.0369513565
 20
-12.2646929157
 30
0.0
 40
0.1049999999999986
  0
CIRCLE
  5
27D
330
1F
100
AcDbEntity
  8
0
  6
CONTINUOUS
 62
     7
100
AcDbCircle
 10
5.7593513565
 20
-12.2646929157
 30
0.0
 40
0.1049999999999995
  0
CIRCLE
  5
29E
330
1F
100
AcDbEntity
  8
0
  6
CONTINUOUS
 62
     7
100
AcDbCircle
 10
4.0369513565
 20
-13.1501349551
 30
0.0
 40
0.1050000000000022
  0
CIRCLE
  5
29F
330
1F
100
AcDbEntity
  8
0
  6
CONTINUOUS
 62
     7
100
AcDbCircle
 10
4.0369513565
 20
-13.8760209551
 30
0.0
 40
0.1049999999999986
  0
CIRCLE
  5
2A0
330
1F
100
AcDbEntity
  8
0
  6
CONTINUOUS
 62
     7
100
AcDbCircle
 10
6.2651513565
 20
-15.4518349157
 30
0.0
 40
0.0719999999999983
  0
CIRCLE
  5
2A1
330
1F
100
AcDbEntity
  8
0
  6
CONTINUOUS
 62
     7
100
AcDbCircle
 10
6.2651513565
 20
-8.7518349157
 30
0.0
 40
0.072000000000001
  0
CIRCLE
  5
2B4
330
1F
100
AcDbEntity
  8
0
  6
CONTINUOUS
 62
     7
100
AcDbCircle
 10
6.2700903364
 20
-10.0278842999
 30
0.0
 40
0.0682021678371179
  0
CIRCLE
  5
2B5
330
1F
100
AcDbEntity
  8
0
  6
CONTINUOUS
 62
     7
100
AcDbCircle
 10
6.2698642699
 20
-8.9852349157
 30
0.0
 40
0.0688976377952768
  0
LINE
  5
2B6
330
1F
100
AcDbEntity
  8
0
  6
CONTINUOUS
 62
     7
100
AcDbLine
 10
15.3950408565
 20
-14.1664349157
 30
0.0
 11
14.9422298565
 21
-14.1664349157
 31
0.0
  0
LINE
  5
2B7
330
1F
100
AcDbEntity
  8
0
  6
CONTINUOUS
 62
     7
100
AcDbLine
 10
15.4245408565
 20
-14.6487459157
 30
0.0
 11
15.4245408565
 21
-14.1959349157
 31
0.0
  0
LINE
  5
2B8
330
1F
100
AcDbEntity
  8
0
  6
CONTINUOUS
 62
     7
100
AcDbLine
 10
14.9422298565
 20
-14.6782459157
 30
0.0
 11
15.3950408565
 21
-14.6782459157
 31
0.0
  0
LINE
  5
2B9
330
1F
100
AcDbEntity
  8
0
  6
CONTINUOUS
 62
     7
100
AcDbLine
 10
14.9127298565
 20
-14.1959349157
 30
0.0
 11
14.9127298565
 21
-14.6487459157
 31
0.0
  0
LINE
  5
2BA
330
1F
100
AcDbEntity
  8
0
  6
CONTINUOUS
 62
     7
100
AcDbLine
 10
16.1209268565
 20
-14.1664349157
 30
0.0
 11
15.6681158565
 21
-14.1664349157
 31
0.0
  0
LINE
  5
2BB
330
1F
100
AcDbEntity
  8
0
  6
CONTINUOUS
 62
     7
100
AcDbLine
 10
16.1504268565
 20
-14.6487459157
 30
0.0
 11
16.1504268565
 21
-14.1959349157
 31
0.0
  0
LINE
  5
2BC
330
1F
100
AcDbEntity
  8
0
  6
CONTINUOUS
 62
     7
100
AcDbLine
 10
15.6681158565
 20
-14.6782459157
 30
0.0
 11
16.1209268565
 21
-14.6782459157
 31
0.0
  0
LINE
  5
2BD
330
1F
100
AcDbEntity
  8
0
  6
CONTINUOUS
 62
     7
100
AcDbLine
 10
15.6386158565
 20
-14.1959349157
 30
0.0
 11
15.6386158565
 21
-14.6487459157
 31
0.0
  0
LINE
  5
2BE
330
1F
100
AcDbEntity
  8
0
  6
CONTINUOUS
 62
     7
100
AcDbLine
 10
16.8468128565
 20
-14.1664349157
 30
0.0
 11
16.3940018565
 21
-14.1664349157
 31
0.0
  0
LINE
  5
2BF
330
1F
100
AcDbEntity
  8
0
  6
CONTINUOUS
 62
     7
100
AcDbLine
 10
16.8763128565
 20
-14.6487459157
 30
0.0
 11
16.8763128565
 21
-14.1959349157
 31
0.0
  0
LINE
  5
2C0
330
1F
100
AcDbEntity
  8
0
  6
CONTINUOUS
 62
     7
100
AcDbLine
 10
16.3940018565
 20
-14.6782459157
 30
0.0
 11
16.8468128565
 21
-14.6782459157
 31
0.0
  0
LINE
  5
2C1
330
1F
100
AcDbEntity
  8
0
  6
CONTINUOUS
 62
     7
100
AcDbLine
 10
16.3645018565
 20
-14.1959349157
 30
0.0
 11
16.3645018565
 21
-14.6487459157
 31
0.0
  0
LINE
  5
2C2
330
1F
100
AcDbEntity
  8
0
  6
CONTINUOUS
 62
     7
100
AcDbLine
 10
17.5726988565
 20
-14.1664349157
 30
0.0
 11
17.1198878565
 21
-14.1664349157
 31
0.0
  0
LINE
  5
2C3
330
1F
100
AcDbEntity
  8
0
  6
CONTINUOUS
 62
     7
100
AcDbLine
 10
17.6021988565
 20
-14.6487459157
 30
0.0
 11
17.6021988565
 21
-14.1959349157
 31
0.0
  0
LINE
  5
2C4
330
1F
100
AcDbEntity
  8
0
  6
CONTINUOUS
 62
     7
100
AcDbLine
 10
17.1198878565
 20
-14.6782459157
 30
0.0
 11
17.5726988565
 21
-14.6782459157
 31
0.0
  0
LINE
  5
2C5
330
1F
100
AcDbEntity
  8
0
  6
CONTINUOUS
 62
     7
100
AcDbLine
 10
17.0903878565
 20
-14.1959349157
 30
0.0
 11
17.0903878565
 21
-14.6487459157
 31
0.0
  0
LINE
  5
2C6
330
1F
100
AcDbEntity
  8
0
  6
CONTINUOUS
 62
     7
100
AcDbLine
 10
18.2985848565
 20
-14.1664349157
 30
0.0
 11
17.8457738565
 21
-14.1664349157
 31
0.0
  0
LINE
  5
2C7
330
1F
100
AcDbEntity
  8
0
  6
CONTINUOUS
 62
     7
100
AcDbLine
 10
18.3280848565
 20
-14.6487459157
 30
0.0
 11
18.3280848565
 21
-14.1959349157
 31
0.0
  0
LINE
  5
2C8
330
1F
100
AcDbEntity
  8
0
  6
CONTINUOUS
 62
     7
100
AcDbLine
 10
17.8457738565
 20
-14.6782459157
 30
0.0
 11
18.2985848565
 21
-14.6782459157
 31
0.0
  0
LINE
  5
2C9
330
1F
100
AcDbEntity
  8
0
  6
CONTINUOUS
 62
     7
100
AcDbLine
 10
17.8162738565
 20
-14.1959349157
 30
0.0
 11
17.8162738565
 21
-14.6487459157
 31
0.0
  0
LINE
  5
2CA
330
1F
100
AcDbEntity
  8
0
  6
CONTINUOUS
 62
     7
100
AcDbLine
 10
19.0244708565
 20
-14.1664349157
 30
0.0
 11
18.5716598565
 21
-14.1664349157
 31
0.0
  0
LINE
  5
2CB
330
1F
100
AcDbEntity
  8
0
  6
CONTINUOUS
 62
     7
100
AcDbLine
 10
19.0539708565
 20
-14.6487459157
 30
0.0
 11
19.0539708565
 21
-14.1959349157
 31
0.0
  0
LINE
  5
2CC
330
1F
100
AcDbEntity
  8
0
  6
CONTINUOUS
 62
     7
100
AcDbLine
 10
18.5716598565
 20
-14.6782459157
 30
0.0
 11
19.0244708565
 21
-14.6782459157
 31
0.0
  0
LINE
  5
2CD
330
1F
100
AcDbEntity
  8
0
  6
CONTINUOUS
 62
     7
100
AcDbLine
 10
18.5421598565
 20
-14.1959349157
 30
0.0
 11
18.5421598565
 21
-14.6487459157
 31
0.0
  0
LINE
  5
2CE
330
1F
100
AcDbEntity
  8
0
  6
CONTINUOUS
 62
     7
100
AcDbLine
 10
19.7503568565
 20
-14.1664349157
 30
0.0
 11
19.2975458565
 21
-14.1664349157
 31
0.0
  0
LINE
  5
2CF
330
1F
100
AcDbEntity
  8
0
  6
CONTINUOUS
 62
     7
100
AcDbLine
 10
19.7798568565
 20
-14.6487459157
 30
0.0
 11
19.7798568565
 21
-14.1959349157
 31
0.0
  0
LINE
  5
2D0
330
1F
100
AcDbEntity
  8
0
  6
CONTINUOUS
 62
     7
100
AcDbLine
 10
19.2975458565
 20
-14.6782459157
 30
0.0
 11
19.7503568565
 21
-14.6782459157
 31
0.0
  0
LINE
  5
2D1
330
1F
100
AcDbEntity
  8
0
  6
CONTINUOUS
 62
     7
100
AcDbLine
 10
19.2680458565
 20
-14.1959349157
 30
0.0
 11
19.2680458565
 21
-14.6487459157
 31
0.0
  0
LINE
  5
2D2
330
1F
100
AcDbEntity
  8
0
  6
CONTINUOUS
 62
     7
100
AcDbLine
 10
15.3950408565
 20
-13.0414349157
 30
0.0
 11
14.9422298565
 21
-13.0414349157
 31
0.0
  0
LINE
  5
2D3
330
1F
100
AcDbEntity
  8
0
  6
CONTINUOUS
 62
     7
100
AcDbLine
 10
15.4245408565
 20
-13.5237459157
 30
0.0
 11
15.4245408565
 21
-13.0709349157
 31
0.0
  0
LINE
  5
2D4
330
1F
100
AcDbEntity
  8
0
  6
CONTINUOUS
 62
     7
100
AcDbLine
 10
14.9422298565
 20
-13.5532459157
 30
0.0
 11
15.3950408565
 21
-13.5532459157
 31
0.0
  0
LINE
  5
2D5
330
1F
100
AcDbEntity
  8
0
  6
CONTINUOUS
 62
     7
100
AcDbLine
 10
14.9127298565
 20
-13.0709349157
 30
0.0
 11
14.9127298565
 21
-13.5237459157
 31
0.0
  0
LINE
  5
2D6
330
1F
100
AcDbEntity
  8
0
  6
CONTINUOUS
 62
     7
100
AcDbLine
 10
16.1209268565
 20
-13.0414349157
 30
0.0
 11
15.6681158565
 21
-13.0414349157
 31
0.0
  0
LINE
  5
2D7
330
1F
100
AcDbEntity
  8
0
  6
CONTINUOUS
 62
     7
100
AcDbLine
 10
16.1504268565
 20
-13.5237459157
 30
0.0
 11
16.1504268565
 21
-13.0709349157
 31
0.0
  0
LINE
  5
2D8
330
1F
100
AcDbEntity
  8
0
  6
CONTINUOUS
 62
     7
100
AcDbLine
 10
15.6681158565
 20
-13.5532459157
 30
0.0
 11
16.1209268565
 21
-13.5532459157
 31
0.0
  0
LINE
  5
2D9
330
1F
100
AcDbEntity
  8
0
  6
CONTINUOUS
 62
     7
100
AcDbLine
 10
15.6386158565
 20
-13.0709349157
 30
0.0
 11
15.6386158565
 21
-13.5237459157
 31
0.0
  0
LINE
  5
2DA
330
1F
100
AcDbEntity
  8
0
  6
CONTINUOUS
 62
     7
100
AcDbLine
 10
16.8468128565
 20
-13.0414349157
 30
0.0
 11
16.3940018565
 21
-13.0414349157
 31
0.0
  0
LINE
  5
2DB
330
1F
100
AcDbEntity
  8
0
  6
CONTINUOUS
 62
     7
100
AcDbLine
 10
16.8763128565
 20
-13.5237459157
 30
0.0
 11
16.8763128565
 21
-13.0709349157
 31
0.0
  0
LINE
  5
2DC
330
1F
100
AcDbEntity
  8
0
  6
CONTINUOUS
 62
     7
100
AcDbLine
 10
16.3940018565
 20
-13.5532459157
 30
0.0
 11
16.8468128565
 21
-13.5532459157
 31
0.0
  0
LINE
  5
2DD
330
1F
100
AcDbEntity
  8
0
  6
CONTINUOUS
 62
     7
100
AcDbLine
 10
16.3645018565
 20
-13.0709349157
 30
0.0
 11
16.3645018565
 21
-13.5237459157
 31
0.0
  0
LINE
  5
2DE
330
1F
100
AcDbEntity
  8
0
  6
CONTINUOUS
 62
     7
100
AcDbLine
 10
17.5726988565
 20
-13.0414349157
 30
0.0
 11
17.1198878565
 21
-13.0414349157
 31
0.0
  0
LINE
  5
2DF
330
1F
100
AcDbEntity
  8
0
  6
CONTINUOUS
 62
     7
100
AcDbLine
 10
17.6021988565
 20
-13.5237459157
 30
0.0
 11
17.6021988565
 21
-13.0709349157
 31
0.0
  0
LINE
  5
2E0
330
1F
100
AcDbEntity
  8
0
  6
CONTINUOUS
 62
     7
100
AcDbLine
 10
17.1198878565
 20
-13.5532459157
 30
0.0
 11
17.5726988565
 21
-13.5532459157
 31
0.0
  0
LINE
  5
2E1
330
1F
100
AcDbEntity
  8
0
  6
CONTINUOUS
 62
     7
100
AcDbLine
 10
17.0903878565
 20
-13.0709349157
 30
0.0
 11
17.0903878565
 21
-13.5237459157
 31
0.0
  0
LINE
  5
2E2
330
1F
100
AcDbEntity
  8
0
  6
CONTINUOUS
 62
     7
100
AcDbLine
 10
18.2985848565
 20
-13.0414349157
 30
0.0
 11
17.8457738565
 21
-13.0414349157
 31
0.0
  0
LINE
  5
2E3
330
1F
100
AcDbEntity
  8
0
  6
CONTINUOUS
 62
     7
100
AcDbLine
 10
18.3280848565
 20
-13.5237459157
 30
0.0
 11
18.3280848565
 21
-13.0709349157
 31
0.0
  0
LINE
  5
2E4
330
1F
100
AcDbEntity
  8
0
  6
CONTINUOUS
 62
     7
100
AcDbLine
 10
17.8457738565
 20
-13.5532459157
 30
0.0
 11
18.2985848565
 21
-13.5532459157
 31
0.0
  0
LINE
  5
2E5
330
1F
100
AcDbEntity
  8
0
  6
CONTINUOUS
 62
     7
100
AcDbLine
 10
17.8162738565
 20
-13.0709349157
 30
0.0
 11
17.8162738565
 21
-13.5237459157
 31
0.0
  0
LINE
  5
2E6
330
1F
100
AcDbEntity
  8
0
  6
CONTINUOUS
 62
     7
100
AcDbLine
 10
19.0244708565
 20
-13.0414349157
 30
0.0
 11
18.5716598565
 21
-13.0414349157
 31
0.0
  0
LINE
  5
2E7
330
1F
100
AcDbEntity
  8
0
  6
CONTINUOUS
 62
     7
100
AcDbLine
 10
19.0539708565
 20
-13.5237459157
 30
0.0
 11
19.0539708565
 21
-13.0709349157
 31
0.0
  0
LINE
  5
2E8
330
1F
100
AcDbEntity
  8
0
  6
CONTINUOUS
 62
     7
100
AcDbLine
 10
18.5716598565
 20
-13.5532459157
 30
0.0
 11
19.0244708565
 21
-13.5532459157
 31
0.0
  0
LINE
  5
2E9
330
1F
100
AcDbEntity
  8
0
  6
CONTINUOUS
 62
     7
100
AcDbLine
 10
18.5421598565
 20
-13.0709349157
 30
0.0
 11
18.5421598565
 21
-13.5237459157
 31
0.0
  0
LINE
  5
2EA
330
1F
100
AcDbEntity
  8
0
  6
CONTINUOUS
 62
     7
100
AcDbLine
 10
19.7503568565
 20
-13.0414349157
 30
0.0
 11
19.2975458565
 21
-13.0414349157
 31
0.0
  0
LINE
  5
2EB
330
1F
100
AcDbEntity
  8
0
  6
CONTINUOUS
 62
     7
100
AcDbLine
 10
19.7798568565
 20
-13.5237459157
 30
0.0
 11
19.7798568565
 21
-13.0709349157
 31
0.0
  0
LINE
  5
2EC
330
1F
100
AcDbEntity
  8
0
  6
CONTINUOUS
 62
     7
100
AcDbLine
 10
19.2975458565
 20
-13.5532459157
 30
0.0
 11
19.7503568565
 21
-13.5532459157
 31
0.0
  0
LINE
  5
2ED
330
1F
100
AcDbEntity
  8
0
  6
CONTINUOUS
 62
     7
100
AcDbLine
 10
19.2680458565
 20
-13.0709349157
 30
0.0
 11
19.2680458565
 21
-13.5237459157
 31
0.0
  0
LINE
  5
2EE
330
1F
100
AcDbEntity
  8
0
  6
CONTINUOUS
 62
     7
100
AcDbLine
 10
14.6691548565
 20
-11.9164349157
 30
0.0
 11
14.2163438565
 21
-11.9164349157
 31
0.0
  0
LINE
  5
2EF
330
1F
100
AcDbEntity
  8
0
  6
CONTINUOUS
 62
     7
100
AcDbLine
 10
14.6986548565
 20
-12.3987459157
 30
0.0
 11
14.6986548565
 21
-11.9459349157
 31
0.0
  0
LINE
  5
2F0
330
1F
100
AcDbEntity
  8
0
  6
CONTINUOUS
 62
     7
100
AcDbLine
 10
14.2163438565
 20
-12.4282459157
 30
0.0
 11
14.6691548565
 21
-12.4282459157
 31
0.0
  0
LINE
  5
2F1
330
1F
100
AcDbEntity
  8
0
  6
CONTINUOUS
 62
     7
100
AcDbLine
 10
14.1868438565
 20
-11.9459349157
 30
0.0
 11
14.1868438565
 21
-12.3987459157
 31
0.0
  0
LINE
  5
2F2
330
1F
100
AcDbEntity
  8
0
  6
CONTINUOUS
 62
     7
100
AcDbLine
 10
15.3950408565
 20
-11.9164349157
 30
0.0
 11
14.9422298565
 21
-11.9164349157
 31
0.0
  0
LINE
  5
2F3
330
1F
100
AcDbEntity
  8
0
  6
CONTINUOUS
 62
     7
100
AcDbLine
 10
15.4245408565
 20
-12.3987459157
 30
0.0
 11
15.4245408565
 21
-11.9459349157
 31
0.0
  0
LINE
  5
2F4
330
1F
100
AcDbEntity
  8
0
  6
CONTINUOUS
 62
     7
100
AcDbLine
 10
14.9422298565
 20
-12.4282459157
 30
0.0
 11
15.3950408565
 21
-12.4282459157
 31
0.0
  0
LINE
  5
2F5
330
1F
100
AcDbEntity
  8
0
  6
CONTINUOUS
 62
     7
100
AcDbLine
 10
14.9127298565
 20
-11.9459349157
 30
0.0
 11
14.9127298565
 21
-12.3987459157
 31
0.0
  0
LINE
  5
2F6
330
1F
100
AcDbEntity
  8
0
  6
CONTINUOUS
 62
     7
100
AcDbLine
 10
16.1209268565
 20
-11.9164349157
 30
0.0
 11
15.6681158565
 21
-11.9164349157
 31
0.0
  0
LINE
  5
2F7
330
1F
100
AcDbEntity
  8
0
  6
CONTINUOUS
 62
     7
100
AcDbLine
 10
16.1504268565
 20
-12.3987459157
 30
0.0
 11
16.1504268565
 21
-11.9459349157
 31
0.0
  0
LINE
  5
2F8
330
1F
100
AcDbEntity
  8
0
  6
CONTINUOUS
 62
     7
100
AcDbLine
 10
15.6681158565
 20
-12.4282459157
 30
0.0
 11
16.1209268565
 21
-12.4282459157
 31
0.0
  0
LINE
  5
2F9
330
1F
100
AcDbEntity
  8
0
  6
CONTINUOUS
 62
     7
100
AcDbLine
 10
15.6386158565
 20
-11.9459349157
 30
0.0
 11
15.6386158565
 21
-12.3987459157
 31
0.0
  0
LINE
  5
2FA
330
1F
100
AcDbEntity
  8
0
  6
CONTINUOUS
 62
     7
100
AcDbLine
 10
16.8468128565
 20
-11.9164349157
 30
0.0
 11
16.3940018565
 21
-11.9164349157
 31
0.0
  0
LINE
  5
2FB
330
1F
100
AcDbEntity
  8
0
  6
CONTINUOUS
 62
     7
100
AcDbLine
 10
16.8763128565
 20
-12.3987459157
 30
0.0
 11
16.8763128565
 21
-11.9459349157
 31
0.0
  0
LINE
  5
2FC
330
1F
100
AcDbEntity
  8
0
  6
CONTINUOUS
 62
     7
100
AcDbLine
 10
16.3940018565
 20
-12.4282459157
 30
0.0
 11
16.8468128565
 21
-12.4282459157
 31
0.0
  0
LINE
  5
2FD
330
1F
100
AcDbEntity
  8
0
  6
CONTINUOUS
 62
     7
100
AcDbLine
 10
16.3645018565
 20
-11.9459349157
 30
0.0
 11
16.3645018565
 21
-12.3987459157
 31
0.0
  0
LINE
  5
2FE
330
1F
100
AcDbEntity
  8
0
  6
CONTINUOUS
 62
     7
100
AcDbLine
 10
17.5726988565
 20
-11.9164349157
 30
0.0
 11
17.1198878565
 21
-11.9164349157
 31
0.0
  0
LINE
  5
2FF
330
1F
100
AcDbEntity
  8
0
  6
CONTINUOUS
 62
     7
100
AcDbLine
 10
17.6021988565
 20
-12.3987459157
 30
0.0
 11
17.6021988565
 21
-11.9459349157
 31
0.0
  0
LINE
  5
300
330
1F
100
AcDbEntity
  8
0
  6
CONTINUOUS
 62
     7
100
AcDbLine
 10
17.1198878565
 20
-12.4282459157
 30
0.0
 11
17.5726988565
 21
-12.4282459157
 31
0.0
  0
LINE
  5
301
330
1F
100
AcDbEntity
  8
0
  6
CONTINUOUS
 62
     7
100
AcDbLine
 10
17.0903878565
 20
-11.9459349157
 30
0.0
 11
17.0903878565
 21
-12.3987459157
 31
0.0
  0
LINE
  5
302
330
1F
100
AcDbEntity
  8
0
  6
CONTINUOUS
 62
     7
100
AcDbLine
 10
18.2985848565
 20
-11.9164349157
 30
0.0
 11
17.8457738565
 21
-11.9164349157
 31
0.0
  0
LINE
  5
303
330
1F
100
AcDbEntity
  8
0
  6
CONTINUOUS
 62
     7
100
AcDbLine
 10
18.3280848565
 20
-12.3987459157
 30
0.0
 11
18.3280848565
 21
-11.9459349157
 31
0.0
  0
LINE
  5
304
330
1F
100
AcDbEntity
  8
0
  6
CONTINUOUS
 62
     7
100
AcDbLine
 10
17.8457738565
 20
-12.4282459157
 30
0.0
 11
18.2985848565
 21
-12.4282459157
 31
0.0
  0
LINE
  5
305
330
1F
100
AcDbEntity
  8
0
  6
CONTINUOUS
 62
     7
100
AcDbLine
 10
17.8162738565
 20
-11.9459349157
 30
0.0
 11
17.8162738565
 21
-12.3987459157
 31
0.0
  0
LINE
  5
306
330
1F
100
AcDbEntity
  8
0
  6
CONTINUOUS
 62
     7
100
AcDbLine
 10
2.3531513565
 20
-15.6018349157
 30
0.0
 11
21.3531513565
 21
-15.6018349157
 31
0.0
  0
LINE
  5
307
330
1F
100
AcDbEntity
  8
0
  6
CONTINUOUS
 62
     7
100
AcDbLine
 10
21.3531513565
 20
-15.6018349157
 30
0.0
 11
21.3531513565
 21
-8.6018349157
 31
0.0
  0
LINE
  5
308
330
1F
100
AcDbEntity
  8
0
  6
CONTINUOUS
 62
     7
100
AcDbLine
 10
21.3531513565
 20
-8.6018349157
 30
0.0
 11
2.3531513565
 21
-8.6018349157
 31
0.0
  0
LINE
  5
309
330
1F
100
AcDbEntity
  8
0
  6
CONTINUOUS
 62
     7
100
AcDbLine
 10
6.5966213565
 20
-8.8986349157
 30
0.0
 11
6.5966213565
 21
-10.1151349157
 31
0.0
  0
LINE
  5
30A
330
1F
100
AcDbEntity
  8
0
  6
CONTINUOUS
 62
     7
100
AcDbLine
 10
6.5966213565
 20
-10.1151349157
 30
0.0
 11
13.0297213565
 21
-10.1151349157
 31
0.0
  0
LINE
  5
30B
330
1F
100
AcDbEntity
  8
0
  6
CONTINUOUS
 62
     7
100
AcDbLine
 10
13.0297213565
 20
-10.1151349157
 30
0.0
 11
13.0297213565
 21
-8.8986349157
 31
0.0
  0
LINE
  5
30C
330
1F
100
AcDbEntity
  8
0
  6
CONTINUOUS
 62
     7
100
AcDbLine
 10
13.0297213565
 20
-8.8986349157
 30
0.0
 11
6.5966213565
 21
-8.8986349157
 31
0.0
  0
LINE
  5
30D
330
1F
100
AcDbEntity
  8
0
  6
CONTINUOUS
 62
     7
100
AcDbLine
 10
13.7666213565
 20
-8.8986349157
 30
0.0
 11
13.7666213565
 21
-10.1151349157
 31
0.0
  0
LINE
  5
30E
330
1F
100
AcDbEntity
  8
0
  6
CONTINUOUS
 62
     7
100
AcDbLine
 10
13.7666213565
 20
-10.1151349157
 30
0.0
 11
20.1997213565
 21
-10.1151349157
 31
0.0
  0
LINE
  5
30F
330
1F
100
AcDbEntity
  8
0
  6
CONTINUOUS
 62
     7
100
AcDbLine
 10
20.1997213565
 20
-10.1151349157
 30
0.0
 11
20.1997213565
 21
-8.8986349157
 31
0.0
  0
LINE
  5
310
330
1F
100
AcDbEntity
  8
0
  6
CONTINUOUS
 62
     7
100
AcDbLine
 10
20.1997213565
 20
-8.8986349157
 30
0.0
 11
13.7666213565
 21
-8.8986349157
 31
0.0
  0
LINE
  5
311
330
1F
100
AcDbEntity
  8
0
  6
CONTINUOUS
 62
     7
100
AcDbLine
 10
7.4990292565
 20
-11.9164294157
 30
0.0
 11
7.0462734565
 21
-11.9164294157
 31
0.0
  0
LINE
  5
312
330
1F
100
AcDbEntity
  8
0
  6
CONTINUOUS
 62
     7
100
AcDbLine
 10
7.0167458565
 20
-11.9459570157
 30
0.0
 11
7.0167458565
 21
-12.3987128157
 31
0.0
  0
LINE
  5
313
330
1F
100
AcDbEntity
  8
0
  6
CONTINUOUS
 62
     7
100
AcDbLine
 10
7.0462734565
 20
-12.4282404157
 30
0.0
 11
7.4990292565
 21
-12.4282404157
 31
0.0
  0
LINE
  5
314
330
1F
100
AcDbEntity
  8
0
  6
CONTINUOUS
 62
     7
100
AcDbLine
 10
7.5285568565
 20
-12.3987128157
 30
0.0
 11
7.5285568565
 21
-11.9459570157
 31
0.0
  0
LINE
  5
315
330
1F
100
AcDbEntity
  8
0
  6
CONTINUOUS
 62
     7
100
AcDbLine
 10
7.4990292565
 20
-13.0414294157
 30
0.0
 11
7.0462734565
 21
-13.0414294157
 31
0.0
  0
LINE
  5
316
330
1F
100
AcDbEntity
  8
0
  6
CONTINUOUS
 62
     7
100
AcDbLine
 10
7.0167458565
 20
-13.0709570157
 30
0.0
 11
7.0167458565
 21
-13.5237128157
 31
0.0
  0
LINE
  5
317
330
1F
100
AcDbEntity
  8
0
  6
CONTINUOUS
 62
     7
100
AcDbLine
 10
7.0462734565
 20
-13.5532404157
 30
0.0
 11
7.4990292565
 21
-13.5532404157
 31
0.0
  0
LINE
  5
318
330
1F
100
AcDbEntity
  8
0
  6
CONTINUOUS
 62
     7
100
AcDbLine
 10
7.5285568565
 20
-13.5237128157
 30
0.0
 11
7.5285568565
 21
-13.0709570157
 31
0.0
  0
LINE
  5
319
330
1F
100
AcDbEntity
  8
0
  6
CONTINUOUS
 62
     7
100
AcDbLine
 10
7.4990292565
 20
-14.1664294157
 30
0.0
 11
7.0462734565
 21
-14.1664294157
 31
0.0
  0
LINE
  5
31A
330
1F
100
AcDbEntity
  8
0
  6
CONTINUOUS
 62
     7
100
AcDbLine
 10
7.0167458565
 20
-14.1959570157
 30
0.0
 11
7.0167458565
 21
-14.6487128157
 31
0.0
  0
LINE
  5
31B
330
1F
100
AcDbEntity
  8
0
  6
CONTINUOUS
 62
     7
100
AcDbLine
 10
7.0462734565
 20
-14.6782404157
 30
0.0
 11
7.4990292565
 21
-14.6782404157
 31
0.0
  0
LINE
  5
31C
330
1F
100
AcDbEntity
  8
0
  6
CONTINUOUS
 62
     7
100
AcDbLine
 10
7.5285568565
 20
-14.6487128157
 30
0.0
 11
7.5285568565
 21
-14.1959570157
 31
0.0
  0
LINE
  5
31D
330
1F
100
AcDbEntity
  8
0
  6
CONTINUOUS
 62
     7
100
AcDbLine
 10
8.2249152565
 20
-11.9164294157
 30
0.0
 11
7.7721594565
 21
-11.9164294157
 31
0.0
  0
LINE
  5
31E
330
1F
100
AcDbEntity
  8
0
  6
CONTINUOUS
 62
     7
100
AcDbLine
 10
7.7426318565
 20
-11.9459570157
 30
0.0
 11
7.7426318565
 21
-12.3987128157
 31
0.0
  0
LINE
  5
31F
330
1F
100
AcDbEntity
  8
0
  6
CONTINUOUS
 62
     7
100
AcDbLine
 10
7.7721594565
 20
-12.4282404157
 30
0.0
 11
8.2249152565
 21
-12.4282404157
 31
0.0
  0
LINE
  5
320
330
1F
100
AcDbEntity
  8
0
  6
CONTINUOUS
 62
     7
100
AcDbLine
 10
8.2544428565
 20
-12.3987128157
 30
0.0
 11
8.2544428565
 21
-11.9459570157
 31
0.0
  0
LINE
  5
321
330
1F
100
AcDbEntity
  8
0
  6
CONTINUOUS
 62
     7
100
AcDbLine
 10
8.2249152565
 20
-13.0414294157
 30
0.0
 11
7.7721594565
 21
-13.0414294157
 31
0.0
  0
LINE
  5
322
330
1F
100
AcDbEntity
  8
0
  6
CONTINUOUS
 62
     7
100
AcDbLine
 10
7.7426318565
 20
-13.0709570157
 30
0.0
 11
7.7426318565
 21
-13.5237128157
 31
0.0
  0
LINE
  5
323
330
1F
100
AcDbEntity
  8
0
  6
CONTINUOUS
 62
     7
100
AcDbLine
 10
7.7721594565
 20
-13.5532404157
 30
0.0
 11
8.2249152565
 21
-13.5532404157
 31
0.0
  0
LINE
  5
324
330
1F
100
AcDbEntity
  8
0
  6
CONTINUOUS
 62
     7
100
AcDbLine
 10
8.2544428565
 20
-13.5237128157
 30
0.0
 11
8.2544428565
 21
-13.0709570157
 31
0.0
  0
LINE
  5
325
330
1F
100
AcDbEntity
  8
0
  6
CONTINUOUS
 62
     7
100
AcDbLine
 10
8.2249152565
 20
-14.1664294157
 30
0.0
 11
7.7721594565
 21
-14.1664294157
 31
0.0
  0
LINE
  5
326
330
1F
100
AcDbEntity
  8
0
  6
CONTINUOUS
 62
     7
100
AcDbLine
 10
7.7426318565
 20
-14.1959570157
 30
0.0
 11
7.7426318565
 21
-14.6487128157
 31
0.0
  0
LINE
  5
327
330
1F
100
AcDbEntity
  8
0
  6
CONTINUOUS
 62
     7
100
AcDbLine
 10
7.7721594565
 20
-14.6782404157
 30
0.0
 11
8.2249152565
 21
-14.6782404157
 31
0.0
  0
LINE
  5
328
330
1F
100
AcDbEntity
  8
0
  6
CONTINUOUS
 62
     7
100
AcDbLine
 10
8.2544428565
 20
-14.6487128157
 30
0.0
 11
8.2544428565
 21
-14.1959570157
 31
0.0
  0
LINE
  5
329
330
1F
100
AcDbEntity
  8
0
  6
CONTINUOUS
 62
     7
100
AcDbLine
 10
8.9508012565
 20
-11.9164294157
 30
0.0
 11
8.4980454565
 21
-11.9164294157
 31
0.0
  0
LINE
  5
32A
330
1F
100
AcDbEntity
  8
0
  6
CONTINUOUS
 62
     7
100
AcDbLine
 10
8.4685178565
 20
-11.9459570157
 30
0.0
 11
8.4685178565
 21
-12.3987128157
 31
0.0
  0
LINE
  5
32B
330
1F
100
AcDbEntity
  8
0
  6
CONTINUOUS
 62
     7
100
AcDbLine
 10
8.4980454565
 20
-12.4282404157
 30
0.0
 11
8.9508012565
 21
-12.4282404157
 31
0.0
  0
LINE
  5
32C
330
1F
100
AcDbEntity
  8
0
  6
CONTINUOUS
 62
     7
100
AcDbLine
 10
8.9803288565
 20
-12.3987128157
 30
0.0
 11
8.9803288565
 21
-11.9459570157
 31
0.0
  0
LINE
  5
32D
330
1F
100
AcDbEntity
  8
0
  6
CONTINUOUS
 62
     7
100
AcDbLine
 10
8.9508012565
 20
-13.0414294157
 30
0.0
 11
8.4980454565
 21
-13.0414294157
 31
0.0
  0
LINE
  5
32E
330
1F
100
AcDbEntity
  8
0
  6
CONTINUOUS
 62
     7
100
AcDbLine
 10
8.4685178565
 20
-13.0709570157
 30
0.0
 11
8.4685178565
 21
-13.5237128157
 31
0.0
  0
LINE
  5
32F
330
1F
100
AcDbEntity
  8
0
  6
CONTINUOUS
 62
     7
100
AcDbLine
 10
8.4980454565
 20
-13.5532404157
 30
0.0
 11
8.9508012565
 21
-13.5532404157
 31
0.0
  0
LINE
  5
330
330
1F
100
AcDbEntity
  8
0
  6
CONTINUOUS
 62
     7
100
AcDbLine
 10
8.9803288565
 20
-13.5237128157
 30
0.0
 11
8.9803288565
 21
-13.0709570157
 31
0.0
  0
LINE
  5
331
330
1F
100
AcDbEntity
  8
0
  6
CONTINUOUS
 62
     7
100
AcDbLine
 10
8.9508012565
 20
-14.1664294157
 30
0.0
 11
8.4980454565
 21
-14.1664294157
 31
0.0
  0
LINE
  5
332
330
1F
100
AcDbEntity
  8
0
  6
CONTINUOUS
 62
     7
100
AcDbLine
 10
8.4685178565
 20
-14.1959570157
 30
0.0
 11
8.4685178565
 21
-14.6487128157
 31
0.0
  0
LINE
  5
333
330
1F
100
AcDbEntity
  8
0
  6
CONTINUOUS
 62
     7
100
AcDbLine
 10
8.4980454565
 20
-14.6782404157
 30
0.0
 11
8.9508012565
 21
-14.6782404157
 31
0.0
  0
LINE
  5
334
330
1F
100
AcDbEntity
  8
0
  6
CONTINUOUS
 62
     7
100
AcDbLine
 10
8.9803288565
 20
-14.6487128157
 30
0.0
 11
8.9803288565
 21
-14.1959570157
 31
0.0
  0
LINE
  5
335
330
1F
100
AcDbEntity
  8
0
  6
CONTINUOUS
 62
     7
100
AcDbLine
 10
9.6766872565
 20
-11.9164294157
 30
0.0
 11
9.2239314565
 21
-11.9164294157
 31
0.0
  0
LINE
  5
336
330
1F
100
AcDbEntity
  8
0
  6
CONTINUOUS
 62
     7
100
AcDbLine
 10
9.1944038565
 20
-11.9459570157
 30
0.0
 11
9.1944038565
 21
-12.3987128157
 31
0.0
  0
LINE
  5
337
330
1F
100
AcDbEntity
  8
0
  6
CONTINUOUS
 62
     7
100
AcDbLine
 10
9.2239314565
 20
-12.4282404157
 30
0.0
 11
9.6766872565
 21
-12.4282404157
 31
0.0
  0
LINE
  5
338
330
1F
100
AcDbEntity
  8
0
  6
CONTINUOUS
 62
     7
100
AcDbLine
 10
9.7062148565
 20
-12.3987128157
 30
0.0
 11
9.7062148565
 21
-11.9459570157
 31
0.0
  0
LINE
  5
339
330
1F
100
AcDbEntity
  8
0
  6
CONTINUOUS
 62
     7
100
AcDbLine
 10
9.6766872565
 20
-13.0414294157
 30
0.0
 11
9.2239314565
 21
-13.0414294157
 31
0.0
  0
LINE
  5
33A
330
1F
100
AcDbEntity
  8
0
  6
CONTINUOUS
 62
     7
100
AcDbLine
 10
9.1944038565
 20
-13.0709570157
 30
0.0
 11
9.1944038565
 21
-13.5237128157
 31
0.0
  0
LINE
  5
33B
330
1F
100
AcDbEntity
  8
0
  6
CONTINUOUS
 62
     7
100
AcDbLine
 10
9.2239314565
 20
-13.5532404157
 30
0.0
 11
9.6766872565
 21
-13.5532404157
 31
0.0
  0
LINE
  5
33C
330
1F
100
AcDbEntity
  8
0
  6
CONTINUOUS
 62
     7
100
AcDbLine
 10
9.7062148565
 20
-13.5237128157
 30
0.0
 11
9.7062148565
 21
-13.0709570157
 31
0.0
  0
LINE
  5
33D
330
1F
100
AcDbEntity
  8
0
  6
CONTINUOUS
 62
     7
100
AcDbLine
 10
9.6766872565
 20
-14.1664294157
 30
0.0
 11
9.2239314565
 21
-14.1664294157
 31
0.0
  0
LINE
  5
33E
330
1F
100
AcDbEntity
  8
0
  6
CONTINUOUS
 62
     7
100
AcDbLine
 10
9.1944038565
 20
-14.1959570157
 30
0.0
 11
9.1944038565
 21
-14.6487128157
 31
0.0
  0
LINE
  5
33F
330
1F
100
AcDbEntity
  8
0
  6
CONTINUOUS
 62
     7
100
AcDbLine
 10
9.2239314565
 20
-14.6782404157
 30
0.0
 11
9.6766872565
 21
-14.6782404157
 31
0.0
  0
LINE
  5
340
330
1F
100
AcDbEntity
  8
0
  6
CONTINUOUS
 62
     7
100
AcDbLine
 10
9.7062148565
 20
-14.6487128157
 30
0.0
 11
9.7062148565
 21
-14.1959570157
 31
0.0
  0
LINE
  5
341
330
1F
100
AcDbEntity
  8
0
  6
CONTINUOUS
 62
     7
100
AcDbLine
 10
10.4025732565
 20
-11.9164294157
 30
0.0
 11
9.9498174565
 21
-11.9164294157
 31
0.0
  0
LINE
  5
342
330
1F
100
AcDbEntity
  8
0
  6
CONTINUOUS
 62
     7
100
AcDbLine
 10
9.9202898565
 20
-11.9459570157
 30
0.0
 11
9.9202898565
 21
-12.3987128157
 31
0.0
  0
LINE
  5
343
330
1F
100
AcDbEntity
  8
0
  6
CONTINUOUS
 62
     7
100
AcDbLine
 10
9.9498174565
 20
-12.4282404157
 30
0.0
 11
10.4025732565
 21
-12.4282404157
 31
0.0
  0
LINE
  5
344
330
1F
100
AcDbEntity
  8
0
  6
CONTINUOUS
 62
     7
100
AcDbLine
 10
10.4321008565
 20
-12.3987128157
 30
0.0
 11
10.4321008565
 21
-11.9459570157
 31
0.0
  0
LINE
  5
345
330
1F
100
AcDbEntity
  8
0
  6
CONTINUOUS
 62
     7
100
AcDbLine
 10
10.4025732565
 20
-14.1664294157
 30
0.0
 11
9.9498174565
 21
-14.1664294157
 31
0.0
  0
LINE
  5
346
330
1F
100
AcDbEntity
  8
0
  6
CONTINUOUS
 62
     7
100
AcDbLine
 10
9.9202898565
 20
-14.1959570157
 30
0.0
 11
9.9202898565
 21
-14.6487128157
 31
0.0
  0
LINE
  5
347
330
1F
100
AcDbEntity
  8
0
  6
CONTINUOUS
 62
     7
100
AcDbLine
 10
9.9498174565
 20
-14.6782404157
 30
0.0
 11
10.4025732565
 21
-14.6782404157
 31
0.0
  0
LINE
  5
348
330
1F
100
AcDbEntity
  8
0
  6
CONTINUOUS
 62
     7
100
AcDbLine
 10
10.4321008565
 20
-14.6487128157
 30
0.0
 11
10.4321008565
 21
-14.1959570157
 31
0.0
  0
LINE
  5
349
330
1F
100
AcDbEntity
  8
0
  6
CONTINUOUS
 62
     7
100
AcDbLine
 10
11.1284592565
 20
-11.9164294157
 30
0.0
 11
10.6757034565
 21
-11.9164294157
 31
0.0
  0
LINE
  5
34A
330
1F
100
AcDbEntity
  8
0
  6
CONTINUOUS
 62
     7
100
AcDbLine
 10
10.6461758565
 20
-11.9459570157
 30
0.0
 11
10.6461758565
 21
-12.3987128157
 31
0.0
  0
LINE
  5
34B
330
1F
100
AcDbEntity
  8
0
  6
CONTINUOUS
 62
     7
100
AcDbLine
 10
10.6757034565
 20
-12.4282404157
 30
0.0
 11
11.1284592565
 21
-12.4282404157
 31
0.0
  0
LINE
  5
34C
330
1F
100
AcDbEntity
  8
0
  6
CONTINUOUS
 62
     7
100
AcDbLine
 10
11.1579868565
 20
-12.3987128157
 30
0.0
 11
11.1579868565
 21
-11.9459570157
 31
0.0
  0
LINE
  5
34D
330
1F
100
AcDbEntity
  8
0
  6
CONTINUOUS
 62
     7
100
AcDbLine
 10
11.1284592565
 20
-13.0414294157
 30
0.0
 11
10.6757034565
 21
-13.0414294157
 31
0.0
  0
LINE
  5
34E
330
1F
100
AcDbEntity
  8
0
  6
CONTINUOUS
 62
     7
100
AcDbLine
 10
10.6461758565
 20
-13.0709570157
 30
0.0
 11
10.6461758565
 21
-13.5237128157
 31
0.0
  0
LINE
  5
34F
330
1F
100
AcDbEntity
  8
0
  6
CONTINUOUS
 62
     7
100
AcDbLine
 10
10.6757034565
 20
-13.5532404157
 30
0.0
 11
11.1284592565
 21
-13.5532404157
 31
0.0
  0
LINE
  5
350
330
1F
100
AcDbEntity
  8
0
  6
CONTINUOUS
 62
     7
100
AcDbLine
 10
11.1579868565
 20
-13.5237128157
 30
0.0
 11
11.1579868565
 21
-13.0709570157
 31
0.0
  0
LINE
  5
351
330
1F
100
AcDbEntity
  8
0
  6
CONTINUOUS
 62
     7
100
AcDbLine
 10
11.1284592565
 20
-14.1664294157
 30
0.0
 11
10.6757034565
 21
-14.1664294157
 31
0.0
  0
LINE
  5
352
330
1F
100
AcDbEntity
  8
0
  6
CONTINUOUS
 62
     7
100
AcDbLine
 10
10.6461758565
 20
-14.1959570157
 30
0.0
 11
10.6461758565
 21
-14.6487128157
 31
0.0
  0
LINE
  5
353
330
1F
100
AcDbEntity
  8
0
  6
CONTINUOUS
 62
     7
100
AcDbLine
 10
10.6757034565
 20
-14.6782404157
 30
0.0
 11
11.1284592565
 21
-14.6782404157
 31
0.0
  0
LINE
  5
354
330
1F
100
AcDbEntity
  8
0
  6
CONTINUOUS
 62
     7
100
AcDbLine
 10
11.1579868565
 20
-14.6487128157
 30
0.0
 11
11.1579868565
 21
-14.1959570157
 31
0.0
  0
LINE
  5
355
330
1F
100
AcDbEntity
  8
0
  6
CONTINUOUS
 62
     7
100
AcDbLine
 10
11.8543452565
 20
-11.9164294157
 30
0.0
 11
11.4015894565
 21
-11.9164294157
 31
0.0
  0
LINE
  5
356
330
1F
100
AcDbEntity
  8
0
  6
CONTINUOUS
 62
     7
100
AcDbLine
 10
11.3720618565
 20
-11.9459570157
 30
0.0
 11
11.3720618565
 21
-12.3987128157
 31
0.0
  0
LINE
  5
357
330
1F
100
AcDbEntity
  8
0
  6
CONTINUOUS
 62
     7
100
AcDbLine
 10
11.4015894565
 20
-12.4282404157
 30
0.0
 11
11.8543452565
 21
-12.4282404157
 31
0.0
  0
LINE
  5
358
330
1F
100
AcDbEntity
  8
0
  6
CONTINUOUS
 62
     7
100
AcDbLine
 10
11.8838728565
 20
-12.3987128157
 30
0.0
 11
11.8838728565
 21
-11.9459570157
 31
0.0
  0
LINE
  5
359
330
1F
100
AcDbEntity
  8
0
  6
CONTINUOUS
 62
     7
100
AcDbLine
 10
11.8543452565
 20
-13.0414294157
 30
0.0
 11
11.4015894565
 21
-13.0414294157
 31
0.0
  0
LINE
  5
35A
330
1F
100
AcDbEntity
  8
0
  6
CONTINUOUS
 62
     7
100
AcDbLine
 10
11.3720618565
 20
-13.0709570157
 30
0.0
 11
11.3720618565
 21
-13.5237128157
 31
0.0
  0
LINE
  5
35B
330
1F
100
AcDbEntity
  8
0
  6
CONTINUOUS
 62
     7
100
AcDbLine
 10
11.4015894565
 20
-13.5532404157
 30
0.0
 11
11.8543452565
 21
-13.5532404157
 31
0.0
  0
LINE
  5
35C
330
1F
100
AcDbEntity
  8
0
  6
CONTINUOUS
 62
     7
100
AcDbLine
 10
11.8838728565
 20
-13.5237128157
 30
0.0
 11
11.8838728565
 21
-13.0709570157
 31
0.0
  0
LINE
  5
35D
330
1F
100
AcDbEntity
  8
0
  6
CONTINUOUS
 62
     7
100
AcDbLine
 10
11.8543452565
 20
-14.1664294157
 30
0.0
 11
11.4015894565
 21
-14.1664294157
 31
0.0
  0
LINE
  5
35E
330
1F
100
AcDbEntity
  8
0
  6
CONTINUOUS
 62
     7
100
AcDbLine
 10
11.3720618565
 20
-14.1959570157
 30
0.0
 11
11.3720618565
 21
-14.6487128157
 31
0.0
  0
LINE
  5
35F
330
1F
100
AcDbEntity
  8
0
  6
CONTINUOUS
 62
     7
100
AcDbLine
 10
11.4015894565
 20
-14.6782404157
 30
0.0
 11
11.8543452565
 21
-14.6782404157
 31
0.0
  0
LINE
  5
360
330
1F
100
AcDbEntity
  8
0
  6
CONTINUOUS
 62
     7
100
AcDbLine
 10
11.8838728565
 20
-14.6487128157
 30
0.0
 11
11.8838728565
 21
-14.1959570157
 31
0.0
  0
LINE
  5
361
330
1F
100
AcDbEntity
  8
0
  6
CONTINUOUS
 62
     7
100
AcDbLine
 10
12.5802312565
 20
-11.9164294157
 30
0.0
 11
12.1274754565
 21
-11.9164294157
 31
0.0
  0
LINE
  5
362
330
1F
100
AcDbEntity
  8
0
  6
CONTINUOUS
 62
     7
100
AcDbLine
 10
12.0979478565
 20
-11.9459570157
 30
0.0
 11
12.0979478565
 21
-12.3987128157
 31
0.0
  0
LINE
  5
363
330
1F
100
AcDbEntity
  8
0
  6
CONTINUOUS
 62
     7
100
AcDbLine
 10
12.1274754565
 20
-12.4282404157
 30
0.0
 11
12.5802312565
 21
-12.4282404157
 31
0.0
  0
LINE
  5
364
330
1F
100
AcDbEntity
  8
0
  6
CONTINUOUS
 62
     7
100
AcDbLine
 10
12.6097588565
 20
-12.3987128157
 30
0.0
 11
12.6097588565
 21
-11.9459570157
 31
0.0
  0
LINE
  5
365
330
1F
100
AcDbEntity
  8
0
  6
CONTINUOUS
 62
     7
100
AcDbLine
 10
19.7503568565
 20
-11.9164349157
 30
0.0
 11
19.2975458565
 21
-11.9164349157
 31
0.0
  0
LINE
  5
366
330
1F
100
AcDbEntity
  8
0
  6
CONTINUOUS
 62
     7
100
AcDbLine
 10
19.2680458565
 20
-11.9459349157
 30
0.0
 11
19.2680458565
 21
-12.3987459157
 31
0.0
  0
LINE
  5
367
330
1F
100
AcDbEntity
  8
0
  6
CONTINUOUS
 62
     7
100
AcDbLine
 10
19.2975458565
 20
-12.4282459157
 30
0.0
 11
19.7503568565
 21
-12.4282459157
 31
0.0
  0
LINE
  5
368
330
1F
100
AcDbEntity
  8
0
  6
CONTINUOUS
 62
     7
100
AcDbLine
 10
19.7798568565
 20
-12.3987459157
 30
0.0
 11
19.7798568565
 21
-11.9459349157
 31
0.0
  0
LINE
  5
369
330
1F
100
AcDbEntity
  8
0
  6
CONTINUOUS
 62
     7
100
AcDbLine
 10
18.5421598565
 20
-11.9459349157
 30
0.0
 11
18.5421598565
 21
-12.3987459157
 31
0.0
  0
LINE
  5
36A
330
1F
100
AcDbEntity
  8
0
  6
CONTINUOUS
 62
     7
100
AcDbLine
 10
18.5716598565
 20
-12.4282459157
 30
0.0
 11
19.0244708565
 21
-12.4282459157
 31
0.0
  0
LINE
  5
36B
330
1F
100
AcDbEntity
  8
0
  6
CONTINUOUS
 62
     7
100
AcDbLine
 10
19.0539708565
 20
-12.3987459157
 30
0.0
 11
19.0539708565
 21
-11.9459349157
 31
0.0
  0
LINE
  5
36C
330
1F
100
AcDbEntity
  8
0
  6
CONTINUOUS
 62
     7
100
AcDbLine
 10
19.0244708565
 20
-11.9164349157
 30
0.0
 11
18.5716598565
 21
-11.9164349157
 31
0.0
  0
LINE
  5
36E
330
1F
100
AcDbEntity
  8
0
  6
CONTINUOUS
 62
     7
100
AcDbLine
 10
10.4025732565
 20
-13.0414294157
 30
0.0
 11
9.9498174565
 21
-13.0414294157
 31
0.0
  0
LINE
  5
36F
330
1F
100
AcDbEntity
  8
0
  6
CONTINUOUS
 62
     7
100
AcDbLine
 10
9.9202898565
 20
-13.0709570157
 30
0.0
 11
9.9202898565
 21
-13.5237128157
 31
0.0
  0
LINE
  5
370
330
1F
100
AcDbEntity
  8
0
  6
CONTINUOUS
 62
     7
100
AcDbLine
 10
9.9498174565
 20
-13.5532404157
 30
0.0
 11
10.4025732565
 21
-13.5532404157
 31
0.0
  0
LINE
  5
371
330
1F
100
AcDbEntity
  8
0
  6
CONTINUOUS
 62
     7
100
AcDbLine
 10
10.4321008565
 20
-13.5237128157
 30
0.0
 11
10.4321008565
 21
-13.0709570157
 31
0.0
  0
LINE
  5
372
330
1F
100
AcDbEntity
  8
0
  6
CONTINUOUS
 62
     7
100
AcDbLine
 10
2.3531513565
 20
-15.6018349157
 30
0.0
 11
2.3531513565
 21
-8.6018349157
 31
0.0
  0
LINE
  5
373
330
1F
100
AcDbEntity
  8
0
  6
CONTINUOUS
 62
     7
100
AcDbLine
 10
4.2235513565
 20
-9.8606570157
 30
0.0
 11
4.2235513565
 21
-10.3134128157
 31
0.0
  0
LINE
  5
374
330
1F
100
AcDbEntity
  8
0
  6
CONTINUOUS
 62
     7
100
AcDbLine
 10
4.2530789565
 20
-10.3429404157
 30
0.0
 11
4.7058347565
 21
-10.3429404157
 31
0.0
  0
LINE
  5
375
330
1F
100
AcDbEntity
  8
0
  6
CONTINUOUS
 62
     7
100
AcDbLine
 10
4.7353623565
 20
-10.3134128157
 30
0.0
 11
4.7353623565
 21
-9.8606570157
 31
0.0
  0
LINE
  5
376
330
1F
100
AcDbEntity
  8
0
  6
CONTINUOUS
 62
     7
100
AcDbLine
 10
4.7058347565
 20
-9.8311294157
 30
0.0
 11
4.2530789565
 21
-9.8311294157
 31
0.0
  0
LINE
  5
377
330
1F
100
AcDbEntity
  8
0
  6
CONTINUOUS
 62
     7
100
AcDbLine
 10
4.2235513565
 20
-10.5865430157
 30
0.0
 11
4.2235513565
 21
-11.0392988157
 31
0.0
  0
LINE
  5
378
330
1F
100
AcDbEntity
  8
0
  6
CONTINUOUS
 62
     7
100
AcDbLine
 10
4.2530789565
 20
-11.0688264157
 30
0.0
 11
4.7058347565
 21
-11.0688264157
 31
0.0
  0
LINE
  5
379
330
1F
100
AcDbEntity
  8
0
  6
CONTINUOUS
 62
     7
100
AcDbLine
 10
4.7353623565
 20
-11.0392988157
 30
0.0
 11
4.7353623565
 21
-10.5865430157
 31
0.0
  0
LINE
  5
37A
330
1F
100
AcDbEntity
  8
0
  6
CONTINUOUS
 62
     7
100
AcDbLine
 10
4.7058347565
 20
-10.5570154157
 30
0.0
 11
4.2530789565
 21
-10.5570154157
 31
0.0
  0
LINE
  5
37B
330
1F
100
AcDbEntity
  8
0
  6
CONTINUOUS
 62
     7
100
AcDbLine
 10
4.2530789565
 20
-11.7947124157
 30
0.0
 11
4.7058347565
 21
-11.7947124157
 31
0.0
  0
LINE
  5
37C
330
1F
100
AcDbEntity
  8
0
  6
CONTINUOUS
 62
     7
100
AcDbLine
 10
4.7353623565
 20
-11.7651848157
 30
0.0
 11
4.7353623565
 21
-11.3124290157
 31
0.0
  0
LINE
  5
37D
330
1F
100
AcDbEntity
  8
0
  6
CONTINUOUS
 62
     7
100
AcDbLine
 10
4.7058347565
 20
-11.2829014157
 30
0.0
 11
4.2530789565
 21
-11.2829014157
 31
0.0
  0
LINE
  5
37E
330
1F
100
AcDbEntity
  8
0
  6
CONTINUOUS
 62
     7
100
AcDbLine
 10
4.2235513565
 20
-12.0383150157
 30
0.0
 11
4.2235513565
 21
-12.4910708157
 31
0.0
  0
LINE
  5
37F
330
1F
100
AcDbEntity
  8
0
  6
CONTINUOUS
 62
     7
100
AcDbLine
 10
4.2530789565
 20
-12.5205984157
 30
0.0
 11
4.7058347565
 21
-12.5205984157
 31
0.0
  0
LINE
  5
380
330
1F
100
AcDbEntity
  8
0
  6
CONTINUOUS
 62
     7
100
AcDbLine
 10
4.7353623565
 20
-12.4910708157
 30
0.0
 11
4.7353623565
 21
-12.0383150157
 31
0.0
  0
LINE
  5
381
330
1F
100
AcDbEntity
  8
0
  6
CONTINUOUS
 62
     7
100
AcDbLine
 10
4.7058347565
 20
-12.0087874157
 30
0.0
 11
4.2530789565
 21
-12.0087874157
 31
0.0
  0
LINE
  5
382
330
1F
100
AcDbEntity
  8
0
  6
CONTINUOUS
 62
     7
100
AcDbLine
 10
5.0609513565
 20
-9.8606570157
 30
0.0
 11
5.0609513565
 21
-10.3134128157
 31
0.0
  0
LINE
  5
383
330
1F
100
AcDbEntity
  8
0
  6
CONTINUOUS
 62
     7
100
AcDbLine
 10
5.0904789565
 20
-10.3429404157
 30
0.0
 11
5.5432347565
 21
-10.3429404157
 31
0.0
  0
LINE
  5
384
330
1F
100
AcDbEntity
  8
0
  6
CONTINUOUS
 62
     7
100
AcDbLine
 10
5.5727623565
 20
-10.3134128157
 30
0.0
 11
5.5727623565
 21
-9.8606570157
 31
0.0
  0
LINE
  5
385
330
1F
100
AcDbEntity
  8
0
  6
CONTINUOUS
 62
     7
100
AcDbLine
 10
5.5432347565
 20
-9.8311294157
 30
0.0
 11
5.0904789565
 21
-9.8311294157
 31
0.0
  0
LINE
  5
386
330
1F
100
AcDbEntity
  8
0
  6
CONTINUOUS
 62
     7
100
AcDbLine
 10
5.0609513565
 20
-10.5865430157
 30
0.0
 11
5.0609513565
 21
-11.0392988157
 31
0.0
  0
LINE
  5
387
330
1F
100
AcDbEntity
  8
0
  6
CONTINUOUS
 62
     7
100
AcDbLine
 10
5.0904789565
 20
-11.0688264157
 30
0.0
 11
5.5432347565
 21
-11.0688264157
 31
0.0
  0
LINE
  5
388
330
1F
100
AcDbEntity
  8
0
  6
CONTINUOUS
 62
     7
100
AcDbLine
 10
5.5727623565
 20
-11.0392988157
 30
0.0
 11
5.5727623565
 21
-10.5865430157
 31
0.0
  0
LINE
  5
389
330
1F
100
AcDbEntity
  8
0
  6
CONTINUOUS
 62
     7
100
AcDbLine
 10
5.5432347565
 20
-10.5570154157
 30
0.0
 11
5.0904789565
 21
-10.5570154157
 31
0.0
  0
LINE
  5
38A
330
1F
100
AcDbEntity
  8
0
  6
CONTINUOUS
 62
     7
100
AcDbLine
 10
5.0609513565
 20
-11.3124290157
 30
0.0
 11
5.0609513565
 21
-11.7651848157
 31
0.0
  0
LINE
  5
38B
330
1F
100
AcDbEntity
  8
0
  6
CONTINUOUS
 62
     7
100
AcDbLine
 10
5.0904789565
 20
-11.7947124157
 30
0.0
 11
5.5432347565
 21
-11.7947124157
 31
0.0
  0
LINE
  5
38C
330
1F
100
AcDbEntity
  8
0
  6
CONTINUOUS
 62
     7
100
AcDbLine
 10
5.5727623565
 20
-11.7651848157
 30
0.0
 11
5.5727623565
 21
-11.3124290157
 31
0.0
  0
LINE
  5
38D
330
1F
100
AcDbEntity
  8
0
  6
CONTINUOUS
 62
     7
100
AcDbLine
 10
5.5432347565
 20
-11.2829014157
 30
0.0
 11
5.0904789565
 21
-11.2829014157
 31
0.0
  0
LINE
  5
38E
330
1F
100
AcDbEntity
  8
0
  6
CONTINUOUS
 62
     7
100
AcDbLine
 10
5.0609513565
 20
-12.0383150157
 30
0.0
 11
5.0609513565
 21
-12.4910708157
 31
0.0
  0
LINE
  5
38F
330
1F
100
AcDbEntity
  8
0
  6
CONTINUOUS
 62
     7
100
AcDbLine
 10
5.0904789565
 20
-12.5205984157
 30
0.0
 11
5.5432347565
 21
-12.5205984157
 31
0.0
  0
LINE
  5
390
330
1F
100
AcDbEntity
  8
0
  6
CONTINUOUS
 62
     7
100
AcDbLine
 10
5.5727623565
 20
-12.4910708157
 30
0.0
 11
5.5727623565
 21
-12.0383150157
 31
0.0
  0
LINE
  5
391
330
1F
100
AcDbEntity
  8
0
  6
CONTINUOUS
 62
     7
100
AcDbLine
 10
5.5432347565
 20
-12.0087874157
 30
0.0
 11
5.0904789565
 21
-12.0087874157
 31
0.0
  0
LINE
  5
392
330
1F
100
AcDbEntity
  8
0
  6
CONTINUOUS
 62
     7
100
AcDbLine
 10
4.2235513565
 20
-12.9237570551
 30
0.0
 11
4.2235513565
 21
-13.3765128551
 31
0.0
  0
LINE
  5
393
330
1F
100
AcDbEntity
  8
0
  6
CONTINUOUS
 62
     7
100
AcDbLine
 10
4.2530789565
 20
-13.4060404551
 30
0.0
 11
4.7058347565
 21
-13.4060404551
 31
0.0
  0
LINE
  5
394
330
1F
100
AcDbEntity
  8
0
  6
CONTINUOUS
 62
     7
100
AcDbLine
 10
4.7353623565
 20
-13.3765128551
 30
0.0
 11
4.7353623565
 21
-12.9237570551
 31
0.0
  0
LINE
  5
395
330
1F
100
AcDbEntity
  8
0
  6
CONTINUOUS
 62
     7
100
AcDbLine
 10
4.7058347565
 20
-12.8942294551
 30
0.0
 11
4.2530789565
 21
-12.8942294551
 31
0.0
  0
LINE
  5
396
330
1F
100
AcDbEntity
  8
0
  6
CONTINUOUS
 62
     7
100
AcDbLine
 10
4.2235513565
 20
-13.6496430551
 30
0.0
 11
4.2235513565
 21
-14.1023988551
 31
0.0
  0
LINE
  5
397
330
1F
100
AcDbEntity
  8
0
  6
CONTINUOUS
 62
     7
100
AcDbLine
 10
4.2530789565
 20
-14.1319264551
 30
0.0
 11
4.7058347565
 21
-14.1319264551
 31
0.0
  0
LINE
  5
398
330
1F
100
AcDbEntity
  8
0
  6
CONTINUOUS
 62
     7
100
AcDbLine
 10
4.7353623565
 20
-14.1023988551
 30
0.0
 11
4.7353623565
 21
-13.6496430551
 31
0.0
  0
LINE
  5
399
330
1F
100
AcDbEntity
  8
0
  6
CONTINUOUS
 62
     7
100
AcDbLine
 10
4.7058347565
 20
-13.6201154551
 30
0.0
 11
4.2530789565
 21
-13.6201154551
 31
0.0
  0
LINE
  5
39A
330
1F
100
AcDbEntity
  8
0
  6
CONTINUOUS
 62
     7
100
AcDbLine
 10
5.0609513565
 20
-12.9237570551
 30
0.0
 11
5.0609513565
 21
-13.3765128551
 31
0.0
  0
LINE
  5
39B
330
1F
100
AcDbEntity
  8
0
  6
CONTINUOUS
 62
     7
100
AcDbLine
 10
5.0904789565
 20
-13.4060404551
 30
0.0
 11
5.5432347565
 21
-13.4060404551
 31
0.0
  0
LINE
  5
39C
330
1F
100
AcDbEntity
  8
0
  6
CONTINUOUS
 62
     7
100
AcDbLine
 10
5.5727623565
 20
-13.3765128551
 30
0.0
 11
5.5727623565
 21
-12.9237570551
 31
0.0
  0
LINE
  5
39D
330
1F
100
AcDbEntity
  8
0
  6
CONTINUOUS
 62
     7
100
AcDbLine
 10
5.5432347565
 20
-12.8942294551
 30
0.0
 11
5.0904789565
 21
-12.8942294551
 31
0.0
  0
LINE
  5
39E
330
1F
100
AcDbEntity
  8
0
  6
CONTINUOUS
 62
     7
100
AcDbLine
 10
5.0609513565
 20
-13.6496430551
 30
0.0
 11
5.0609513565
 21
-14.1023988551
 31
0.0
  0
LINE
  5
39F
330
1F
100
AcDbEntity
  8
0
  6
CONTINUOUS
 62
     7
100
AcDbLine
 10
5.0904789565
 20
-14.1319264551
 30
0.0
 11
5.5432347565
 21
-14.1319264551
 31
0.0
  0
LINE
  5
3A0
330
1F
100
AcDbEntity
  8
0
  6
CONTINUOUS
 62
     7
100
AcDbLine
 10
5.5727623565
 20
-14.1023988551
 30
0.0
 11
5.5727623565
 21
-13.6496430551
 31
0.0
  0
LINE
  5
3A1
330
1F
100
AcDbEntity
  8
0
  6
CONTINUOUS
 62
     7
100
AcDbLine
 10
5.5432347565
 20
-13.6201154551
 30
0.0
 11
5.0904789565
 21
-13.6201154551
 31
0.0
  0
LINE
  5
3A2
330
1F
100
AcDbEntity
  8
0
  6
CONTINUOUS
 62
     7
100
AcDbLine
 10
4.2235513565
 20
-14.4723791023
 30
0.0
 11
4.2235513565
 21
-14.9251349023
 31
0.0
  0
LINE
  5
3A3
330
1F
100
AcDbEntity
  8
0
  6
CONTINUOUS
 62
     7
100
AcDbLine
 10
4.2530789565
 20
-14.9546625023
 30
0.0
 11
4.7058347565
 21
-14.9546625023
 31
0.0
  0
LINE
  5
3A4
330
1F
100
AcDbEntity
  8
0
  6
CONTINUOUS
 62
     7
100
AcDbLine
 10
4.7353623565
 20
-14.9251349023
 30
0.0
 11
4.7353623565
 21
-14.4723791023
 31
0.0
  0
LINE
  5
3A5
330
1F
100
AcDbEntity
  8
0
  6
CONTINUOUS
 62
     7
100
AcDbLine
 10
4.7058347565
 20
-14.4428515023
 30
0.0
 11
4.2530789565
 21
-14.4428515023
 31
0.0
  0
LINE
  5
3A6
330
1F
100
AcDbEntity
  8
0
  6
CONTINUOUS
 62
     7
100
AcDbLine
 10
5.0609509628
 20
-14.4723791023
 30
0.0
 11
5.0609509628
 21
-14.9251349023
 31
0.0
  0
LINE
  5
3A7
330
1F
100
AcDbEntity
  8
0
  6
CONTINUOUS
 62
     7
100
AcDbLine
 10
5.0904785628
 20
-14.9546625023
 30
0.0
 11
5.5432343628
 21
-14.9546625023
 31
0.0
  0
LINE
  5
3A8
330
1F
100
AcDbEntity
  8
0
  6
CONTINUOUS
 62
     7
100
AcDbLine
 10
5.5727619628
 20
-14.9251349023
 30
0.0
 11
5.5727619628
 21
-14.4723791023
 31
0.0
  0
LINE
  5
3A9
330
1F
100
AcDbEntity
  8
0
  6
CONTINUOUS
 62
     7
100
AcDbLine
 10
5.5432343628
 20
-14.4428515023
 30
0.0
 11
5.0904785628
 21
-14.4428515023
 31
0.0
  0
LINE
  5
3AA
330
1F
100
AcDbEntity
  8
0
  6
CONTINUOUS
 62
     7
100
AcDbLine
 10
4.2235513565
 20
-11.3124290157
 30
0.0
 11
4.2235513565
 21
-11.7651848157
 31
0.0
  0
ARC
  5
3AB
330
1F
100
AcDbEntity
  8
0
  6
CONTINUOUS
 62
     7
100
AcDbCircle
 10
14.9422298565
 20
-14.1959349157
 30
0.0
 40
0.0295000000000059
100
AcDbArc
 50
90.0
 51
180.0
  0
ARC
  5
3AC
330
1F
100
AcDbEntity
  8
0
  6
CONTINUOUS
 62
     7
100
AcDbCircle
 10
15.3950408565
 20
-14.1959349157
 30
0.0
 40
0.0295000000000005
100
AcDbArc
 50
360.0
 51
90.0
  0
ARC
  5
3AD
330
1F
100
AcDbEntity
  8
0
  6
CONTINUOUS
 62
     7
100
AcDbCircle
 10
15.3950408565
 20
-14.6487459157
 30
0.0
 40
0.0295000000000041
100
AcDbArc
 50
270.0
 51
360.0
  0
ARC
  5
3AE
330
1F
100
AcDbEntity
  8
0
  6
CONTINUOUS
 62
     7
100
AcDbCircle
 10
14.9422298565
 20
-14.6487459157
 30
0.0
 40
0.0295000000000005
100
AcDbArc
 50
180.0
 51
270.0
  0
ARC
  5
3AF
330
1F
100
AcDbEntity
  8
0
  6
CONTINUOUS
 62
     7
100
AcDbCircle
 10
15.6681158565
 20
-14.1959349157
 30
0.0
 40
0.0295000000000023
100
AcDbArc
 50
90.0
 51
180.0
  0
ARC
  5
3B0
330
1F
100
AcDbEntity
  8
0
  6
CONTINUOUS
 62
     7
100
AcDbCircle
 10
16.1209268565
 20
-14.1959349157
 30
0.0
 40
0.0294999999999952
100
AcDbArc
 50
360.0
 51
90.0
  0
ARC
  5
3B1
330
1F
100
AcDbEntity
  8
0
  6
CONTINUOUS
 62
     7
100
AcDbCircle
 10
16.1209268565
 20
-14.6487459157
 30
0.0
 40
0.0295000000000005
100
AcDbArc
 50
270.0
 51
0.0
  0
ARC
  5
3B2
330
1F
100
AcDbEntity
  8
0
  6
CONTINUOUS
 62
     7
100
AcDbCircle
 10
15.6681158565
 20
-14.6487459157
 30
0.0
 40
0.0295000000000005
100
AcDbArc
 50
180.0
 51
270.0
  0
ARC
  5
3B3
330
1F
100
AcDbEntity
  8
0
  6
CONTINUOUS
 62
     7
100
AcDbCircle
 10
16.3940018565
 20
-14.1959349157
 30
0.0
 40
0.0295000000000023
100
AcDbArc
 50
90.0
 51
180.0
  0
ARC
  5
3B4
330
1F
100
AcDbEntity
  8
0
  6
CONTINUOUS
 62
     7
100
AcDbCircle
 10
16.8468128565
 20
-14.1959349157
 30
0.0
 40
0.029499999999997
100
AcDbArc
 50
360.0
 51
90.0
  0
ARC
  5
3B5
330
1F
100
AcDbEntity
  8
0
  6
CONTINUOUS
 62
     7
100
AcDbCircle
 10
16.8468128565
 20
-14.6487459157
 30
0.0
 40
0.0295000000000023
100
AcDbArc
 50
270.0
 51
360.0
  0
ARC
  5
3B6
330
1F
100
AcDbEntity
  8
0
  6
CONTINUOUS
 62
     7
100
AcDbCircle
 10
16.3940018565
 20
-14.6487459157
 30
0.0
 40
0.029499999999997
100
AcDbArc
 50
180.0
 51
270.0
  0
ARC
  5
3B7
330
1F
100
AcDbEntity
  8
0
  6
CONTINUOUS
 62
     7
100
AcDbCircle
 10
17.1198878565
 20
-14.1959349157
 30
0.0
 40
0.029499999999997
100
AcDbArc
 50
90.0
 51
180.0
  0
ARC
  5
3B8
330
1F
100
AcDbEntity
  8
0
  6
CONTINUOUS
 62
     7
100
AcDbCircle
 10
17.5726988565
 20
-14.1959349157
 30
0.0
 40
0.0294999999999987
100
AcDbArc
 50
360.0
 51
90.0
  0
ARC
  5
3B9
330
1F
100
AcDbEntity
  8
0
  6
CONTINUOUS
 62
     7
100
AcDbCircle
 10
17.5726988565
 20
-14.6487459157
 30
0.0
 40
0.0295000000000059
100
AcDbArc
 50
270.0
 51
360.0
  0
ARC
  5
3BA
330
1F
100
AcDbEntity
  8
0
  6
CONTINUOUS
 62
     7
100
AcDbCircle
 10
17.1198878565
 20
-14.6487459157
 30
0.0
 40
0.029499999999997
100
AcDbArc
 50
180.0
 51
270.0
  0
ARC
  5
3BB
330
1F
100
AcDbEntity
  8
0
  6
CONTINUOUS
 62
     7
100
AcDbCircle
 10
17.8457738565
 20
-14.1959349157
 30
0.0
 40
0.0294999999999987
100
AcDbArc
 50
90.0
 51
180.0
  0
ARC
  5
3BC
330
1F
100
AcDbEntity
  8
0
  6
CONTINUOUS
 62
     7
100
AcDbCircle
 10
18.2985848565
 20
-14.1959349157
 30
0.0
 40
0.0295000000000059
100
AcDbArc
 50
0.0
 51
90.0
  0
ARC
  5
3BD
330
1F
100
AcDbEntity
  8
0
  6
CONTINUOUS
 62
     7
100
AcDbCircle
 10
18.2985848565
 20
-14.6487459157
 30
0.0
 40
0.0295000000000059
100
AcDbArc
 50
270.0
 51
360.0
  0
ARC
  5
3BE
330
1F
100
AcDbEntity
  8
0
  6
CONTINUOUS
 62
     7
100
AcDbCircle
 10
17.8457738565
 20
-14.6487459157
 30
0.0
 40
0.029499999999997
100
AcDbArc
 50
180.0
 51
270.0
  0
ARC
  5
3BF
330
1F
100
AcDbEntity
  8
0
  6
CONTINUOUS
 62
     7
100
AcDbCircle
 10
18.5716598565
 20
-14.1959349157
 30
0.0
 40
0.0295000000000023
100
AcDbArc
 50
90.0
 51
180.0
  0
ARC
  5
3C0
330
1F
100
AcDbEntity
  8
0
  6
CONTINUOUS
 62
     7
100
AcDbCircle
 10
19.0244708565
 20
-14.1959349157
 30
0.0
 40
0.0294999999999987
100
AcDbArc
 50
360.0
 51
90.0
  0
ARC
  5
3C1
330
1F
100
AcDbEntity
  8
0
  6
CONTINUOUS
 62
     7
100
AcDbCircle
 10
19.0244708565
 20
-14.6487459157
 30
0.0
 40
0.0295000000000023
100
AcDbArc
 50
270.0
 51
360.0
  0
ARC
  5
3C2
330
1F
100
AcDbEntity
  8
0
  6
CONTINUOUS
 62
     7
100
AcDbCircle
 10
18.5716598565
 20
-14.6487459157
 30
0.0
 40
0.029499999999997
100
AcDbArc
 50
180.0
 51
270.0
  0
ARC
  5
3C3
330
1F
100
AcDbEntity
  8
0
  6
CONTINUOUS
 62
     7
100
AcDbCircle
 10
19.2975458565
 20
-14.1959349157
 30
0.0
 40
0.029499999999997
100
AcDbArc
 50
90.0
 51
180.0
  0
ARC
  5
3C4
330
1F
100
AcDbEntity
  8
0
  6
CONTINUOUS
 62
     7
100
AcDbCircle
 10
19.7503568565
 20
-14.1959349157
 30
0.0
 40
0.0294999999999952
100
AcDbArc
 50
360.0
 51
90.0
  0
ARC
  5
3C5
330
1F
100
AcDbEntity
  8
0
  6
CONTINUOUS
 62
     7
100
AcDbCircle
 10
19.7503568565
 20
-14.6487459157
 30
0.0
 40
0.0295000000000023
100
AcDbArc
 50
270.0
 51
0.0
  0
ARC
  5
3C6
330
1F
100
AcDbEntity
  8
0
  6
CONTINUOUS
 62
     7
100
AcDbCircle
 10
19.2975458565
 20
-14.6487459157
 30
0.0
 40
0.029499999999997
100
AcDbArc
 50
180.0
 51
270.0
  0
ARC
  5
3C7
330
1F
100
AcDbEntity
  8
0
  6
CONTINUOUS
 62
     7
100
AcDbCircle
 10
14.9422298565
 20
-13.0709349157
 30
0.0
 40
0.0295000000000005
100
AcDbArc
 50
90.0
 51
180.0
  0
ARC
  5
3C8
330
1F
100
AcDbEntity
  8
0
  6
CONTINUOUS
 62
     7
100
AcDbCircle
 10
15.3950408565
 20
-13.0709349157
 30
0.0
 40
0.0295000000000005
100
AcDbArc
 50
0.0
 51
90.0
  0
ARC
  5
3C9
330
1F
100
AcDbEntity
  8
0
  6
CONTINUOUS
 62
     7
100
AcDbCircle
 10
15.3950408565
 20
-13.5237459157
 30
0.0
 40
0.0294999999999987
100
AcDbArc
 50
270.0
 51
360.0
  0
ARC
  5
3CA
330
1F
100
AcDbEntity
  8
0
  6
CONTINUOUS
 62
     7
100
AcDbCircle
 10
14.9422298565
 20
-13.5237459157
 30
0.0
 40
0.0294999999999987
100
AcDbArc
 50
180.0
 51
270.0
  0
ARC
  5
3CB
330
1F
100
AcDbEntity
  8
0
  6
CONTINUOUS
 62
     7
100
AcDbCircle
 10
15.6681158565
 20
-13.0709349157
 30
0.0
 40
0.0295000000000005
100
AcDbArc
 50
90.0
 51
180.0
  0
ARC
  5
3CC
330
1F
100
AcDbEntity
  8
0
  6
CONTINUOUS
 62
     7
100
AcDbCircle
 10
16.1209268565
 20
-13.0709349157
 30
0.0
 40
0.029499999999997
100
AcDbArc
 50
360.0
 51
90.0
  0
ARC
  5
3CD
330
1F
100
AcDbEntity
  8
0
  6
CONTINUOUS
 62
     7
100
AcDbCircle
 10
16.1209268565
 20
-13.5237459157
 30
0.0
 40
0.0294999999999952
100
AcDbArc
 50
270.0
 51
0.0
  0
ARC
  5
3CE
330
1F
100
AcDbEntity
  8
0
  6
CONTINUOUS
 62
     7
100
AcDbCircle
 10
15.6681158565
 20
-13.5237459157
 30
0.0
 40
0.029499999999997
100
AcDbArc
 50
180.0
 51
270.0
  0
ARC
  5
3CF
330
1F
100
AcDbEntity
  8
0
  6
CONTINUOUS
 62
     7
100
AcDbCircle
 10
16.3940018565
 20
-13.0709349157
 30
0.0
 40
0.0294999999999987
100
AcDbArc
 50
90.0
 51
180.0
  0
ARC
  5
3D0
330
1F
100
AcDbEntity
  8
0
  6
CONTINUOUS
 62
     7
100
AcDbCircle
 10
16.8468128565
 20
-13.0709349157
 30
0.0
 40
0.0294999999999987
100
AcDbArc
 50
360.0
 51
90.0
  0
ARC
  5
3D1
330
1F
100
AcDbEntity
  8
0
  6
CONTINUOUS
 62
     7
100
AcDbCircle
 10
16.8468128565
 20
-13.5237459157
 30
0.0
 40
0.0294999999999952
100
AcDbArc
 50
270.0
 51
0.0
  0
ARC
  5
3D2
330
1F
100
AcDbEntity
  8
0
  6
CONTINUOUS
 62
     7
100
AcDbCircle
 10
16.3940018565
 20
-13.5237459157
 30
0.0
 40
0.0294999999999952
100
AcDbArc
 50
180.0
 51
270.0
  0
ARC
  5
3D3
330
1F
100
AcDbEntity
  8
0
  6
CONTINUOUS
 62
     7
100
AcDbCircle
 10
17.1198878565
 20
-13.0709349157
 30
0.0
 40
0.0294999999999934
100
AcDbArc
 50
90.0
 51
180.0
  0
ARC
  5
3D4
330
1F
100
AcDbEntity
  8
0
  6
CONTINUOUS
 62
     7
100
AcDbCircle
 10
17.5726988565
 20
-13.0709349157
 30
0.0
 40
0.0294999999999987
100
AcDbArc
 50
360.0
 51
90.0
  0
ARC
  5
3D5
330
1F
100
AcDbEntity
  8
0
  6
CONTINUOUS
 62
     7
100
AcDbCircle
 10
17.5726988565
 20
-13.5237459157
 30
0.0
 40
0.0294999999999952
100
AcDbArc
 50
270.0
 51
0.0
  0
ARC
  5
3D6
330
1F
100
AcDbEntity
  8
0
  6
CONTINUOUS
 62
     7
100
AcDbCircle
 10
17.1198878565
 20
-13.5237459157
 30
0.0
 40
0.0294999999999916
100
AcDbArc
 50
180.0
 51
270.0
  0
ARC
  5
3D7
330
1F
100
AcDbEntity
  8
0
  6
CONTINUOUS
 62
     7
100
AcDbCircle
 10
17.8457738565
 20
-13.0709349157
 30
0.0
 40
0.0294999999999952
100
AcDbArc
 50
90.0
 51
180.0
  0
ARC
  5
3D8
330
1F
100
AcDbEntity
  8
0
  6
CONTINUOUS
 62
     7
100
AcDbCircle
 10
18.2985848565
 20
-13.0709349157
 30
0.0
 40
0.0295000000000023
100
AcDbArc
 50
0.0
 51
90.0
  0
ARC
  5
3D9
330
1F
100
AcDbEntity
  8
0
  6
CONTINUOUS
 62
     7
100
AcDbCircle
 10
18.2985848565
 20
-13.5237459157
 30
0.0
 40
0.0294999999999987
100
AcDbArc
 50
270.0
 51
360.0
  0
ARC
  5
3DA
330
1F
100
AcDbEntity
  8
0
  6
CONTINUOUS
 62
     7
100
AcDbCircle
 10
17.8457738565
 20
-13.5237459157
 30
0.0
 40
0.0294999999999916
100
AcDbArc
 50
180.0
 51
270.0
  0
ARC
  5
3DB
330
1F
100
AcDbEntity
  8
0
  6
CONTINUOUS
 62
     7
100
AcDbCircle
 10
18.5716598565
 20
-13.0709349157
 30
0.0
 40
0.0294999999999987
100
AcDbArc
 50
90.0
 51
180.0
  0
ARC
  5
3DC
330
1F
100
AcDbEntity
  8
0
  6
CONTINUOUS
 62
     7
100
AcDbCircle
 10
19.0244708565
 20
-13.0709349157
 30
0.0
 40
0.0294999999999987
100
AcDbArc
 50
360.0
 51
90.0
  0
ARC
  5
3DD
330
1F
100
AcDbEntity
  8
0
  6
CONTINUOUS
 62
     7
100
AcDbCircle
 10
19.0244708565
 20
-13.5237459157
 30
0.0
 40
0.0294999999999952
100
AcDbArc
 50
270.0
 51
0.0
  0
ARC
  5
3DE
330
1F
100
AcDbEntity
  8
0
  6
CONTINUOUS
 62
     7
100
AcDbCircle
 10
18.5716598565
 20
-13.5237459157
 30
0.0
 40
0.029499999999997
100
AcDbArc
 50
180.0
 51
270.0
  0
ARC
  5
3DF
330
1F
100
AcDbEntity
  8
0
  6
CONTINUOUS
 62
     7
100
AcDbCircle
 10
19.2975458565
 20
-13.0709349157
 30
0.0
 40
0.0294999999999952
100
AcDbArc
 50
90.0
 51
180.0
  0
ARC
  5
3E0
330
1F
100
AcDbEntity
  8
0
  6
CONTINUOUS
 62
     7
100
AcDbCircle
 10
19.7503568565
 20
-13.0709349157
 30
0.0
 40
0.0294999999999987
100
AcDbArc
 50
360.0
 51
90.0
  0
ARC
  5
3E1
330
1F
100
AcDbEntity
  8
0
  6
CONTINUOUS
 62
     7
100
AcDbCircle
 10
19.7503568565
 20
-13.5237459157
 30
0.0
 40
0.029499999999997
100
AcDbArc
 50
270.0
 51
0.0
  0
ARC
  5
3E2
330
1F
100
AcDbEntity
  8
0
  6
CONTINUOUS
 62
     7
100
AcDbCircle
 10
19.2975458565
 20
-13.5237459157
 30
0.0
 40
0.0294999999999916
100
AcDbArc
 50
180.0
 51
270.0
  0
ARC
  5
3E3
330
1F
100
AcDbEntity
  8
0
  6
CONTINUOUS
 62
     7
100
AcDbCircle
 10
14.2163438565
 20
-11.9459349157
 30
0.0
 40
0.0295000000000023
100
AcDbArc
 50
90.0
 51
180.0
  0
ARC
  5
3E4
330
1F
100
AcDbEntity
  8
0
  6
CONTINUOUS
 62
     7
100
AcDbCircle
 10
14.6691548565
 20
-11.9459349157
 30
0.0
 40
0.029499999999997
100
AcDbArc
 50
360.0
 51
90.0
  0
ARC
  5
3E5
330
1F
100
AcDbEntity
  8
0
  6
CONTINUOUS
 62
     7
100
AcDbCircle
 10
14.6691548565
 20
-12.3987459157
 30
0.0
 40
0.0294999999999987
100
AcDbArc
 50
270.0
 51
0.0
  0
ARC
  5
3E6
330
1F
100
AcDbEntity
  8
0
  6
CONTINUOUS
 62
     7
100
AcDbCircle
 10
14.2163438565
 20
-12.3987459157
 30
0.0
 40
0.0294999999999987
100
AcDbArc
 50
180.0
 51
270.0
  0
ARC
  5
3E7
330
1F
100
AcDbEntity
  8
0
  6
CONTINUOUS
 62
     7
100
AcDbCircle
 10
14.9422298565
 20
-11.9459349157
 30
0.0
 40
0.0295000000000023
100
AcDbArc
 50
90.0
 51
180.0
  0
ARC
  5
3E8
330
1F
100
AcDbEntity
  8
0
  6
CONTINUOUS
 62
     7
100
AcDbCircle
 10
15.3950408565
 20
-11.9459349157
 30
0.0
 40
0.029499999999997
100
AcDbArc
 50
360.0
 51
90.0
  0
ARC
  5
3E9
330
1F
100
AcDbEntity
  8
0
  6
CONTINUOUS
 62
     7
100
AcDbCircle
 10
15.3950408565
 20
-12.3987459157
 30
0.0
 40
0.0294999999999987
100
AcDbArc
 50
270.0
 51
0.0
  0
ARC
  5
3EA
330
1F
100
AcDbEntity
  8
0
  6
CONTINUOUS
 62
     7
100
AcDbCircle
 10
14.9422298565
 20
-12.3987459157
 30
0.0
 40
0.0294999999999987
100
AcDbArc
 50
180.0
 51
270.0
  0
ARC
  5
3EB
330
1F
100
AcDbEntity
  8
0
  6
CONTINUOUS
 62
     7
100
AcDbCircle
 10
15.6681158565
 20
-11.9459349157
 30
0.0
 40
0.0295000000000023
100
AcDbArc
 50
90.0
 51
180.0
  0
ARC
  5
3EC
330
1F
100
AcDbEntity
  8
0
  6
CONTINUOUS
 62
     7
100
AcDbCircle
 10
16.1209268565
 20
-11.9459349157
 30
0.0
 40
0.0294999999999934
100
AcDbArc
 50
360.0
 51
90.0
  0
ARC
  5
3ED
330
1F
100
AcDbEntity
  8
0
  6
CONTINUOUS
 62
     7
100
AcDbCircle
 10
16.1209268565
 20
-12.3987459157
 30
0.0
 40
0.0294999999999987
100
AcDbArc
 50
270.0
 51
0.0
  0
ARC
  5
3EE
330
1F
100
AcDbEntity
  8
0
  6
CONTINUOUS
 62
     7
100
AcDbCircle
 10
15.6681158565
 20
-12.3987459157
 30
0.0
 40
0.0294999999999987
100
AcDbArc
 50
180.0
 51
270.0
  0
ARC
  5
3EF
330
1F
100
AcDbEntity
  8
0
  6
CONTINUOUS
 62
     7
100
AcDbCircle
 10
16.3940018565
 20
-11.9459349157
 30
0.0
 40
0.0295000000000023
100
AcDbArc
 50
90.0
 51
180.0
  0
ARC
  5
3F0
330
1F
100
AcDbEntity
  8
0
  6
CONTINUOUS
 62
     7
100
AcDbCircle
 10
16.8468128565
 20
-11.9459349157
 30
0.0
 40
0.029499999999997
100
AcDbArc
 50
360.0
 51
90.0
  0
ARC
  5
3F1
330
1F
100
AcDbEntity
  8
0
  6
CONTINUOUS
 62
     7
100
AcDbCircle
 10
16.8468128565
 20
-12.3987459157
 30
0.0
 40
0.0295000000000005
100
AcDbArc
 50
270.0
 51
0.0
  0
ARC
  5
3F2
330
1F
100
AcDbEntity
  8
0
  6
CONTINUOUS
 62
     7
100
AcDbCircle
 10
16.3940018565
 20
-12.3987459157
 30
0.0
 40
0.0295000000000005
100
AcDbArc
 50
180.0
 51
270.0
  0
ARC
  5
3F3
330
1F
100
AcDbEntity
  8
0
  6
CONTINUOUS
 62
     7
100
AcDbCircle
 10
17.1198878565
 20
-11.9459349157
 30
0.0
 40
0.0294999999999952
100
AcDbArc
 50
90.0
 51
180.0
  0
ARC
  5
3F4
330
1F
100
AcDbEntity
  8
0
  6
CONTINUOUS
 62
     7
100
AcDbCircle
 10
17.5726988565
 20
-11.9459349157
 30
0.0
 40
0.029499999999997
100
AcDbArc
 50
360.0
 51
90.0
  0
ARC
  5
3F5
330
1F
100
AcDbEntity
  8
0
  6
CONTINUOUS
 62
     7
100
AcDbCircle
 10
17.5726988565
 20
-12.3987459157
 30
0.0
 40
0.0294999999999987
100
AcDbArc
 50
270.0
 51
0.0
  0
ARC
  5
3F6
330
1F
100
AcDbEntity
  8
0
  6
CONTINUOUS
 62
     7
100
AcDbCircle
 10
17.1198878565
 20
-12.3987459157
 30
0.0
 40
0.0294999999999916
100
AcDbArc
 50
180.0
 51
270.0
  0
ARC
  5
3F7
330
1F
100
AcDbEntity
  8
0
  6
CONTINUOUS
 62
     7
100
AcDbCircle
 10
17.8457738565
 20
-11.9459349157
 30
0.0
 40
0.0295000000000005
100
AcDbArc
 50
90.0
 51
180.0
  0
ARC
  5
3F8
330
1F
100
AcDbEntity
  8
0
  6
CONTINUOUS
 62
     7
100
AcDbCircle
 10
18.2985848565
 20
-11.9459349157
 30
0.0
 40
0.0295000000000005
100
AcDbArc
 50
0.0
 51
90.0
  0
ARC
  5
3F9
330
1F
100
AcDbEntity
  8
0
  6
CONTINUOUS
 62
     7
100
AcDbCircle
 10
18.2985848565
 20
-12.3987459157
 30
0.0
 40
0.0295000000000023
100
AcDbArc
 50
270.0
 51
0.0
  0
ARC
  5
3FA
330
1F
100
AcDbEntity
  8
0
  6
CONTINUOUS
 62
     7
100
AcDbCircle
 10
17.8457738565
 20
-12.3987459157
 30
0.0
 40
0.0294999999999952
100
AcDbArc
 50
180.0
 51
270.0
  0
ARC
  5
3FB
330
1F
100
AcDbEntity
  8
0
  6
CONTINUOUS
 62
     7
100
AcDbCircle
 10
7.4990292565
 20
-11.9459570157
 30
0.0
 40
0.0295275999999998
100
AcDbArc
 50
0.0
 51
90.0
  0
ARC
  5
3FC
330
1F
100
AcDbEntity
  8
0
  6
CONTINUOUS
 62
     7
100
AcDbCircle
 10
7.0462734565
 20
-11.9459570157
 30
0.0
 40
0.0295275999999989
100
AcDbArc
 50
90.0
 51
180.0
  0
ARC
  5
3FD
330
1F
100
AcDbEntity
  8
0
  6
CONTINUOUS
 62
     7
100
AcDbCircle
 10
7.0462734565
 20
-12.3987128157
 30
0.0
 40
0.0295276000000033
100
AcDbArc
 50
180.0
 51
270.0
  0
ARC
  5
3FE
330
1F
100
AcDbEntity
  8
0
  6
CONTINUOUS
 62
     7
100
AcDbCircle
 10
7.4990292565
 20
-12.3987128157
 30
0.0
 40
0.0295276000000033
100
AcDbArc
 50
270.0
 51
360.0
  0
ARC
  5
3FF
330
1F
100
AcDbEntity
  8
0
  6
CONTINUOUS
 62
     7
100
AcDbCircle
 10
7.4990292565
 20
-13.0709570157
 30
0.0
 40
0.029527599999998
100
AcDbArc
 50
360.0
 51
90.0
  0
ARC
  5
400
330
1F
100
AcDbEntity
  8
0
  6
CONTINUOUS
 62
     7
100
AcDbCircle
 10
7.0462734565
 20
-13.0709570157
 30
0.0
 40
0.029527599999998
100
AcDbArc
 50
90.0
 51
180.0
  0
ARC
  5
401
330
1F
100
AcDbEntity
  8
0
  6
CONTINUOUS
 62
     7
100
AcDbCircle
 10
7.0462734565
 20
-13.5237128157
 30
0.0
 40
0.0295276000000007
100
AcDbArc
 50
180.0
 51
270.0
  0
ARC
  5
402
330
1F
100
AcDbEntity
  8
0
  6
CONTINUOUS
 62
     7
100
AcDbCircle
 10
7.4990292565
 20
-13.5237128157
 30
0.0
 40
0.0295275999999998
100
AcDbArc
 50
270.0
 51
0.0
  0
ARC
  5
403
330
1F
100
AcDbEntity
  8
0
  6
CONTINUOUS
 62
     7
100
AcDbCircle
 10
7.4990292565
 20
-14.1959570157
 30
0.0
 40
0.0295276000000015
100
AcDbArc
 50
0.0
 51
90.0
  0
ARC
  5
404
330
1F
100
AcDbEntity
  8
0
  6
CONTINUOUS
 62
     7
100
AcDbCircle
 10
7.0462734565
 20
-14.1959570157
 30
0.0
 40
0.0295275999999998
100
AcDbArc
 50
90.0
 51
180.0
  0
ARC
  5
405
330
1F
100
AcDbEntity
  8
0
  6
CONTINUOUS
 62
     7
100
AcDbCircle
 10
7.0462734565
 20
-14.6487128157
 30
0.0
 40
0.0295276000000015
100
AcDbArc
 50
180.0
 51
270.0
  0
ARC
  5
406
330
1F
100
AcDbEntity
  8
0
  6
CONTINUOUS
 62
     7
100
AcDbCircle
 10
7.4990292565
 20
-14.6487128157
 30
0.0
 40
0.0295276000000024
100
AcDbArc
 50
270.0
 51
0.0
  0
ARC
  5
407
330
1F
100
AcDbEntity
  8
0
  6
CONTINUOUS
 62
     7
100
AcDbCircle
 10
8.2249152565
 20
-11.9459570157
 30
0.0
 40
0.0295276000000033
100
AcDbArc
 50
0.0
 51
90.0
  0
ARC
  5
408
330
1F
100
AcDbEntity
  8
0
  6
CONTINUOUS
 62
     7
100
AcDbCircle
 10
7.7721594565
 20
-11.9459570157
 30
0.0
 40
0.0295276000000033
100
AcDbArc
 50
90.0
 51
180.0
  0
ARC
  5
409
330
1F
100
AcDbEntity
  8
0
  6
CONTINUOUS
 62
     7
100
AcDbCircle
 10
7.7721594565
 20
-12.3987128157
 30
0.0
 40
0.0295276000000033
100
AcDbArc
 50
180.0
 51
270.0
  0
ARC
  5
40A
330
1F
100
AcDbEntity
  8
0
  6
CONTINUOUS
 62
     7
100
AcDbCircle
 10
8.2249152565
 20
-12.3987128157
 30
0.0
 40
0.0295276000000033
100
AcDbArc
 50
270.0
 51
360.0
  0
ARC
  5
40B
330
1F
100
AcDbEntity
  8
0
  6
CONTINUOUS
 62
     7
100
AcDbCircle
 10
8.2249152565
 20
-13.0709570157
 30
0.0
 40
0.0295276000000015
100
AcDbArc
 50
0.0
 51
90.0
  0
ARC
  5
40C
330
1F
100
AcDbEntity
  8
0
  6
CONTINUOUS
 62
     7
100
AcDbCircle
 10
7.7721594565
 20
-13.0709570157
 30
0.0
 40
0.0295275999999998
100
AcDbArc
 50
90.0
 51
180.0
  0
ARC
  5
40D
330
1F
100
AcDbEntity
  8
0
  6
CONTINUOUS
 62
     7
100
AcDbCircle
 10
7.7721594565
 20
-13.5237128157
 30
0.0
 40
0.0295276000000015
100
AcDbArc
 50
180.0
 51
270.0
  0
ARC
  5
40E
330
1F
100
AcDbEntity
  8
0
  6
CONTINUOUS
 62
     7
100
AcDbCircle
 10
8.2249152565
 20
-13.5237128157
 30
0.0
 40
0.0295276000000015
100
AcDbArc
 50
270.0
 51
360.0
  0
ARC
  5
40F
330
1F
100
AcDbEntity
  8
0
  6
CONTINUOUS
 62
     7
100
AcDbCircle
 10
8.2249152565
 20
-14.1959570157
 30
0.0
 40
0.0295276000000051
100
AcDbArc
 50
0.0
 51
90.0
  0
ARC
  5
410
330
1F
100
AcDbEntity
  8
0
  6
CONTINUOUS
 62
     7
100
AcDbCircle
 10
7.7721594565
 20
-14.1959570157
 30
0.0
 40
0.0295276000000051
100
AcDbArc
 50
90.0
 51
180.0
  0
ARC
  5
411
330
1F
100
AcDbEntity
  8
0
  6
CONTINUOUS
 62
     7
100
AcDbCircle
 10
7.7721594565
 20
-14.6487128157
 30
0.0
 40
0.0295276000000033
100
AcDbArc
 50
180.0
 51
270.0
  0
ARC
  5
412
330
1F
100
AcDbEntity
  8
0
  6
CONTINUOUS
 62
     7
100
AcDbCircle
 10
8.2249152565
 20
-14.6487128157
 30
0.0
 40
0.0295276000000051
100
AcDbArc
 50
270.0
 51
360.0
  0
ARC
  5
413
330
1F
100
AcDbEntity
  8
0
  6
CONTINUOUS
 62
     7
100
AcDbCircle
 10
8.9508012565
 20
-11.9459570157
 30
0.0
 40
0.0295276000000015
100
AcDbArc
 50
360.0
 51
90.0
  0
ARC
  5
414
330
1F
100
AcDbEntity
  8
0
  6
CONTINUOUS
 62
     7
100
AcDbCircle
 10
8.4980454565
 20
-11.9459570157
 30
0.0
 40
0.0295275999999998
100
AcDbArc
 50
90.0
 51
180.0
  0
ARC
  5
415
330
1F
100
AcDbEntity
  8
0
  6
CONTINUOUS
 62
     7
100
AcDbCircle
 10
8.4980454565
 20
-12.3987128157
 30
0.0
 40
0.0295276000000033
100
AcDbArc
 50
180.0
 51
270.0
  0
ARC
  5
416
330
1F
100
AcDbEntity
  8
0
  6
CONTINUOUS
 62
     7
100
AcDbCircle
 10
8.9508012565
 20
-12.3987128157
 30
0.0
 40
0.0295276000000033
100
AcDbArc
 50
270.0
 51
360.0
  0
ARC
  5
417
330
1F
100
AcDbEntity
  8
0
  6
CONTINUOUS
 62
     7
100
AcDbCircle
 10
8.9508012565
 20
-13.0709570157
 30
0.0
 40
0.0295275999999998
100
AcDbArc
 50
0.0
 51
90.0
  0
ARC
  5
418
330
1F
100
AcDbEntity
  8
0
  6
CONTINUOUS
 62
     7
100
AcDbCircle
 10
8.4980454565
 20
-13.0709570157
 30
0.0
 40
0.0295275999999998
100
AcDbArc
 50
90.0
 51
180.0
  0
ARC
  5
419
330
1F
100
AcDbEntity
  8
0
  6
CONTINUOUS
 62
     7
100
AcDbCircle
 10
8.4980454565
 20
-13.5237128157
 30
0.0
 40
0.0295275999999998
100
AcDbArc
 50
180.0
 51
270.0
  0
ARC
  5
41A
330
1F
100
AcDbEntity
  8
0
  6
CONTINUOUS
 62
     7
100
AcDbCircle
 10
8.9508012565
 20
-13.5237128157
 30
0.0
 40
0.0295276000000015
100
AcDbArc
 50
270.0
 51
0.0
  0
ARC
  5
41B
330
1F
100
AcDbEntity
  8
0
  6
CONTINUOUS
 62
     7
100
AcDbCircle
 10
8.9508012565
 20
-14.1959570157
 30
0.0
 40
0.0295276000000015
100
AcDbArc
 50
0.0
 51
90.0
  0
ARC
  5
41C
330
1F
100
AcDbEntity
  8
0
  6
CONTINUOUS
 62
     7
100
AcDbCircle
 10
8.4980454565
 20
-14.1959570157
 30
0.0
 40
0.0295276000000015
100
AcDbArc
 50
90.0
 51
180.0
  0
ARC
  5
41D
330
1F
100
AcDbEntity
  8
0
  6
CONTINUOUS
 62
     7
100
AcDbCircle
 10
8.4980454565
 20
-14.6487128157
 30
0.0
 40
0.0295276000000033
100
AcDbArc
 50
180.0
 51
270.0
  0
ARC
  5
41E
330
1F
100
AcDbEntity
  8
0
  6
CONTINUOUS
 62
     7
100
AcDbCircle
 10
8.9508012565
 20
-14.6487128157
 30
0.0
 40
0.0295276000000015
100
AcDbArc
 50
270.0
 51
0.0
  0
ARC
  5
41F
330
1F
100
AcDbEntity
  8
0
  6
CONTINUOUS
 62
     7
100
AcDbCircle
 10
9.6766872565
 20
-11.9459570157
 30
0.0
 40
0.0295275999999998
100
AcDbArc
 50
0.0
 51
90.0
  0
ARC
  5
420
330
1F
100
AcDbEntity
  8
0
  6
CONTINUOUS
 62
     7
100
AcDbCircle
 10
9.2239314565
 20
-11.9459570157
 30
0.0
 40
0.0295276000000015
100
AcDbArc
 50
90.0
 51
180.0
  0
ARC
  5
421
330
1F
100
AcDbEntity
  8
0
  6
CONTINUOUS
 62
     7
100
AcDbCircle
 10
9.2239314565
 20
-12.3987128157
 30
0.0
 40
0.0295276000000033
100
AcDbArc
 50
180.0
 51
270.0
  0
ARC
  5
422
330
1F
100
AcDbEntity
  8
0
  6
CONTINUOUS
 62
     7
100
AcDbCircle
 10
9.6766872565
 20
-12.3987128157
 30
0.0
 40
0.0295276000000015
100
AcDbArc
 50
270.0
 51
0.0
  0
ARC
  5
423
330
1F
100
AcDbEntity
  8
0
  6
CONTINUOUS
 62
     7
100
AcDbCircle
 10
9.6766872565
 20
-13.0709570157
 30
0.0
 40
0.0295276000000015
100
AcDbArc
 50
0.0
 51
90.0
  0
ARC
  5
424
330
1F
100
AcDbEntity
  8
0
  6
CONTINUOUS
 62
     7
100
AcDbCircle
 10
9.2239314565
 20
-13.0709570157
 30
0.0
 40
0.0295275999999998
100
AcDbArc
 50
90.0
 51
180.0
  0
ARC
  5
425
330
1F
100
AcDbEntity
  8
0
  6
CONTINUOUS
 62
     7
100
AcDbCircle
 10
9.2239314565
 20
-13.5237128157
 30
0.0
 40
0.0295276000000015
100
AcDbArc
 50
180.0
 51
270.0
  0
ARC
  5
426
330
1F
100
AcDbEntity
  8
0
  6
CONTINUOUS
 62
     7
100
AcDbCircle
 10
9.6766872565
 20
-13.5237128157
 30
0.0
 40
0.0295275999999998
100
AcDbArc
 50
270.0
 51
0.0
  0
ARC
  5
427
330
1F
100
AcDbEntity
  8
0
  6
CONTINUOUS
 62
     7
100
AcDbCircle
 10
9.6766872565
 20
-14.1959570157
 30
0.0
 40
0.0295276000000051
100
AcDbArc
 50
0.0
 51
90.0
  0
ARC
  5
428
330
1F
100
AcDbEntity
  8
0
  6
CONTINUOUS
 62
     7
100
AcDbCircle
 10
9.2239314565
 20
-14.1959570157
 30
0.0
 40
0.0295276000000015
100
AcDbArc
 50
90.0
 51
180.0
  0
ARC
  5
429
330
1F
100
AcDbEntity
  8
0
  6
CONTINUOUS
 62
     7
100
AcDbCircle
 10
9.2239314565
 20
-14.6487128157
 30
0.0
 40
0.0295276000000015
100
AcDbArc
 50
180.0
 51
270.0
  0
ARC
  5
42A
330
1F
100
AcDbEntity
  8
0
  6
CONTINUOUS
 62
     7
100
AcDbCircle
 10
9.6766872565
 20
-14.6487128157
 30
0.0
 40
0.0295276000000051
100
AcDbArc
 50
270.0
 51
360.0
  0
ARC
  5
42B
330
1F
100
AcDbEntity
  8
0
  6
CONTINUOUS
 62
     7
100
AcDbCircle
 10
10.4025732565
 20
-11.9459570157
 30
0.0
 40
0.0295276000000015
100
AcDbArc
 50
360.0
 51
90.0
  0
ARC
  5
42C
330
1F
100
AcDbEntity
  8
0
  6
CONTINUOUS
 62
     7
100
AcDbCircle
 10
9.9498174565
 20
-11.9459570157
 30
0.0
 40
0.029527599999998
100
AcDbArc
 50
90.0
 51
180.0
  0
ARC
  5
42D
330
1F
100
AcDbEntity
  8
0
  6
CONTINUOUS
 62
     7
100
AcDbCircle
 10
9.9498174565
 20
-12.3987128157
 30
0.0
 40
0.0295275999999998
100
AcDbArc
 50
180.0
 51
270.0
  0
ARC
  5
42E
330
1F
100
AcDbEntity
  8
0
  6
CONTINUOUS
 62
     7
100
AcDbCircle
 10
10.4025732565
 20
-12.3987128157
 30
0.0
 40
0.0295275999999998
100
AcDbArc
 50
270.0
 51
0.0
  0
ARC
  5
42F
330
1F
100
AcDbEntity
  8
0
  6
CONTINUOUS
 62
     7
100
AcDbCircle
 10
10.4025732565
 20
-14.1959570157
 30
0.0
 40
0.0295275999999998
100
AcDbArc
 50
0.0
 51
90.0
  0
ARC
  5
430
330
1F
100
AcDbEntity
  8
0
  6
CONTINUOUS
 62
     7
100
AcDbCircle
 10
9.9498174565
 20
-14.1959570157
 30
0.0
 40
0.0295275999999998
100
AcDbArc
 50
90.0
 51
180.0
  0
ARC
  5
431
330
1F
100
AcDbEntity
  8
0
  6
CONTINUOUS
 62
     7
100
AcDbCircle
 10
9.9498174565
 20
-14.6487128157
 30
0.0
 40
0.0295276000000015
100
AcDbArc
 50
180.0
 51
270.0
  0
ARC
  5
432
330
1F
100
AcDbEntity
  8
0
  6
CONTINUOUS
 62
     7
100
AcDbCircle
 10
10.4025732565
 20
-14.6487128157
 30
0.0
 40
0.0295276000000015
100
AcDbArc
 50
270.0
 51
0.0
  0
ARC
  5
433
330
1F
100
AcDbEntity
  8
0
  6
CONTINUOUS
 62
     7
100
AcDbCircle
 10
11.1284592565
 20
-11.9459570157
 30
0.0
 40
0.0295276000000033
100
AcDbArc
 50
0.0
 51
90.0
  0
ARC
  5
434
330
1F
100
AcDbEntity
  8
0
  6
CONTINUOUS
 62
     7
100
AcDbCircle
 10
10.6757034565
 20
-11.9459570157
 30
0.0
 40
0.029527599999998
100
AcDbArc
 50
90.0
 51
180.0
  0
ARC
  5
435
330
1F
100
AcDbEntity
  8
0
  6
CONTINUOUS
 62
     7
100
AcDbCircle
 10
10.6757034565
 20
-12.3987128157
 30
0.0
 40
0.0295275999999998
100
AcDbArc
 50
180.0
 51
270.0
  0
ARC
  5
436
330
1F
100
AcDbEntity
  8
0
  6
CONTINUOUS
 62
     7
100
AcDbCircle
 10
11.1284592565
 20
-12.3987128157
 30
0.0
 40
0.0295275999999998
100
AcDbArc
 50
270.0
 51
0.0
  0
ARC
  5
437
330
1F
100
AcDbEntity
  8
0
  6
CONTINUOUS
 62
     7
100
AcDbCircle
 10
11.1284592565
 20
-13.0709570157
 30
0.0
 40
0.0295276000000051
100
AcDbArc
 50
0.0
 51
90.0
  0
ARC
  5
438
330
1F
100
AcDbEntity
  8
0
  6
CONTINUOUS
 62
     7
100
AcDbCircle
 10
10.6757034565
 20
-13.0709570157
 30
0.0
 40
0.029527599999998
100
AcDbArc
 50
90.0
 51
180.0
  0
ARC
  5
439
330
1F
100
AcDbEntity
  8
0
  6
CONTINUOUS
 62
     7
100
AcDbCircle
 10
10.6757034565
 20
-13.5237128157
 30
0.0
 40
0.029527599999998
100
AcDbArc
 50
180.0
 51
270.0
  0
ARC
  5
43A
330
1F
100
AcDbEntity
  8
0
  6
CONTINUOUS
 62
     7
100
AcDbCircle
 10
11.1284592565
 20
-13.5237128157
 30
0.0
 40
0.0295275999999998
100
AcDbArc
 50
270.0
 51
0.0
  0
ARC
  5
43B
330
1F
100
AcDbEntity
  8
0
  6
CONTINUOUS
 62
     7
100
AcDbCircle
 10
11.1284592565
 20
-14.1959570157
 30
0.0
 40
0.0295276000000051
100
AcDbArc
 50
0.0
 51
90.0
  0
ARC
  5
43C
330
1F
100
AcDbEntity
  8
0
  6
CONTINUOUS
 62
     7
100
AcDbCircle
 10
10.6757034565
 20
-14.1959570157
 30
0.0
 40
0.0295275999999998
100
AcDbArc
 50
90.0
 51
180.0
  0
ARC
  5
43D
330
1F
100
AcDbEntity
  8
0
  6
CONTINUOUS
 62
     7
100
AcDbCircle
 10
10.6757034565
 20
-14.6487128157
 30
0.0
 40
0.0295275999999998
100
AcDbArc
 50
180.0
 51
270.0
  0
ARC
  5
43E
330
1F
100
AcDbEntity
  8
0
  6
CONTINUOUS
 62
     7
100
AcDbCircle
 10
11.1284592565
 20
-14.6487128157
 30
0.0
 40
0.0295276000000015
100
AcDbArc
 50
270.0
 51
0.0
  0
ARC
  5
43F
330
1F
100
AcDbEntity
  8
0
  6
CONTINUOUS
 62
     7
100
AcDbCircle
 10
11.8543452565
 20
-11.9459570157
 30
0.0
 40
0.0295276000000015
100
AcDbArc
 50
360.0
 51
90.0
  0
ARC
  5
440
330
1F
100
AcDbEntity
  8
0
  6
CONTINUOUS
 62
     7
100
AcDbCircle
 10
11.4015894565
 20
-11.9459570157
 30
0.0
 40
0.0295275999999998
100
AcDbArc
 50
90.0
 51
180.0
  0
ARC
  5
441
330
1F
100
AcDbEntity
  8
0
  6
CONTINUOUS
 62
     7
100
AcDbCircle
 10
11.4015894565
 20
-12.3987128157
 30
0.0
 40
0.0295276000000069
100
AcDbArc
 50
180.0
 51
270.0
  0
ARC
  5
442
330
1F
100
AcDbEntity
  8
0
  6
CONTINUOUS
 62
     7
100
AcDbCircle
 10
11.8543452565
 20
-12.3987128157
 30
0.0
 40
0.0295276000000033
100
AcDbArc
 50
270.0
 51
360.0
  0
ARC
  5
443
330
1F
100
AcDbEntity
  8
0
  6
CONTINUOUS
 62
     7
100
AcDbCircle
 10
11.8543452565
 20
-13.0709570157
 30
0.0
 40
0.0295275999999998
100
AcDbArc
 50
0.0
 51
90.0
  0
ARC
  5
444
330
1F
100
AcDbEntity
  8
0
  6
CONTINUOUS
 62
     7
100
AcDbCircle
 10
11.4015894565
 20
-13.0709570157
 30
0.0
 40
0.0295275999999998
100
AcDbArc
 50
90.0
 51
180.0
  0
ARC
  5
445
330
1F
100
AcDbEntity
  8
0
  6
CONTINUOUS
 62
     7
100
AcDbCircle
 10
11.4015894565
 20
-13.5237128157
 30
0.0
 40
0.0295276000000015
100
AcDbArc
 50
180.0
 51
270.0
  0
ARC
  5
446
330
1F
100
AcDbEntity
  8
0
  6
CONTINUOUS
 62
     7
100
AcDbCircle
 10
11.8543452565
 20
-13.5237128157
 30
0.0
 40
0.0295276000000015
100
AcDbArc
 50
270.0
 51
0.0
  0
ARC
  5
447
330
1F
100
AcDbEntity
  8
0
  6
CONTINUOUS
 62
     7
100
AcDbCircle
 10
11.8543452565
 20
-14.1959570157
 30
0.0
 40
0.0295276000000015
100
AcDbArc
 50
0.0
 51
90.0
  0
ARC
  5
448
330
1F
100
AcDbEntity
  8
0
  6
CONTINUOUS
 62
     7
100
AcDbCircle
 10
11.4015894565
 20
-14.1959570157
 30
0.0
 40
0.0295276000000015
100
AcDbArc
 50
90.0
 51
180.0
  0
ARC
  5
449
330
1F
100
AcDbEntity
  8
0
  6
CONTINUOUS
 62
     7
100
AcDbCircle
 10
11.4015894565
 20
-14.6487128157
 30
0.0
 40
0.0295276000000051
100
AcDbArc
 50
180.0
 51
270.0
  0
ARC
  5
44A
330
1F
100
AcDbEntity
  8
0
  6
CONTINUOUS
 62
     7
100
AcDbCircle
 10
11.8543452565
 20
-14.6487128157
 30
0.0
 40
0.0295276000000015
100
AcDbArc
 50
270.0
 51
0.0
  0
ARC
  5
44B
330
1F
100
AcDbEntity
  8
0
  6
CONTINUOUS
 62
     7
100
AcDbCircle
 10
12.5802312565
 20
-11.9459570157
 30
0.0
 40
0.0295276000000033
100
AcDbArc
 50
360.0
 51
90.0
  0
ARC
  5
44C
330
1F
100
AcDbEntity
  8
0
  6
CONTINUOUS
 62
     7
100
AcDbCircle
 10
12.1274754565
 20
-11.9459570157
 30
0.0
 40
0.029527599999998
100
AcDbArc
 50
90.0
 51
180.0
  0
ARC
  5
44D
330
1F
100
AcDbEntity
  8
0
  6
CONTINUOUS
 62
     7
100
AcDbCircle
 10
12.1274754565
 20
-12.3987128157
 30
0.0
 40
0.0295276000000015
100
AcDbArc
 50
180.0
 51
270.0
  0
ARC
  5
44E
330
1F
100
AcDbEntity
  8
0
  6
CONTINUOUS
 62
     7
100
AcDbCircle
 10
12.5802312565
 20
-12.3987128157
 30
0.0
 40
0.0295276000000033
100
AcDbArc
 50
270.0
 51
360.0
  0
ARC
  5
44F
330
1F
100
AcDbEntity
  8
0
  6
CONTINUOUS
 62
     7
100
AcDbCircle
 10
19.7503568565
 20
-11.9459349157
 30
0.0
 40
0.0295000000000094
100
AcDbArc
 50
0.0
 51
90.0
  0
ARC
  5
450
330
1F
100
AcDbEntity
  8
0
  6
CONTINUOUS
 62
     7
100
AcDbCircle
 10
19.2975458565
 20
-11.9459349157
 30
0.0
 40
0.0295000000000023
100
AcDbArc
 50
90.0
 51
180.0
  0
ARC
  5
451
330
1F
100
AcDbEntity
  8
0
  6
CONTINUOUS
 62
     7
100
AcDbCircle
 10
19.2975458565
 20
-12.3987459157
 30
0.0
 40
0.0294999999999987
100
AcDbArc
 50
180.0
 51
270.0
  0
ARC
  5
452
330
1F
100
AcDbEntity
  8
0
  6
CONTINUOUS
 62
     7
100
AcDbCircle
 10
19.7503568565
 20
-12.3987459157
 30
0.0
 40
0.0294999999999987
100
AcDbArc
 50
270.0
 51
0.0
  0
ARC
  5
453
330
1F
100
AcDbEntity
  8
0
  6
CONTINUOUS
 62
     7
100
AcDbCircle
 10
18.5716598565
 20
-12.3987459157
 30
0.0
 40
0.0295000000000005
100
AcDbArc
 50
180.0
 51
270.0
  0
ARC
  5
454
330
1F
100
AcDbEntity
  8
0
  6
CONTINUOUS
 62
     7
100
AcDbCircle
 10
19.0244708565
 20
-12.3987459157
 30
0.0
 40
0.0295000000000005
100
AcDbArc
 50
270.0
 51
0.0
  0
ARC
  5
455
330
1F
100
AcDbEntity
  8
0
  6
CONTINUOUS
 62
     7
100
AcDbCircle
 10
19.0244708565
 20
-11.9459349157
 30
0.0
 40
0.0294999999999952
100
AcDbArc
 50
360.0
 51
90.0
  0
ARC
  5
456
330
1F
100
AcDbEntity
  8
0
  6
CONTINUOUS
 62
     7
100
AcDbCircle
 10
18.5716598565
 20
-11.9459349157
 30
0.0
 40
0.0295000000000023
100
AcDbArc
 50
90.0
 51
180.0
  0
ARC
  5
457
330
1F
100
AcDbEntity
  8
0
  6
CONTINUOUS
 62
     7
100
AcDbCircle
 10
9.9498174565
 20
-13.0709570157
 30
0.0
 40
0.0295275999999998
100
AcDbArc
 50
90.0
 51
180.0
  0
ARC
  5
458
330
1F
100
AcDbEntity
  8
0
  6
CONTINUOUS
 62
     7
100
AcDbCircle
 10
9.9498174565
 20
-13.5237128157
 30
0.0
 40
0.0295275999999998
100
AcDbArc
 50
180.0
 51
270.0
  0
ARC
  5
459
330
1F
100
AcDbEntity
  8
0
  6
CONTINUOUS
 62
     7
100
AcDbCircle
 10
10.4025732565
 20
-13.5237128157
 30
0.0
 40
0.0295275999999998
100
AcDbArc
 50
270.0
 51
0.0
  0
ARC
  5
45A
330
1F
100
AcDbEntity
  8
0
  6
CONTINUOUS
 62
     7
100
AcDbCircle
 10
10.4025732565
 20
-13.0709570157
 30
0.0
 40
0.0295275999999998
100
AcDbArc
 50
0.0
 51
90.0
  0
ARC
  5
45B
330
1F
100
AcDbEntity
  8
0
  6
CONTINUOUS
 62
     7
100
AcDbCircle
 10
4.2530789565
 20
-9.8606570157
 30
0.0
 40
0.0295275999999998
100
AcDbArc
 50
90.0
 51
180.0
  0
ARC
  5
45C
330
1F
100
AcDbEntity
  8
0
  6
CONTINUOUS
 62
     7
100
AcDbCircle
 10
4.2530789565
 20
-10.3134128157
 30
0.0
 40
0.0295275999999998
100
AcDbArc
 50
180.0
 51
270.0
  0
ARC
  5
45D
330
1F
100
AcDbEntity
  8
0
  6
CONTINUOUS
 62
     7
100
AcDbCircle
 10
4.7058347565
 20
-10.3134128157
 30
0.0
 40
0.0295275999999998
100
AcDbArc
 50
270.0
 51
0.0
  0
ARC
  5
45E
330
1F
100
AcDbEntity
  8
0
  6
CONTINUOUS
 62
     7
100
AcDbCircle
 10
4.7058347565
 20
-9.8606570157
 30
0.0
 40
0.0295276000000015
100
AcDbArc
 50
0.0
 51
90.0
  0
ARC
  5
45F
330
1F
100
AcDbEntity
  8
0
  6
CONTINUOUS
 62
     7
100
AcDbCircle
 10
4.2530789565
 20
-10.5865430157
 30
0.0
 40
0.0295276000000015
100
AcDbArc
 50
90.0
 51
180.0
  0
ARC
  5
460
330
1F
100
AcDbEntity
  8
0
  6
CONTINUOUS
 62
     7
100
AcDbCircle
 10
4.2530789565
 20
-11.0392988157
 30
0.0
 40
0.0295275999999998
100
AcDbArc
 50
180.0
 51
270.0
  0
ARC
  5
461
330
1F
100
AcDbEntity
  8
0
  6
CONTINUOUS
 62
     7
100
AcDbCircle
 10
4.7058347565
 20
-11.0392988157
 30
0.0
 40
0.0295275999999989
100
AcDbArc
 50
270.0
 51
0.0
  0
ARC
  5
462
330
1F
100
AcDbEntity
  8
0
  6
CONTINUOUS
 62
     7
100
AcDbCircle
 10
4.7058347565
 20
-10.5865430157
 30
0.0
 40
0.0295275999999989
100
AcDbArc
 50
360.0
 51
90.0
  0
ARC
  5
463
330
1F
100
AcDbEntity
  8
0
  6
CONTINUOUS
 62
     7
100
AcDbCircle
 10
4.2530789565
 20
-11.3124290157
 30
0.0
 40
0.0295276000000007
100
AcDbArc
 50
90.0
 51
180.0
  0
ARC
  5
464
330
1F
100
AcDbEntity
  8
0
  6
CONTINUOUS
 62
     7
100
AcDbCircle
 10
4.2530789565
 20
-11.7651848157
 30
0.0
 40
0.0295276000000015
100
AcDbArc
 50
180.0
 51
270.0
  0
ARC
  5
465
330
1F
100
AcDbEntity
  8
0
  6
CONTINUOUS
 62
     7
100
AcDbCircle
 10
4.7058347565
 20
-11.7651848157
 30
0.0
 40
0.0295275999999998
100
AcDbArc
 50
270.0
 51
0.0
  0
ARC
  5
466
330
1F
100
AcDbEntity
  8
0
  6
CONTINUOUS
 62
     7
100
AcDbCircle
 10
4.7058347565
 20
-11.3124290157
 30
0.0
 40
0.0295276000000024
100
AcDbArc
 50
360.0
 51
90.0
  0
ARC
  5
467
330
1F
100
AcDbEntity
  8
0
  6
CONTINUOUS
 62
     7
100
AcDbCircle
 10
4.2530789565
 20
-12.0383150157
 30
0.0
 40
0.0295275999999998
100
AcDbArc
 50
90.0
 51
180.0
  0
ARC
  5
468
330
1F
100
AcDbEntity
  8
0
  6
CONTINUOUS
 62
     7
100
AcDbCircle
 10
4.2530789565
 20
-12.4910708157
 30
0.0
 40
0.0295275999999998
100
AcDbArc
 50
180.0
 51
270.0
  0
ARC
  5
469
330
1F
100
AcDbEntity
  8
0
  6
CONTINUOUS
 62
     7
100
AcDbCircle
 10
4.7058347565
 20
-12.4910708157
 30
0.0
 40
0.0295275999999998
100
AcDbArc
 50
270.0
 51
0.0
  0
ARC
  5
46A
330
1F
100
AcDbEntity
  8
0
  6
CONTINUOUS
 62
     7
100
AcDbCircle
 10
4.7058347565
 20
-12.0383150157
 30
0.0
 40
0.0295276000000015
100
AcDbArc
 50
0.0
 51
90.0
  0
ARC
  5
46B
330
1F
100
AcDbEntity
  8
0
  6
CONTINUOUS
 62
     7
100
AcDbCircle
 10
5.0904789565
 20
-9.8606570157
 30
0.0
 40
0.0295275999999998
100
AcDbArc
 50
90.0
 51
180.0
  0
ARC
  5
46C
330
1F
100
AcDbEntity
  8
0
  6
CONTINUOUS
 62
     7
100
AcDbCircle
 10
5.0904789565
 20
-10.3134128157
 30
0.0
 40
0.0295276000000015
100
AcDbArc
 50
180.0
 51
270.0
  0
ARC
  5
46D
330
1F
100
AcDbEntity
  8
0
  6
CONTINUOUS
 62
     7
100
AcDbCircle
 10
5.5432347565
 20
-10.3134128157
 30
0.0
 40
0.0295276000000033
100
AcDbArc
 50
270.0
 51
360.0
  0
ARC
  5
46E
330
1F
100
AcDbEntity
  8
0
  6
CONTINUOUS
 62
     7
100
AcDbCircle
 10
5.5432347565
 20
-9.8606570157
 30
0.0
 40
0.0295276000000033
100
AcDbArc
 50
0.0
 51
90.0
  0
ARC
  5
46F
330
1F
100
AcDbEntity
  8
0
  6
CONTINUOUS
 62
     7
100
AcDbCircle
 10
5.0904789565
 20
-10.5865430157
 30
0.0
 40
0.0295276000000033
100
AcDbArc
 50
90.0
 51
180.0
  0
ARC
  5
470
330
1F
100
AcDbEntity
  8
0
  6
CONTINUOUS
 62
     7
100
AcDbCircle
 10
5.0904789565
 20
-11.0392988157
 30
0.0
 40
0.0295276000000015
100
AcDbArc
 50
180.0
 51
270.0
  0
ARC
  5
471
330
1F
100
AcDbEntity
  8
0
  6
CONTINUOUS
 62
     7
100
AcDbCircle
 10
5.5432347565
 20
-11.0392988157
 30
0.0
 40
0.0295276000000033
100
AcDbArc
 50
270.0
 51
360.0
  0
ARC
  5
472
330
1F
100
AcDbEntity
  8
0
  6
CONTINUOUS
 62
     7
100
AcDbCircle
 10
5.5432347565
 20
-10.5865430157
 30
0.0
 40
0.0295276000000033
100
AcDbArc
 50
0.0
 51
90.0
  0
ARC
  5
473
330
1F
100
AcDbEntity
  8
0
  6
CONTINUOUS
 62
     7
100
AcDbCircle
 10
5.0904789565
 20
-11.3124290157
 30
0.0
 40
0.029527600000006
100
AcDbArc
 50
90.0
 51
180.0
  0
ARC
  5
474
330
1F
100
AcDbEntity
  8
0
  6
CONTINUOUS
 62
     7
100
AcDbCircle
 10
5.0904789565
 20
-11.7651848157
 30
0.0
 40
0.0295276000000015
100
AcDbArc
 50
180.0
 51
270.0
  0
ARC
  5
475
330
1F
100
AcDbEntity
  8
0
  6
CONTINUOUS
 62
     7
100
AcDbCircle
 10
5.5432347565
 20
-11.7651848157
 30
0.0
 40
0.0295276000000024
100
AcDbArc
 50
270.0
 51
0.0
  0
ARC
  5
476
330
1F
100
AcDbEntity
  8
0
  6
CONTINUOUS
 62
     7
100
AcDbCircle
 10
5.5432347565
 20
-11.3124290157
 30
0.0
 40
0.0295276000000086
100
AcDbArc
 50
0.0
 51
90.0
  0
ARC
  5
477
330
1F
100
AcDbEntity
  8
0
  6
CONTINUOUS
 62
     7
100
AcDbCircle
 10
5.0904789565
 20
-12.0383150157
 30
0.0
 40
0.0295276000000015
100
AcDbArc
 50
90.0
 51
180.0
  0
ARC
  5
478
330
1F
100
AcDbEntity
  8
0
  6
CONTINUOUS
 62
     7
100
AcDbCircle
 10
5.0904789565
 20
-12.4910708157
 30
0.0
 40
0.0295276000000015
100
AcDbArc
 50
180.0
 51
270.0
  0
ARC
  5
479
330
1F
100
AcDbEntity
  8
0
  6
CONTINUOUS
 62
     7
100
AcDbCircle
 10
5.5432347565
 20
-12.4910708157
 30
0.0
 40
0.0295276000000033
100
AcDbArc
 50
270.0
 51
360.0
  0
ARC
  5
47A
330
1F
100
AcDbEntity
  8
0
  6
CONTINUOUS
 62
     7
100
AcDbCircle
 10
5.5432347565
 20
-12.0383150157
 30
0.0
 40
0.0295276000000033
100
AcDbArc
 50
0.0
 51
90.0
  0
ARC
  5
47B
330
1F
100
AcDbEntity
  8
0
  6
CONTINUOUS
 62
     7
100
AcDbCircle
 10
4.2530789565
 20
-12.9237570551
 30
0.0
 40
0.0295276000000015
100
AcDbArc
 50
90.0
 51
180.0
  0
ARC
  5
47C
330
1F
100
AcDbEntity
  8
0
  6
CONTINUOUS
 62
     7
100
AcDbCircle
 10
4.2530789565
 20
-13.3765128551
 30
0.0
 40
0.0295276000000033
100
AcDbArc
 50
180.0
 51
270.0
  0
ARC
  5
47D
330
1F
100
AcDbEntity
  8
0
  6
CONTINUOUS
 62
     7
100
AcDbCircle
 10
4.7058347565
 20
-13.3765128551
 30
0.0
 40
0.0295276000000007
100
AcDbArc
 50
270.0
 51
0.0
  0
ARC
  5
47E
330
1F
100
AcDbEntity
  8
0
  6
CONTINUOUS
 62
     7
100
AcDbCircle
 10
4.7058347565
 20
-12.9237570551
 30
0.0
 40
0.0295275999999998
100
AcDbArc
 50
0.0
 51
90.0
  0
ARC
  5
47F
330
1F
100
AcDbEntity
  8
0
  6
CONTINUOUS
 62
     7
100
AcDbCircle
 10
4.2530789565
 20
-13.6496430551
 30
0.0
 40
0.0295276000000015
100
AcDbArc
 50
90.0
 51
180.0
  0
ARC
  5
480
330
1F
100
AcDbEntity
  8
0
  6
CONTINUOUS
 62
     7
100
AcDbCircle
 10
4.2530789565
 20
-14.1023988551
 30
0.0
 40
0.0295276000000033
100
AcDbArc
 50
180.0
 51
270.0
  0
ARC
  5
481
330
1F
100
AcDbEntity
  8
0
  6
CONTINUOUS
 62
     7
100
AcDbCircle
 10
4.7058347565
 20
-14.1023988551
 30
0.0
 40
0.0295276000000051
100
AcDbArc
 50
270.0
 51
360.0
  0
ARC
  5
482
330
1F
100
AcDbEntity
  8
0
  6
CONTINUOUS
 62
     7
100
AcDbCircle
 10
4.7058347565
 20
-13.6496430551
 30
0.0
 40
0.0295276000000051
100
AcDbArc
 50
0.0
 51
90.0
  0
ARC
  5
483
330
1F
100
AcDbEntity
  8
0
  6
CONTINUOUS
 62
     7
100
AcDbCircle
 10
5.0904789565
 20
-12.9237570551
 30
0.0
 40
0.0295276000000007
100
AcDbArc
 50
90.0
 51
180.0
  0
ARC
  5
484
330
1F
100
AcDbEntity
  8
0
  6
CONTINUOUS
 62
     7
100
AcDbCircle
 10
5.0904789565
 20
-13.3765128551
 30
0.0
 40
0.0295276000000033
100
AcDbArc
 50
180.0
 51
270.0
  0
ARC
  5
485
330
1F
100
AcDbEntity
  8
0
  6
CONTINUOUS
 62
     7
100
AcDbCircle
 10
5.5432347565
 20
-13.3765128551
 30
0.0
 40
0.0295276000000033
100
AcDbArc
 50
270.0
 51
360.0
  0
ARC
  5
486
330
1F
100
AcDbEntity
  8
0
  6
CONTINUOUS
 62
     7
100
AcDbCircle
 10
5.5432347565
 20
-12.9237570551
 30
0.0
 40
0.0295276000000024
100
AcDbArc
 50
0.0
 51
90.0
  0
ARC
  5
487
330
1F
100
AcDbEntity
  8
0
  6
CONTINUOUS
 62
     7
100
AcDbCircle
 10
5.0904789565
 20
-13.6496430551
 30
0.0
 40
0.0295276000000033
100
AcDbArc
 50
90.0
 51
180.0
  0
ARC
  5
488
330
1F
100
AcDbEntity
  8
0
  6
CONTINUOUS
 62
     7
100
AcDbCircle
 10
5.0904789565
 20
-14.1023988551
 30
0.0
 40
0.0295276000000015
100
AcDbArc
 50
180.0
 51
270.0
  0
ARC
  5
489
330
1F
100
AcDbEntity
  8
0
  6
CONTINUOUS
 62
     7
100
AcDbCircle
 10
5.5432347565
 20
-14.1023988551
 30
0.0
 40
0.0295275999999998
100
AcDbArc
 50
270.0
 51
0.0
  0
ARC
  5
48A
330
1F
100
AcDbEntity
  8
0
  6
CONTINUOUS
 62
     7
100
AcDbCircle
 10
5.5432347565
 20
-13.6496430551
 30
0.0
 40
0.0295276000000033
100
AcDbArc
 50
0.0
 51
90.0
  0
ARC
  5
48B
330
1F
100
AcDbEntity
  8
0
  6
CONTINUOUS
 62
     7
100
AcDbCircle
 10
4.2530789565
 20
-14.4723791023
 30
0.0
 40
0.0295276000000015
100
AcDbArc
 50
90.0
 51
180.0
  0
ARC
  5
48C
330
1F
100
AcDbEntity
  8
0
  6
CONTINUOUS
 62
     7
100
AcDbCircle
 10
4.2530789565
 20
-14.9251349023
 30
0.0
 40
0.0295276000000033
100
AcDbArc
 50
180.0
 51
270.0
  0
ARC
  5
48D
330
1F
100
AcDbEntity
  8
0
  6
CONTINUOUS
 62
     7
100
AcDbCircle
 10
4.7058347565
 20
-14.9251349023
 30
0.0
 40
0.0295276000000033
100
AcDbArc
 50
270.0
 51
360.0
  0
ARC
  5
48E
330
1F
100
AcDbEntity
  8
0
  6
CONTINUOUS
 62
     7
100
AcDbCircle
 10
4.7058347565
 20
-14.4723791023
 30
0.0
 40
0.0295276000000015
100
AcDbArc
 50
0.0
 51
90.0
  0
ARC
  5
48F
330
1F
100
AcDbEntity
  8
0
  6
CONTINUOUS
 62
     7
100
AcDbCircle
 10
5.0904785628
 20
-14.4723791023
 30
0.0
 40
0.0295276000000015
100
AcDbArc
 50
90.0
 51
180.0
  0
ARC
  5
490
330
1F
100
AcDbEntity
  8
0
  6
CONTINUOUS
 62
     7
100
AcDbCircle
 10
5.0904785628
 20
-14.9251349023
 30
0.0
 40
0.0295276000000033
100
AcDbArc
 50
180.0
 51
270.0
  0
ARC
  5
491
330
1F
100
AcDbEntity
  8
0
  6
CONTINUOUS
 62
     7
100
AcDbCircle
 10
5.5432343628
 20
-14.9251349023
 30
0.0
 40
0.0295276000000033
100
AcDbArc
 50
270.0
 51
360.0
  0
ARC
  5
492
330
1F
100
AcDbEntity
  8
0
  6
CONTINUOUS
 62
     7
100
AcDbCircle
 10
5.5432343628
 20
-14.4723791023
 30
0.0
 40
0.0295276000000015
100
AcDbArc
 50
0.0
 51
90.0
  0
ENDSEC
  0
SECTION
  2
OBJECTS
  0
DICTIONARY
  5
C
330
0
100
AcDbDictionary
  3
ACAD_GROUP
350
D
  3
ACAD_MLINESTYLE
350
17
  3
ACAD_SCALELIST
350
47
1001
ACAD
1000
TREAT_AS_HARD
1070
     0
  0
DICTIONARY
  5
D
102
{ACAD_REACTORS
330
C
102
}
330
C
100
AcDbDictionary
1001
ACAD
1000
TREAT_AS_HARD
1070
     0
  0
DICTIONARY
  5
17
102
{ACAD_REACTORS
330
C
102
}
330
C
100
AcDbDictionary
  3
STANDARD
350
18
1001
ACAD
1000
TREAT_AS_HARD
1070
     0
  0
DICTIONARY
  5
47
102
{ACAD_REACTORS
330
C
102
}
330
C
100
AcDbDictionary
1001
ACAD
1000
TREAT_AS_HARD
1070
     0
  0
MLINESTYLE
  5
18
102
{ACAD_REACTORS
330
17
102
}
330
17
100
AcDbMlineStyle
  2
Standard
 70
     0
  3

 62
   256
 51
90.0
 52
90.0
 71
     2
 49
0.5
 62
   256
  6
BYLAYER
 49
-0.5
 62
   256
  6
BYLAYER
  0
ENDSEC
  0
EOF
